<?xml version="1.0" encoding="utf-8"?>
<!-- Generator: Adobe Illustrator 18.0.0, SVG Export Plug-In . SVG Version: 6.00 Build 0)  -->
<!DOCTYPE svg PUBLIC "-//W3C//DTD SVG 1.1//EN" "http://www.w3.org/Graphics/SVG/1.1/DTD/svg11.dtd">
<svg version="1.1" id="Capa_1" xmlns="http://www.w3.org/2000/svg" xmlns:xlink="http://www.w3.org/1999/xlink" x="0px" y="0px"
	 viewBox="0 0 960 560" enable-background="new 0 0 960 560" xml:space="preserve">
<path fill="#FFFFFF" d="M899.3,8.7H60.3c-20.4,0-37,16.6-37,37V72h912.9V45.7C936.3,25.2,919.7,8.7,899.3,8.7z"/>
<path fill="#F7F7F8" d="M177.3,60h759v450.5c0,23.6-19.2,42.8-42.8,42.8H177.3V60z"/>
<path fill="#FF9639" d="M189.4,553H63.9c-22.2,0-40.1-18-40.1-40.1V63h165.7V553z"/>
<path fill="#CCCCCC" d="M146.2,48.5H68.1c-7.7,0-14-6.3-14-14l0,0c0-7.7,6.3-14,14-14h78.4c7.7,0,14,6.3,14,14l0,0
	C160.2,42.2,154.2,48.5,146.2,48.5z"/>
<circle fill="#FF9639" cx="226.7" cy="35.2" r="13.5"/>
<circle fill="#CCCCCC" cx="863.7" cy="35.2" r="13.5"/>
<g>
	<path fill="#FFFFFF" d="M92.6,128.6h63.9c5.6,0,10-4.9,10-10.5s-4.4-10.5-10-10.5H92.6c-5.6,0-10,4.9-10,10.5S87,128.6,92.6,128.6z
		"/>
	<path fill="#FFFFFF" d="M61.8,108c-6.1,0-11,4.9-11,11c0,6.1,4.9,11,11,11s11-4.9,11-11C72.7,112.9,67.8,108,61.8,108z"/>
	<path fill="#FFFFFF" d="M156.5,163.6H92.6c-5.6,0-10,4.9-10,10.5c0,5.6,4.4,10.5,10,10.5h63.9c5.6,0,10-4.9,10-10.5
		C166.8,168.5,162.1,163.6,156.5,163.6z"/>
	<path fill="#FFFFFF" d="M61.8,163.3c-6.1,0-11,4.9-11,11s4.9,11,11,11s11-4.9,11-11S67.8,163.3,61.8,163.3z"/>
	<path fill="#FFFFFF" d="M156.5,219.6H92.6c-5.6,0-10,3.7-10,9.3c0,5.6,4.4,9.3,10,9.3h63.9c5.6,0,10-3.7,10-9.3
		C166.5,223.3,162.1,219.6,156.5,219.6z"/>
	<path fill="#FFFFFF" d="M61.8,218.6c-6.1,0-11,4.9-11,11s4.9,11,11,11s11-4.9,11-11C72.7,223.5,67.8,218.6,61.8,218.6z"/>
	<path fill="#FFFFFF" d="M156.5,273.2H92.6c-5.6,0-10,4.9-10,10.5c0,5.6,4.4,10.5,10,10.5h63.9c5.6,0,10-4.9,10-10.5
		C166.5,278.1,162.1,273.2,156.5,273.2z"/>
	<path fill="#FFFFFF" d="M61.8,273.7c-6.1,0-11,4.9-11,11s4.9,11,11,11s11-4.9,11-11S67.8,273.7,61.8,273.7z"/>
	<path fill="#FFFFFF" d="M156.5,329.2H92.6c-5.6,0-10,4.9-10,10.5s4.4,10.5,10,10.5h63.9c5.6,0,10-4.9,10-10.5
		S162.1,329.2,156.5,329.2z"/>
	<path fill="#FFFFFF" d="M61.8,329c-6.1,0-11,4.9-11,11c0,6.1,4.9,11,11,11s11-4.9,11-11S67.8,329,61.8,329z"/>
	<path fill="#FFFFFF" d="M156.5,385.2H92.6c-5.6,0-10,3.7-10,9.3c0,5.6,4.4,9.3,10,9.3h63.9c5.6,0,10-3.7,10-9.3
		C166.5,389,162.1,385.2,156.5,385.2z"/>
	<path fill="#FFFFFF" d="M61.8,384.3c-6.1,0-11,4.9-11,11c0,6.1,4.9,11,11,11s11-4.9,11-11S67.8,384.3,61.8,384.3z"/>
</g>
<path fill="#FF9639" d="M222.1,128.3h175.2c5.6,0,10-4.9,10-10.5s-4.4-10.5-10-10.5H222.1c-5.6,0-10,4.9-10,10.5
	S216.4,128.3,222.1,128.3z"/>
<path fill="#CCCCCC" d="M607.5,163.6H219.9c-5.6,0-10,4.9-10,10.5c0,5.6,4.4,10.5,10,10.5h387.6c5.6,0,10-4.9,10-10.5
	C617.5,168.5,613.1,163.6,607.5,163.6z"/>
<path fill="#FFCE00" d="M706.2,163.6H643c-5.6,0-10,4.9-10,10.5c0,5.6,4.4,10.5,10,10.5h63.2c5.6,0,10-4.9,10-10.5
	C716.2,168.5,711.8,163.6,706.2,163.6z"/>
<path fill="#23CC23" d="M806.5,163.3h-63.2c-5.6,0-10,4.9-10,10.5s4.4,10.5,10,10.5h63.2c5.6,0,10-4.9,10-10.5
	S812.1,163.3,806.5,163.3z"/>
<path fill="#FF9639" d="M843.6,184.3h63.2c5.6,0,10-4.9,10-10.5s-4.4-10.5-10-10.5h-63.2c-5.6,0-10,4.9-10,10.5
	S838,184.3,843.6,184.3z"/>
<path fill="#CCCCCC" d="M607.5,212.6H219.9c-5.6,0-10,4.9-10,10.5c0,5.6,4.4,10.5,10,10.5h387.6c5.6,0,10-4.9,10-10.5
	C617.5,217.5,613.1,212.6,607.5,212.6z"/>
<path fill="#FFCE00" d="M706.2,212.6H643c-5.6,0-10,4.9-10,10.5c0,5.6,4.4,10.5,10,10.5h63.2c5.6,0,10-4.9,10-10.5
	C716.2,217.5,711.8,212.6,706.2,212.6z"/>
<path fill="#23CC23" d="M806.5,212.3h-63.2c-5.6,0-10,4.9-10,10.5s4.4,10.5,10,10.5h63.2c5.6,0,10-4.9,10-10.5
	S812.1,212.3,806.5,212.3z"/>
<path fill="#FF9639" d="M906.9,212.3h-63.2c-5.6,0-10,4.9-10,10.5s4.4,10.5,10,10.5h63.2c5.6,0,10-4.9,10-10.5
	S912.5,212.3,906.9,212.3z"/>
</svg>
