<?xml version="1.0" encoding="utf-8"?>
<!-- Generator: Adobe Illustrator 19.0.0, SVG Export Plug-In . SVG Version: 6.00 Build 0)  -->
<svg version="1.1" id="Layer_1" xmlns="http://www.w3.org/2000/svg" xmlns:xlink="http://www.w3.org/1999/xlink" x="0px" y="0px"
	 viewBox="0 0 979.6 590.2" style="enable-background:new 0 0 979.6 590.2;" xml:space="preserve">
<style type="text/css">
	.st0{fill:#FFFFFF;}
	.st1{fill:#F7F7F8;}
	.st2{fill:#754C29;}
	.st3{fill:#CCCCCC;}
	.st4{fill:#FFCE00;}
	.st5{fill:#FF9639;}
</style>
<g id="XMLID_1_">
	<path id="XMLID_29_" class="st0" d="M931.8,8.2h-884c-21.5,0-39,17.5-39,39v27.7h961.8V47.2C970.8,25.6,953.3,8.2,931.8,8.2z"/>
	<path id="XMLID_28_" class="st1" d="M171.1,62.2h799.7v474.6c0,24.9-20.2,45.1-45.1,45.1H171.1V62.2z"/>
	<path id="XMLID_27_" class="st2" d="M183.9,581.7H51.6c-23.4,0-42.2-19-42.2-42.2v-474H184v516.3H183.9z"/>
	<path id="XMLID_26_" class="st3" d="M138.3,50.1H56.1c-8.1,0-14.8-6.6-14.8-14.8l0,0c0-8.1,6.6-14.8,14.8-14.8h82.6
		c8.1,0,14.8,6.6,14.8,14.8l0,0C153.1,43.5,146.8,50.1,138.3,50.1z"/>
	<circle id="XMLID_25_" class="st2" cx="223.2" cy="36.1" r="14.2"/>
	<circle id="XMLID_24_" class="st3" cx="894.3" cy="36.1" r="14.2"/>
	<g id="XMLID_11_">
		<path id="XMLID_23_" class="st0" d="M81.9,134.5h67.3c5.9,0,10.5-5.2,10.5-11.1c0-5.9-4.6-11.1-10.5-11.1H81.9
			c-5.9,0-10.5,5.2-10.5,11.1C71.3,129.4,76,134.5,81.9,134.5z"/>
		<path id="XMLID_22_" class="st0" d="M49.4,112.8c-6.4,0-11.6,5.2-11.6,11.6c0,6.4,5.2,11.6,11.6,11.6S61,130.8,61,124.4
			C60.9,118,55.7,112.8,49.4,112.8z"/>
		<path id="XMLID_21_" class="st0" d="M149.2,171.4H81.9c-5.9,0-10.5,5.2-10.5,11.1c0,5.9,4.6,11.1,10.5,11.1h67.3
			c5.9,0,10.5-5.2,10.5-11.1C160,176.6,155.1,171.4,149.2,171.4z"/>
		<path id="XMLID_20_" class="st0" d="M49.4,171.1c-6.4,0-11.6,5.2-11.6,11.6s5.2,11.6,11.6,11.6S61,189.1,61,182.7
			S55.7,171.1,49.4,171.1z"/>
		<path id="XMLID_19_" class="st0" d="M149.2,230.4H81.9c-5.9,0-10.5,3.9-10.5,9.8c0,5.9,4.6,9.8,10.5,9.8h67.3
			c5.9,0,10.5-3.9,10.5-9.8C159.7,234.3,155.1,230.4,149.2,230.4z"/>
		<path id="XMLID_18_" class="st0" d="M49.4,229.3c-6.4,0-11.6,5.2-11.6,11.6c0,6.4,5.2,11.6,11.6,11.6S61,247.4,61,240.9
			C60.9,234.5,55.7,229.3,49.4,229.3z"/>
		<path id="XMLID_17_" class="st0" d="M149.2,286.9H81.9c-5.9,0-10.5,5.2-10.5,11.1c0,5.9,4.6,11.1,10.5,11.1h67.3
			c5.9,0,10.5-5.2,10.5-11.1C159.7,292,155.1,286.9,149.2,286.9z"/>
		<path id="XMLID_16_" class="st0" d="M49.4,287.4c-6.4,0-11.6,5.2-11.6,11.6s5.2,11.6,11.6,11.6S61,305.4,61,299
			S55.7,287.4,49.4,287.4z"/>
		<path id="XMLID_15_" class="st0" d="M149.2,345.9H81.9c-5.9,0-10.5,5.2-10.5,11.1c0,5.9,4.6,11.1,10.5,11.1h67.3
			c5.9,0,10.5-5.2,10.5-11.1C159.7,351,155.1,345.9,149.2,345.9z"/>
		<path id="XMLID_14_" class="st0" d="M49.4,345.7c-6.4,0-11.6,5.2-11.6,11.6s5.2,11.6,11.6,11.6S61,363.7,61,357.3
			S55.7,345.7,49.4,345.7z"/>
		<path id="XMLID_13_" class="st0" d="M149.2,404.9H81.9c-5.9,0-10.5,3.9-10.5,9.8c0,5.9,4.6,9.8,10.5,9.8h67.3
			c5.9,0,10.5-3.9,10.5-9.8C159.7,408.9,155.1,404.9,149.2,404.9z"/>
		<path id="XMLID_12_" class="st0" d="M49.4,403.9c-6.4,0-11.6,5.2-11.6,11.6s5.2,11.6,11.6,11.6S61,421.9,61,415.5
			S55.7,403.9,49.4,403.9z"/>
	</g>
	<path id="XMLID_10_" class="st2" d="M218.3,134.2h184.6c5.9,0,10.5-5.2,10.5-11.1s-4.6-11.1-10.5-11.1H218.3
		c-5.9,0-10.5,5.2-10.5,11.1S212.3,134.2,218.3,134.2z"/>
	<path id="XMLID_9_" class="st3" d="M624.4,171.4H216c-5.9,0-10.5,5.2-10.5,11.1c0,5.9,4.6,11.1,10.5,11.1h408.4
		c5.9,0,10.5-5.2,10.5-11.1C634.9,176.6,630.3,171.4,624.4,171.4z"/>
	<path id="XMLID_8_" class="st4" d="M728.4,171.4h-66.6c-5.9,0-10.5,5.2-10.5,11.1c0,5.9,4.6,11.1,10.5,11.1h66.6
		c5.9,0,10.5-5.2,10.5-11.1C738.9,176.6,734.3,171.4,728.4,171.4z"/>
	<path id="XMLID_7_" class="st5" d="M834,171.1h-66.6c-5.9,0-10.5,5.2-10.5,11.1s4.6,11.1,10.5,11.1H834c5.9,0,10.5-5.2,10.5-11.1
		S839.9,171.1,834,171.1z"/>
	<path id="XMLID_6_" class="st2" d="M873.1,193.2h66.6c5.9,0,10.5-5.2,10.5-11.1s-4.6-11.1-10.5-11.1h-66.6
		c-5.9,0-10.5,5.2-10.5,11.1S867.2,193.2,873.1,193.2z"/>
	<path id="XMLID_5_" class="st3" d="M624.4,223H216c-5.9,0-10.5,5.2-10.5,11.1c0,5.9,4.6,11.1,10.5,11.1h408.4
		c5.9,0,10.5-5.2,10.5-11.1C634.9,228.2,630.3,223,624.4,223z"/>
	<path id="XMLID_4_" class="st4" d="M728.4,223h-66.6c-5.9,0-10.5,5.2-10.5,11.1c0,5.9,4.6,11.1,10.5,11.1h66.6
		c5.9,0,10.5-5.2,10.5-11.1C738.9,228.2,734.3,223,728.4,223z"/>
	<path id="XMLID_3_" class="st5" d="M834,222.7h-66.6c-5.9,0-10.5,5.2-10.5,11.1s4.6,11.1,10.5,11.1H834c5.9,0,10.5-5.2,10.5-11.1
		S839.9,222.7,834,222.7z"/>
	<path id="XMLID_2_" class="st2" d="M939.8,222.7h-66.6c-5.9,0-10.5,5.2-10.5,11.1s4.6,11.1,10.5,11.1h66.6
		c5.9,0,10.5-5.2,10.5-11.1S945.7,222.7,939.8,222.7z"/>
</g>
</svg>
