<?xml version="1.0" encoding="utf-8"?>
<!-- Generator: Adobe Illustrator 18.0.0, SVG Export Plug-In . SVG Version: 6.00 Build 0)  -->
<!DOCTYPE svg PUBLIC "-//W3C//DTD SVG 1.1//EN" "http://www.w3.org/Graphics/SVG/1.1/DTD/svg11.dtd">
<svg version="1.1" id="Capa_1" xmlns="http://www.w3.org/2000/svg" xmlns:xlink="http://www.w3.org/1999/xlink" x="0px" y="0px"
	 viewBox="0 0 174 221.3" enable-background="new 0 0 174 221.3" xml:space="preserve">
<g>
	<path fill="#EEF9FF" d="M118,221.3H7c-3.9,0-7-3.1-7-7V7c0-3.9,3.1-7,7-7h160c3.9,0,7,3.1,7,7v158.3L118,221.3z"/>
	<path fill="#CBE8F7" d="M113.7,221.3v-54.2c0-3.4,2.8-6.1,6.1-6.1H174v4.3l-56,56H113.7z"/>
	<path fill="#CADCEA" d="M118,221.3V171c0-3.2,2.6-5.7,5.7-5.7H174L118,221.3z"/>
	<path fill="#CADCEA" d="M77.6,59.7h-51c-2.5,0-4.5-2-4.5-4.5v0c0-2.5,2-4.5,4.5-4.5h51c2.5,0,4.5,2,4.5,4.5v0
		C82.1,57.7,80.1,59.7,77.6,59.7z"/>
	<path fill="#CADCEA" d="M147.4,59.7h-51c-2.5,0-4.5-2-4.5-4.5v0c0-2.5,2-4.5,4.5-4.5h51c2.5,0,4.5,2,4.5,4.5v0
		C151.9,57.7,149.9,59.7,147.4,59.7z"/>
	<path fill="#CADCEA" d="M92.7,169.7H26.6c-2.5,0-4.5-2-4.5-4.5v0c0-2.5,2-4.5,4.5-4.5h66.1c2.5,0,4.5,2,4.5,4.5v0
		C97.2,167.7,95.2,169.7,92.7,169.7z"/>
	<path fill="#CADCEA" d="M68.7,185.2H26.6c-2.5,0-4.5-2-4.5-4.5v0c0-2.5,2-4.5,4.5-4.5h42.1c2.5,0,4.5,2,4.5,4.5v0
		C73.2,183.2,71.2,185.2,68.7,185.2z"/>
	<path fill="#007BFF" d="M51.4,200.7H26.6c-2.5,0-4.5-2-4.5-4.5v0c0-2.5,2-4.5,4.5-4.5h24.8c2.5,0,4.5,2,4.5,4.5v0
		C55.9,198.7,53.9,200.7,51.4,200.7z"/>
	<path fill="#007BFF" d="M147.4,76.2H26.6c-2.5,0-4.5-2-4.5-4.5v0c0-2.5,2-4.5,4.5-4.5h120.8c2.5,0,4.5,2,4.5,4.5v0
		C151.9,74.2,149.9,76.2,147.4,76.2z"/>
	<path fill="#CADCEA" d="M45.1,107.7H26.6c-2.5,0-4.5-2-4.5-4.5v0c0-2.5,2-4.5,4.5-4.5h18.5c2.5,0,4.5,2,4.5,4.5v0
		C49.6,105.7,47.6,107.7,45.1,107.7z"/>
	<path fill="#CADCEA" d="M147.4,123.2H26.6c-2.5,0-4.5-2-4.5-4.5v0c0-2.5,2-4.5,4.5-4.5h120.8c2.5,0,4.5,2,4.5,4.5v0
		C151.9,121.2,149.9,123.2,147.4,123.2z"/>
	<path fill="#CADCEA" d="M73,138.7H26.6c-2.5,0-4.5-2-4.5-4.5l0,0c0-2.5,2-4.5,4.5-4.5H73c2.5,0,4.5,2,4.5,4.5l0,0
		C77.5,136.7,75.5,138.7,73,138.7z"/>
	<path fill="#007BFF" d="M146.5,138.7H90.6c-2.5,0-4.5-2-4.5-4.5v0c0-2.5,2-4.5,4.5-4.5h55.9c2.5,0,4.5,2,4.5,4.5v0
		C151,136.7,149,138.7,146.5,138.7z"/>
	<path fill="#FF2458" d="M103.1,33.7h-34c-2.4,0-4.3-1.9-4.3-4.3v-11c0-2.4,1.9-4.3,4.3-4.3h34c2.4,0,4.3,1.9,4.3,4.3v11
		C107.5,31.7,105.5,33.7,103.1,33.7z"/>
	<path fill="#CADCEA" d="M149.1,19.5h-22.5c-1.5,0-2.8-1.2-2.8-2.8v0c0-1.5,1.2-2.8,2.8-2.8h22.5c1.5,0,2.8,1.2,2.8,2.8v0
		C151.8,18.3,150.6,19.5,149.1,19.5z"/>
	<path fill="#CADCEA" d="M149.1,33.7h-22.5c-1.5,0-2.8-1.2-2.8-2.8v0c0-1.5,1.2-2.8,2.8-2.8h22.5c1.5,0,2.8,1.2,2.8,2.8v0
		C151.8,32.4,150.6,33.7,149.1,33.7z"/>
	<path fill="#CADCEA" d="M47.1,19.5H24.6c-1.5,0-2.8-1.2-2.8-2.8v0c0-1.5,1.2-2.8,2.8-2.8h22.5c1.5,0,2.8,1.2,2.8,2.8v0
		C49.9,18.3,48.7,19.5,47.1,19.5z"/>
	<path fill="#CADCEA" d="M47.1,33.7H24.6c-1.5,0-2.8-1.2-2.8-2.8v0c0-1.5,1.2-2.8,2.8-2.8h22.5c1.5,0,2.8,1.2,2.8,2.8v0
		C49.9,32.4,48.7,33.7,47.1,33.7z"/>
</g>
</svg>
