<?xml version="1.0" encoding="utf-8"?>
<!-- Generator: Adobe Illustrator 18.0.0, SVG Export Plug-In . SVG Version: 6.00 Build 0)  -->
<!DOCTYPE svg PUBLIC "-//W3C//DTD SVG 1.1//EN" "http://www.w3.org/Graphics/SVG/1.1/DTD/svg11.dtd">
<svg version="1.1" id="Capa_1" xmlns="http://www.w3.org/2000/svg" xmlns:xlink="http://www.w3.org/1999/xlink" x="0px" y="0px"
	 viewBox="0 0 114.6 221.3" enable-background="new 0 0 114.6 221.3" xml:space="preserve">
<g>
	<path fill="#F7F7F8" d="M106.1,221.2H8.9c-4.6,0-8.4-3.8-8.4-8.4V8.2c0-4.6,3.8-8.4,8.4-8.4h97.2c4.6,0,8.4,3.8,8.4,8.4v204.5
		C114.5,217.4,110.7,221.2,106.1,221.2z"/>
	<path fill="#FF2458" d="M76,30.5h-34c-2.4,0-4.3-1.9-4.3-4.3v-11c0-2.4,1.9-4.3,4.3-4.3h34c2.4,0,4.3,1.9,4.3,4.3v11
		C80.3,28.6,78.3,30.5,76,30.5z"/>
	<rect x="7.6" y="40.8" fill="#CADCEA" width="101" height="40"/>
	<path fill="#007BFF" d="M35.1,101h-23c-2.5,0-4.5-2-4.5-4.5v0c0-2.5,2-4.5,4.5-4.5h23c2.5,0,4.5,2,4.5,4.5v0
		C39.6,99,37.5,101,35.1,101z"/>
	<path fill="#007BFF" d="M35.1,191h-23c-2.5,0-4.5-2-4.5-4.5v0c0-2.5,2-4.5,4.5-4.5h23c2.5,0,4.5,2,4.5,4.5v0
		C39.6,189,37.5,191,35.1,191z"/>
	<path fill="#CCCCCC" d="M104,116.5H12.1c-2.5,0-4.5-2-4.5-4.5v0c0-2.5,2-4.5,4.5-4.5H104c2.5,0,4.5,2,4.5,4.5v0
		C108.5,114.5,106.5,116.5,104,116.5z"/>
	<rect x="0.6" y="142.5" fill="#007BFF" width="114" height="28.7"/>
	<path fill="#FFFFFF" d="M103.6,162.5H12.1c-2.5,0-4.5-2-4.5-4.5v0c0-2.5,2-4.5,4.5-4.5h91.5c2.5,0,4.5,2,4.5,4.5v0
		C108.1,160.5,106.1,162.5,103.6,162.5z"/>
	<path d="M0,212.7c0,4.6,4.3,8.6,8.9,8.6h97.2c4.6,0,7.9-3.9,7.9-8.6v-11.4H0V212.7z"/>
	<path fill="#CCCCCC" d="M65.9,131.5H13c-2.5,0-4.5-2-4.5-4.5v0c0-2.5,2-4.5,4.5-4.5h52.9c2.5,0,4.5,2,4.5,4.5v0
		C70.4,129.5,68.4,131.5,65.9,131.5z"/>
</g>
</svg>
