<?xml version="1.0" encoding="utf-8"?>
<!-- Generator: Adobe Illustrator 18.0.0, SVG Export Plug-In . SVG Version: 6.00 Build 0)  -->
<!DOCTYPE svg PUBLIC "-//W3C//DTD SVG 1.1//EN" "http://www.w3.org/Graphics/SVG/1.1/DTD/svg11.dtd">
<svg version="1.1" id="Capa_1" xmlns="http://www.w3.org/2000/svg" xmlns:xlink="http://www.w3.org/1999/xlink" x="0px" y="0px"
	 viewBox="0 0 114.6 221.3" enable-background="new 0 0 114.6 221.3" xml:space="preserve">
<g>
	<path fill="#EEF9FF" d="M106.1,221.3H8.9c-4.6,0-8.4-3.8-8.4-8.4V8.4C0.5,3.8,4.3,0,8.9,0h97.2c4.6,0,8.4,3.8,8.4,8.4v204.5
		C114.5,217.6,110.7,221.3,106.1,221.3z"/>
	<path fill="#FF2458" d="M76,30.7h-34c-2.4,0-4.3-1.9-4.3-4.3v-11c0-2.4,1.9-4.3,4.3-4.3h34c2.4,0,4.3,1.9,4.3,4.3v11
		C80.3,28.7,78.3,30.7,76,30.7z"/>
	<rect x="7.6" y="41" fill="#CADCEA" width="101" height="40"/>
	<path fill="#007BFF" d="M35.1,101.2h-23c-2.5,0-4.5-2-4.5-4.5v0c0-2.5,2-4.5,4.5-4.5h23c2.5,0,4.5,2,4.5,4.5v0
		C39.6,99.2,37.5,101.2,35.1,101.2z"/>
	<path fill="#007BFF" d="M35.1,191.2h-23c-2.5,0-4.5-2-4.5-4.5v0c0-2.5,2-4.5,4.5-4.5h23c2.5,0,4.5,2,4.5,4.5v0
		C39.6,189.2,37.5,191.2,35.1,191.2z"/>
	<path fill="#CADCEA" d="M104,116.7H12.1c-2.5,0-4.5-2-4.5-4.5v0c0-2.5,2-4.5,4.5-4.5H104c2.5,0,4.5,2,4.5,4.5v0
		C108.5,114.7,106.5,116.7,104,116.7z"/>
	<rect x="0.6" y="142.7" fill="#007BFF" width="114" height="28.7"/>
	<path fill="#FFFFFF" d="M103.6,162.7H12.1c-2.5,0-4.5-2-4.5-4.5v0c0-2.5,2-4.5,4.5-4.5h91.5c2.5,0,4.5,2,4.5,4.5v0
		C108.1,160.7,106.1,162.7,103.6,162.7z"/>
	<path d="M0,212.9c0,4.6,4.3,8.4,8.9,8.4h97.2c4.6,0,7.9-3.8,7.9-8.4v-11.6H0V212.9z"/>
	<path fill="#CADCEA" d="M65.9,131.7H13c-2.5,0-4.5-2-4.5-4.5v0c0-2.5,2-4.5,4.5-4.5h52.9c2.5,0,4.5,2,4.5,4.5v0
		C70.4,129.7,68.4,131.7,65.9,131.7z"/>
</g>
</svg>
