<?xml version="1.0" encoding="utf-8"?>
<!-- Generator: Adobe Illustrator 19.0.0, SVG Export Plug-In . SVG Version: 6.00 Build 0)  -->
<svg version="1.1" xmlns="http://www.w3.org/2000/svg" xmlns:xlink="http://www.w3.org/1999/xlink" x="0px" y="0px"
	 viewBox="250 -250 1000 1000" style="enable-background:new 250 -250 1000 1000;" xml:space="preserve">
<style type="text/css">
	.st0{display:none;}
	.st1{display:inline;}
	.st2{fill:#1D98D6;stroke:#0E81A5;stroke-width:20;stroke-linecap:round;stroke-linejoin:round;stroke-miterlimit:10;}
	.st3{fill:#E6E6E6;stroke:#B3B3B3;stroke-width:20;stroke-linecap:round;stroke-linejoin:round;stroke-miterlimit:10;}
	.st4{fill:#B3B3B3;}
	.st5{fill:#0E81A5;}
	.st6{fill:none;stroke:#B3B3B3;stroke-width:20;stroke-linecap:round;stroke-linejoin:round;stroke-miterlimit:10;}
	.st7{fill:none;stroke:#3FA9F5;stroke-width:20;stroke-linecap:round;stroke-linejoin:round;stroke-miterlimit:10;}
	.st8{fill:#ED1C24;stroke:#ED1C24;stroke-width:20;stroke-linecap:round;stroke-linejoin:round;stroke-miterlimit:10;}
	.st9{fill:#E6E6E6;stroke:#B3B3B3;stroke-width:20;stroke-linecap:round;stroke-miterlimit:10;}
	.st10{fill:#D6B822;}
	.st11{fill:#EFD225;}
	.st12{fill:#F7F7F8;stroke:#B3B3B3;stroke-width:20;stroke-miterlimit:10;}
	.st13{fill:#EFD225;stroke:#E2BC1B;stroke-width:20;stroke-linecap:round;stroke-linejoin:round;stroke-miterlimit:10;}
	.st14{fill:#0FCE45;}
	.st15{fill:#B3B3B3;stroke:#808080;stroke-width:20;stroke-linecap:round;stroke-linejoin:round;stroke-miterlimit:10;}
	.st16{fill:none;stroke:#666666;stroke-width:20;stroke-linecap:round;stroke-miterlimit:10;}
	.st17{fill:#F7F7F8;stroke:#B3B3B3;stroke-width:20;stroke-linecap:round;stroke-linejoin:round;stroke-miterlimit:10;}
	.st18{fill:#CCCCCC;stroke:#B3B3B3;stroke-width:20;stroke-linecap:round;stroke-linejoin:round;stroke-miterlimit:10;}
	.st19{fill:#E0142D;}
	.st20{fill:#808080;}
	.st21{fill:#CCCCCC;}
	.st22{opacity:0.2;fill:#999999;enable-background:new    ;}
	.st23{fill:#F2F2F2;}
	.st24{fill:#F7F7F8;}
	.st25{fill:#666666;}
	.st26{fill:#F7F7F8;stroke:#808080;stroke-width:20;stroke-miterlimit:10;}
	.st27{fill:#E6E6E6;stroke:#B3B3B3;stroke-width:20;stroke-miterlimit:10;}
	.st28{fill:#0B9432;}
	.st29{fill:#FCEE21;}
	.st30{fill:none;stroke:#B3B3B3;stroke-width:20;stroke-linecap:round;stroke-miterlimit:10;}
	.st31{fill:#E6E6E6;}
	.st32{fill:#1130EA;stroke:#B3B3B3;stroke-width:20;stroke-linecap:round;stroke-miterlimit:10;}
	.st33{fill:#140D93;}
	.st34{fill:#CCCCCC;stroke:#B3B3B3;stroke-width:20;stroke-linecap:round;stroke-miterlimit:10;}
	.st35{opacity:0.25;fill:#FCEE21;enable-background:new    ;}
	.st36{fill:#C0C1C4;}
	.st37{fill:none;stroke:#CECECE;stroke-width:13;stroke-linecap:round;stroke-miterlimit:10;}
	.st38{fill:#F7F7F8;stroke:#CECECE;stroke-width:13;stroke-linecap:round;stroke-miterlimit:10;}
	.st39{fill:#10BF3D;}
	.st40{fill:#F2F2F2;stroke:#CCCCCC;stroke-width:20;stroke-linecap:round;stroke-linejoin:round;stroke-miterlimit:10;}
	.st41{fill:#E6E6E6;stroke:#999999;stroke-width:20;stroke-linecap:round;stroke-linejoin:round;stroke-miterlimit:10;}
	.st42{fill:none;stroke:#B3B3B3;stroke-width:30;stroke-linecap:round;stroke-linejoin:round;stroke-miterlimit:10;}
	.st43{fill:#4D4D4D;}
	.st44{display:inline;fill:#DDDDDD;}
	.st45{fill:#FF720C;}
	.st46{fill:#FFB41F;}
	.st47{fill:#EEBF5E;}
	.st48{fill:#D49417;}
	.st49{fill:#EED199;}
	.st50{fill:#FD7717;}
	.st51{fill:#6E6E6E;}
	.st52{fill:#DA2F00;}
	.st53{fill:#484848;}
	
		.st54{display:inline;fill:#E6E6E6;stroke:#B3B3B3;stroke-width:20;stroke-linecap:round;stroke-linejoin:round;stroke-miterlimit:10;}
	.st55{display:inline;fill:#EDE9E8;}
	.st56{display:inline;fill:#DFD7D5;}
	.st57{display:inline;fill:#AFAFAF;}
	.st58{display:inline;fill:#969696;}
	.st59{display:inline;fill:#D2C5C2;}
	.st60{display:inline;fill:#5E5E5E;}
	.st61{display:inline;fill:#494949;}
	.st62{fill:#5E5E5E;}
	.st63{display:inline;fill:#90E36A;}
	.st64{display:inline;fill:#56C225;}
	.st65{display:inline;fill:#9E9E9E;}
	.st66{display:inline;fill:#777777;}
	.st67{fill:#FF623F;}
	.st68{fill:#E30020;}
	.st69{fill:#FFFFFF;}
	.st70{fill:#D6D6D8;}
	.st71{display:inline;fill:#FED2A4;}
	.st72{display:inline;fill:#FFBD86;}
	.st73{display:inline;fill:#804231;}
	.st74{display:inline;fill:#FF7816;}
	.st75{display:inline;fill:#FF4B00;}
	.st76{display:inline;fill:#B35F49;}
	.st77{fill:#ECF0F1;}
	.st78{fill:#95A5A5;}
	.st79{opacity:0.1;enable-background:new    ;}
	.st80{fill:#242424;}
</style>
<g id="Layer_1" class="st0">
	<g id="services">
		<g class="st1">
			<path class="st2" d="M1186,522.5L993.3,329.8l-8.1,8.1c-13.4,13.4-35.1,13.4-48.5,0s-13.4-35.1,0-48.5l8.1-8.1l-48.5-48.5
				L734.9,394.4l48.5,48.5l8.1-8.1c13.4-13.4,35.1-13.4,48.5,0s13.4,35.1,0,48.5l-8.1,8.1L1024.5,684c5.8,5.8,12.3,11,19.2,15.4
				l157.7-157.6C1196.9,534.8,1191.8,528.3,1186,522.5z"/>
			<path class="st3" d="M1201.4,541.7l-157.7,157.7c53,34.1,123.6,18.7,157.7-34.3C1225.5,627.5,1225.5,579.3,1201.4,541.7z"/>
			<path class="st3" d="M476.4-90.2l-16.1-64.6l-113.1-64.6l-64.6,64.6l64.6,113.1l64.6,16.2L783.3,346l64.6-64.6L476.4-90.2z"/>
			<path class="st3" d="M1214-84.7L1106.4,22.9l-96.9-32.3l-32.3-96.9L1084.8-214c-94.7-24.2-191,33-215.2,127.7
				c-7.3,28.7-7.3,58.8,0,87.5L503.2,367.6c-95.7-24.3-192.9,33.6-217.2,129.2c-24.2,95.7,33.6,192.9,129.3,217.2
				s192.9-33.6,217.2-129.2c7.3-28.8,7.3-59.1,0-87.9l366.4-366.4c94.8,24.1,191.1-33.2,215.2-127.9
				C1221.3-26.1,1221.3-56.1,1214-84.7z M508.7,620.5h-96.9l-48.5-80.8l48.5-80.8h96.9l48.5,80.8L508.7,620.5z"/>
			<path class="st4" d="M561.9,415.3L917.3,59.9l22.8,22.8L584.7,438.1L561.9,415.3z"/>
			<path class="st5" d="M917.3,438.1l22.8-22.8l161.5,161.5l-22.8,22.8L917.3,438.1z"/>
		</g>
	</g>
	<g id="types">
		<g class="st1">
			<path class="st3" d="M642.2-61.1h202.3v-170.4H642.2c-15.2,0-27.6,12.4-27.6,27.6v115.2C614.6-73.5,627-61.1,642.2-61.1z"/>
			<path class="st3" d="M932.9-96h-88.4v-88.3h88.4c7.9,0,14.3,6.4,14.3,14.3v59.7C947.2-102.4,940.8-96,932.9-96z"/>
			<line class="st6" x1="951.6" y1="-140.5" x2="1038.6" y2="-140.5"/>
			<path class="st3" d="M800.8,478.3h-71.7c-31.8,0-57.2-26.5-55.9-58.2L692.7-61h151.7l12.2,482
				C857.6,452.3,832.3,478.3,800.8,478.3z"/>
			<line class="st7" x1="748.6" y1="158" x2="744.5" y2="334.5"/>
			<circle class="st8" cx="742.1" cy="391" r="14"/>
			<path class="st3" d="M795.2,602.4h-64c-8.5,0-15.3-6.9-15.3-15.3V476.6h94.7V587C810.5,595.5,803.6,602.4,795.2,602.4z"/>
			<path class="st6" d="M762.6,602.8v37c0,50.6-41.1,91.7-91.7,91.7l0,0c-50.6,0-91.7-41.1-91.7-91.7V270.2
				c0-32.5-26.4-58.9-58.9-58.9l0,0c-32.5,0-58.9,26.4-58.9,58.9v353.1"/>
		</g>
	</g>
	<g id="clients">
		<g class="st1">
			<path class="st9" d="M844.1,510.6v-99.4l9.4-14.5c7-10.7,10.7-23.2,10.7-36v-96.4c0-52.2-42.3-94.4-94.4-94.4h-18.3h-18.3
				c-52.7,0-95.9,43.1-95.9,95.9v94.9c0,12.8,3.7,25.3,10.7,36l9.4,14.5v99.4c-51.9,22.2-89.8,47.3-116.6,69.7
				c-36.4,30.4-57.2,75.5-57.2,122.9v28.3h267.8h266.4v-28.3c0-47.4-20.8-92.6-57.2-122.9C933.9,558,896,532.9,844.1,510.6z"/>
			<g>
				<path class="st10" d="M794-15.5c0-9.8-3.5-18.2-10.4-25.2c-6.9-6.9-18.4-13.1-34.5-18.6C727-66,710.3-74.9,699.1-86
					c-11.3-11.2-16.9-26-16.9-44.6c0-18,5.2-32.7,15.6-44.1c10.4-11.4,24.7-18.2,42.8-20.5v-36.3h25.9v36.4
					c18.3,2.4,32.4,9.9,42.6,22.5c10.1,12.6,15.2,29.4,15.2,50.5h-32.1c0-13.9-3.4-25.1-10.3-33.8c-6.9-8.6-16.4-13-28.5-13
					c-12.9,0-22.6,3.4-29,10.1c-6.5,6.7-9.7,15.9-9.7,27.6c0,10.6,3.3,19.2,10,25.7c6.7,6.6,18.6,12.8,35.9,18.7
					c22.3,7.2,38.9,16.2,49.7,27s16.2,25.4,16.2,43.9c0,18.8-5.6,33.8-16.9,44.8c-11.3,11.1-26.7,17.7-46.4,19.8v31.5h-25.7V48.9
					c-18.8-2-34.2-8.8-46.2-20.6c-12-11.8-17.8-29-17.4-51.7l0.3-0.8h31.2c0,16.8,4.3,28.8,12.8,36c8.5,7.2,18.9,10.7,31.2,10.7
					c14.1,0,25.1-3.4,33-10.1C790.1,5.7,794-3.6,794-15.5z"/>
			</g>
			<g>
				<g>
					<path class="st10" d="M540.6,17.9c0-6.4-2.3-11.9-6.8-16.4s-12-8.6-22.5-12.1c-14.4-4.3-25.2-10.1-32.6-17.4
						c-7.3-7.3-11-16.9-11-29c0-11.7,3.4-21.3,10.1-28.7c6.8-7.4,16-11.8,27.9-13.3v-23.6h16.9V-99c11.9,1.6,21.1,6.4,27.7,14.6
						c6.6,8.2,9.9,19.1,9.9,32.9h-20.9c0-9-2.2-16.4-6.7-22s-10.7-8.4-18.6-8.4c-8.4,0-14.7,2.2-18.9,6.6c-4.2,4.4-6.3,10.4-6.3,18
						c0,6.9,2.2,12.5,6.5,16.8c4.3,4.3,12.1,8.3,23.4,12.2c14.5,4.7,25.3,10.6,32.3,17.6s10.6,16.5,10.6,28.6c0,12.2-3.7,22-11,29.2
						c-7.3,7.2-17.4,11.5-30.2,12.9v20.5h-16.8V60.1c-12.2-1.3-22.3-5.7-30.1-13.4c-7.8-7.6-11.6-18.9-11.3-33.7l0.2-0.5h20.3
						c0,11,2.8,18.8,8.3,23.4c5.6,4.7,12.3,7,20.3,7c9.2,0,16.3-2.2,21.5-6.6C538,31.7,540.6,25.7,540.6,17.9z"/>
				</g>
				<g>
					<path class="st10" d="M1016.8,17.9c0-6.4-2.3-11.9-6.8-16.4s-12-8.6-22.5-12.1c-14.4-4.3-25.2-10.1-32.6-17.4
						c-7.3-7.3-11-16.9-11-29c0-11.7,3.4-21.3,10.1-28.7c6.8-7.4,16-11.8,27.9-13.3v-23.6h16.9V-99c11.9,1.6,21.1,6.4,27.7,14.6
						c6.6,8.2,9.9,19.1,9.9,32.9h-20.9c0-9-2.2-16.4-6.7-22s-10.7-8.4-18.6-8.4c-8.4,0-14.7,2.2-18.9,6.6c-4.2,4.4-6.3,10.4-6.3,18
						c0,6.9,2.2,12.5,6.5,16.8s12.1,8.3,23.4,12.2c14.5,4.7,25.3,10.6,32.3,17.6s10.6,16.5,10.6,28.6c0,12.2-3.7,22-11,29.2
						c-7.3,7.2-17.4,11.5-30.2,12.9v20.5h-16.8V60.1c-12.2-1.3-22.3-5.7-30.1-13.4c-7.8-7.6-11.6-18.9-11.3-33.7l0.2-0.5h20.3
						c0,11,2.8,18.8,8.3,23.4c5.6,4.7,12.3,7,20.3,7c9.2,0,16.3-2.2,21.5-6.6C1014.2,31.7,1016.8,25.7,1016.8,17.9z"/>
				</g>
			</g>
			<g>
				<path class="st11" d="M794-7c0-9.8-3.5-18.2-10.4-25.2c-6.9-6.9-18.4-13.1-34.5-18.6c-22.1-6.7-38.8-15.6-50-26.7
					c-11.3-11.2-16.9-26-16.9-44.6c0-18,5.2-32.7,15.6-44.1c10.4-11.4,24.7-18.2,42.8-20.5v-36.2h25.9v36.4
					c18.3,2.4,32.4,9.9,42.6,22.5c10.1,12.6,15.2,29.4,15.2,50.5h-32.1c0-13.9-3.4-25.1-10.3-33.8c-6.9-8.6-16.4-13-28.5-13
					c-12.9,0-22.6,3.4-29,10.1c-6.5,6.7-9.7,15.9-9.7,27.6c0,10.6,3.3,19.2,10,25.7c6.7,6.6,18.6,12.8,35.9,18.7
					c22.3,7.2,38.9,16.2,49.7,27s16.2,25.4,16.2,43.9c0,18.8-5.6,33.8-16.9,44.8c-11.3,11.1-26.7,17.7-46.4,19.8v31.5h-25.7V57.5
					c-18.8-2-34.2-8.8-46.2-20.6c-12-11.8-17.8-29-17.4-51.7l0.3-0.8h31.2c0,16.8,4.3,28.8,12.8,36s18.9,10.7,31.2,10.7
					c14.1,0,25.1-3.4,33-10.1C790.1,14.3,794,4.9,794-7z"/>
			</g>
			<g>
				<g>
					<path class="st11" d="M540.6,26.4c0-6.4-2.3-11.9-6.8-16.4s-12-8.6-22.5-12.1c-14.4-4.3-25.2-10.1-32.6-17.4
						c-7.3-7.3-11-16.9-11-29c0-11.7,3.4-21.3,10.1-28.7c6.8-7.4,16-11.8,27.9-13.3v-23.6h16.9v23.7c11.9,1.6,21.1,6.4,27.7,14.6
						c6.6,8.2,9.9,19.1,9.9,32.9h-20.9c0-9-2.2-16.4-6.7-22s-10.7-8.4-18.6-8.4c-8.4,0-14.7,2.2-18.9,6.6c-4.2,4.4-6.3,10.4-6.3,18
						c0,6.9,2.2,12.5,6.5,16.8c4.3,4.3,12.1,8.3,23.4,12.2C533.2-15,544-9.1,551-2.1s10.6,16.5,10.6,28.6c0,12.2-3.7,22-11,29.2
						c-7.3,7.2-17.4,11.5-30.2,12.9v20.5h-16.8V68.7c-12.2-1.3-22.3-5.7-30.1-13.4c-7.8-7.6-11.6-18.9-11.3-33.7l0.2-0.5h20.3
						c0,11,2.8,18.8,8.3,23.4c5.6,4.7,12.3,7,20.3,7c9.2,0,16.3-2.2,21.5-6.6C538,40.3,540.6,34.2,540.6,26.4z"/>
				</g>
				<g>
					<path class="st11" d="M1016.8,26.4c0-6.4-2.3-11.9-6.8-16.4s-12-8.6-22.5-12.1c-14.4-4.3-25.2-10.1-32.6-17.4
						c-7.3-7.3-11-16.9-11-29c0-11.7,3.4-21.3,10.1-28.7c6.8-7.4,16-11.8,27.9-13.3v-23.6h16.9v23.7c11.9,1.6,21.1,6.4,27.7,14.6
						c6.6,8.2,9.9,19.1,9.9,32.9h-20.9c0-9-2.2-16.4-6.7-22s-10.7-8.4-18.6-8.4c-8.4,0-14.7,2.2-18.9,6.6c-4.2,4.4-6.3,10.4-6.3,18
						c0,6.9,2.2,12.5,6.5,16.8s12.1,8.3,23.4,12.2c14.5,4.7,25.3,10.6,32.3,17.6s10.6,16.5,10.6,28.6c0,12.2-3.7,22-11,29.2
						c-7.3,7.2-17.4,11.5-30.2,12.9v20.5h-16.8V68.7c-12.2-1.3-22.3-5.7-30.1-13.4c-7.8-7.6-11.6-18.9-11.3-33.7l0.2-0.5h20.3
						c0,11,2.8,18.8,8.3,23.4c5.6,4.7,12.3,7,20.3,7c9.2,0,16.3-2.2,21.5-6.6C1014.2,40.3,1016.8,34.2,1016.8,26.4z"/>
				</g>
			</g>
		</g>
	</g>
	<g id="sucursals">
		<g class="st1">
			<rect x="440" y="-115.3" class="st3" width="639" height="827.7"/>
			<rect x="380.9" y="-213.8" class="st3" width="748.8" height="98.5"/>
			<rect x="575.1" y="-21.4" class="st12" width="137.3" height="130.9"/>
			<rect x="803.1" y="-21.4" class="st12" width="137.3" height="130.9"/>
			<rect x="572.6" y="206.6" class="st12" width="137.3" height="130.9"/>
			<rect x="800.7" y="206.6" class="st12" width="137.3" height="130.9"/>
			<rect x="643.7" y="436.8" class="st12" width="228" height="275.6"/>
			<line class="st6" x1="271.6" y1="713.5" x2="1228.6" y2="713.5"/>
			<path class="st3" d="M366.8,710.4h-70.2V539.6c0-6.5,5.2-11.7,11.7-11.7h46.8c6.5,0,11.7,5.2,11.7,11.7
				C366.8,539.6,366.8,710.4,366.8,710.4z"/>
			<g>
				<path class="st4" d="M332.7,408.2c1.9,0,1.9-3,0-3C330.7,405.2,330.7,408.2,332.7,408.2L332.7,408.2z"/>
			</g>
			<line class="st6" x1="332.6" y1="524.5" x2="332.6" y2="88.5"/>
			<path class="st13" d="M354.1,79.1h-46.8c-6.5,0-11.7-5.2-11.7-11.7V20.6c0-6.5,5.2-11.7,11.7-11.7h46.8c6.5,0,11.7,5.2,11.7,11.7
				v46.8C365.8,73.9,360.5,79.1,354.1,79.1z"/>
			<path class="st3" d="M1221.4,712.4h-70.2V543c0-6.5,5.2-11.7,11.7-11.7h46.8c6.5,0,11.7,5.2,11.7,11.7V712.4z"/>
			<g>
				<path class="st4" d="M1183.2,409.7c1.9,0,1.9-3,0-3C1181.3,406.7,1181.3,409.7,1183.2,409.7L1183.2,409.7z"/>
			</g>
			<line class="st6" x1="1185.6" y1="529.5" x2="1185.6" y2="207.5"/>
			<path class="st13" d="M1209.7,206.3h-46.8c-6.5,0-11.7-5.2-11.7-11.7v-46.8c0-6.5,5.2-11.7,11.7-11.7h46.8
				c6.5,0,11.7,5.2,11.7,11.7v46.8C1221.4,201,1216.1,206.3,1209.7,206.3z"/>
			<line class="st6" x1="300.6" y1="146.5" x2="370.6" y2="146.5"/>
			<line class="st6" x1="1146.6" y1="273.5" x2="1218.6" y2="273.5"/>
		</g>
	</g>
	<g id="todo" class="st1">
		<g>
			<path class="st9" d="M1040.3,735.9H459.7c-45,0-81.5-36.5-81.5-81.5V-67c0-45,36.5-81.5,81.5-81.5h580.5
				c45,0,81.5,36.5,81.5,81.5v721.4C1121.7,699.4,1085.2,735.9,1040.3,735.9z"/>
			<path class="st12" d="M1009.8,680.1H492.2c-32.7,0-59.2-26.5-59.2-59.2V-29.8c0-32.7,26.5-59.2,59.2-59.2h517.6
				c32.7,0,59.2,26.5,59.2,59.2v650.7C1069,653.6,1042.5,680.1,1009.8,680.1z"/>
			<g>
				<path class="st9" d="M627.6,168.6H557c-11.2,0-20.2-9.1-20.2-20.2V77.8c0-11.2,9.1-20.2,20.2-20.2h70.6
					c11.2,0,20.2,9.1,20.2,20.2v70.6C647.8,159.5,638.8,168.6,627.6,168.6z"/>
				<g>
					<path class="st4" d="M802.8,100.2h-90.3c-3.1,0-5.7-2.5-5.7-5.7V76c0-3.1,2.5-5.7,5.7-5.7h90.3c3.1,0,5.7,2.5,5.7,5.7v18.6
						C808.4,97.7,805.9,100.2,802.8,100.2z"/>
					<path class="st4" d="M955.5,155.8h-243c-3.1,0-5.7-2.5-5.7-5.7v-18.6c0-3.1,2.5-5.7,5.7-5.7h243c3.1,0,5.7,2.5,5.7,5.7v18.6
						C961.1,153.2,958.6,155.8,955.5,155.8z"/>
				</g>
				<path class="st9" d="M627.6,352.1H557c-11.2,0-20.2-9.1-20.2-20.2v-70.6c0-11.2,9.1-20.2,20.2-20.2h70.6
					c11.2,0,20.2,9.1,20.2,20.2v70.6C647.8,343,638.8,352.1,627.6,352.1z"/>
				<g>
					<path class="st4" d="M802.8,283.7h-90.3c-3.1,0-5.7-2.5-5.7-5.7v-18.6c0-3.1,2.5-5.7,5.7-5.7h90.3c3.1,0,5.7,2.5,5.7,5.7V278
						C808.4,281.2,805.9,283.7,802.8,283.7z"/>
					<path class="st4" d="M955.5,339.3h-243c-3.1,0-5.7-2.5-5.7-5.7V315c0-3.1,2.5-5.7,5.7-5.7h243c3.1,0,5.7,2.5,5.7,5.7v18.6
						C961.1,336.7,958.6,339.3,955.5,339.3z"/>
				</g>
				<path class="st9" d="M627.6,535.6H557c-11.2,0-20.2-9.1-20.2-20.2v-70.6c0-11.2,9.1-20.2,20.2-20.2h70.6
					c11.2,0,20.2,9.1,20.2,20.2v70.6C647.8,526.5,638.8,535.6,627.6,535.6z"/>
				<g>
					<path class="st4" d="M802.8,467.2h-90.3c-3.1,0-5.7-2.5-5.7-5.7v-18.6c0-3.1,2.5-5.7,5.7-5.7h90.3c3.1,0,5.7,2.5,5.7,5.7v18.6
						C808.4,464.6,805.9,467.2,802.8,467.2z"/>
					<path class="st4" d="M955.5,522.7h-243c-3.1,0-5.7-2.5-5.7-5.7v-18.6c0-3.1,2.5-5.7,5.7-5.7h243c3.1,0,5.7,2.5,5.7,5.7V517
						C961.1,520.2,958.6,522.7,955.5,522.7z"/>
				</g>
			</g>
			<g>
				<path class="st14" d="M513.2,301.7c-1.5-1.5-2.2-3.4-2.2-5.7s0.7-4.2,2.2-5.7l11.7-11.4c1.5-1.7,3.3-2.5,5.6-2.5
					c2.2,0,4.2,0.8,5.9,2.5l35.6,35.6l76.2-76.2c1.7-1.7,3.7-2.5,5.9-2.5c2.2,0,4.1,0.8,5.6,2.5l11.7,11.4c1.5,1.5,2.2,3.4,2.2,5.7
					c0,2.3-0.7,4.2-2.2,5.7l-93.7,93.4c-1.5,1.7-3.4,2.5-5.7,2.5s-4.2-0.8-5.7-2.5L513.2,301.7z"/>
			</g>
			<g>
				<path class="st14" d="M513.2,485.4c-1.5-1.5-2.2-3.4-2.2-5.7s0.7-4.2,2.2-5.7l11.7-11.4c1.5-1.7,3.3-2.5,5.6-2.5
					c2.2,0,4.2,0.8,5.9,2.5l35.6,35.6l76.2-76.2c1.7-1.7,3.7-2.5,5.9-2.5c2.2,0,4.1,0.8,5.6,2.5l11.7,11.4c1.5,1.5,2.2,3.4,2.2,5.7
					s-0.7,4.2-2.2,5.7l-93.7,93.4c-1.5,1.7-3.4,2.5-5.7,2.5s-4.2-0.8-5.7-2.5L513.2,485.4z"/>
			</g>
			<g>
				<path class="st14" d="M513.2,118.4c-1.5-1.5-2.2-3.4-2.2-5.7c0-2.3,0.7-4.2,2.2-5.7l11.7-11.4c1.5-1.7,3.3-2.5,5.6-2.5
					c2.2,0,4.2,0.8,5.9,2.5l35.6,35.6L648.2,55c1.7-1.7,3.7-2.5,5.9-2.5c2.2,0,4.1,0.8,5.6,2.5l11.7,11.4c1.5,1.5,2.2,3.4,2.2,5.7
					c0,2.3-0.7,4.2-2.2,5.7l-93.7,93.4c-1.5,1.7-3.4,2.5-5.7,2.5c-2.3,0-4.2-0.8-5.7-2.5L513.2,118.4z"/>
			</g>
			<path class="st15" d="M894.3-174.5h-82.5c-0.7-32-28.2-60.9-62.1-60.9c-33.9,0-61.4,28.9-62.1,60.9h-82.5
				c-14.5,0-28.6,11.3-28.6,25.8v75c0,14.5,14,27.1,28.6,27.1h289.1c14.5,0,25.3-12.6,25.3-27.1v-75
				C919.6-163.2,908.8-174.5,894.3-174.5z"/>
			<g>
				<g>
					<line class="st16" x1="670.6" y1="-123.5" x2="670.6" y2="-91.5"/>
					<line class="st16" x1="829.6" y1="-129.5" x2="829.6" y2="-93.5"/>
				</g>
				<path class="st16" d="M729.6-105.3c0,0,17.7,18,40.3,0"/>
			</g>
		</g>
	</g>
	<g id="cash">
		<g class="st1">
			<path class="st3" d="M889.3,717.5H382.9c-24,0-43.5-19.5-43.5-43.5v-848c0-24,19.5-43.5,43.5-43.5h506.4
				c24,0,43.5,19.5,43.5,43.5v848C932.8,698,913.4,717.5,889.3,717.5z"/>
			<rect x="413.9" y="-22.6" class="st17" width="453.3" height="208"/>
			<g>
				<path class="st18" d="M511.1,341.8h-71.8c-8,0-14.5-6.5-14.5-14.5v-46.5c0-8,6.5-14.5,14.5-14.5h71.8c8,0,14.5,6.5,14.5,14.5
					v46.5C525.6,335.4,519.1,341.8,511.1,341.8z"/>
				<path class="st18" d="M676.4,341.8h-71.8c-8,0-14.5-6.5-14.5-14.5v-46.5c0-8,6.5-14.5,14.5-14.5h71.8c8,0,14.5,6.5,14.5,14.5
					v46.5C690.9,335.4,684.4,341.8,676.4,341.8z"/>
				<path class="st19" d="M841.7,341.8H770c-8,0-14.5-6.5-14.5-14.5v-46.5c0-8,6.5-14.5,14.5-14.5h71.8c8,0,14.5,6.5,14.5,14.5v46.5
					C856.2,335.4,849.7,341.8,841.7,341.8z"/>
			</g>
			<g>
				<path class="st18" d="M511.1,490.6h-71.8c-8,0-14.5-6.5-14.5-14.5v-46.5c0-8,6.5-14.5,14.5-14.5h71.8c8,0,14.5,6.5,14.5,14.5
					v46.5C525.6,484.1,519.1,490.6,511.1,490.6z"/>
				<path class="st18" d="M676.4,490.6h-71.8c-8,0-14.5-6.5-14.5-14.5v-46.5c0-8,6.5-14.5,14.5-14.5h71.8c8,0,14.5,6.5,14.5,14.5
					v46.5C690.9,484.1,684.4,490.6,676.4,490.6z"/>
				<path class="st18" d="M841.7,490.6H770c-8,0-14.5-6.5-14.5-14.5v-46.5c0-8,6.5-14.5,14.5-14.5h71.8c8,0,14.5,6.5,14.5,14.5v46.5
					C856.2,484.1,849.7,490.6,841.7,490.6z"/>
			</g>
			<g>
				<path class="st18" d="M511.1,639.3h-71.8c-8,0-14.5-6.5-14.5-14.5v-46.5c0-8,6.5-14.5,14.5-14.5h71.8c8,0,14.5,6.5,14.5,14.5
					v46.5C525.6,632.8,519.1,639.3,511.1,639.3z"/>
				<path class="st18" d="M676.4,639.3h-71.8c-8,0-14.5-6.5-14.5-14.5v-46.5c0-8,6.5-14.5,14.5-14.5h71.8c8,0,14.5,6.5,14.5,14.5
					v46.5C690.9,632.8,684.4,639.3,676.4,639.3z"/>
				<path class="st18" d="M841.7,639.3H770c-8,0-14.5-6.5-14.5-14.5v-46.5c0-8,6.5-14.5,14.5-14.5h71.8c8,0,14.5,6.5,14.5,14.5v46.5
					C856.2,632.8,849.7,639.3,841.7,639.3z"/>
			</g>
			<path class="st3" d="M1150.1,643.1H932.8V125.2H1150c5.8,0,10.5,4.7,10.5,10.5v496.9C1160.6,638.3,1155.9,643.1,1150.1,643.1z"/>
			<path class="st20" d="M867.1-126.5H414.6c-8.1,0-14.7,6.9-14.7,15s6.6,15,14.7,15H867c8.1,0,14.7-6.9,14.7-15
				S875.2-126.5,867.1-126.5z"/>
			<g>
				<path class="st19" d="M684.6,143.6c-1.6,1.6-3.5,2.4-5.7,2.4c-2.2,0-4.2-0.8-5.7-2.4L640.5,111l-32.6,32.6
					c-1.6,1.6-3.5,2.4-5.7,2.4c-2.2,0-4.2-0.8-5.7-2.4l-18.2-18.2c-1.6-1.6-2.4-3.5-2.4-5.7s0.8-4.2,2.4-5.7l32.6-32.6l-32.6-32.6
					c-1.6-1.6-2.4-3.5-2.4-5.7s0.8-4.2,2.4-5.7l18.2-18.2c1.6-1.6,3.5-2.4,5.7-2.4c2.2,0,4.2,0.8,5.7,2.4l32.6,32.6l32.6-32.6
					c1.6-1.6,3.5-2.4,5.7-2.4c2.2,0,4.2,0.8,5.7,2.4l18.2,18.2c1.6,1.6,2.4,3.5,2.4,5.7s-0.8,4.2-2.4,5.7l-32.6,32.6l32.6,32.6
					c1.6,1.6,2.4,3.5,2.4,5.7s-0.8,4.2-2.4,5.7L684.6,143.6z"/>
			</g>
			<rect x="1009.7" y="139.8" class="st20" width="71.5" height="488.5"/>
		</g>
	</g>
	<g id="reports">
		<g class="st1">
			<g>
				<g>
					<path class="st4" d="M1216.7,155.1c-0.8-2.7-2.1-4.5-4-6.7c-3.8-4.3-9.3-5.9-15-5.9h-41.1v-224c0-15.2-12.6-28-27.7-28H650.3
						l-38.8-64.6c-4.9-8.3-13.9-13.4-23.6-13.4H372.5c-15.2,0-26.9,12.7-26.9,27.9v302.1h-43.2c-5.7,0-11.2,1.6-15,5.9
						c-1.9,2.2-3.2,4.4-4,7.1c-0.8,2.7-1,5.3-0.5,8.2l34.3,226.7l33.2,218.4l9.2,61.6c1.5,9.8,9.8,17.2,19.7,17.2H1121
						c9.9,0,18.1-7.1,19.6-16.9l9.2-61.1h0.1l33.1-218.8l34.4-227C1217.6,160.8,1217.5,157.7,1216.7,155.1z M376.6-156.5h209.2
						l38.8,64.6c5,8.2,14,13.4,23.7,13.4h475.3v221h-747L376.6-156.5L376.6-156.5z M361.6,475.1l-5.9-39.4l-2.2-14.2h61.7
						L361.6,475.1z M376,569.9l-8.6-56.5l92-91.9h65.1L376,569.9z M742.9,578.5h-80.7l156-157h80.7L742.9,578.5z M943,421.5h80.8
						l-156,157H787L943,421.5z M618,578.5h-80.7l156-157H774L618,578.5z M493.2,578.5h-80.7l156-157h80.7L493.2,578.5z
						 M1111.1,656.5H388.9l-7.1-47h736.3L1111.1,656.5z M1122.9,578.5h-86.2l101.7-101.6L1122.9,578.5z M1146.2,424.3L992.5,578.5
						h-80.7l156-157h78.7L1146.2,424.3z M1151.3,390.5H348.7l-33.1-219h868.7L1151.3,390.5z"/>
				</g>
			</g>
			<path class="st21" d="M1123.6-78.5v221h-747v-299h209.2l38.8,64.6c5,8.2,14,13.4,23.7,13.4H1123.6z"/>
			<polygon class="st22" points="376.6,66.7 1123.6,99.9 1123.6,142.5 376.6,142.5 			"/>
		</g>
	</g>
	<g id="brands">
		<g class="st1">
			<g>
				<path class="st23" d="M1219.6,350.7v202.7c0,43.2-36.5,79.1-79.7,79.1H359.8c-43.2,0-77.2-35.9-77.2-79.1V540
					C282.6,540,774.6,234.5,1219.6,350.7z"/>
				<path class="st24" d="M1219.6,323v27.7c-445-116.2-937,189.3-937,189.3V323c0-43.2,34.1-76.5,77.2-76.5h780.1
					C1183.1,246.5,1219.6,279.8,1219.6,323z"/>
				<path class="st4" d="M1140,647.5H360c-51.9,0-94.1-42.2-94.1-94.1V323c0-51.9,42.2-94.1,94.1-94.1h780
					c51.9,0,94.1,42.2,94.1,94.1v230.4C1234.2,605.3,1191.9,647.5,1140,647.5z M360,260.7c-34.4,0-62.3,28-62.3,62.3v230.4
					c0,34.4,28,62.3,62.3,62.3h780c34.4,0,62.3-28,62.3-62.3V323c0-34.4-28-62.3-62.3-62.3H360z"/>
			</g>
			<g>
				<path class="st25" d="M423,360l42.1,121.7h0.7L508.2,360h43.3v165.2h-33.1V476l3.2-72.9l-0.7-0.1l-44.2,122.3h-22.2l-44-121.8
					l-0.7,0.1l3.2,72.5v49.2h-33.1V360H423z"/>
				<path class="st25" d="M671.1,489.5h-58l-11.2,35.6h-33.5L625.3,360h33.9l56.6,165.2h-33.5L671.1,489.5z M621.3,463.6h41.6
					l-20.4-64.9h-0.7L621.3,463.6z"/>
				<path class="st25" d="M764.4,459.1v66h-33.1V360h62.3c18.8,0,33.6,4.3,44.2,12.9c10.6,8.6,15.9,20.6,15.9,35.9
					c0,8.5-2.2,15.9-6.7,22s-11,11.1-19.6,14.9c9.8,2.9,16.8,7.7,21,14.4c4.3,6.7,6.4,15.1,6.4,25v12.1c0,4.6,0.6,9.4,1.9,14.5
					c1.2,5,3.4,8.8,6.4,11.2v2.4H829c-3-2.4-5-6.5-5.9-12.1c-0.9-5.7-1.4-11-1.4-16.1v-11.7c0-8.2-2.3-14.7-6.8-19.2
					c-4.5-4.6-10.8-6.9-19-6.9h-31.5V459.1z M764.4,433.6H793c9.3,0,16.2-2,20.8-5.9s6.9-9.8,6.9-17.5c0-7.6-2.3-13.6-6.9-18
					c-4.6-4.5-11.3-6.7-20.3-6.7h-29.2v48.1H764.4z"/>
				<path class="st25" d="M1009.5,468.9l0.2,0.7c0.3,17.8-5.1,31.9-16.3,42.3c-11.2,10.4-26.6,15.7-46.5,15.7s-36-6.4-48.4-19.2
					C886.2,495.6,880,479.1,880,459v-32.8c0-20,6.1-36.5,18.2-49.4c12.1-12.9,27.8-19.3,47.2-19.3c20.4,0,36.4,5.2,47.9,15.7
					s17.1,24.8,16.8,42.8l-0.2,0.7h-32.2c0-10.9-2.6-19.2-7.8-25s-13.4-8.7-24.4-8.7c-9.9,0-17.8,4-23.6,12.1
					c-5.8,8-8.7,18.3-8.7,30.8v33c0,12.6,3.1,23,9.2,31c6.1,8,14.4,12.1,24.8,12.1c10.4,0,18-2.8,23-8.3c5-5.6,7.4-13.8,7.4-24.8
					L1009.5,468.9L1009.5,468.9z"/>
				<path class="st25" d="M1122,489.5h-58l-11.2,35.6h-33.5l56.8-165.1h33.9l56.6,165.2h-33.5L1122,489.5z M1072.2,463.6h41.6
					l-20.4-64.9h-0.7L1072.2,463.6z"/>
			</g>
			<path class="st26" d="M1102.9,76.8H953.6c-20.7,0-37.5-16.8-37.5-37.5V-110c0-20.7,16.8-37.5,37.5-37.5h149.3
				c20.7,0,37.5,16.8,37.5,37.5V39.3C1140.4,60,1123.6,76.8,1102.9,76.8z"/>
			<path class="st27" d="M543.7,151.7h-72.4c-11,0-19.9-8.9-19.9-19.9V59.4c0-11,8.9-19.9,19.9-19.9h72.4c11,0,19.9,8.9,19.9,19.9
				v72.4C563.6,142.8,554.7,151.7,543.7,151.7z"/>
			<circle class="st19" cx="1028.1" cy="-37.5" r="47.7"/>
		</g>
	</g>
	<g id="anticipos">
		<g class="st1">
			<path class="st9" d="M1226.6,496.5V106.1L876-181c0,0-21.5-19.5-55.4-35.2c-44.1-20.4-95.4-20.4-139.5,0
				c-34,15.8-56.5,35.2-56.5,35.2l-351,287.1v390.4H1226.6z"/>
			<g>
				<path class="st14" d="M1085.7,272.6H419.1c-20.3,0-36.7-16.4-36.7-36.7v-335c0-20.3,16.4-36.7,36.7-36.7h666.6
					c20.3,0,36.7,16.4,36.7,36.7V236C1122.3,256.2,1105.9,272.6,1085.7,272.6z"/>
				<path class="st28" d="M1061.9,289.1H442.8c-42.4,0-76.9-34.5-76.9-76.9V-75.4c0-42.4,34.5-76.9,76.9-76.9H1062
					c42.4,0,76.9,34.5,76.9,76.9v287.6C1138.8,254.6,1104.3,289.1,1061.9,289.1z M442.8-119.3c-24.2,0-43.9,19.7-43.9,43.9v287.6
					c0,24.2,19.7,43.9,43.9,43.9H1062c24.2,0,43.9-19.7,43.9-43.9V-75.4c0-24.2-19.7-43.9-43.9-43.9L442.8-119.3L442.8-119.3z"/>
			</g>
			<g>
				<path class="st14" d="M982-55.1c0-2-0.7-3.4-0.5-5.4H532.9c0,38-32.3,68.4-72.3,68.8v118.3c40,0,71.4,29.9,72.2,69.9h448.4
					c0.8-40,30.3-69.9,72.3-69.9V15.1C1011.6,15.1,982-16,982-55.1z"/>
				<path class="st28" d="M526.4,209.5l-0.1-8.7c-0.7-34.7-29.2-65.3-63.4-65.3h-7.2V1.8l7.5-0.1c35.3-0.4,64.5-29.2,64.5-64.2v-8
					h460.8l-0.4,7.6c-0.1,2-0.1,3.4-0.1,4.5c0,0.7,0,2.4,0,3.1c0,35.6,28.9,65.8,64.5,65.8h6.1v125h-6.1c-34.9,0-64,30.6-64.7,65.3
					l-0.1,8.7H526.4z M547.8-55.5c-4.7,0-8.8,3.2-9.7,7.8c-5.9,30.5-31.2,55-61.6,61.1c-4.6,0.9-8.8,4.9-8.8,9.6v88.7
					c0,4.7,4.2,8.8,8.9,9.7c29.8,5.9,54.5,30.1,60.9,60.2c1,4.6,5.4,7.8,10.1,7.8h419.2c4.7,0,8.7-3.3,9.7-7.8
					c3.1-14.8,10.5-28.4,21.4-39.2c11.1-10.9,25.3-18.2,40.5-21.1c4.7-0.9,8.4-5,8.4-9.7V30c0-4.7-3.7-8.8-8.4-9.7
					c-33-6.3-58.9-33.9-62.7-67.2c-0.6-5-5-8.6-10-8.6L547.8-55.5L547.8-55.5z"/>
			</g>
			<circle class="st28" cx="750.6" cy="71.6" r="78.6"/>
			<circle class="st29" cx="750.6" cy="71.6" r="62.5"/>
			<path class="st9" d="M875.7,428.6c0,0-20.9,19.5-55,35.2c-44.3,20.4-95.5,20.4-139.8,0c-34.1-15.7-55-35.2-55-35.2l-351-287.1
				v483.8c0,58.7,47.8,106.2,106.8,106.2h368h2.3h368c59,0,106.8-47.6,106.8-106.2V141.5L875.7,428.6z"/>
			<line class="st30" x1="575.1" y1="488.5" x2="362.6" y2="651.3"/>
			<line class="st30" x1="925.5" y1="488.5" x2="1137.9" y2="651.3"/>
		</g>
	</g>
	<g id="equipments">
		<g class="st1">
			<g>
				<g>
					<g>
						<polygon class="st31" points="1045.6,263.9 1150.4,69.4 933.2,-85.6 751.3,-36.5 742.6,-68.9 939.8,-122.1 1193.8,59.2 
							1075.1,279.8 						"/>
						<path class="st4" d="M937.8-111.2l243.1,173.5L1071,266.2l-11.9-6.4l104.2-193.5L935.2-96.5L758.4-48.8l-3.5-13L937.8-111.2
							 M941.7-133l-9.1,2.5L749.7-81.1l-19.3,5.2l5.2,19.3l3.5,13l5.2,19.3l19.3-5.2l167.6-45.3l206.1,147.1l-95.8,178L1032,268
							l17.6,9.5l11.9,6.4l17.6,9.5l9.5-17.6l109.8-204l8.4-15.5L1192.5,46L949.4-127.5L941.7-133L941.7-133z"/>
					</g>
				</g>
				<circle class="st32" cx="932.4" cy="-101.6" r="46.3"/>
				<circle class="st32" cx="1172.5" cy="58.9" r="46.3"/>
				<circle class="st33" cx="933.3" cy="-100.7" r="10.3"/>
				<circle class="st33" cx="1172.1" cy="58.4" r="10.3"/>
				<path class="st9" d="M851.4,81.1L599.2-24.4l14.6-35c5.1-12.3,19.3-18.1,31.6-12.9l207.7,86.9c12.3,5.1,18.1,19.3,12.9,31.6
					L851.4,81.1z"/>
				<path class="st9" d="M837.2,7.9L661.3-65.7l9.6-22.8c3.4-8,12.6-11.8,20.6-8.4l146.9,61.5c8,3.4,11.8,12.6,8.4,20.6L837.2,7.9z"
					/>
				<path class="st9" d="M1189.3,313.4H851.8c-5.4,0-9.8-4.4-9.8-9.8v-30.8c0-5.4,4.4-9.8,9.8-9.8h337.5c5.4,0,9.8,4.4,9.8,9.8v30.8
					C1199,309,1194.7,313.4,1189.3,313.4z"/>
				<rect x="894.6" y="313.4" class="st9" width="277.4" height="327.8"/>
				<rect x="697" y="477.3" class="st9" width="162.6" height="119.4"/>
				<path class="st34" d="M897.7,647.9h-249c-5.5,0-10-4.5-10-10v-31.3c0-5.5,4.5-10,10-10h249c5.5,0,10,4.5,10,10V638
					C907.7,643.5,903.2,647.9,897.7,647.9z"/>
				<path class="st9" d="M1107,594.5c0,0,61.5-71.4-54.5-122.6c0,0-100.5-22.9-120.7,19.6C931.8,491.5,1063.7,547.9,1107,594.5z"/>
				<path class="st9" d="M937.2,498.9c0,0,34.4-92.4-149.1-106.6c0,0-155.1,0-168.6,68.1C619.5,460.4,893.3,467.2,937.2,498.9z"/>
				<path class="st9" d="M624.9,465.7c0,0-18.9-105.1-114.7-154.3s-150.4-17.5-150.4-17.5S415.1,400.9,624.9,465.7z"/>
				<path class="st9" d="M371.9,296.5c0,0,31.7-107.3-64.7-99.5C307.2,197,313.9,272.3,371.9,296.5z"/>
				<g>
					<g>
						<path class="st31" d="M1100.6,611.7c-2.4,0-4.8-0.9-6.6-2.5c-61.2-54.5-124.5-83.5-166.8-98.2c-40.6-14.2-70.2-18.2-76.1-18.9
							c-5.2,0.3-12.5,0.4-21.7,0.4c-33,0-86.8-1.8-126.2-3.3c-70.2-2.7-139.1-23.2-199.4-59.4c-47.5-28.5-98.6-61.3-133.2-83.9
							c-31.1-20.3-57.5-47.3-76.4-78.2c-27.4-44.7-24.7-66.1-20.6-74.9c1.6-3.6,5.2-5.8,9.1-5.8c0.1,0,0.2,0,0.3,0l13.7,0.5
							c3.4,0.1,6.6,1.5,8.3,4.4c1.7,2.8,2.1,5.9,0.8,8.9c-0.4,1.9-2.6,17.6,16.9,49.5c16.3,26.6,39.2,50,66.1,67.6
							c34.3,22.4,85,55,132.1,83.2c55.4,33.2,118.9,52.1,183.4,54.6c56.9,2.2,98.9,3.3,124.8,3.3c9.4,0,16.5-0.2,21.2-0.4h0.5
							c0.2,0,0.4,0,0.6,0c0.3,0,0.6,0,0.9,0h0.5c1.4,0.1,35.3,3.4,84.7,20.6c45.3,15.7,113,46.7,178.5,105c4.1,3.7,4.5,10,0.8,14.1
							l-9,10.1c-1.8,2-4.2,3.2-6.9,3.3C1101,611.7,1100.8,611.7,1100.6,611.7z"/>
						<path class="st4" d="M282.7,197l13.7,0.5c0,0-6.7,18,17.8,58c17.1,27.9,41,52.4,69.2,70.8c34.4,22.4,85.2,55.1,132.4,83.4
							c56.9,34.1,122,53.5,188.2,56c57,2.2,99.4,3.3,125.2,3.3c9.6,0,16.9-0.2,21.8-0.5h0.5h0.5c1.4,0.1,34.1,3.3,82.4,20.1
							c44.4,15.4,110.9,45.8,175.1,103l-9,10.1c-62.4-55.6-127-85.2-170.1-100.2c-43.7-15.2-74.9-19-79.2-19.5
							c-5.3,0.3-12.8,0.5-22,0.5c-32,0-83.5-1.7-125.8-3.3c-68.5-2.6-135.8-22.7-194.6-58c-47.4-28.4-98.4-61.2-132.8-83.7
							c-29.8-19.5-55.2-45.4-73.3-75C274.4,216.2,281.6,199.4,282.7,197 M282.7,177c-7.8,0-14.9,4.5-18.2,11.6
							c-6,12.9-7.1,38.1,21.2,84.3c19.7,32.1,47.1,60.2,79.4,81.3c34.6,22.6,85.9,55.5,133.5,84.1c61.7,37,132.3,58,204.1,60.8
							c39.4,1.5,93.4,3.3,126.6,3.3c9,0,16-0.1,21.3-0.4c7.2,0.9,35.1,5,73.2,18.3c41.4,14.4,103.4,42.9,163.4,96.2
							c3.7,3.3,8.4,5.1,13.3,5.1c0.4,0,0.8,0,1.2,0c5.3-0.3,10.3-2.7,13.8-6.7l9-10.1c7.3-8.3,6.6-20.9-1.6-28.2
							c-66.7-59.4-135.7-90.9-181.8-107c-49.7-17.3-83.4-20.8-87.1-21.1h-0.5c-0.6-0.1-1.2-0.1-1.9-0.1c-0.4,0-0.9,0-1.3,0h-0.5
							c-4.4,0.3-11.3,0.4-20.5,0.4c-25.8,0-67.6-1.1-124.4-3.3c-62.9-2.4-124.7-20.8-178.7-53.2c-46.9-28.1-97.6-60.7-131.8-83
							c-25.7-16.8-47.5-39.1-63.1-64.5c-16.6-27-15.8-40.3-15.6-42.1c1.6-5.6,0.6-11.7-2.6-16.6c-3.6-5.3-9.5-8.6-15.9-8.8
							l-13.7-0.5C283.1,177.1,282.9,177,282.7,177L282.7,177z"/>
					</g>
				</g>
			</g>
			<polygon class="st35" points="613.9,-10.7 384.6,171.2 794.1,353 817.4,75.5 			"/>
		</g>
	</g>
	<g id="files">
		<g class="st1">
			<g>
				<path class="st36" d="M372.1-262.5c1.9,0,1.9-3,0-3S370.2-262.5,372.1-262.5L372.1-262.5z"/>
			</g>
			<g>
				<path class="st21" d="M636,250.3L636,250.3c0-11.1-9-20.1-20.1-20.1H501.4c-11.1,0-20.1,9-20.1,20.1l0,0
					c0,11.1-9,20.1-20.1,20.1h-66.7c-11.1,0-20.1,9-20.1,20.1v412.8c0,11.1,9,20.1,20.1,20.1h547.4c11.1,0,20.1-9,20.1-20.1V290.5
					c0-11.1-9-20.1-20.1-20.1H656.2C645.1,270.4,636,261.4,636,250.3z"/>
				<polygon class="st22" points="374.4,335.5 962.1,335.5 973.6,588.2 382.1,718.9 				"/>
				<path class="st4" d="M941.8,736H394.4c-18,0-32.7-14.7-32.7-32.7V290.5c0-18,14.7-32.7,32.7-32.7h66.7c4.2,0,7.6-3.4,7.6-7.6
					c0-18,14.7-32.7,32.7-32.7h114.5c18,0,32.7,14.7,32.7,32.7c0,4.2,3.4,7.6,7.6,7.6h285.7c18,0,32.7,14.7,32.7,32.7v412.8
					C974.5,721.3,959.9,736,941.8,736z M394.4,283c-4.2,0-7.6,3.4-7.6,7.6v412.8c0,4.2,3.4,7.6,7.6,7.6h547.4c4.2,0,7.6-3.4,7.6-7.6
					V290.5c0-4.2-3.4-7.6-7.6-7.6H656.2c-18,0-32.7-14.7-32.7-32.7c0-4.2-3.4-7.6-7.6-7.6H501.4c-4.2,0-7.6,3.4-7.6,7.6
					c0,18-14.7,32.7-32.7,32.7L394.4,283L394.4,283z"/>
			</g>
			<path class="st9" d="M944.6,722.8H414.9c-19.2,0-32.1-19.7-24.4-37.3l128.9-294c4.2-9.7,13.8-15.9,24.4-15.9h529.6
				c19.2,0,32.1,19.7,24.4,37.3l-128.9,294C964.7,716.6,955.1,722.8,944.6,722.8z"/>
			<path class="st37" d="M817.4,70.2c0,0,157.1,0,186.2-147.2c6.8-34.4-12.2-69.2-45.3-80.7c-16.8-5.8-35.5-5.1-52.6,12.2
				c-28,28.4-25.6,74.5,4.2,101.2c34.2,30.6,101.8,43.1,228.2-76.2"/>
			<path class="st37" d="M848.2-143.6c0,0-46,61.2,16.2,114.5"/>
			<path class="st37" d="M1048.3-108.4c0,0,41.5-22.7,56.6-47.8"/>
			<path class="st38" d="M919.9,95.5c0,0,60-25.4,81.8-59.7"/>
			<path class="st14" d="M751.8-59.5c19.4-4.4,21.6-19.2,21.6-19.2l0,0c0.3-0.2,4.7-4,8.8-5.5c0.1-0.1,0.3-0.1,0.4-0.1
				C789.8-62.2,751.8-59.5,751.8-59.5z"/>
			<path class="st39" d="M780.1-88.5c-2.8,1.6-5.8,4.5-6.7,9.9c0,0-2.2,14.8-21.6,19.2c4-4.1,5.9-10.8,6.7-15.3
				c0.9-4.7,3.1-9.2,6.7-12.4C772-93.3,777.7-90.4,780.1-88.5z"/>
			<g>
				<path class="st14" d="M1100.3-224c-4.2,17.4-17.5,19.3-17.5,19.3l0,0c-0.2,0.2-3.6,4.2-5.1,7.8c0,0.1-0.1,0.2-0.1,0.3
					C1097.5-189.8,1100.3-224,1100.3-224z"/>
				<path class="st39" d="M1073.9-198.8c1.5-2.5,4.1-5.1,9-5.9c0,0,13.3-1.9,17.5-19.3c-3.7,3.6-9.8,5.2-13.9,5.9
					c-4.3,0.7-8.3,2.7-11.2,5.9C1069.6-206.2,1072.2-201,1073.9-198.8z"/>
			</g>
			<g>
				<path class="st14" d="M677.2,53.9c30.7,7.7,44.6-11.6,44.6-11.6l0,0c0.6-0.1,9.5-2.2,16.4-1.5c0.2,0,0.4,0,0.6,0.1
					C733.2,77.6,677.2,53.9,677.2,53.9z"/>
				<path class="st39" d="M738.4,33.1c-5.2,0.2-11.4,2.3-16.6,9.2c0,0-13.9,19.4-44.6,11.6c8.6-2.9,16.2-11.1,20.6-16.9
					c4.7-6.1,11.1-10.7,18.5-12.7C730.3,20.5,736.3,28.8,738.4,33.1z"/>
			</g>
			<g>
				<path class="st14" d="M867.3,184.9c26.5-17.5,21.5-40.7,21.5-40.7l0,0c0.3-0.5,4.8-8.5,10-13.1c0.2-0.1,0.3-0.3,0.5-0.4
					C922.6,159.6,867.3,184.9,867.3,184.9z"/>
				<path class="st39" d="M893.3,125.7c-3.3,4-6,10-4.4,18.5c0,0,4.9,23.3-21.5,40.7c3.7-8.3,2.7-19.4,1.4-26.6
					c-1.4-7.6-0.4-15.4,3.1-22.3C878.5,123.1,888.6,124.3,893.3,125.7z"/>
			</g>
		</g>
	</g>
	<g id="images">
		<g class="st1">
			<path class="st40" d="M1228.6,386.6V32.5h-432v457H1106C1123.9,435.5,1170.8,395.5,1228.6,386.6z"/>
			<rect x="325.9" y="-66.4" class="st41" width="472.1" height="632.8"/>
			<rect x="271.3" y="-190.3" class="st15" width="581.5" height="123.9"/>
			<rect x="271.3" y="566.4" class="st15" width="581.5" height="123.9"/>
			<path class="st19" d="M1061.7,126.5h-58.5c-10.3,0-18.7-8.2-18.7-18.5s8.4-18.5,18.7-18.5h58.5c10.3,0,18.7,8.2,18.7,18.5
				S1072.1,126.5,1061.7,126.5z"/>
			<line class="st42" x1="1002.6" y1="416.5" x2="1061.6" y2="416.5"/>
			<line class="st42" x1="872.6" y1="105.5" x2="934.6" y2="105.5"/>
			<line class="st42" x1="872.6" y1="414.5" x2="934.6" y2="414.5"/>
			<g>
				<path class="st43" d="M562.6,235.5c-25.9,0-47,24-47,47c0,30,21.1,0,47,0c25.9,0,47,30,47,0
					C609.6,259.5,588.5,235.5,562.6,235.5z"/>
				<path class="st25" d="M459.6,106.2c-15.8,0-28,12.9-28,28.7v43.4c0,15.8,12.2,28.7,28,28.7s28-12.9,28-28.7v-43.4
					C487.6,119.1,475.4,106.2,459.6,106.2z"/>
				<path class="st25" d="M668.6,106.2c-15.8,0-29,12.9-29,28.7v43.4c0,15.8,13.2,28.7,29,28.7c15.8,0,29-12.9,29-28.7v-43.4
					C697.6,119.1,684.4,106.2,668.6,106.2z"/>
			</g>
			<rect x="852.7" y="141.5" class="st31" width="233.4" height="233.4"/>
			<polygon class="st21" points="1077.6,275.9 1077.6,366.5 864.6,366.5 864.6,311.6 927.8,271.1 970.9,304.2 1038.2,242.8 			"/>
			<polygon class="st4" points="962.9,298.6 1038.1,242.8 970.3,304.2 			"/>
			<polygon class="st4" points="928.8,271.1 864.6,324.4 864.6,311.6 			"/>
		</g>
	</g>
	<g id="contracts">
		<g class="st1">
			<polygon class="st24" points="771.9,-182.5 328.6,-182.5 328.6,669.5 941.6,669.5 941.6,-12.9 			"/>
		</g>
		<polygon class="st44" points="771.3,-182.1 791.6,18.5 942.1,-0.5 909.4,-44.5 		"/>
		<g class="st1">
			<path class="st4" d="M772,114.1H497.3c-5.6,0-10.2-4.6-10.2-10.2V77.1c0-5.6,4.6-10.2,10.2-10.2H772c5.6,0,10.2,4.6,10.2,10.2
				v26.8C782.2,109.5,777.6,114.1,772,114.1z"/>
			<path class="st4" d="M819.9,211.5H449.3c-5.6,0-10.2-4.6-10.2-10.2v-26.8c0-5.6,4.6-10.2,10.2-10.2h370.6
				c5.6,0,10.2,4.6,10.2,10.2v26.8C830.1,206.9,825.6,211.5,819.9,211.5z"/>
			<path class="st4" d="M819.9,311.8H449.3c-5.6,0-10.2-4.6-10.2-10.2v-26.8c0-5.6,4.6-10.2,10.2-10.2h370.6
				c5.6,0,10.2,4.6,10.2,10.2v26.8C830.1,307.3,825.6,311.8,819.9,311.8z"/>
			<path class="st4" d="M819.9,412.2H449.3c-5.6,0-10.2-4.6-10.2-10.2v-26.8c0-5.6,4.6-10.2,10.2-10.2h370.6
				c5.6,0,10.2,4.6,10.2,10.2V402C830.1,407.6,825.6,412.2,819.9,412.2z"/>
			<path class="st45" d="M819.9,563.8H688.3c-5.6,0-10.2-4.6-10.2-10.2v-26.8c0-5.6,4.6-10.2,10.2-10.2h131.6
				c5.6,0,10.2,4.6,10.2,10.2v26.8C830.1,559.3,825.6,563.8,819.9,563.8z"/>
		</g>
		<g class="st1">
			<path class="st4" d="M941.6,679.5h-613c-5.5,0-10-4.5-10-10v-852c0-5.5,4.5-10,10-10h443.3c2.7,0,5.2,1.1,7.1,2.9L948.7-20
				c1.9,1.9,2.9,4.4,2.9,7.1v682.4C951.6,675,947.1,679.5,941.6,679.5z M338.6,659.5h593V-8.8L767.8-172.5H338.6V659.5z"/>
		</g>
		<g class="st1">
			<rect x="278.8" y="619.6" class="st46" width="207.4" height="62.5"/>
			<rect x="316.4" y="557.6" class="st47" width="207.4" height="62.5"/>
			<g>
				<g>
					<circle class="st48" cx="415.1" cy="434.7" r="123.3"/>
					<path class="st46" d="M511.9,402.1c0-20.4-4.4-39.8-12.4-57.3c-22.1-20.7-51.8-33.4-84.4-33.4c-68.1,0-123.3,55.2-123.3,123.3
						c0,43,22,80.9,55.4,103c8.6,1.7,17.5,2.6,26.6,2.6C450.1,540.2,511.9,478.4,511.9,402.1z"/>
				</g>
				<g>
					<path class="st49" d="M408.1,521.1v-21.2c-12.2-0.2-24.8-4-32.2-9.3l5-14.1c7.6,5,18.5,9,30.3,9c14.9,0,25-8.6,25-20.6
						c0-11.6-8.2-18.7-23.8-25c-21.5-8.4-34.7-18.1-34.7-36.4c0-17.5,12.4-30.7,31.8-33.9v-21.2h13v20.4c12.6,0.4,21.2,3.8,27.3,7.4
						l-5.3,13.9c-4.4-2.5-13-7.2-26.5-7.2c-16.2,0-22.3,9.7-22.3,18.1c0,10.9,7.8,16.4,26.1,24c21.7,8.8,32.6,19.8,32.6,38.5
						c0,16.6-11.6,32.2-33.2,35.8v21.9h-13.1V521.1z"/>
				</g>
			</g>
		</g>
		<g class="st1">
			<path class="st50" d="M1145.2,37.8L784.4,398.6l0.4,0.4L742,504l105-42.8l-0.1-0.1l361.4-361.4c17.1-17.1,17.1-44.8,0-61.9l0,0
				C1190.8,20.4,1162.6,20.4,1145.2,37.8z"/>
			<path class="st51" d="M1208.2,37.8L1208.2,37.8c-17.4-17.4-45.6-17.4-63,0l-98.1,98.1l62.4,62.4l98.6-98.6
				C1225.3,82.5,1225.3,54.8,1208.2,37.8z"/>
			<path class="st52" d="M742.3,504.2L847,461.1l-0.1-0.1l361.4-361.4c17.1-17.1,17.3-44.5,0.3-61.6l0,0c-0.1-0.1,0,0.1,0,0.1
				L742.9,503.8L742.3,504.2z"/>
			<path class="st53" d="M1208.5,38.1L1079,167.6l30.6,30.6l98.6-98.6C1225.2,82.6,1225.3,55.2,1208.5,38.1z"/>
		</g>
		<polygon class="st54" points="771.3,-182.1 941.5,-12.5 770.7,-12.5 		"/>
	</g>
	<g id="sender">
		<path class="st55" d="M995.5,283.6v315.1H513.2V283.6l48.2-48.2h392.1L995.5,283.6z"/>
		<path class="st56" d="M995.5,283.6v315.1H754.3V235.3h199.2L995.5,283.6z"/>
		<path class="st57" d="M657.9,404.1h192.9v194.5H657.9V404.1z"/>
		<path class="st58" d="M754.3,404.1h96.5v194.5h-96.5V404.1z"/>
		<path class="st56" d="M995.5-176.2v459.8H513.2v-459.8c0-13.5,10.6-24.1,24.1-24.1h434.1C984.9-200.4,995.5-189.7,995.5-176.2z"/>
		<path class="st59" d="M995.5,283.6H754.3v-484h217c13.5,0,24.1,10.6,24.1,24.1v459.9H995.5z"/>
		<path class="st60" d="M561.4,138.9h96.5v96.5h-96.5V138.9z"/>
		<path class="st60" d="M706.1,138.9h96.5v96.5h-96.5V138.9L706.1,138.9z"/>
		<path class="st61" d="M850.8,138.9h96.5v96.5h-96.5V138.9z"/>
		<path class="st61" d="M850.8-5.8h96.5v96.5h-96.5V-5.8z"/>
		<g class="st1">
			<path class="st62" d="M706.1-5.8h96.5v96.5h-96.5V-5.8L706.1-5.8z"/>
			<path class="st62" d="M561.4-5.8h96.5v96.5h-96.5V-5.8z"/>
			<path class="st62" d="M561.4-152.1h96.5V-54h-96.5V-152.1z"/>
			<path class="st62" d="M706.1-152.1h96.5V-54h-96.5V-152.1L706.1-152.1z"/>
		</g>
		<path class="st61" d="M850.8-152.1h96.5V-54h-96.5V-152.1z"/>
		<path class="st61" d="M754.3-152.1h48.2V-54h-48.2V-152.1z"/>
		<path class="st61" d="M754.3-5.8h48.2v96.5h-48.2V-5.8z"/>
		<path class="st61" d="M754.3,138.9h48.2v96.5h-48.2V138.9z"/>
		<path class="st63" d="M1093.6,598.7c0,13.5-10.2,24.1-21.5,24.1H426.6c-11.3,0-20.1-10.6-20.1-24.1s8.9-24.1,20.1-24.1h645.5
			C1083.4,574.5,1093.6,585.1,1093.6,598.7z"/>
		<path class="st64" d="M1093.6,598.7c0,13.5-12.2,24.1-25.7,24.1H754.3v-48.2h313.5C1081.3,574.5,1093.6,585.1,1093.6,598.7z"/>
		<path class="st65" d="M899,404.1c0,13.5-10.6,24.1-24.1,24.1H633.8c-13.5,0-24.1-10.6-24.1-24.1s10.6-24.1,24.1-24.1h241.1
			C888.4,380,899,390.6,899,404.1z"/>
		<path class="st66" d="M874.9,428.2H754.3V380h120.6c13.5,0,24.1,10.6,24.1,24.1C899,417.6,888.4,428.2,874.9,428.2z"/>
		<g class="st1">
			<path class="st67" d="M847.9,542.3c0,28.3-14.5,50.3-30.6,72.3l-63,85.7l-63-85.7c-16.1-22-30.6-44-30.6-72.3
				c0-51.6,42-93.6,93.6-93.6h0.4C806.1,448.9,847.9,490.8,847.9,542.3z"/>
			<path class="st68" d="M847.9,542.3c0,28.3-14.5,50.3-30.6,72.3l-63,85.7V448.7h0.4C806.1,448.9,847.9,490.8,847.9,542.3z"/>
			<path class="st69" d="M809.9,542.3c0,30.7-24.9,55.6-55.6,55.6c-30.7,0-55.6-24.9-55.6-55.6c0-30.6,24.9-55.6,55.6-55.6
				C785,486.7,809.9,511.6,809.9,542.3z"/>
			<path class="st70" d="M809.9,542.3c0,30.7-24.9,55.6-55.6,55.6V486.7C785,486.7,809.9,511.6,809.9,542.3z"/>
		</g>
	</g>
	<g id="addressee">
		<path class="st71" d="M1032.9,191.6v361.8c0,11.8-9.3,21.1-21.1,21.1H502.2c-11.8,0-21.1-9.3-21.1-21.1V191.6L757-61.8
			L1032.9,191.6z"/>
		<path class="st72" d="M1032.9,191.6v361.8c0,11.8-9.3,21.1-21.1,21.1H757V-61.8L1032.9,191.6z"/>
		<path class="st73" d="M948.4-82.9h84.5v211.1h-84.5V-82.9z"/>
		<path class="st74" d="M1112.3,194.9l-27.9,31.7c-7.6,8.9-21.1,9.7-30,2.1L757-41.1L459.6,228.7c-8.9,7.6-22.4,6.8-30-2.1
			l-27.9-31.7c-7.6-8.9-6.8-22.4,2.1-30L743-140.8c3.8-3.8,8.9-5.5,13.9-5.5c5.1,0,10.1,1.7,13.9,5.5L1110.2,165
			C1119,172.6,1119.9,186.1,1112.3,194.9z"/>
		<path class="st75" d="M1112.3,194.9l-27.9,31.7c-7.6,8.9-21.1,9.7-30,2.1L757-41.1v-105.2c5.1,0,10.1,1.7,13.9,5.5L1110.2,165
			C1119,172.6,1119.9,186.1,1112.3,194.9z"/>
		<path class="st76" d="M1054-61.8H927.3c-11.7,0-21.1-9.4-21.1-21.1c0-11.7,9.4-21.1,21.1-21.1H1054c11.7,0,21.1,9.4,21.1,21.1
			S1065.7-61.8,1054-61.8z"/>
		<path class="st57" d="M660.6,404h192.9v194.5H660.6V404z"/>
		<path class="st58" d="M757.1,404h96.5v194.5h-96.5V404L757.1,404z"/>
		<path class="st60" d="M564.1,208.1h96.5v96.5h-96.5V208.1z"/>
		<path class="st60" d="M708.8,208.1h96.5v96.5h-96.5V208.1z"/>
		<path class="st61" d="M853.5,208.1H950v96.5h-96.5V208.1z"/>
		<path class="st61" d="M757,208.1h48.2v96.5H757V208.1z"/>
		<path class="st63" d="M1091.3,598.6c0,13.5-10.2,24.1-21.5,24.1H424.3c-11.3,0-20.1-10.6-20.1-24.1s8.9-24.1,20.1-24.1h645.5
			C1081.1,574.5,1091.3,585.1,1091.3,598.6z"/>
		<path class="st64" d="M1091.3,598.6c0,13.5-12.2,24.1-25.7,24.1H752.1v-48.2h313.5C1079.1,574.5,1091.3,585.1,1091.3,598.6z"/>
		<g class="st1">
			<path class="st67" d="M850.6,542.2c0,28.3-14.5,50.3-30.6,72.3l-63,85.7l-63-85.7c-16.1-22-30.6-44-30.6-72.3
				c0-51.6,42-93.6,93.6-93.6h0.4C808.9,448.9,850.6,490.7,850.6,542.2z"/>
			<path class="st68" d="M850.6,542.2c0,28.3-14.5,50.3-30.6,72.3l-63,85.7V448.6h0.4C808.9,448.9,850.6,490.7,850.6,542.2z"/>
			<path class="st69" d="M812.7,542.2c0,30.7-24.9,55.6-55.6,55.6c-30.7,0-55.6-24.9-55.6-55.6c0-30.6,24.9-55.6,55.6-55.6
				C787.8,486.6,812.7,511.6,812.7,542.2z"/>
			<path class="st70" d="M812.7,542.2c0,30.7-24.9,55.6-55.6,55.6V486.6C787.7,486.6,812.7,511.6,812.7,542.2z"/>
		</g>
	</g>
	<g id="guide">
		<g class="st1">
			<path class="st77" d="M520.8,722.5h458.3c15.5,0,28.1-12.6,28.1-28.1v-879.7c0-15.5-12.6-28.1-28.1-28.1H520.8
				c-15.5,0-28.1,12.6-28.1,28.1v879.7C492.7,709.9,505.3,722.5,520.8,722.5z"/>
			<path class="st78" d="M577-62c-5-5-8-11.8-8-19.4c0-15.2,12.3-27.5,27.5-27.5h329.7c15.2,0,27.5,12.3,27.5,27.5
				s-12.3,27.5-27.5,27.5H596.5C588.8-54,581.9-57,577-62z"/>
			<path class="st78" d="M741.8,20.4c-5-5-8-11.8-8-19.4c0-15.2,12.3-27.5,27.5-27.5h164.9c15.2,0,27.5,12.3,27.5,27.5
				c0,15.2-12.3,27.5-27.5,27.5H761.3C753.7,28.4,746.8,25.4,741.8,20.4z"/>
			<path class="st78" d="M741.8,130.3c-5-5-8-11.8-8-19.4c0-15.2,12.3-27.5,27.5-27.5h164.8c15.2,0,27.5,12.3,27.5,27.5
				s-12.3,27.5-27.5,27.5H761.3C753.7,138.3,746.8,135.3,741.8,130.3z"/>
			<path class="st78" d="M741.8,212.7c-5-5-8-11.8-8-19.4c0-15.2,12.3-27.5,27.5-27.5h164.8c15.2,0,27.5,12.3,27.5,27.5
				s-12.3,27.5-27.5,27.5H761.2C753.7,220.7,746.8,217.7,741.8,212.7z"/>
			<path class="st78" d="M741.8,350.1c-5-5-8-11.8-8-19.4c0-15.2,12.3-27.5,27.5-27.5h164.9c15.2,0,27.5,12.3,27.5,27.5
				s-12.3,27.5-27.5,27.5h-165C753.7,358.1,746.8,355,741.8,350.1z"/>
			<path class="st78" d="M741.8,432.5c-5-5-8-11.8-8-19.4c0-15.2,12.3-27.5,27.5-27.5h164.9c15.2,0,27.5,12.3,27.5,27.5
				s-12.3,27.5-27.5,27.5h-165C753.7,440.5,746.8,437.5,741.8,432.5z"/>
			<path class="st78" d="M741.8,514.9c-5-5-8-11.8-8-19.4c0-15.2,12.3-27.5,27.5-27.5h164.8c15.2,0,27.5,12.3,27.5,27.5
				S941.3,523,926.1,523H761.3C753.7,522.9,746.8,519.9,741.8,514.9z"/>
			<path class="st78" d="M577,597.3c-5-5-8-11.8-8-19.4c0-15.2,12.3-27.5,27.5-27.5h329.7c15.2,0,27.5,12.3,27.5,27.5
				s-12.3,27.5-27.5,27.5H596.4C588.8,605.4,582,602.3,577,597.3z"/>
			<path class="st78" d="M604.5,20.4c-5-5-8-11.8-8-19.4c0-15.2,12.3-27.5,27.5-27.5h27.5C666.7-26.5,679-14.2,679,1
				c0,15.2-12.3,27.5-27.5,27.5H624C616.3,28.4,609.4,25.4,604.5,20.4z"/>
			<path class="st78" d="M604.5,130.3c-5-5-8-11.8-8-19.4c0-15.2,12.3-27.5,27.5-27.5h27.5c15.2,0,27.5,12.3,27.5,27.5
				s-12.3,27.5-27.5,27.5H624C616.3,138.3,609.4,135.3,604.5,130.3z"/>
			<path class="st78" d="M604.4,212.7c-5-5-8-11.8-8-19.4c0-15.2,12.3-27.5,27.5-27.5h27.5c15.2,0,27.5,12.3,27.5,27.5
				s-12.3,27.5-27.5,27.5h-27.5C616.3,220.7,609.4,217.7,604.4,212.7z"/>
			<path class="st78" d="M604.5,350.1c-5-5-8-11.8-8-19.4c0-15.2,12.3-27.5,27.5-27.5h27.5c15.2,0,27.5,12.3,27.5,27.5
				s-12.3,27.5-27.5,27.5H624C616.3,358.1,609.4,355,604.5,350.1z"/>
			<path class="st78" d="M604.5,432.5c-5-5-8-11.8-8-19.4c0-15.2,12.3-27.5,27.5-27.5h27.5c15.2,0,27.5,12.3,27.5,27.5
				s-12.3,27.5-27.5,27.5H624C616.3,440.5,609.4,437.4,604.5,432.5z"/>
			<path class="st78" d="M604.4,514.9c-5-5-8-11.8-8-19.4c0-15.2,12.3-27.5,27.5-27.5h27.5c15.2,0,27.5,12.3,27.5,27.5
				S666.6,523,651.4,523h-27.5C616.3,523,609.4,519.9,604.4,514.9z"/>
		</g>
	</g>
</g>
<g id="Layer_2">
	<g>
		<path class="st31" d="M1230.6,42.6c0-119.5-96.8-216.3-216.3-216.3c-84.2,0-157.2,48.1-192.9,118.4
			c-32.8-44.1-85.3-72.6-144.5-72.6c-99.5,0-180.1,80.6-180.1,180.1c0,38.9,12.3,74.9,33.2,104.3c76.7,108.4-56.1,224.3-158.8,224.3
			c-32.8,0-59.3,26.6-59.3,59.3s26.6,59.3,59.3,59.3c191.2,0,285.2,63.1,528.4,63.1c131.3,0,237.8-106.5,237.8-237.8
			c0-32.8-6.7-64.1-18.7-92.6C1185.4,195.2,1230.6,124.2,1230.6,42.6z"/>
		<g>
			<circle class="st25" cx="604.5" cy="1.2" r="15.3"/>
			<circle class="st25" cx="927.6" cy="453.3" r="15.3"/>
			<circle class="st25" cx="705.4" cy="387.5" r="15.3"/>
			<circle class="st25" cx="1168" cy="1.2" r="15.3"/>
			<circle class="st25" cx="1057.4" cy="392.7" r="15.3"/>
			<circle class="st25" cx="880.4" cy="319.1" r="15.3"/>
			<circle class="st25" cx="976.6" cy="-96.1" r="15.3"/>
			<circle class="st25" cx="927.6" cy="-8.7" r="15.3"/>
			<circle class="st25" cx="755.9" cy="279.3" r="15.3"/>
		</g>
		<path class="st79" d="M510.4,317.5c60.4-43.1,97.9-116,48.4-185.8c-20.9-29.4-33.2-65.4-33.2-104.3c0-47.8,18.6-91.3,49-123.5
			c-47.1,32.5-78,86.8-78,148.4c0,38.9,12.3,74.9,33.2,104.3C570.8,214.3,552.2,274.1,510.4,317.5z M928.5,537.7
			c-243.2,0-337.2-63.1-528.4-63.1c-32.8,0-59.3-26.5-59.3-59.3c0-11,3-21.3,8.3-30.2c-21.8,8.8-37.2,30.1-37.2,55
			c0,32.8,26.6,59.3,59.3,59.3c191.2,0,285.2,63.1,528.4,63.1c66,0,125.8-26.9,168.9-70.4C1029.1,520.8,980.8,537.7,928.5,537.7z"/>
		<g>
			<path class="st25" d="M979.3,155.3c-20.1,0-36.4-16.3-36.4-36.4c0,20.1-16.3,36.4-36.4,36.4c-8,0-15.3-2.6-21.3-7v19
				c0,31.9,25.8,57.7,57.7,57.7s57.7-25.8,57.7-57.7v-19C994.6,152.7,987.2,155.3,979.3,155.3z"/>
			<path class="st25" d="M608.5,309.9H423.4c-8.5,0-15.3-6.9-15.3-15.3c0-8.5,6.9-15.3,15.3-15.3h185.1c47.6,0,86.3-38.7,86.3-86.3
				c0-47.6-38.7-86.3-86.3-86.3c-47.6,0-86.3,38.7-86.3,86.3c0,8.5-6.9,15.3-15.3,15.3s-15.3-6.9-15.3-15.3
				c0-64.5,52.5-117,116.9-117s116.9,52.5,116.9,117S673,309.9,608.5,309.9z"/>
			<path class="st25" d="M695.3,671.7c-68.7,0-124.5-55.9-124.5-124.5c0-8.5,6.9-15.3,15.3-15.3s15.3,6.9,15.3,15.3
				c0,51.7,42.1,93.8,93.8,93.8c51.7,0,93.8-42.1,93.8-93.8s-42.1-93.8-93.8-93.8H404.5c-8.5,0-15.3-6.9-15.3-15.3
				s6.9-15.3,15.3-15.3h290.8c68.7,0,124.5,55.9,124.5,124.5S764,671.7,695.3,671.7z"/>
			<path class="st25" d="M695.3,614.8c-8.5,0-15.3-6.9-15.3-15.3s6.9-15.3,15.3-15.3c20.3,0,36.9-16.6,36.9-36.9
				s-16.6-36.9-36.9-36.9s-36.9,16.6-36.9,36.9c0,8.5-6.9,15.3-15.3,15.3s-15.3-6.9-15.3-15.3c0-37.3,30.3-67.6,67.6-67.6
				s67.6,30.3,67.6,67.6C762.9,584.4,732.6,614.8,695.3,614.8z"/>
			<path class="st25" d="M608.5,256.7c-35.2,0-63.8-28.6-63.8-63.8s28.6-63.8,63.8-63.8s63.8,28.6,63.8,63.8
				c0,8.5-6.9,15.3-15.3,15.3s-15.3-6.9-15.3-15.3c0-18.2-14.8-33.1-33.1-33.1c-18.2,0-33.1,14.8-33.1,33.1
				c0,18.2,14.8,33.1,33.1,33.1c8.5,0,15.3,6.9,15.3,15.3C623.8,249.9,617,256.7,608.5,256.7z"/>
			<path class="st25" d="M578.1,387.6H282.8c-8.5,0-15.3-6.9-15.3-15.3c0-8.5,6.9-15.3,15.3-15.3h295.4c8.5,0,15.3,6.9,15.3,15.3
				C593.5,380.7,586.6,387.6,578.1,387.6z"/>
		</g>
		<g>
			<path class="st80" d="M774.9,79.9c-8.5,0-15.3-6.9-15.3-15.3V49.1c0-8.5,6.9-15.3,15.3-15.3s15.3,6.9,15.3,15.3v15.5
				C790.2,73.1,783.4,79.9,774.9,79.9z"/>
			<path class="st80" d="M1110.9,79.9c-8.5,0-15.3-6.9-15.3-15.3V49.1c0-8.5,6.9-15.3,15.3-15.3c8.5,0,15.3,6.9,15.3,15.3v15.5
				C1126.2,73.1,1119.4,79.9,1110.9,79.9z"/>
			<path class="st80" d="M1031,118.9c0-8.5-6.9-15.3-15.3-15.3c-8.5,0-15.3,6.9-15.3,15.3c0,11.6-9.4,21-21,21c-11.6,0-21-9.4-21-21
				c0-8.5-6.9-15.3-15.3-15.3s-15.3,6.9-15.3,15.3c0,11.6-9.4,21-21,21c-11.6,0-21-9.4-21-21c0-8.5-6.9-15.3-15.3-15.3
				c-8.5,0-15.3,6.9-15.3,15.3c0,14.2,5.8,27.1,15,36.4v11.9c0,40.3,32.8,73,73,73c40.3,0,73-32.8,73-73v-12
				C1025.2,146,1031,133.1,1031,118.9z M942.9,209.7c-22.3,0-40.7-17.4-42.2-39.4c1.9,0.2,3.9,0.3,5.8,0.3c14.2,0,27-5.7,36.4-15
				c9.3,9.3,22.2,15,36.4,15c2,0,3.9-0.1,5.8-0.3C983.5,192.3,965.2,209.7,942.9,209.7z"/>
		</g>
	</g>
</g>
</svg>
