<?xml version="1.0" encoding="utf-8"?>
<!-- Generator: Adobe Illustrator 19.0.0, SVG Export Plug-In . SVG Version: 6.00 Build 0)  -->
<svg version="1.1" xmlns="http://www.w3.org/2000/svg" xmlns:xlink="http://www.w3.org/1999/xlink" x="0px" y="0px"
	 viewBox="0 0 500 500" style="enable-background:new 0 0 500 500;" xml:space="preserve">
<style type="text/css">
	.st0{display:none;}
	.st1{display:inline;fill:#F1F2F2;}
	.st2{display:inline;}
	.st3{fill:#95A5A5;}
	.st4{fill:#2C3E50;}
	.st5{fill:#CC4B4C;}
	.st6{fill:#C03A2B;}
	.st7{fill:#E57E25;}
	.st8{fill:#F0C419;}
	.st9{fill:#67B9CC;}
	.st10{fill:#802F34;}
	.st11{fill:#7F8C8D;}
	.st12{fill:#BDC3C7;}
	.st13{display:inline;fill:#FFFFFF;}
	.st14{font-family:'BebasNeueRegular';}
	.st15{font-size:45px;}
	.st16{letter-spacing:1;}
	.st17{display:inline;fill:#F28838;}
	.st18{display:inline;fill:#EF711D;}
	.st19{display:inline;fill:#7A7A7A;}
	.st20{display:inline;fill:#686868;}
	.st21{display:inline;fill:#FCA468;}
	.st22{display:inline;fill:#C3C3C3;}
	.st23{display:inline;fill:#B6B6B6;}
	.st24{display:inline;fill:#868686;}
	.st25{display:inline;fill:#EA6428;}
	.st26{display:inline;fill:#DD4D14;}
	.st27{display:inline;fill:#58595B;}
	.st28{display:inline;fill:#414042;}
	.st29{display:inline;fill:#D1D3D4;}
	.st30{display:inline;fill:#E6E7E8;}
	.st31{fill:#414042;}
	.st32{fill:#9A9A9A;}
	.st33{fill:#7E7E7E;}
	.st34{fill:#757575;}
	.st35{fill:#626262;}
	.st36{fill:#D8D8D8;}
	.st37{fill:#DDDDDD;}
	.st38{fill:#CECECE;}
	.st39{fill:#A9A9A9;}
	.st40{fill:#BCBEC0;}
	.st41{fill:#808285;}
	.st42{fill:#F1F2F2;}
	.st43{fill:#E6E7E8;}
	.st44{fill:#58595B;}
	.st45{fill:#FFDA73;}
	.st46{fill:#55627A;}
	.st47{fill:#3B404D;}
	.st48{clip-path:url(#XMLID_179_);fill:#52B5D8;}
	.st49{clip-path:url(#XMLID_179_);fill:#F76C59;}
	.st50{fill:#E85142;}
	.st51{fill:#E6E6E6;}
	.st52{fill:#CCCCCC;}
	.st53{fill:#F9A54B;}
	.st54{fill:#F76C59;}
</style>
<g id="Layer_1" class="st0">
	<circle id="XMLID_14_" class="st1" cx="250" cy="250" r="239"/>
	<g id="XMLID_16_" class="st2">
		<path id="XMLID_13_" class="st3" d="M105.7,324c-3.6,0-6.6-2.9-6.6-6.6V140.3c0-3.6,2.9-6.6,6.6-6.6s6.6,2.9,6.6,6.6v177.1
			C112.3,321,109.3,324,105.7,324z"/>
		<g id="XMLID_28_">
			<path id="XMLID_12_" class="st4" d="M217.2,369.9h39.4v45.9c0,7.2-5.9,13.1-13.1,13.1h-13.1c-7.2,0-13.1-5.9-13.1-13.1V369.9z"/>
			<path id="XMLID_11_" class="st4" d="M368.1,369.9h39.4v45.9c0,7.2-5.9,13.1-13.1,13.1h-13.1c-7.2,0-13.1-5.9-13.1-13.1V369.9z"/>
		</g>
		<path id="XMLID_10_" class="st5" d="M416.9,48.5H207.7c-13.7,0.9-24.1,12.6-23.3,26.2v268.9l15.5,35.7c0.9,2.2,2.9,3.6,5.2,3.7
			h214.3c2.3-0.1,4.4-1.5,5.2-3.7l15.5-35.7V74.7C441,61.1,430.6,49.4,416.9,48.5z"/>
		<path id="XMLID_9_" class="st6" d="M440.2,343.7l-15.5,35.7c-0.9,2.2-2.9,3.6-5.2,3.7H205.2c-2.3-0.1-4.4-1.5-5.2-3.7l-15.5-35.7
			H440.2z"/>
		<path id="XMLID_8_" class="st7" d="M223.8,74.7h177.1c7.2,0,13.1,5.9,13.1,13.1v6.6c0,7.2-5.9,13.1-13.1,13.1H223.8
			c-7.2,0-13.1-5.9-13.1-13.1v-6.6C210.6,80.6,216.5,74.7,223.8,74.7z"/>
		<g id="XMLID_22_">
			<circle id="XMLID_7_" class="st8" cx="230.3" cy="297.7" r="19.7"/>
			<circle id="XMLID_6_" class="st8" cx="394.3" cy="297.7" r="19.7"/>
		</g>
		<path id="XMLID_5_" class="st9" d="M223.8,133.8h177.1c7.2,0,13.1,5.9,13.1,13.1v91.8c0,7.2-5.9,13.1-13.1,13.1H223.8
			c-7.2,0-13.1-5.9-13.1-13.1v-91.8C210.6,139.6,216.5,133.8,223.8,133.8z"/>
		<path id="XMLID_4_" class="st10" d="M289.4,310.9h45.9c7.2,0,13.1,5.9,13.1,13.1v19.7h-72.1V324
			C276.2,316.7,282.1,310.9,289.4,310.9z"/>
		<circle id="XMLID_3_" class="st5" cx="105.7" cy="120.7" r="45.9"/>
		<path id="XMLID_2_" class="st11" d="M99.1,291.2h13.1c7.2,0,13.1,5.9,13.1,13.1v124.6H86V304.3C86,297.1,91.9,291.2,99.1,291.2z"
			/>
		<path id="XMLID_15_" class="st12" d="M440.2,435.5H59.8c-3.6,0-6.6-2.9-6.6-6.6c0-3.6,2.9-6.6,6.6-6.6h380.4
			c3.6,0,6.6,2.9,6.6,6.6C446.8,432.6,443.8,435.5,440.2,435.5z"/>
	</g>
	<text id="XMLID_1_" transform="matrix(1 0 0 1 70.3098 136.4665)" class="st13 st14 st15 st16">STOP</text>
</g>
<g id="Layer_2" class="st0">
	<path id="XMLID_58_" class="st17" d="M216.2,304.7h-10h-12h-10h-61.8h-10h-12h-10c-3.1,0-5.7,2.6-5.7,5.7v77c0,3.1,2.6,5.7,5.7,5.7
		h10h12h10h61.8h10h12h10c3.2,0,5.7-2.6,5.7-5.7v-77C221.9,307.2,219.4,304.7,216.2,304.7z"/>
	<path id="XMLID_54_" class="st18" d="M104.6,387.4v-77c0-3.1,2.6-5.7,5.7-5.7h-10h-10c-3.1,0-5.7,2.6-5.7,5.7v77
		c0,3.1,2.6,5.7,5.7,5.7h10h10C107.1,393.1,104.6,390.5,104.6,387.4z"/>
	<polygon id="XMLID_46_" class="st19" points="92.2,241.5 46.3,287.5 46.3,241.5 	"/>
	<polygon id="XMLID_45_" class="st19" points="407.8,241.5 453.7,287.5 453.7,241.5 	"/>
	<polygon id="XMLID_44_" class="st20" points="92.2,62.6 46.3,108.6 46.3,62.6 	"/>
	<polygon id="XMLID_43_" class="st19" points="407.8,62.6 453.7,108.6 453.7,62.6 	"/>
	<polygon id="XMLID_42_" class="st19" points="92.2,420.3 46.3,466.3 46.3,420.3 	"/>
	<polygon id="XMLID_41_" class="st20" points="67.4,241.5 46.3,241.5 46.3,287.5 67.4,266.4 	"/>
	<polygon id="XMLID_40_" class="st20" points="67.4,62.6 46.3,62.6 46.3,108.6 67.4,87.5 	"/>
	<polygon id="XMLID_39_" class="st20" points="67.4,420.3 46.3,420.3 46.3,466.3 67.4,445.2 	"/>
	<polygon id="XMLID_38_" class="st19" points="407.8,420.3 453.7,466.3 453.7,420.3 	"/>
	<path id="XMLID_37_" class="st21" d="M177.2,370.9h-43.2c-4.2,0-7.5-3.4-7.5-7.5c0-4.2,3.4-7.5,7.5-7.5h43.2c4.2,0,7.5,3.4,7.5,7.5
		C184.8,367.5,181.4,370.9,177.2,370.9z"/>
	<polygon id="XMLID_35_" class="st22" points="99.4,214.2 35.6,214.2 35.6,242.5 99.4,242.5 360.4,242.5 388.5,242.5 403.1,242.5 
		466.9,242.5 466.9,214.2 403.1,214.2 	"/>
	<polygon id="XMLID_34_" class="st22" points="99.4,393.1 35.6,393.1 35.6,421.3 99.4,421.3 403.1,421.3 466.9,421.3 466.9,393.1 
		403.1,393.1 	"/>
	<polygon id="XMLID_33_" class="st22" points="403.1,35.4 99.4,35.4 35.6,35.4 35.6,63.6 99.4,63.6 360.4,63.6 388.5,63.6 
		403.1,63.6 466.9,63.6 466.9,35.4 	"/>
	<polygon id="XMLID_32_" class="st23" points="40.3,214.2 35.6,214.2 35.6,242.5 40.3,242.5 59.5,242.5 61.6,242.5 62.7,242.5 
		67.4,242.5 67.4,214.2 62.7,214.2 	"/>
	<polygon id="XMLID_31_" class="st23" points="40.3,393.1 35.6,393.1 35.6,421.3 40.3,421.3 62.7,421.3 67.4,421.3 67.4,393.1 
		62.7,393.1 	"/>
	<polygon id="XMLID_30_" class="st23" points="62.7,35.4 40.3,35.4 35.6,35.4 35.6,63.6 40.3,63.6 59.5,63.6 61.6,63.6 62.7,63.6 
		67.4,63.6 67.4,35.4 	"/>
	<path id="XMLID_29_" class="st24" d="M481,104.7V35.6c0-7-5.6-12.6-12.6-12.6h-3.1c-7,0-12.6,5.6-12.6,12.6v75.7v285.5v75.7
		c0,7,5.6,12.6,12.6,12.6h3.1c7,0,12.6-5.6,12.6-12.6v-75.7V130.5"/>
	<path id="XMLID_27_" class="st24" d="M19,35.6v75.7v285.5v75.7c0,7,5.6,12.6,12.6,12.6h3.1c7,0,12.6-5.6,12.6-12.6v-75.7V111.2
		V35.6c0-7-5.6-12.6-12.6-12.6h-3.1C24.6,23,19,28.6,19,35.6z"/>
	<path id="XMLID_26_" class="st25" d="M216.2,304.7h-10h-12h-10h-61.8h-10h-12h-10c-3.1,0-5.7,2.6-5.7,5.7v25.4h137.5v-25.4
		C221.9,307.2,219.4,304.7,216.2,304.7z"/>
	<path id="XMLID_25_" class="st26" d="M104.6,310.4c0-3.1,2.6-5.7,5.7-5.7h-10h-10c-3.1,0-5.7,2.6-5.7,5.7v25.4h20.1V310.4z"/>
	<rect id="XMLID_59_" x="7" y="15" class="st24" width="486" height="20.4"/>
	<path id="XMLID_100_" class="st27" d="M384.2,214.2c-0.7,0-1.3-0.6-1.3-1.3c0-0.7,0.6-1.3,1.3-1.3h0.2c8.9,0,21.2-24.2,21.2-38
		c0-3.2-0.7-5.6-2-6.9c-0.1-0.1-0.3-0.4-0.3-0.4c-0.3-0.3-0.4-0.6-0.4-1c0-0.3,0.1-0.7,0.4-0.9c0.2-0.2,0.5-0.4,0.9-0.4
		c0.3,0,0.7,0.1,0.9,0.4l0.8,0.8l0.1,0c1.4,1,3.5,1.6,6.4,1.6c4.8,0,11.3-1.5,17.8-4.2c11.8-4.9,20.3-12,20.3-17v-1.5
		c0-0.7,0.6-1.3,1.3-1.3s1.3,0.6,1.3,1.3v70H384.2z M436,201.4c-0.6,3-2,6.3-3.7,8.8l-1.1,1.6h17.3l-12.1-12.1L436,201.4z
		 M421.5,186.9c-0.4,4.9-2.4,11.1-5.4,16.6c-1,1.8-2.5,4.3-4.4,6.5l-1.5,1.7h16.7c2.5-0.2,7-8.1,7-13.2c0-1.2-0.3-1.7-0.4-1.9
		c0-0.1-0.1-0.1-10.3-10.3l-1.5-1.5L421.5,186.9z M408.1,173.7c0,10.1-6.6,27.7-15.4,36.2l-1.8,1.7h13.6c2.6,0,6.2-3.6,9.3-9.4
		c3.1-5.7,5.1-12.3,5.1-16.9c0-1.5-0.2-3.5-1.3-4.6c0,0-9.6-9.6-9.6-9.6V173.7z M448.8,193.7c-1.7,1.2-3.5,2-4.5,2.4
		c-1,0.4-2.6,1-4.3,1.4l-1.8,0.4l12.1,12.1v-17.2L448.8,193.7z M448.7,173c-2.8,2.5-6.8,4.9-11.4,6.8c-1.9,0.8-7,2.7-11.7,3.1
		l-2.2,0.2l11.8,11.8l0.1,0.1c0.4,0.2,0.9,0.3,1.7,0.3c0.9,0,3.2-0.2,6.7-1.7c3.7-1.6,6.4-3.8,6.5-5.2l0-16.8L448.7,173z M448.6,154
		c-3.9,4-10.3,8-17.6,11.1c-6.9,2.8-13.5,4.4-18.6,4.4l-2.4,0l9.8,9.8l0.1,0c0.9,0.7,2.3,1,4.2,1c3.3,0,7.7-1,12.3-2.9
		c8.1-3.4,14-8.2,14-11.6v-13.6L448.6,154z"/>
	<path id="XMLID_53_" class="st28" d="M379.9,214.2c-0.7,0-1.3-0.5-1.3-1c0-0.6,0.6-1,1.3-1h0.2c9.5,0,22.5-19.9,22.5-31.1
		c0-2.6-0.7-4.6-2.1-5.7c-0.1-0.1-0.3-0.3-0.3-0.3c-0.3-0.3-0.5-0.5-0.5-0.8c0-0.3,0.1-0.5,0.4-0.7c0.2-0.2,0.6-0.3,0.9-0.3
		c0.4,0,0.7,0.1,0.9,0.3l0.9,0.7l0.1,0c1.5,0.9,3.7,1.3,6.8,1.3c5.1,0,12-1.3,18.9-3.5c12.5-4,21.6-9.9,21.6-13.9v-1.2
		c0-0.6,0.6-1,1.3-1s1.3,0.5,1.3,1v57.3H379.9z M435,203.7c-0.7,2.5-2.2,5.2-3.9,7.2l-1.1,1.3h18.3l-12.9-9.9L435,203.7z
		 M419.5,191.9c-0.4,4-2.5,9.1-5.7,13.6c-1,1.4-2.7,3.5-4.7,5.3l-1.6,1.4h17.7c2.6-0.2,7.4-6.6,7.4-10.8c0-1-0.3-1.4-0.5-1.6
		c-0.1-0.1-0.1-0.1-10.9-8.4l-1.6-1.3L419.5,191.9z M405.3,181c0,8.3-7,22.7-16.4,29.7l-1.9,1.4h14.4c2.8,0,6.6-2.9,9.9-7.7
		c3.3-4.7,5.4-10.1,5.4-13.8c0-1.2-0.2-2.9-1.4-3.7c0,0-10.2-7.9-10.2-7.9V181z M448.5,197.4c-1.9,1-3.8,1.6-4.7,1.9
		c-1.1,0.3-2.7,0.8-4.5,1.1l-1.9,0.3l12.8,9.9v-14.1L448.5,197.4z M448.4,180.5c-2.9,2-7.2,4-12.1,5.5c-2.1,0.7-7.4,2.2-12.4,2.5
		l-2.3,0.1l12.6,9.7l0.1,0.1c0.4,0.2,1,0.3,1.8,0.3c0.9,0,3.4-0.1,7.2-1.4c3.9-1.3,6.8-3.1,6.9-4.3l0-13.7L448.4,180.5z
		 M448.3,164.9c-4.1,3.3-11,6.6-18.7,9.1c-7.3,2.3-14.3,3.6-19.8,3.6l-2.6,0l10.4,8.1l0.1,0c1,0.5,2.5,0.8,4.5,0.8
		c3.5,0,8.2-0.9,13-2.4c8.6-2.8,14.9-6.7,14.9-9.5v-11.2L448.3,164.9z"/>
	<path id="XMLID_64_" class="st29" d="M87.4,63.6c0.4,0,0.7,0.3,0.7,0.7c0,0.4-0.3,0.7-0.7,0.7h-0.1c-5.2,0-12.4,14.2-12.4,22.2
		c0,1.9,0.4,3.3,1.2,4c0,0,0.2,0.2,0.2,0.2c0.2,0.2,0.3,0.4,0.3,0.6c0,0.2-0.1,0.4-0.2,0.5c-0.1,0.1-0.3,0.2-0.5,0.2
		c-0.2,0-0.4-0.1-0.5-0.2l-0.5-0.5l0,0c-0.8-0.6-2.1-0.9-3.7-0.9c-2.8,0-6.6,0.9-10.4,2.5c-6.9,2.9-11.9,7-11.9,10v0.9
		c0,0.4-0.3,0.7-0.7,0.7c-0.4,0-0.7-0.3-0.7-0.7V63.6H87.4z M57.1,71.1c0.4-1.8,1.2-3.7,2.2-5.1l0.6-0.9H49.8l7.1,7.1L57.1,71.1z
		 M65.6,79.6c0.2-2.9,1.4-6.5,3.1-9.7c0.6-1,1.5-2.5,2.6-3.8l0.9-1h-9.8c-1.4,0.1-4.1,4.7-4.1,7.7c0,0.7,0.2,1,0.3,1.1c0,0,0,0,6,6
		l0.9,0.9L65.6,79.6z M73.4,87.3c0-5.9,3.9-16.2,9-21.2l1-1h-7.9c-1.5,0-3.6,2.1-5.5,5.5c-1.8,3.3-3,7.2-3,9.9
		c0,0.9,0.1,2.1,0.8,2.7c0,0,5.6,5.6,5.6,5.6V87.3z M49.7,75.6c1-0.7,2.1-1.2,2.6-1.4c0.6-0.2,1.5-0.6,2.5-0.8l1.1-0.2l-7.1-7.1
		v10.1L49.7,75.6z M49.7,87.7c1.6-1.4,4-2.8,6.6-4c1.1-0.5,4.1-1.6,6.8-1.8l1.3-0.1l-6.9-6.9l-0.1,0c-0.2-0.1-0.5-0.2-1-0.2
		c-0.5,0-1.9,0.1-3.9,1c-2.1,0.9-3.7,2.2-3.8,3.1l0,9.8L49.7,87.7z M49.7,98.8c2.3-2.3,6-4.7,10.3-6.5c4-1.7,7.9-2.6,10.9-2.6l1.4,0
		L66.6,84l0,0c-0.5-0.4-1.4-0.6-2.5-0.6c-2,0-4.5,0.6-7.2,1.7c-4.7,2-8.2,4.8-8.2,6.8v8L49.7,98.8z"/>
	<path id="XMLID_17_" class="st30" d="M77,63.5c0.3,0,0.5,0.2,0.5,0.5c0,0.3-0.2,0.5-0.5,0.5h-0.1c-3.9,0-9.2,10.5-9.2,16.4
		c0,1.4,0.3,2.4,0.9,3c0,0,0.1,0.2,0.1,0.2c0.1,0.1,0.2,0.3,0.2,0.4c0,0.1-0.1,0.3-0.2,0.4c-0.1,0.1-0.2,0.2-0.4,0.2
		c-0.1,0-0.3-0.1-0.4-0.2l-0.4-0.4l0,0c-0.6-0.5-1.5-0.7-2.8-0.7c-2.1,0-4.9,0.7-7.7,1.8c-5.1,2.1-8.8,5.2-8.8,7.4v0.7
		c0,0.3-0.2,0.5-0.5,0.5s-0.5-0.2-0.5-0.5V63.5H77z M54.6,69c0.3-1.3,0.9-2.7,1.6-3.8l0.5-0.7h-7.5l5.2,5.2L54.6,69z M60.9,75.3
		c0.2-2.1,1-4.8,2.3-7.2c0.4-0.8,1.1-1.9,1.9-2.8l0.6-0.7h-7.2c-1.1,0.1-3,3.5-3,5.7c0,0.5,0.1,0.7,0.2,0.8c0,0,0,0,4.4,4.5l0.7,0.7
		L60.9,75.3z M66.6,81c0-4.4,2.8-12,6.7-15.7l0.8-0.7h-5.9c-1.1,0-2.7,1.6-4,4c-1.3,2.5-2.2,5.3-2.2,7.3c0,0.6,0.1,1.5,0.6,2
		c0,0,4.1,4.2,4.1,4.2V81z M49.1,72.4c0.8-0.5,1.5-0.9,1.9-1c0.4-0.2,1.1-0.4,1.8-0.6l0.8-0.2l-5.2-5.2v7.5L49.1,72.4z M49.1,81.3
		c1.2-1.1,2.9-2.1,4.9-2.9c0.8-0.3,3-1.2,5-1.3L60,77l-5.1-5.1l0,0c-0.2-0.1-0.4-0.1-0.7-0.1c-0.4,0-1.4,0.1-2.9,0.7
		c-1.6,0.7-2.8,1.6-2.8,2.3l0,7.2L49.1,81.3z M49.1,89.5c1.7-1.7,4.5-3.5,7.6-4.8c3-1.2,5.8-1.9,8-1.9l1,0l-4.2-4.2l0,0
		c-0.4-0.3-1-0.4-1.8-0.4c-1.4,0-3.3,0.5-5.3,1.3c-3.5,1.5-6.1,3.6-6.1,5v5.9L49.1,89.5z"/>
	<g id="XMLID_18_" class="st2">
		<path id="XMLID_47_" class="st31" d="M397.2,134.5h-0.5c0.2-0.2,0.4-0.4,0.4-0.7v-0.9c0-1.3-1.1-2.4-2.4-2.4h-4.3
			c-1.4-1.1-3.3-1.9-5.3-2.1V63.6h-1.9v64.7c-2,0.2-3.8,0.9-5.3,2.1h-4.3c-1.3,0-2.4,1.1-2.4,2.4v0.9c0,0.3,0.1,0.6,0.4,0.7h-0.5
			c-1.3,0-2.4,1.1-2.4,2.4v1.3c0,0.5,0.4,1,1,1c0.1,0,0.2,0,0.3-0.1c-0.4,0.4-0.6,1-0.6,1.6v2.4c0,0.5,0.4,1,1,1s1-0.4,1-1v-2.4
			c0-0.3,0.2-0.5,0.5-0.5h3.5c0.2,0.4,0.3,0.8,0.6,1.1h-1.2c-1.3,0-2.4,1.1-2.4,2.4v3.4c0,0.5,0.4,1,1,1c0.5,0,1-0.4,1-1v-3.4
			c0-0.3,0.2-0.5,0.5-0.5h2.7c1.7,1.6,4.1,2.7,6.8,2.7c2.7,0,5.1-1,6.8-2.7h2.7c0.3,0,0.5,0.2,0.5,0.5v3.4c0,0.5,0.4,1,1,1
			c0.5,0,1-0.4,1-1v-3.4c0-1.3-1.1-2.4-2.4-2.4h-1.2c0.2-0.4,0.4-0.7,0.6-1.1h3.5c0.3,0,0.5,0.2,0.5,0.5v2.4c0,0.5,0.4,1,1,1
			c0.5,0,1-0.4,1-1v-2.4c0-0.6-0.2-1.2-0.6-1.6c0.1,0,0.2,0.1,0.3,0.1c0.5,0,1-0.4,1-1v-1.3C399.6,135.5,398.5,134.5,397.2,134.5z
			 M371.8,138.2c-0.5,0-0.9,0.1-1.3,0.4c0.1-0.1,0.1-0.3,0.1-0.5v-1.3c0-0.3,0.2-0.5,0.5-0.5h3.5c0,0.2,0,0.4,0,0.7
			c0,0.4,0,0.8,0.1,1.2H371.8z M375.1,134.5h-2.2c0.2-0.2,0.4-0.4,0.4-0.7v-0.9c0-0.3,0.2-0.5,0.5-0.5h2.5
			C375.7,133,375.3,133.7,375.1,134.5z M384.2,143.9c-4.2,0-7.6-3.1-7.6-6.9c0-3.8,3.4-6.9,7.6-6.9c4.2,0,7.6,3.1,7.6,6.9
			C391.8,140.8,388.3,143.9,384.2,143.9z M392.2,132.3h2.5c0.3,0,0.5,0.2,0.5,0.5v0.9c0,0.3,0.1,0.6,0.4,0.7h-2.2
			C393,133.7,392.6,133,392.2,132.3z M396.5,138.2h-2.9c0.1-0.4,0.1-0.8,0.1-1.2c0-0.2,0-0.4,0-0.7h3.5c0.3,0,0.5,0.2,0.5,0.5v1.3
			c0,0.2,0,0.3,0.1,0.5C397.4,138.4,397,138.2,396.5,138.2z"/>
		<path id="XMLID_23_" class="st31" d="M382,139.4c-0.2-0.2-0.4-0.3-0.7-0.3c-0.3,0-0.5,0.1-0.7,0.3c-0.2,0.2-0.3,0.4-0.3,0.7
			c0,0.2,0.1,0.5,0.3,0.7c0.2,0.2,0.4,0.3,0.7,0.3c0.3,0,0.5-0.1,0.7-0.3s0.3-0.4,0.3-0.7C382.3,139.9,382.1,139.6,382,139.4z"/>
		<path id="XMLID_19_" class="st31" d="M387.7,139.4c-0.2-0.2-0.4-0.3-0.7-0.3c-0.2,0-0.5,0.1-0.7,0.3c-0.2,0.2-0.3,0.4-0.3,0.7
			c0,0.3,0.1,0.5,0.3,0.7c0.2,0.2,0.4,0.3,0.7,0.3c0.3,0,0.5-0.1,0.7-0.3c0.2-0.2,0.3-0.4,0.3-0.7
			C388,139.9,387.9,139.6,387.7,139.4z"/>
	</g>
</g>
<g id="Layer_3" class="st0">
	<g id="XMLID_79_" class="st2">
		<polygon id="XMLID_115_" class="st32" points="28.1,170.3 250.5,19.4 472.9,170.3 472.9,480.1 28.1,480.1 		"/>
		<polygon id="XMLID_114_" class="st33" points="266.4,30.2 250.5,19.4 28.1,170.3 28.1,480.1 59.9,480.1 59.9,170.3 		"/>
		<rect id="SVGCleanerId_0" x="107.5" y="210" class="st34" width="285.9" height="270"/>
		<g id="XMLID_80_">
			<rect id="SVGCleanerId_0_1_" x="107.5" y="210" class="st34" width="285.9" height="270"/>
		</g>
		<rect id="XMLID_113_" x="107.5" y="210" class="st35" width="31.8" height="270"/>
		<rect id="XMLID_112_" x="91.7" y="178.3" class="st36" width="317.7" height="31.8"/>
		<rect id="XMLID_111_" x="107.5" y="289.5" class="st37" width="95.3" height="95.3"/>
		<rect id="XMLID_110_" x="107.5" y="289.5" class="st38" width="23.8" height="95.3"/>
		<rect id="XMLID_109_" x="139.3" y="289.5" class="st39" width="31.8" height="47.6"/>
		<rect id="XMLID_108_" x="107.5" y="384.8" class="st37" width="95.3" height="95.3"/>
		<rect id="XMLID_99_" x="107.5" y="384.8" class="st38" width="23.8" height="95.3"/>
		<rect id="XMLID_98_" x="139.3" y="384.8" class="st39" width="31.8" height="47.6"/>
		<rect id="XMLID_97_" x="202.8" y="384.8" class="st37" width="95.3" height="95.3"/>
		<rect id="XMLID_96_" x="202.8" y="384.8" class="st38" width="23.8" height="95.3"/>
		<rect id="XMLID_95_" x="234.6" y="384.8" class="st39" width="31.8" height="47.6"/>
		<path id="XMLID_116_" class="st31" d="M476.8,164.2L254.6,13.3c-2.5-1.7-5.8-1.7-8.3,0L23.7,164.2c-2,1.4-3.5,3.7-3.5,6.2v309.7
			c0,4.1,3.8,7.9,7.9,7.9h444.7c4.1,0,6.9-3.8,6.9-7.9V170.3C479.8,167.9,478.8,165.6,476.8,164.2z M98.6,203.1v-16.9h302.8v16.9
			H98.6z M146.3,297.4h16.9v32.8h-16.9V297.4z M139.3,345.1h31.8c4.1,0,6.9-3.8,6.9-7.9v-39.7h16.9v80.4h-23.8h-31.8h-24.8v-80.4
			h16.9v39.7C131.4,341.2,135.2,345.1,139.3,345.1z M146.3,392.7h16.9v32.8h-16.9V392.7z M114.5,392.7h16.9v39.7
			c0,4.1,3.8,7.9,7.9,7.9h31.8c4.1,0,6.9-3.8,6.9-7.9v-39.7h16.9v80.4h-80.4V392.7z M209.8,473.1v-80.4h16.9v39.7
			c0,4.1,3.8,7.9,7.9,7.9h31.8c4.1,0,6.9-3.8,6.9-7.9v-39.7h16.9v80.4H209.8z M241.6,392.7h16.9v32.8h-16.9V392.7z M464.9,473.1
			h-64.5V313.3c0-4.1-3.3-7.4-7.4-7.4c-4.1,0-7.4,3.3-7.4,7.4v159.8h-80.4v-88.4c0-4.1-2.8-6.9-6.9-6.9h-88.4v-88.4
			c0-4.1-2.8-6.9-6.9-6.9h-88.4V218h271v63.5c0,4.1,3.3,7.4,7.4,7.4c4.1,0,7.4-3.3,7.4-7.4V218h8.9c4.1,0,6.9-3.8,6.9-7.9v-31.8
			c0-4.1-2.8-6.9-6.9-6.9H91.7c-4.1,0-7.9,2.8-7.9,6.9V210c0,4.1,3.8,7.9,7.9,7.9h7.9v255.1H35.1V174.3L250,28.4l214.9,145.8V473.1z
			"/>
		<path id="XMLID_85_" class="st40" d="M211.3,83.5c0,4.1,3.3,7.4,7.4,7.4h63.5c4.1,0,7.4-3.3,7.4-7.4c0-4.1-3.3-7.4-7.4-7.4h-63.5
			C214.6,76,211.3,79.4,211.3,83.5z"/>
		<path id="XMLID_84_" class="st40" d="M282.3,107.8h-63.5c-4.1,0-7.4,3.3-7.4,7.4s3.3,7.4,7.4,7.4h63.5c4.1,0,7.4-3.3,7.4-7.4
			S286.4,107.8,282.3,107.8z"/>
		<path id="XMLID_83_" class="st40" d="M282.3,139.6h-63.5c-4.1,0-7.4,3.3-7.4,7.4c0,4.1,3.3,7.4,7.4,7.4h63.5
			c4.1,0,7.4-3.3,7.4-7.4C289.7,142.9,286.4,139.6,282.3,139.6z"/>
		<path id="XMLID_82_" class="st41" d="M139.3,368.9h31.8c4.1,0,7.4-3.3,7.4-7.4s-3.3-7.4-7.4-7.4h-31.8c-4.1,0-7.4,3.3-7.4,7.4
			S135.2,368.9,139.3,368.9z"/>
		<path id="XMLID_81_" class="st41" d="M171.1,449.3h-31.8c-4.1,0-7.4,3.3-7.4,7.4c0,4.1,3.3,7.4,7.4,7.4h31.8
			c4.1,0,7.4-3.3,7.4-7.4C178.5,452.6,175.2,449.3,171.1,449.3z"/>
		<path id="XMLID_117_" class="st41" d="M266.4,449.3h-31.8c-4.1,0-7.4,3.3-7.4,7.4c0,4.1,3.3,7.4,7.4,7.4h31.8
			c4.1,0,7.4-3.3,7.4-7.4C273.8,452.6,270.5,449.3,266.4,449.3z"/>
	</g>
	<g id="XMLID_118_" class="st2">
		<rect id="XMLID_123_" x="300.9" y="217.5" class="st31" width="1.2" height="44.3"/>
		<path id="XMLID_126_" class="st31" d="M306.7,262.8h-3.5c-0.3,0-0.5-0.2-0.5-0.5V262c0-0.3,0.2-0.5,0.5-0.5h3.5
			c0.3,0,0.5,0.2,0.5,0.5v0.3C307.1,262.6,306.9,262.8,306.7,262.8z"/>
		<g id="XMLID_130_">
			<path id="XMLID_133_" class="st31" d="M306.3,263.4c-0.3,0-0.5-0.2-0.5-0.5v-0.5c0-0.3,0.2-0.5,0.5-0.5s0.5,0.2,0.5,0.5v0.5
				C306.9,263.2,306.6,263.4,306.3,263.4z"/>
			<path id="XMLID_132_" class="st31" d="M306.3,318.6c-0.3,0-0.5-0.2-0.5-0.5v-1c0-0.3,0.2-0.5,0.4-0.5c-0.2,0-0.4-0.3-0.4-0.5v-1
				c0-0.3,0.2-0.5,0.4-0.5c-0.2,0-0.4-0.3-0.4-0.5v-1c0-0.3,0.2-0.5,0.4-0.5c-0.2,0-0.4-0.3-0.4-0.5v-1c0-0.3,0.2-0.5,0.4-0.5
				c-0.2,0-0.4-0.3-0.4-0.5v-1c0-0.3,0.2-0.5,0.4-0.5c-0.2,0-0.4-0.3-0.4-0.5v-1c0-0.3,0.2-0.5,0.4-0.5c-0.2,0-0.4-0.3-0.4-0.5v-1
				c0-0.3,0.2-0.5,0.4-0.5c-0.2,0-0.4-0.3-0.4-0.5v-1c0-0.3,0.2-0.5,0.4-0.5c-0.2,0-0.4-0.3-0.4-0.5v-1c0-0.3,0.2-0.5,0.4-0.5
				c-0.2,0-0.4-0.3-0.4-0.5v-1c0-0.3,0.2-0.5,0.4-0.5c-0.2,0-0.4-0.3-0.4-0.5v-1c0-0.3,0.2-0.5,0.4-0.5c-0.2,0-0.4-0.3-0.4-0.5v-1
				c0-0.3,0.2-0.5,0.4-0.5c-0.2,0-0.4-0.3-0.4-0.5v-1c0-0.3,0.2-0.5,0.4-0.5c-0.2,0-0.4-0.3-0.4-0.5v-1c0-0.3,0.2-0.5,0.4-0.5
				c-0.2,0-0.4-0.3-0.4-0.5v-1c0-0.3,0.2-0.5,0.4-0.5c-0.2,0-0.4-0.3-0.4-0.5v-1c0-0.3,0.2-0.5,0.4-0.5c-0.2,0-0.4-0.3-0.4-0.5v-1
				c0-0.3,0.2-0.5,0.4-0.5c-0.2,0-0.4-0.3-0.4-0.5v-1c0-0.3,0.2-0.5,0.4-0.5c-0.2,0-0.4-0.3-0.4-0.5v-1c0-0.3,0.2-0.5,0.4-0.5
				c-0.2,0-0.4-0.3-0.4-0.5v-1c0-0.3,0.2-0.5,0.4-0.5c-0.2,0-0.4-0.3-0.4-0.5v-1c0-0.3,0.2-0.5,0.4-0.5c-0.2,0-0.4-0.3-0.4-0.5v-1
				c0-0.3,0.2-0.5,0.4-0.5c-0.2,0-0.4-0.3-0.4-0.5v-1c0-0.3,0.2-0.5,0.4-0.5c-0.2,0-0.4-0.3-0.4-0.5v-1c0-0.3,0.2-0.5,0.4-0.5
				c-0.2,0-0.4-0.3-0.4-0.5v-1c0-0.3,0.2-0.5,0.4-0.5c-0.2,0-0.4-0.3-0.4-0.5v-1c0-0.3,0.2-0.5,0.4-0.5c-0.2,0-0.4-0.3-0.4-0.5v-1
				c0-0.3,0.2-0.5,0.5-0.5s0.5,0.2,0.5,0.5v1c0,0.3-0.2,0.5-0.4,0.5c0.2,0,0.4,0.3,0.4,0.5v1c0,0.3-0.2,0.5-0.4,0.5
				c0.2,0,0.4,0.3,0.4,0.5v1c0,0.3-0.2,0.5-0.4,0.5c0.2,0,0.4,0.3,0.4,0.5v1c0,0.3-0.2,0.5-0.4,0.5c0.2,0,0.4,0.3,0.4,0.5v1
				c0,0.3-0.2,0.5-0.4,0.5c0.2,0,0.4,0.3,0.4,0.5v1c0,0.3-0.2,0.5-0.4,0.5c0.2,0,0.4,0.3,0.4,0.5v1c0,0.3-0.2,0.5-0.4,0.5
				c0.2,0,0.4,0.3,0.4,0.5v1c0,0.3-0.2,0.5-0.4,0.5c0.2,0,0.4,0.3,0.4,0.5v1c0,0.3-0.2,0.5-0.4,0.5c0.2,0,0.4,0.3,0.4,0.5v1
				c0,0.3-0.2,0.5-0.4,0.5c0.2,0,0.4,0.3,0.4,0.5v1c0,0.3-0.2,0.5-0.4,0.5c0.2,0,0.4,0.3,0.4,0.5v1c0,0.3-0.2,0.5-0.4,0.5
				c0.2,0,0.4,0.3,0.4,0.5v1c0,0.3-0.2,0.5-0.4,0.5c0.2,0,0.4,0.3,0.4,0.5v1c0,0.3-0.2,0.5-0.4,0.5c0.2,0,0.4,0.3,0.4,0.5v1
				c0,0.3-0.2,0.5-0.4,0.5c0.2,0,0.4,0.3,0.4,0.5v1c0,0.3-0.2,0.5-0.4,0.5c0.2,0,0.4,0.3,0.4,0.5v1c0,0.3-0.2,0.5-0.4,0.5
				c0.2,0,0.4,0.3,0.4,0.5v1c0,0.3-0.2,0.5-0.4,0.5c0.2,0,0.4,0.3,0.4,0.5v1c0,0.3-0.2,0.5-0.4,0.5c0.2,0,0.4,0.3,0.4,0.5v1
				c0,0.3-0.2,0.5-0.4,0.5c0.2,0,0.4,0.3,0.4,0.5v1c0,0.3-0.2,0.5-0.4,0.5c0.2,0,0.4,0.3,0.4,0.5v1c0,0.3-0.2,0.5-0.4,0.5
				c0.2,0,0.4,0.3,0.4,0.5v1c0,0.3-0.2,0.5-0.4,0.5c0.2,0,0.4,0.3,0.4,0.5v1c0,0.3-0.2,0.5-0.4,0.5c0.2,0,0.4,0.3,0.4,0.5v1
				c0,0.3-0.2,0.5-0.4,0.5c0.2,0,0.4,0.3,0.4,0.5v1c0,0.3-0.2,0.5-0.4,0.5c0.2,0,0.4,0.3,0.4,0.5v1
				C306.9,318.3,306.6,318.6,306.3,318.6z"/>
			<path id="XMLID_135_" class="st31" d="M306.3,320.1c-0.3,0-0.5-0.2-0.5-0.5v-0.5c0-0.3,0.2-0.5,0.5-0.5s0.5,0.2,0.5,0.5v0.5
				C306.9,319.9,306.6,320.1,306.3,320.1z"/>
		</g>
		<g id="XMLID_119_">
			<path id="XMLID_122_" class="st42" d="M298,267.5c-0.4,1.3-1.1,2.4-2.1,3.3c-1.9,1.6-3.1,3.9-3.1,6.6c0,4.9,4.1,8.9,9.1,8.6
				c4.4-0.2,8.1-3.9,8.2-8.4c0.1-2.8-1.1-5.2-3.1-6.8c-1.1-0.9-1.8-2-2.2-3.3H298L298,267.5z"/>
			<path id="XMLID_121_" class="st43" d="M302.3,267.4h-0.6l2.5,9.3c-0.1,0-0.1,0-0.2,0c-0.3,0-0.6,0.1-0.9,0.4
				c-0.1,0.1-0.3,0.2-0.4,0.2c-0.2,0-0.3-0.1-0.4-0.2c-0.4-0.5-1.2-0.5-1.6,0c-0.1,0.1-0.3,0.2-0.4,0.2c-0.1,0-0.3-0.1-0.4-0.2
				c-0.3-0.3-0.5-0.4-0.9-0.4c-0.1,0-0.1,0-0.2,0l2.4-9.3h-0.6l-2.6,9.8c0,0.1,0,0.3,0.1,0.3c0.1,0.1,0.3,0,0.3-0.1
				c0.1-0.1,0.3-0.2,0.4-0.2c0.2,0,0.3,0.1,0.5,0.2c0.3,0.3,0.5,0.4,0.8,0.4c0.3,0,0.6-0.1,0.8-0.4c0.3-0.3,0.6-0.3,0.9,0
				c0.2,0.3,0.5,0.4,0.8,0.4l0,0c0.3,0,0.6-0.1,0.8-0.4c0.1-0.1,0.3-0.2,0.5-0.2c0.1,0,0.3,0.1,0.4,0.2c0.1,0.1,0.2,0.1,0.3,0.1
				c0.1-0.1,0.2-0.2,0.1-0.3L302.3,267.4z"/>
			<g id="XMLID_128_">
				<path id="XMLID_124_" class="st31" d="M303.4,261.8c-0.3-0.8-1.1-1.3-1.9-1.3c-0.9,0-1.6,0.6-1.9,1.3H303.4z"/>
				<path id="XMLID_125_" class="st31" d="M299.1,261.7h4.6c0.6,0,1.1,0.5,1.1,1.1v4.8H298v-4.8C298,262.2,298.5,261.7,299.1,261.7z
					"/>
			</g>
			<g id="XMLID_120_">
				<path id="XMLID_127_" class="st44" d="M298.1,265.2h6.8c0.4,0,0.7,0.3,0.7,0.7l0,0c0,0.4-0.3,0.7-0.7,0.7h-6.8
					c-0.4,0-0.7-0.3-0.7-0.7l0,0C297.4,265.5,297.7,265.2,298.1,265.2z"/>
				<path id="XMLID_129_" class="st44" d="M298.1,263h6.8c0.4,0,0.7,0.3,0.7,0.7l0,0c0,0.4-0.3,0.7-0.7,0.7h-6.8
					c-0.4,0-0.7-0.3-0.7-0.7l0,0C297.4,263.4,297.7,263,298.1,263z"/>
			</g>
		</g>
		<ellipse id="XMLID_131_" class="st44" cx="306.3" cy="319.8" rx="0.8" ry="1.3"/>
	</g>
</g>
<g id="Layer_4">
	<g>
		<path class="st45" d="M489,250c0,132-107,239-239,239S11,382,11,250S118,11,250,11S489,118,489,250L489,250z M489,250"/>
		<path class="st46" d="M335,473.4C308.6,483.5,280,489,250,489c-30,0-58.6-5.5-85-15.6l19.5-56.6l15.7-45.6h99.5l15.7,45.6
			L335,473.4z M335,473.4"/>
		<path class="st47" d="M315.5,416.8l-144.7,39.6l29.4-85.2h99.5L315.5,416.8z M315.5,416.8"/>
		<path class="st46" d="M479.7,85.8v230.3c-7.8,27.2-20.3,52.3-36.5,74.6H56.8c-16.2-22.3-28.7-47.4-36.5-74.6V85.8
			c0-15.8,12.8-28.7,28.7-28.7H451C466.9,57.1,479.7,70,479.7,85.8L479.7,85.8z M479.7,85.8"/>
		<g>
			<defs>
				<rect id="XMLID_165_" x="11" y="11" width="478" height="478"/>
			</defs>
			<clipPath id="XMLID_179_">
				<use xlink:href="#XMLID_165_"  style="overflow:visible;"/>
			</clipPath>
			<path class="st48" d="M49,331.6c-5.1,0-9.2-4.1-9.2-9.2V85.8c0-5.1,4.1-9.2,9.2-9.2H451c5.1,0,9.2,4.1,9.2,9.2v236.7
				c0,5.1-4.1,9.2-9.2,9.2H49z M49,331.6"/>
			<path class="st49" d="M179.3,66.2c-1.6-72.8-110.9-72.8-112.4,0c0,0.8,0,1.6,0,2.4c0,41.2,22.7,77,56.2,95.8
				c33.5-18.8,56.2-54.6,56.2-95.8C179.3,67.8,179.3,67,179.3,66.2L179.3,66.2z M179.3,66.2"/>
		</g>
		<path class="st50" d="M123.1,164.4c-33.5-18.8-56.2-54.6-56.2-95.8c0-0.8,0-1.6,0-2.4c0.8-36.2,28.2-54.4,55.7-54.6
			c-20.6,0.3-41.1,18.5-41.7,54.6c0,0.8,0,1.6,0,2.4C80.9,109.8,97.9,145.7,123.1,164.4L123.1,164.4z M123.1,164.4"/>
		<path class="st51" d="M123.2,99.6c-7.2,0-13.9-2.5-19.2-6.7c-3.7-3-6.7-6.8-8.8-11.1c-1-2.1-1.7-4.4-2.2-6.7c0,0,0,0,0,0
			c-0.4-2-0.6-4.1-0.6-6.3c0-17,13.8-30.8,30.8-30.8c9.1,0,17.3,4,23,10.3c1.1,1.2,2,2.5,2.9,3.8c3.1,4.8,4.9,10.5,4.9,16.7
			c0,0.3,0,0.5,0,0.8C153.6,86.3,139.9,99.6,123.2,99.6L123.2,99.6z M123.2,99.6"/>
		<path class="st52" d="M123.2,99.6c-7.2,0-13.9-2.5-19.2-6.7c-3.7-3-6.7-6.8-8.8-11.1c-1-2.1-1.7-4.4-2.2-6.7c0,0,0,0,0,0
			c-0.4-2-0.6-4.1-0.6-6.3c0-17,13.8-30.8,30.8-30.8c1.6,0,3.2,0.1,4.8,0.4c-14.7,2.3-26,15-26,30.4c0,2.2,0.2,4.3,0.6,6.3v0
			c0.5,2.3,1.2,4.6,2.2,6.7c2,4.3,5,8.1,8.8,11.1c4.1,3.2,9,5.5,14.4,6.3C126.5,99.5,124.8,99.6,123.2,99.6L123.2,99.6z M123.2,99.6
			"/>
		<rect id="XMLID_158_" x="316.4" y="195" class="st45" width="115" height="115"/>
		<rect id="XMLID_157_" x="316.4" y="297.6" class="st53" width="115" height="12.4"/>
		<rect id="XMLID_156_" x="316.4" y="195" class="st53" width="8.4" height="115"/>
		<path class="st53" d="M391.8,251h-35.7c-4.7,0-8.5-3.8-8.5-8.5c0-4.7,3.8-8.5,8.5-8.5h35.7c4.7,0,8.5,3.8,8.5,8.5
			C400.3,247.2,396.5,251,391.8,251L391.8,251z M391.8,251"/>
		<path class="st54" d="M389.3,230l-15.4-9.1l-15.4,9.1V195h30.8V230z M389.3,230"/>
		<rect id="XMLID_151_" x="283.5" y="281.2" class="st51" width="14.6" height="9.8"/>
		<path class="st51" d="M263.9,290.9h-29.3v-9.8h29.3V290.9z M215,290.9h-26.8c-0.9,0-1.8,0-2.7-0.1l0.4-9.7c0.8,0,1.5,0,2.3,0H215
			V290.9z M164.9,286.5c-9.8-3.9-18.7-10.2-25.5-18.4l7.5-6.3c5.8,6.9,13.3,12.3,21.6,15.6L164.9,286.5z M128.7,250
			c-2.8-7.3-4.2-14.9-4.2-22.8c0-2.8,0.2-5.6,0.5-8.4l9.7,1.3c-0.3,2.3-0.5,4.8-0.5,7.1c0,6.7,1.2,13.2,3.6,19.3L128.7,250z
			 M140,203l-8.7-4.4c4.8-9.5,11.9-17.7,20.6-23.7l5.6,8C150,188,144,195,140,203L140,203z M173.5,175.2l-2.6-9.4
			c5.6-1.6,11.4-2.4,17.3-2.4h13.1v9.8h-13.1c0,0,0,0,0,0C183.2,173.2,178.3,173.9,173.5,175.2L173.5,175.2z M348,173.2h-29.3v-9.8
			H348V173.2z M299.1,173.2h-29.3v-9.8h29.3V173.2z M250.2,173.2h-29.3v-9.8h29.3V173.2z M368.8,171.6l-2.8-9.3
			c8-2.4,14.5-8.6,17.3-16.5l9.2,3.3C388.6,159.9,379.8,168.3,368.8,171.6L368.8,171.6z M384,129.6c-2.2-8.1-8.3-14.7-16.1-17.7
			l3.5-9.1c10.7,4.1,18.9,13.2,22,24.2L384,129.6z M350.4,110.1H321v-9.8h29.3V110.1z M301.5,110.1h-29.3v-9.8h29.3V110.1z
			 M252.6,110.1h-29.3v-9.8h29.3V110.1z M252.6,110.1"/>
		<rect id="XMLID_134_" x="188.9" y="100.4" class="st51" width="14.6" height="9.8"/>
	</g>
</g>
</svg>
