<?xml version="1.0" encoding="utf-8"?>
<!-- Generator: Adobe Illustrator 19.0.0, SVG Export Plug-In . SVG Version: 6.00 Build 0)  -->
<svg version="1.1" baseProfile="basic" xmlns="http://www.w3.org/2000/svg" xmlns:xlink="http://www.w3.org/1999/xlink" x="0px"
	 y="0px" viewBox="0 0 1000 1000" xml:space="preserve">
<g id="services" display="none">
	<g display="inline">
		
			<path fill="#1D98D6" stroke="#0E81A5" stroke-width="20" stroke-linecap="round" stroke-linejoin="round" stroke-miterlimit="10" d="
			M936,772.5L743.3,579.8l-8.1,8.1c-13.4,13.4-35.1,13.4-48.5,0c-13.4-13.4-13.4-35.1,0-48.5l8.1-8.1l-48.5-48.5L484.9,644.4
			l48.5,48.5l8.1-8.1c13.4-13.4,35.1-13.4,48.5,0c13.4,13.4,13.4,35.1,0,48.5l-8.1,8.1L774.5,934c5.8,5.8,12.3,11,19.2,15.4
			l157.7-157.6C946.9,784.8,941.8,778.3,936,772.5z"/>
		
			<path fill="#E6E6E6" stroke="#B3B3B3" stroke-width="20" stroke-linecap="round" stroke-linejoin="round" stroke-miterlimit="10" d="
			M951.4,791.7L793.7,949.4c53,34.1,123.6,18.7,157.7-34.3C975.5,877.5,975.5,829.3,951.4,791.7z"/>
		
			<path fill="#E6E6E6" stroke="#B3B3B3" stroke-width="20" stroke-linecap="round" stroke-linejoin="round" stroke-miterlimit="10" d="
			M226.4,159.8l-16.1-64.6L97.2,30.6L32.6,95.2l64.6,113.1l64.6,16.2l371.5,371.5l64.6-64.6L226.4,159.8z"/>
		
			<path fill="#E6E6E6" stroke="#B3B3B3" stroke-width="20" stroke-linecap="round" stroke-linejoin="round" stroke-miterlimit="10" d="
			M964,165.3L856.4,272.9l-96.9-32.3l-32.3-96.9L834.8,36c-94.7-24.2-191,33-215.2,127.7c-7.3,28.7-7.3,58.8,0,87.5L253.2,617.6
			c-95.7-24.3-192.9,33.6-217.2,129.2C11.8,842.5,69.6,939.7,165.3,964s192.9-33.6,217.2-129.2c7.3-28.8,7.3-59.1,0-87.9
			l366.4-366.4c94.8,24.1,191.1-33.2,215.2-127.9C971.3,223.9,971.3,193.9,964,165.3z M258.7,870.5h-96.9l-48.5-80.8l48.5-80.8h96.9
			l48.5,80.8L258.7,870.5z"/>
		<path fill="#B3B3B3" d="M311.9,665.3l355.4-355.4l22.8,22.8L334.7,688.1L311.9,665.3z"/>
		<path fill="#0E81A5" d="M667.3,688.1l22.8-22.8l161.5,161.5l-22.8,22.8L667.3,688.1z"/>
	</g>
</g>
<g id="types" display="none">
	<g display="inline">
		
			<path fill="#E6E6E6" stroke="#B3B3B3" stroke-width="20" stroke-linecap="round" stroke-linejoin="round" stroke-miterlimit="10" d="
			M392.2,188.9h202.3V18.5H392.2c-15.2,0-27.6,12.4-27.6,27.6v115.2C364.6,176.5,377,188.9,392.2,188.9z"/>
		
			<path fill="#E6E6E6" stroke="#B3B3B3" stroke-width="20" stroke-linecap="round" stroke-linejoin="round" stroke-miterlimit="10" d="
			M682.9,154h-88.4V65.7h88.4c7.9,0,14.3,6.4,14.3,14.3v59.7C697.2,147.6,690.8,154,682.9,154z"/>
		
			<line fill="none" stroke="#B3B3B3" stroke-width="20" stroke-linecap="round" stroke-linejoin="round" stroke-miterlimit="10" x1="701.6" y1="109.5" x2="788.6" y2="109.5"/>
		
			<path fill="#E6E6E6" stroke="#B3B3B3" stroke-width="20" stroke-linecap="round" stroke-linejoin="round" stroke-miterlimit="10" d="
			M550.8,728.3h-71.7c-31.8,0-57.2-26.5-55.9-58.2l19.5-481.1h151.7l12.2,482C607.6,702.3,582.3,728.3,550.8,728.3z"/>
		
			<line fill="#3FA9F5" stroke="#3FA9F5" stroke-width="20" stroke-linecap="round" stroke-linejoin="round" stroke-miterlimit="10" x1="498.6" y1="408" x2="494.5" y2="584.5"/>
		
			<circle fill="#ED1C24" stroke="#ED1C24" stroke-width="20" stroke-linecap="round" stroke-linejoin="round" stroke-miterlimit="10" cx="492.1" cy="641" r="14"/>
		
			<path fill="#E6E6E6" stroke="#B3B3B3" stroke-width="20" stroke-linecap="round" stroke-linejoin="round" stroke-miterlimit="10" d="
			M545.2,852.4h-64c-8.5,0-15.3-6.9-15.3-15.3V726.6h94.7V837C560.5,845.5,553.6,852.4,545.2,852.4z"/>
		<path fill="none" stroke="#B3B3B3" stroke-width="20" stroke-linecap="round" stroke-linejoin="round" stroke-miterlimit="10" d="
			M512.6,852.8v37c0,50.6-41.1,91.7-91.7,91.7h0c-50.6,0-91.7-41.1-91.7-91.7V520.2c0-32.5-26.4-58.9-58.9-58.9h0
			c-32.5,0-58.9,26.4-58.9,58.9v353.1"/>
	</g>
</g>
<g id="clients" display="none">
	<g display="inline">
		<path fill="#E6E6E6" stroke="#B3B3B3" stroke-width="20" stroke-linecap="round" stroke-miterlimit="10" d="M594.1,760.6v-99.4
			l9.4-14.5c7-10.7,10.7-23.2,10.7-36v-96.4c0-52.2-42.3-94.4-94.4-94.4h-18.3h-18.3c-52.7,0-95.9,43.1-95.9,95.9v94.9
			c0,12.8,3.7,25.3,10.7,36l9.4,14.5v99.4c-51.9,22.2-89.8,47.3-116.6,69.7c-36.4,30.4-57.2,75.5-57.2,122.9v28.3h267.8h266.4v-28.3
			c0-47.4-20.8-92.6-57.2-122.9C683.9,808,646,782.9,594.1,760.6z"/>
		<g>
			<path fill="#D6B822" d="M544,234.5c0-9.8-3.5-18.2-10.4-25.2c-6.9-6.9-18.4-13.1-34.5-18.6c-22.1-6.7-38.8-15.6-50-26.7
				c-11.3-11.2-16.9-26-16.9-44.6c0-18,5.2-32.7,15.6-44.1c10.4-11.4,24.7-18.2,42.8-20.5V18.5h25.9v36.4
				c18.3,2.4,32.4,9.9,42.6,22.5c10.1,12.6,15.2,29.4,15.2,50.5h-32.1c0-13.9-3.4-25.1-10.3-33.8c-6.9-8.6-16.4-13-28.5-13
				c-12.9,0-22.6,3.4-29,10.1c-6.5,6.7-9.7,15.9-9.7,27.6c0,10.6,3.3,19.2,10,25.7c6.7,6.6,18.6,12.8,35.9,18.7
				c22.3,7.2,38.9,16.2,49.7,27c10.8,10.8,16.2,25.4,16.2,43.9c0,18.8-5.6,33.8-16.9,44.8c-11.3,11.1-26.7,17.7-46.4,19.8v31.5
				h-25.7v-31.3c-18.8-2-34.2-8.8-46.2-20.6c-12-11.8-17.8-29-17.4-51.7l0.3-0.8h31.2c0,16.8,4.3,28.8,12.8,36
				c8.5,7.2,18.9,10.7,31.2,10.7c14.1,0,25.1-3.4,33-10.1C540.1,255.7,544,246.4,544,234.5z"/>
		</g>
		<g>
			<g>
				<path fill="#D6B822" d="M290.6,267.9c0-6.4-2.3-11.9-6.8-16.4c-4.5-4.5-12-8.6-22.5-12.1c-14.4-4.3-25.2-10.1-32.6-17.4
					c-7.3-7.3-11-16.9-11-29c0-11.7,3.4-21.3,10.1-28.7c6.8-7.4,16-11.8,27.9-13.3v-23.6h16.9V151c11.9,1.6,21.1,6.4,27.7,14.6
					c6.6,8.2,9.9,19.1,9.9,32.9h-20.9c0-9-2.2-16.4-6.7-22c-4.5-5.6-10.7-8.4-18.6-8.4c-8.4,0-14.7,2.2-18.9,6.6
					c-4.2,4.4-6.3,10.4-6.3,18c0,6.9,2.2,12.5,6.5,16.8c4.3,4.3,12.1,8.3,23.4,12.2c14.5,4.7,25.3,10.6,32.3,17.6
					c7,7,10.6,16.5,10.6,28.6c0,12.2-3.7,22-11,29.2c-7.3,7.2-17.4,11.5-30.2,12.9v20.5h-16.8v-20.4c-12.2-1.3-22.3-5.7-30.1-13.4
					c-7.8-7.6-11.6-18.9-11.3-33.7l0.2-0.5h20.3c0,11,2.8,18.8,8.3,23.4c5.6,4.7,12.3,7,20.3,7c9.2,0,16.3-2.2,21.5-6.6
					C288,281.7,290.6,275.7,290.6,267.9z"/>
			</g>
			<g>
				<path fill="#D6B822" d="M766.8,267.9c0-6.4-2.3-11.9-6.8-16.4c-4.5-4.5-12-8.6-22.5-12.1c-14.4-4.3-25.2-10.1-32.6-17.4
					c-7.3-7.3-11-16.9-11-29c0-11.7,3.4-21.3,10.1-28.7c6.8-7.4,16-11.8,27.9-13.3v-23.6h16.9V151c11.9,1.6,21.1,6.4,27.7,14.6
					c6.6,8.2,9.9,19.1,9.9,32.9h-20.9c0-9-2.2-16.4-6.7-22c-4.5-5.6-10.7-8.4-18.6-8.4c-8.4,0-14.7,2.2-18.9,6.6
					c-4.2,4.4-6.3,10.4-6.3,18c0,6.9,2.2,12.5,6.5,16.8c4.3,4.3,12.1,8.3,23.4,12.2c14.5,4.7,25.3,10.6,32.3,17.6
					c7,7,10.6,16.5,10.6,28.6c0,12.2-3.7,22-11,29.2c-7.3,7.2-17.4,11.5-30.2,12.9v20.5h-16.8v-20.4c-12.2-1.3-22.3-5.7-30.1-13.4
					c-7.8-7.6-11.6-18.9-11.3-33.7l0.2-0.5h20.3c0,11,2.8,18.8,8.3,23.4c5.6,4.7,12.3,7,20.3,7c9.2,0,16.3-2.2,21.5-6.6
					C764.2,281.7,766.8,275.7,766.8,267.9z"/>
			</g>
		</g>
		<g>
			<path fill="#EFD225" d="M544,243c0-9.8-3.5-18.2-10.4-25.2c-6.9-6.9-18.4-13.1-34.5-18.6c-22.1-6.7-38.8-15.6-50-26.7
				c-11.3-11.2-16.9-26-16.9-44.6c0-18,5.2-32.7,15.6-44.1c10.4-11.4,24.7-18.2,42.8-20.5V27.1h25.9v36.4
				c18.3,2.4,32.4,9.9,42.6,22.5c10.1,12.6,15.2,29.4,15.2,50.5h-32.1c0-13.9-3.4-25.1-10.3-33.8c-6.9-8.6-16.4-13-28.5-13
				c-12.9,0-22.6,3.4-29,10.1c-6.5,6.7-9.7,15.9-9.7,27.6c0,10.6,3.3,19.2,10,25.7c6.7,6.6,18.6,12.8,35.9,18.7
				c22.3,7.2,38.9,16.2,49.7,27c10.8,10.8,16.2,25.4,16.2,43.9c0,18.8-5.6,33.8-16.9,44.8c-11.3,11.1-26.7,17.7-46.4,19.8v31.5
				h-25.7v-31.3c-18.8-2-34.2-8.8-46.2-20.6c-12-11.8-17.8-29-17.4-51.7l0.3-0.8h31.2c0,16.8,4.3,28.8,12.8,36
				c8.5,7.2,18.9,10.7,31.2,10.7c14.1,0,25.1-3.4,33-10.1C540.1,264.3,544,254.9,544,243z"/>
		</g>
		<g>
			<g>
				<path fill="#EFD225" d="M290.6,276.4c0-6.4-2.3-11.9-6.8-16.4c-4.5-4.5-12-8.6-22.5-12.1c-14.4-4.3-25.2-10.1-32.6-17.4
					c-7.3-7.3-11-16.9-11-29c0-11.7,3.4-21.3,10.1-28.7c6.8-7.4,16-11.8,27.9-13.3v-23.6h16.9v23.7c11.9,1.6,21.1,6.4,27.7,14.6
					c6.6,8.2,9.9,19.1,9.9,32.9h-20.9c0-9-2.2-16.4-6.7-22c-4.5-5.6-10.7-8.4-18.6-8.4c-8.4,0-14.7,2.2-18.9,6.6
					c-4.2,4.4-6.3,10.4-6.3,18c0,6.9,2.2,12.5,6.5,16.8c4.3,4.3,12.1,8.3,23.4,12.2c14.5,4.7,25.3,10.6,32.3,17.6
					c7,7,10.6,16.5,10.6,28.6c0,12.2-3.7,22-11,29.2c-7.3,7.2-17.4,11.5-30.2,12.9v20.5h-16.8v-20.4c-12.2-1.3-22.3-5.7-30.1-13.4
					c-7.8-7.6-11.6-18.9-11.3-33.7l0.2-0.5h20.3c0,11,2.8,18.8,8.3,23.4c5.6,4.7,12.3,7,20.3,7c9.2,0,16.3-2.2,21.5-6.6
					C288,290.3,290.6,284.2,290.6,276.4z"/>
			</g>
			<g>
				<path fill="#EFD225" d="M766.8,276.4c0-6.4-2.3-11.9-6.8-16.4c-4.5-4.5-12-8.6-22.5-12.1c-14.4-4.3-25.2-10.1-32.6-17.4
					c-7.3-7.3-11-16.9-11-29c0-11.7,3.4-21.3,10.1-28.7c6.8-7.4,16-11.8,27.9-13.3v-23.6h16.9v23.7c11.9,1.6,21.1,6.4,27.7,14.6
					c6.6,8.2,9.9,19.1,9.9,32.9h-20.9c0-9-2.2-16.4-6.7-22c-4.5-5.6-10.7-8.4-18.6-8.4c-8.4,0-14.7,2.2-18.9,6.6
					c-4.2,4.4-6.3,10.4-6.3,18c0,6.9,2.2,12.5,6.5,16.8c4.3,4.3,12.1,8.3,23.4,12.2c14.5,4.7,25.3,10.6,32.3,17.6
					c7,7,10.6,16.5,10.6,28.6c0,12.2-3.7,22-11,29.2c-7.3,7.2-17.4,11.5-30.2,12.9v20.5h-16.8v-20.4c-12.2-1.3-22.3-5.7-30.1-13.4
					c-7.8-7.6-11.6-18.9-11.3-33.7l0.2-0.5h20.3c0,11,2.8,18.8,8.3,23.4c5.6,4.7,12.3,7,20.3,7c9.2,0,16.3-2.2,21.5-6.6
					C764.2,290.3,766.8,284.2,766.8,276.4z"/>
			</g>
		</g>
	</g>
</g>
<g id="sucursals" display="none">
	<g display="inline">
		
			<rect x="190" y="134.7" fill="#E6E6E6" stroke="#B3B3B3" stroke-width="20" stroke-linecap="round" stroke-linejoin="round" stroke-miterlimit="10" width="639" height="827.7"/>
		
			<rect x="130.9" y="36.2" fill="#E6E6E6" stroke="#B3B3B3" stroke-width="20" stroke-linecap="round" stroke-linejoin="round" stroke-miterlimit="10" width="748.8" height="98.5"/>
		
			<rect x="325.1" y="228.6" fill="#F7F7F8" stroke="#B3B3B3" stroke-width="20" stroke-miterlimit="10" width="137.3" height="130.9"/>
		
			<rect x="553.1" y="228.6" fill="#F7F7F8" stroke="#B3B3B3" stroke-width="20" stroke-miterlimit="10" width="137.3" height="130.9"/>
		
			<rect x="322.6" y="456.6" fill="#F7F7F8" stroke="#B3B3B3" stroke-width="20" stroke-miterlimit="10" width="137.3" height="130.9"/>
		
			<rect x="550.7" y="456.6" fill="#F7F7F8" stroke="#B3B3B3" stroke-width="20" stroke-miterlimit="10" width="137.3" height="130.9"/>
		
			<rect x="393.7" y="686.8" fill="#F7F7F8" stroke="#B3B3B3" stroke-width="20" stroke-miterlimit="10" width="228" height="275.6"/>
		
			<line fill="none" stroke="#B3B3B3" stroke-width="20" stroke-linecap="round" stroke-linejoin="round" stroke-miterlimit="10" x1="21.6" y1="963.5" x2="978.6" y2="963.5"/>
		
			<path fill="#E6E6E6" stroke="#B3B3B3" stroke-width="20" stroke-linecap="round" stroke-linejoin="round" stroke-miterlimit="10" d="
			M116.8,960.4H46.6V789.6c0-6.5,5.2-11.7,11.7-11.7h46.8c6.5,0,11.7,5.2,11.7,11.7V960.4z"/>
		<g>
			<path fill="#B3B3B3" d="M82.7,658.2c1.9,0,1.9-3,0-3C80.7,655.2,80.7,658.2,82.7,658.2L82.7,658.2z"/>
		</g>
		
			<line fill="none" stroke="#B3B3B3" stroke-width="20" stroke-linecap="round" stroke-linejoin="round" stroke-miterlimit="10" x1="82.6" y1="774.5" x2="82.6" y2="338.5"/>
		
			<path fill="#EFD225" stroke="#E2BC1B" stroke-width="20" stroke-linecap="round" stroke-linejoin="round" stroke-miterlimit="10" d="
			M104.1,329.1H57.3c-6.5,0-11.7-5.2-11.7-11.7v-46.8c0-6.5,5.2-11.7,11.7-11.7h46.8c6.5,0,11.7,5.2,11.7,11.7v46.8
			C115.8,323.9,110.5,329.1,104.1,329.1z"/>
		
			<path fill="#E6E6E6" stroke="#B3B3B3" stroke-width="20" stroke-linecap="round" stroke-linejoin="round" stroke-miterlimit="10" d="
			M971.4,962.4h-70.2V793c0-6.5,5.2-11.7,11.7-11.7h46.8c6.5,0,11.7,5.2,11.7,11.7V962.4z"/>
		<g>
			<path fill="#B3B3B3" d="M933.2,659.7c1.9,0,1.9-3,0-3C931.3,656.7,931.3,659.7,933.2,659.7L933.2,659.7z"/>
		</g>
		
			<line fill="none" stroke="#B3B3B3" stroke-width="20" stroke-linecap="round" stroke-linejoin="round" stroke-miterlimit="10" x1="935.6" y1="779.5" x2="935.6" y2="457.5"/>
		
			<path fill="#EFD225" stroke="#E2BC1B" stroke-width="20" stroke-linecap="round" stroke-linejoin="round" stroke-miterlimit="10" d="
			M959.7,456.3h-46.8c-6.5,0-11.7-5.2-11.7-11.7v-46.8c0-6.5,5.2-11.7,11.7-11.7h46.8c6.5,0,11.7,5.2,11.7,11.7v46.8
			C971.4,451,966.1,456.3,959.7,456.3z"/>
		
			<line fill="none" stroke="#B3B3B3" stroke-width="20" stroke-linecap="round" stroke-linejoin="round" stroke-miterlimit="10" x1="50.6" y1="396.5" x2="120.6" y2="396.5"/>
		
			<line fill="none" stroke="#B3B3B3" stroke-width="20" stroke-linecap="round" stroke-linejoin="round" stroke-miterlimit="10" x1="896.6" y1="523.5" x2="968.6" y2="523.5"/>
	</g>
</g>
<g id="todo" display="none">
	<g display="inline">
		<path fill="#E6E6E6" stroke="#B3B3B3" stroke-width="20" stroke-linecap="round" stroke-miterlimit="10" d="M790.3,985.9H209.7
			c-45,0-81.5-36.5-81.5-81.5V183c0-45,36.5-81.5,81.5-81.5h580.5c45,0,81.5,36.5,81.5,81.5v721.4
			C871.7,949.4,835.2,985.9,790.3,985.9z"/>
		<path fill="#F7F7F8" stroke="#B3B3B3" stroke-width="20" stroke-miterlimit="10" d="M759.8,930.1H242.2
			c-32.7,0-59.2-26.5-59.2-59.2V220.2c0-32.7,26.5-59.2,59.2-59.2h517.6c32.7,0,59.2,26.5,59.2,59.2v650.7
			C819,903.6,792.5,930.1,759.8,930.1z"/>
		<g>
			<path fill="#E6E6E6" stroke="#B3B3B3" stroke-width="20" stroke-linecap="round" stroke-miterlimit="10" d="M377.6,418.6H307
				c-11.2,0-20.2-9.1-20.2-20.2v-70.6c0-11.2,9.1-20.2,20.2-20.2h70.6c11.2,0,20.2,9.1,20.2,20.2v70.6
				C397.8,409.5,388.8,418.6,377.6,418.6z"/>
			<g>
				<path fill="#B3B3B3" d="M552.8,350.2h-90.3c-3.1,0-5.7-2.5-5.7-5.7V326c0-3.1,2.5-5.7,5.7-5.7h90.3c3.1,0,5.7,2.5,5.7,5.7v18.6
					C558.4,347.7,555.9,350.2,552.8,350.2z"/>
				<path fill="#B3B3B3" d="M705.5,405.8h-243c-3.1,0-5.7-2.5-5.7-5.7v-18.6c0-3.1,2.5-5.7,5.7-5.7h243c3.1,0,5.7,2.5,5.7,5.7v18.6
					C711.1,403.2,708.6,405.8,705.5,405.8z"/>
			</g>
			<path fill="#E6E6E6" stroke="#B3B3B3" stroke-width="20" stroke-linecap="round" stroke-miterlimit="10" d="M377.6,602.1H307
				c-11.2,0-20.2-9.1-20.2-20.2v-70.6c0-11.2,9.1-20.2,20.2-20.2h70.6c11.2,0,20.2,9.1,20.2,20.2v70.6
				C397.8,593,388.8,602.1,377.6,602.1z"/>
			<g>
				<path fill="#B3B3B3" d="M552.8,533.7h-90.3c-3.1,0-5.7-2.5-5.7-5.7v-18.6c0-3.1,2.5-5.7,5.7-5.7h90.3c3.1,0,5.7,2.5,5.7,5.7V528
					C558.4,531.2,555.9,533.7,552.8,533.7z"/>
				<path fill="#B3B3B3" d="M705.5,589.3h-243c-3.1,0-5.7-2.5-5.7-5.7V565c0-3.1,2.5-5.7,5.7-5.7h243c3.1,0,5.7,2.5,5.7,5.7v18.6
					C711.1,586.7,708.6,589.3,705.5,589.3z"/>
			</g>
			<path fill="#E6E6E6" stroke="#B3B3B3" stroke-width="20" stroke-linecap="round" stroke-miterlimit="10" d="M377.6,785.6H307
				c-11.2,0-20.2-9.1-20.2-20.2v-70.6c0-11.2,9.1-20.2,20.2-20.2h70.6c11.2,0,20.2,9.1,20.2,20.2v70.6
				C397.8,776.5,388.8,785.6,377.6,785.6z"/>
			<g>
				<path fill="#B3B3B3" d="M552.8,717.2h-90.3c-3.1,0-5.7-2.5-5.7-5.7v-18.6c0-3.1,2.5-5.7,5.7-5.7h90.3c3.1,0,5.7,2.5,5.7,5.7
					v18.6C558.4,714.6,555.9,717.2,552.8,717.2z"/>
				<path fill="#B3B3B3" d="M705.5,772.7h-243c-3.1,0-5.7-2.5-5.7-5.7v-18.6c0-3.1,2.5-5.7,5.7-5.7h243c3.1,0,5.7,2.5,5.7,5.7v18.6
					C711.1,770.2,708.6,772.7,705.5,772.7z"/>
			</g>
		</g>
		<g>
			<path fill="#0FCE45" d="M263.2,551.7c-1.5-1.5-2.2-3.4-2.2-5.7c0-2.3,0.7-4.2,2.2-5.7l11.7-11.4c1.5-1.7,3.3-2.5,5.6-2.5
				c2.2,0,4.2,0.8,5.9,2.5l35.6,35.6l76.2-76.2c1.7-1.7,3.7-2.5,5.9-2.5c2.2,0,4.1,0.8,5.6,2.5l11.7,11.4c1.5,1.5,2.2,3.4,2.2,5.7
				c0,2.3-0.7,4.2-2.2,5.7l-93.7,93.4c-1.5,1.7-3.4,2.5-5.7,2.5s-4.2-0.8-5.7-2.5L263.2,551.7z"/>
		</g>
		<g>
			<path fill="#0FCE45" d="M263.2,735.4c-1.5-1.5-2.2-3.4-2.2-5.7c0-2.3,0.7-4.2,2.2-5.7l11.7-11.4c1.5-1.7,3.3-2.5,5.6-2.5
				c2.2,0,4.2,0.8,5.9,2.5l35.6,35.6l76.2-76.2c1.7-1.7,3.7-2.5,5.9-2.5c2.2,0,4.1,0.8,5.6,2.5l11.7,11.4c1.5,1.5,2.2,3.4,2.2,5.7
				c0,2.3-0.7,4.2-2.2,5.7l-93.7,93.4c-1.5,1.7-3.4,2.5-5.7,2.5s-4.2-0.8-5.7-2.5L263.2,735.4z"/>
		</g>
		<g>
			<path fill="#0FCE45" d="M263.2,368.4c-1.5-1.5-2.2-3.4-2.2-5.7c0-2.3,0.7-4.2,2.2-5.7l11.7-11.4c1.5-1.7,3.3-2.5,5.6-2.5
				c2.2,0,4.2,0.8,5.9,2.5l35.6,35.6l76.2-76.2c1.7-1.7,3.7-2.5,5.9-2.5c2.2,0,4.1,0.8,5.6,2.5l11.7,11.4c1.5,1.5,2.2,3.4,2.2,5.7
				c0,2.3-0.7,4.2-2.2,5.7l-93.7,93.4c-1.5,1.7-3.4,2.5-5.7,2.5c-2.3,0-4.2-0.8-5.7-2.5L263.2,368.4z"/>
		</g>
		
			<path fill="#B3B3B3" stroke="#808080" stroke-width="20" stroke-linecap="round" stroke-linejoin="round" stroke-miterlimit="10" d="
			M644.3,75.5h-82.5c-0.7-32-28.2-60.9-62.1-60.9s-61.4,28.9-62.1,60.9h-82.5c-14.5,0-28.6,11.3-28.6,25.8v75
			c0,14.5,14,27.1,28.6,27.1h289.1c14.5,0,25.3-12.6,25.3-27.1v-75C669.6,86.8,658.8,75.5,644.3,75.5z"/>
		<g>
			<g>
				
					<line fill="none" stroke="#666666" stroke-width="20" stroke-linecap="round" stroke-miterlimit="10" x1="420.6" y1="126.5" x2="420.6" y2="158.5"/>
				
					<line fill="none" stroke="#666666" stroke-width="20" stroke-linecap="round" stroke-miterlimit="10" x1="579.6" y1="120.5" x2="579.6" y2="156.5"/>
			</g>
			<path fill="none" stroke="#666666" stroke-width="20" stroke-linecap="round" stroke-miterlimit="10" d="M479.6,144.7
				c0,0,17.7,18,40.3,0"/>
		</g>
	</g>
</g>
<g id="cash" display="none">
	<g display="inline">
		
			<path fill="#E6E6E6" stroke="#B3B3B3" stroke-width="20" stroke-linecap="round" stroke-linejoin="round" stroke-miterlimit="10" d="
			M639.3,967.5H132.9c-24,0-43.5-19.5-43.5-43.5V76c0-24,19.5-43.5,43.5-43.5h506.4c24,0,43.5,19.5,43.5,43.5v848
			C682.8,948,663.4,967.5,639.3,967.5z"/>
		
			<rect x="163.9" y="227.4" fill="#F7F7F8" stroke="#B3B3B3" stroke-width="20" stroke-linecap="round" stroke-linejoin="round" stroke-miterlimit="10" width="453.3" height="208"/>
		<g>
			
				<path fill="#CCCCCC" stroke="#B3B3B3" stroke-width="20" stroke-linecap="round" stroke-linejoin="round" stroke-miterlimit="10" d="
				M261.1,591.8h-71.8c-8,0-14.5-6.5-14.5-14.5v-46.5c0-8,6.5-14.5,14.5-14.5h71.8c8,0,14.5,6.5,14.5,14.5v46.5
				C275.6,585.4,269.1,591.8,261.1,591.8z"/>
			
				<path fill="#CCCCCC" stroke="#B3B3B3" stroke-width="20" stroke-linecap="round" stroke-linejoin="round" stroke-miterlimit="10" d="
				M426.4,591.8h-71.8c-8,0-14.5-6.5-14.5-14.5v-46.5c0-8,6.5-14.5,14.5-14.5h71.8c8,0,14.5,6.5,14.5,14.5v46.5
				C440.9,585.4,434.4,591.8,426.4,591.8z"/>
			<path fill="#E0142D" d="M591.7,591.8H520c-8,0-14.5-6.5-14.5-14.5v-46.5c0-8,6.5-14.5,14.5-14.5h71.8c8,0,14.5,6.5,14.5,14.5
				v46.5C606.2,585.4,599.7,591.8,591.7,591.8z"/>
		</g>
		<g>
			
				<path fill="#CCCCCC" stroke="#B3B3B3" stroke-width="20" stroke-linecap="round" stroke-linejoin="round" stroke-miterlimit="10" d="
				M261.1,740.6h-71.8c-8,0-14.5-6.5-14.5-14.5v-46.5c0-8,6.5-14.5,14.5-14.5h71.8c8,0,14.5,6.5,14.5,14.5v46.5
				C275.6,734.1,269.1,740.6,261.1,740.6z"/>
			
				<path fill="#CCCCCC" stroke="#B3B3B3" stroke-width="20" stroke-linecap="round" stroke-linejoin="round" stroke-miterlimit="10" d="
				M426.4,740.6h-71.8c-8,0-14.5-6.5-14.5-14.5v-46.5c0-8,6.5-14.5,14.5-14.5h71.8c8,0,14.5,6.5,14.5,14.5v46.5
				C440.9,734.1,434.4,740.6,426.4,740.6z"/>
			
				<path fill="#CCCCCC" stroke="#B3B3B3" stroke-width="20" stroke-linecap="round" stroke-linejoin="round" stroke-miterlimit="10" d="
				M591.7,740.6H520c-8,0-14.5-6.5-14.5-14.5v-46.5c0-8,6.5-14.5,14.5-14.5h71.8c8,0,14.5,6.5,14.5,14.5v46.5
				C606.2,734.1,599.7,740.6,591.7,740.6z"/>
		</g>
		<g>
			
				<path fill="#CCCCCC" stroke="#B3B3B3" stroke-width="20" stroke-linecap="round" stroke-linejoin="round" stroke-miterlimit="10" d="
				M261.1,889.3h-71.8c-8,0-14.5-6.5-14.5-14.5v-46.5c0-8,6.5-14.5,14.5-14.5h71.8c8,0,14.5,6.5,14.5,14.5v46.5
				C275.6,882.8,269.1,889.3,261.1,889.3z"/>
			
				<path fill="#CCCCCC" stroke="#B3B3B3" stroke-width="20" stroke-linecap="round" stroke-linejoin="round" stroke-miterlimit="10" d="
				M426.4,889.3h-71.8c-8,0-14.5-6.5-14.5-14.5v-46.5c0-8,6.5-14.5,14.5-14.5h71.8c8,0,14.5,6.5,14.5,14.5v46.5
				C440.9,882.8,434.4,889.3,426.4,889.3z"/>
			
				<path fill="#CCCCCC" stroke="#B3B3B3" stroke-width="20" stroke-linecap="round" stroke-linejoin="round" stroke-miterlimit="10" d="
				M591.7,889.3H520c-8,0-14.5-6.5-14.5-14.5v-46.5c0-8,6.5-14.5,14.5-14.5h71.8c8,0,14.5,6.5,14.5,14.5v46.5
				C606.2,882.8,599.7,889.3,591.7,889.3z"/>
		</g>
		
			<path fill="#E6E6E6" stroke="#B3B3B3" stroke-width="20" stroke-linecap="round" stroke-linejoin="round" stroke-miterlimit="10" d="
			M900.1,893.1H682.8V375.2h217.2c5.8,0,10.5,4.7,10.5,10.5v496.9C910.6,888.3,905.9,893.1,900.1,893.1z"/>
		<path fill="#808080" d="M617.1,123.5H164.6c-8.1,0-14.7,6.9-14.7,15s6.6,15,14.7,15h452.4c8.1,0,14.7-6.9,14.7-15
			S625.2,123.5,617.1,123.5z"/>
		<g>
			<path fill="#E0142D" d="M434.6,393.6c-1.6,1.6-3.5,2.4-5.7,2.4c-2.2,0-4.2-0.8-5.7-2.4L390.5,361l-32.6,32.6
				c-1.6,1.6-3.5,2.4-5.7,2.4c-2.2,0-4.2-0.8-5.7-2.4l-18.2-18.2c-1.6-1.6-2.4-3.5-2.4-5.7c0-2.2,0.8-4.2,2.4-5.7l32.6-32.6
				l-32.6-32.6c-1.6-1.6-2.4-3.5-2.4-5.7c0-2.2,0.8-4.2,2.4-5.7l18.2-18.2c1.6-1.6,3.5-2.4,5.7-2.4c2.2,0,4.2,0.8,5.7,2.4l32.6,32.6
				l32.6-32.6c1.6-1.6,3.5-2.4,5.7-2.4c2.2,0,4.2,0.8,5.7,2.4l18.2,18.2c1.6,1.6,2.4,3.5,2.4,5.7c0,2.2-0.8,4.2-2.4,5.7l-32.6,32.6
				l32.6,32.6c1.6,1.6,2.4,3.5,2.4,5.7c0,2.2-0.8,4.2-2.4,5.7L434.6,393.6z"/>
		</g>
		<rect x="759.7" y="389.8" fill="#808080" width="71.5" height="488.5"/>
	</g>
</g>
<g id="reports" display="none">
	<g display="inline">
		<g>
			<g>
				<path fill="#B3B3B3" d="M966.7,405.1c-0.8-2.7-2.1-4.5-4-6.7c-3.8-4.3-9.3-5.9-15-5.9h-41.1v-224c0-15.2-12.6-28-27.7-28H400.3
					l-38.8-64.6c-4.9-8.3-13.9-13.4-23.6-13.4H122.5c-15.2,0-26.9,12.7-26.9,27.9v302.1H52.4c-5.7,0-11.2,1.6-15,5.9
					c-1.9,2.2-3.2,4.4-4,7.1c-0.8,2.7-1,5.3-0.5,8.2l34.3,226.7l33.2,218.4l9.2,61.6c1.5,9.8,9.8,17.2,19.7,17.2h741.7
					c9.9,0,18.1-7.1,19.6-16.9l9.2-61.1h0.1l33.1-218.8l34.4-227C967.6,410.8,967.5,407.7,966.7,405.1z M126.6,93.5h209.2l38.8,64.6
					c5,8.2,14,13.4,23.7,13.4h475.3v221h-747V93.5z M111.6,725.1l-5.9-39.4l-2.2-14.2h61.7L111.6,725.1z M126,819.9l-8.6-56.5
					l92-91.9h65.1L126,819.9z M492.9,828.5h-80.7l156-157h80.7L492.9,828.5z M693,671.5h80.8l-156,157H537L693,671.5z M368,828.5
					h-80.7l156-157h80.7L368,828.5z M243.2,828.5h-80.7l156-157h80.7L243.2,828.5z M861.1,906.5H138.9l-7.1-47h736.3L861.1,906.5z
					 M872.9,828.5h-86.2l101.7-101.6L872.9,828.5z M896.2,674.3L742.5,828.5h-80.7l156-157h78.7L896.2,674.3z M901.3,640.5H98.7
					l-33.1-219h868.7L901.3,640.5z"/>
			</g>
		</g>
		<path fill="#CCCCCC" d="M873.6,171.5v221h-747v-299h209.2l38.8,64.6c5,8.2,14,13.4,23.7,13.4H873.6z"/>
		<polygon opacity="0.2" fill="#999999" points="126.6,316.7 873.6,349.9 873.6,392.5 126.6,392.5 		"/>
	</g>
</g>
<g id="brands" display="none">
	<g display="inline">
		<g>
			<path fill="#F2F2F2" d="M969.6,600.7v202.7c0,43.2-36.5,79.1-79.7,79.1H109.8c-43.2,0-77.2-35.9-77.2-79.1V790
				C32.6,790,524.6,484.5,969.6,600.7z"/>
			<path fill="#F7F7F8" d="M969.6,573v27.7C524.6,484.5,32.6,790,32.6,790V573c0-43.2,34.1-76.5,77.2-76.5h780.1
				C933.1,496.5,969.6,529.8,969.6,573z"/>
			<path fill="#B3B3B3" d="M890,897.5H110c-51.9,0-94.1-42.2-94.1-94.1V573c0-51.9,42.2-94.1,94.1-94.1H890
				c51.9,0,94.1,42.2,94.1,94.1v230.4C984.2,855.3,941.9,897.5,890,897.5z M110,510.7c-34.4,0-62.3,28-62.3,62.3v230.4
				c0,34.4,28,62.3,62.3,62.3H890c34.4,0,62.3-28,62.3-62.3V573c0-34.4-28-62.3-62.3-62.3H110z"/>
		</g>
		<g>
			<path fill="#666666" d="M173,610l42.1,121.7h0.7L258.2,610h43.3v165.2h-33.1v-49.2l3.2-72.9l-0.7-0.1l-44.2,122.3h-22.2
				l-44-121.8l-0.7,0.1l3.2,72.5v49.2h-33.1V610H173z"/>
			<path fill="#666666" d="M421.1,739.5h-58l-11.2,35.6h-33.5L375.3,610h33.9l56.6,165.2h-33.5L421.1,739.5z M371.3,713.6h41.6
				l-20.4-64.9h-0.7L371.3,713.6z"/>
			<path fill="#666666" d="M514.4,709.1v66h-33.1V610h62.3c18.8,0,33.6,4.3,44.2,12.9c10.6,8.6,15.9,20.6,15.9,35.9
				c0,8.5-2.2,15.9-6.7,22c-4.5,6.1-11,11.1-19.6,14.9c9.8,2.9,16.8,7.7,21,14.4c4.3,6.7,6.4,15.1,6.4,25v12.1
				c0,4.6,0.6,9.4,1.9,14.5c1.2,5,3.4,8.8,6.4,11.2v2.4h-34.1c-3-2.4-5-6.5-5.9-12.1c-0.9-5.7-1.4-11-1.4-16.1v-11.7
				c0-8.2-2.3-14.7-6.8-19.2c-4.5-4.6-10.8-6.9-19-6.9H514.4z M514.4,683.6H543c9.3,0,16.2-2,20.8-5.9c4.6-3.9,6.9-9.8,6.9-17.5
				c0-7.6-2.3-13.6-6.9-18c-4.6-4.5-11.3-6.7-20.3-6.7h-29.2V683.6z"/>
			<path fill="#666666" d="M759.5,718.9l0.2,0.7c0.3,17.8-5.1,31.9-16.3,42.3c-11.2,10.4-26.6,15.7-46.5,15.7
				c-19.9,0-36-6.4-48.4-19.2C636.2,745.6,630,729.1,630,709v-32.8c0-20,6.1-36.5,18.2-49.4c12.1-12.9,27.8-19.3,47.2-19.3
				c20.4,0,36.4,5.2,47.9,15.7c11.5,10.5,17.1,24.8,16.8,42.8l-0.2,0.7h-32.2c0-10.9-2.6-19.2-7.8-25c-5.2-5.8-13.4-8.7-24.4-8.7
				c-9.9,0-17.8,4-23.6,12.1c-5.8,8-8.7,18.3-8.7,30.8v33c0,12.6,3.1,23,9.2,31c6.1,8,14.4,12.1,24.8,12.1c10.4,0,18-2.8,23-8.3
				c5-5.6,7.4-13.8,7.4-24.8H759.5z"/>
			<path fill="#666666" d="M872,739.5h-58l-11.2,35.6h-33.5L826.1,610h33.9l56.6,165.2h-33.5L872,739.5z M822.2,713.6h41.6
				l-20.4-64.9h-0.7L822.2,713.6z"/>
		</g>
		<path fill="#F7F7F8" stroke="#808080" stroke-width="20" stroke-miterlimit="10" d="M852.9,326.8H703.6
			c-20.7,0-37.5-16.8-37.5-37.5V140c0-20.7,16.8-37.5,37.5-37.5h149.3c20.7,0,37.5,16.8,37.5,37.5v149.3
			C890.4,310,873.6,326.8,852.9,326.8z"/>
		<path fill="#E6E6E6" stroke="#B3B3B3" stroke-width="20" stroke-miterlimit="10" d="M293.7,401.7h-72.4c-11,0-19.9-8.9-19.9-19.9
			v-72.4c0-11,8.9-19.9,19.9-19.9h72.4c11,0,19.9,8.9,19.9,19.9v72.4C313.6,392.8,304.7,401.7,293.7,401.7z"/>
		<circle fill="#E0142D" cx="778.1" cy="212.5" r="47.7"/>
	</g>
</g>
<g id="anticipos" display="none">
	<g display="inline">
		<path fill="#E6E6E6" stroke="#B3B3B3" stroke-width="20" stroke-linecap="round" stroke-miterlimit="10" d="M976.6,746.5V356.1
			L626,69c0,0-21.5-19.5-55.4-35.2c-44.1-20.4-95.4-20.4-139.5,0C397.1,49.6,374.6,69,374.6,69l-351,287.1v390.4H976.6z"/>
		<g>
			<path fill="#0FCE45" d="M835.7,522.6H169.1c-20.3,0-36.7-16.4-36.7-36.7V150.9c0-20.3,16.4-36.7,36.7-36.7h666.6
				c20.3,0,36.7,16.4,36.7,36.7v335.1C872.3,506.2,855.9,522.6,835.7,522.6z"/>
			<path fill="#0B9432" d="M811.9,539.1H192.8c-42.4,0-76.9-34.5-76.9-76.9V174.6c0-42.4,34.5-76.9,76.9-76.9h619.2
				c42.4,0,76.9,34.5,76.9,76.9v287.6C888.8,504.6,854.3,539.1,811.9,539.1z M192.8,130.7c-24.2,0-43.9,19.7-43.9,43.9v287.6
				c0,24.2,19.7,43.9,43.9,43.9h619.2c24.2,0,43.9-19.7,43.9-43.9V174.6c0-24.2-19.7-43.9-43.9-43.9H192.8z"/>
		</g>
		<g>
			<path fill="#0FCE45" d="M732,194.9c0-2-0.7-3.4-0.5-5.4H282.9c0,38-32.3,68.4-72.3,68.8v118.3c40,0,71.4,29.9,72.2,69.9h448.4
				c0.8-40,30.3-69.9,72.3-69.9V265.1C761.6,265.1,732,234,732,194.9z"/>
			<path fill="#0B9432" d="M276.4,459.5l-0.1-8.7c-0.7-34.7-29.2-65.3-63.4-65.3h-7.2V251.8l7.5-0.1c35.3-0.4,64.5-29.2,64.5-64.2
				v-8h460.8l-0.4,7.6c-0.1,2-0.1,3.4-0.1,4.5c0,0.7,0,2.4,0,3.1c0,35.6,28.9,65.8,64.5,65.8h6.1v125h-6.1
				c-34.9,0-64,30.6-64.7,65.3l-0.1,8.7H276.4z M297.8,194.5c-4.7,0-8.8,3.2-9.7,7.8c-5.9,30.5-31.2,55-61.6,61.1
				c-4.6,0.9-8.8,4.9-8.8,9.6v88.7c0,4.7,4.2,8.8,8.9,9.7c29.8,5.9,54.5,30.1,60.9,60.2c1,4.6,5.4,7.8,10.1,7.8h419.2
				c4.7,0,8.7-3.3,9.7-7.8c3.1-14.8,10.5-28.4,21.4-39.2c11.1-10.9,25.3-18.2,40.5-21.1c4.7-0.9,8.4-5,8.4-9.7V280
				c0-4.7-3.7-8.8-8.4-9.7c-33-6.3-58.9-33.9-62.7-67.2c-0.6-5-5-8.6-10-8.6H297.8z"/>
		</g>
		<circle fill="#0B9432" cx="500.6" cy="321.6" r="78.6"/>
		<circle fill="#FCEE21" cx="500.6" cy="321.6" r="62.5"/>
		<path fill="#E6E6E6" stroke="#B3B3B3" stroke-width="20" stroke-linecap="round" stroke-miterlimit="10" d="M625.7,678.6
			c0,0-20.9,19.5-55,35.2c-44.3,20.4-95.5,20.4-139.8,0c-34.1-15.7-55-35.2-55-35.2L24.9,391.5v483.8c0,58.7,47.8,106.2,106.8,106.2
			h368h2.3h368c59,0,106.8-47.6,106.8-106.2V391.5L625.7,678.6z"/>
		
			<line fill="#E6E6E6" stroke="#B3B3B3" stroke-width="20" stroke-linecap="round" stroke-miterlimit="10" x1="325.1" y1="738.5" x2="112.6" y2="901.3"/>
		
			<line fill="#E6E6E6" stroke="#B3B3B3" stroke-width="20" stroke-linecap="round" stroke-miterlimit="10" x1="675.5" y1="738.5" x2="887.9" y2="901.3"/>
	</g>
</g>
<g id="equipments" display="none">
	<g display="inline">
		<g>
			<g>
				<g>
					<polygon fill="#E6E6E6" points="795.6,513.9 900.4,319.4 683.2,164.4 501.3,213.5 492.6,181.1 689.8,127.9 943.8,309.2 
						825.1,529.8 					"/>
					<path fill="#B3B3B3" d="M687.8,138.8l243.1,173.5L821,516.2l-11.9-6.4l104.2-193.5L685.2,153.5l-176.8,47.7l-3.5-13
						L687.8,138.8 M691.7,117l-9.1,2.5l-182.9,49.4l-19.3,5.2l5.2,19.3l3.5,13l5.2,19.3l19.3-5.2l167.6-45.3l206.1,147.1l-95.8,178
						L782,518l17.6,9.5l11.9,6.4l17.6,9.5l9.5-17.6l109.8-204l8.4-15.5L942.5,296L699.4,122.5L691.7,117L691.7,117z"/>
				</g>
			</g>
			
				<circle fill="#1130EA" stroke="#B3B3B3" stroke-width="20" stroke-linecap="round" stroke-miterlimit="10" cx="682.4" cy="148.4" r="46.3"/>
			
				<circle fill="#1130EA" stroke="#B3B3B3" stroke-width="20" stroke-linecap="round" stroke-miterlimit="10" cx="922.5" cy="308.9" r="46.3"/>
			<circle fill="#140D93" cx="683.3" cy="149.3" r="10.3"/>
			<circle fill="#140D93" cx="922.1" cy="308.4" r="10.3"/>
			<path fill="#E6E6E6" stroke="#B3B3B3" stroke-width="20" stroke-linecap="round" stroke-miterlimit="10" d="M601.4,331.1
				L349.2,225.6l14.6-35c5.1-12.3,19.3-18.1,31.6-12.9l207.7,86.9c12.3,5.1,18.1,19.3,12.9,31.6L601.4,331.1z"/>
			<path fill="#E6E6E6" stroke="#B3B3B3" stroke-width="20" stroke-linecap="round" stroke-miterlimit="10" d="M587.2,257.9
				l-175.9-73.6l9.6-22.8c3.4-8,12.6-11.8,20.6-8.4l146.9,61.5c8,3.4,11.8,12.6,8.4,20.6L587.2,257.9z"/>
			<path fill="#E6E6E6" stroke="#B3B3B3" stroke-width="20" stroke-linecap="round" stroke-miterlimit="10" d="M939.3,563.4H601.8
				c-5.4,0-9.8-4.4-9.8-9.8v-30.8c0-5.4,4.4-9.8,9.8-9.8h337.5c5.4,0,9.8,4.4,9.8,9.8v30.8C949,559,944.7,563.4,939.3,563.4z"/>
			
				<rect x="644.6" y="563.4" fill="#E6E6E6" stroke="#B3B3B3" stroke-width="20" stroke-linecap="round" stroke-miterlimit="10" width="277.4" height="327.8"/>
			
				<rect x="447" y="727.3" fill="#E6E6E6" stroke="#B3B3B3" stroke-width="20" stroke-linecap="round" stroke-miterlimit="10" width="162.6" height="119.4"/>
			<path fill="#CCCCCC" stroke="#B3B3B3" stroke-width="20" stroke-linecap="round" stroke-miterlimit="10" d="M647.7,897.9h-249
				c-5.5,0-10-4.5-10-10v-31.3c0-5.5,4.5-10,10-10h249c5.5,0,10,4.5,10,10V888C657.7,893.5,653.2,897.9,647.7,897.9z"/>
			<path fill="#E6E6E6" stroke="#B3B3B3" stroke-width="20" stroke-linecap="round" stroke-miterlimit="10" d="M857,844.5
				c0,0,61.5-71.4-54.5-122.6c0,0-100.5-22.9-120.7,19.6C681.8,741.5,813.7,797.9,857,844.5z"/>
			<path fill="#E6E6E6" stroke="#B3B3B3" stroke-width="20" stroke-linecap="round" stroke-miterlimit="10" d="M687.2,748.9
				c0,0,34.4-92.4-149.1-106.6c0,0-155.1,0-168.6,68.1C369.5,710.4,643.3,717.2,687.2,748.9z"/>
			<path fill="#E6E6E6" stroke="#B3B3B3" stroke-width="20" stroke-linecap="round" stroke-miterlimit="10" d="M374.9,715.7
				c0,0-18.9-105.1-114.7-154.3c-95.8-49.2-150.4-17.5-150.4-17.5S165.1,650.9,374.9,715.7z"/>
			<path fill="#E6E6E6" stroke="#B3B3B3" stroke-width="20" stroke-linecap="round" stroke-miterlimit="10" d="M121.9,546.5
				c0,0,31.7-107.3-64.7-99.5C57.2,447,63.9,522.3,121.9,546.5z"/>
			<g>
				<g>
					<path fill="#E6E6E6" d="M850.6,861.7c-2.4,0-4.8-0.9-6.6-2.5c-61.2-54.5-124.5-83.5-166.8-98.2c-40.6-14.2-70.2-18.2-76.1-18.9
						c-5.2,0.3-12.5,0.4-21.7,0.4c-33,0-86.8-1.8-126.2-3.3c-70.2-2.7-139.1-23.2-199.4-59.4c-47.5-28.5-98.6-61.3-133.2-83.9
						c-31.1-20.3-57.5-47.3-76.4-78.2c-27.4-44.7-24.7-66.1-20.6-74.9c1.6-3.6,5.2-5.8,9.1-5.8c0.1,0,0.2,0,0.3,0l13.7,0.5
						c3.4,0.1,6.6,1.5,8.3,4.4c1.7,2.8,2.1,5.9,0.8,8.9c-0.4,1.9-2.6,17.6,16.9,49.5c16.3,26.6,39.2,50,66.1,67.6
						c34.3,22.4,85,55,132.1,83.2c55.4,33.2,118.9,52.1,183.4,54.6c56.9,2.2,98.9,3.3,124.8,3.3c9.4,0,16.5-0.2,21.2-0.4l0.5,0
						c0.2,0,0.4,0,0.6,0c0.3,0,0.6,0,0.9,0l0.5,0c1.4,0.1,35.3,3.4,84.7,20.6c45.3,15.7,113,46.7,178.5,105c4.1,3.7,4.5,10,0.8,14.1
						l-9,10.1c-1.8,2-4.2,3.2-6.9,3.3C851,861.7,850.8,861.7,850.6,861.7z"/>
					<path fill="#B3B3B3" d="M32.7,447l13.7,0.5c0,0-6.7,18,17.8,58c17.1,27.9,41,52.4,69.2,70.8c34.4,22.4,85.2,55.1,132.4,83.4
						c56.9,34.1,122,53.5,188.2,56c57,2.2,99.4,3.3,125.2,3.3c9.6,0,16.9-0.2,21.8-0.5l0.5,0l0.5,0c1.4,0.1,34.1,3.3,82.4,20.1
						c44.4,15.4,110.9,45.8,175.1,103l-9,10.1c-62.4-55.6-127-85.2-170.1-100.2c-43.7-15.2-74.9-19-79.2-19.5
						c-5.3,0.3-12.8,0.5-22,0.5c-32,0-83.5-1.7-125.8-3.3c-68.5-2.6-135.8-22.7-194.6-58c-47.4-28.4-98.4-61.2-132.8-83.7
						c-29.8-19.5-55.2-45.4-73.3-75C24.4,466.2,31.6,449.4,32.7,447 M32.7,427c-7.8,0-14.9,4.5-18.2,11.6
						c-6,12.9-7.1,38.1,21.2,84.3c19.7,32.1,47.1,60.2,79.4,81.3c34.6,22.6,85.9,55.5,133.5,84.1c61.7,37,132.3,58,204.1,60.8
						c39.4,1.5,93.4,3.3,126.6,3.3c9,0,16-0.1,21.3-0.4c7.2,0.9,35.1,5,73.2,18.3c41.4,14.4,103.4,42.9,163.4,96.2
						c3.7,3.3,8.4,5.1,13.3,5.1c0.4,0,0.8,0,1.2,0c5.3-0.3,10.3-2.7,13.8-6.7l9-10.1c7.3-8.3,6.6-20.9-1.6-28.2
						c-66.7-59.4-135.7-90.9-181.8-107c-49.7-17.3-83.4-20.8-87.1-21.1l-0.5,0c-0.6-0.1-1.2-0.1-1.9-0.1c-0.4,0-0.9,0-1.3,0l-0.5,0
						c-4.4,0.3-11.3,0.4-20.5,0.4c-25.8,0-67.6-1.1-124.4-3.3c-62.9-2.4-124.7-20.8-178.7-53.2c-46.9-28.1-97.6-60.7-131.8-83
						c-25.7-16.8-47.5-39.1-63.1-64.5c-16.6-27-15.8-40.3-15.6-42.1c1.6-5.6,0.6-11.7-2.6-16.6c-3.6-5.3-9.5-8.6-15.9-8.8l-13.7-0.5
						C33.1,427.1,32.9,427,32.7,427L32.7,427z"/>
				</g>
			</g>
		</g>
		<polygon opacity="0.25" fill="#FCEE21" points="363.9,239.3 134.6,421.2 544.1,603 567.4,325.5 		"/>
	</g>
</g>
<g id="files" display="none">
	<g display="inline">
		<g>
			<path fill="#C0C1C4" d="M122.1-12.5c1.9,0,1.9-3,0-3C120.2-15.5,120.2-12.5,122.1-12.5L122.1-12.5z"/>
		</g>
		<g>
			<path fill="#CCCCCC" d="M386,500.3L386,500.3c0-11.1-9-20.1-20.1-20.1H251.4c-11.1,0-20.1,9-20.1,20.1v0c0,11.1-9,20.1-20.1,20.1
				h-66.7c-11.1,0-20.1,9-20.1,20.1v412.8c0,11.1,9,20.1,20.1,20.1h547.4c11.1,0,20.1-9,20.1-20.1V540.5c0-11.1-9-20.1-20.1-20.1
				H406.2C395.1,520.4,386,511.4,386,500.3z"/>
			<polygon opacity="0.2" fill="#999999" points="124.4,585.5 712.1,585.5 723.6,838.2 132.1,968.9 			"/>
			<path fill="#B3B3B3" d="M691.8,986H144.4c-18,0-32.7-14.7-32.7-32.7V540.5c0-18,14.7-32.7,32.7-32.7h66.7c4.2,0,7.6-3.4,7.6-7.6
				c0-18,14.7-32.7,32.7-32.7h114.5c18,0,32.7,14.7,32.7,32.7c0,4.2,3.4,7.6,7.6,7.6h285.7c18,0,32.7,14.7,32.7,32.7v412.8
				C724.5,971.3,709.9,986,691.8,986z M144.4,533c-4.2,0-7.6,3.4-7.6,7.6v412.8c0,4.2,3.4,7.6,7.6,7.6h547.4c4.2,0,7.6-3.4,7.6-7.6
				V540.5c0-4.2-3.4-7.6-7.6-7.6H406.2c-18,0-32.7-14.7-32.7-32.7c0-4.2-3.4-7.6-7.6-7.6H251.4c-4.2,0-7.6,3.4-7.6,7.6
				c0,18-14.7,32.7-32.7,32.7H144.4z"/>
		</g>
		<path fill="#E6E6E6" stroke="#B3B3B3" stroke-width="20" stroke-linecap="round" stroke-miterlimit="10" d="M694.6,972.8H164.9
			c-19.2,0-32.1-19.7-24.4-37.3l128.9-294c4.2-9.7,13.8-15.9,24.4-15.9h529.6c19.2,0,32.1,19.7,24.4,37.3l-128.9,294
			C714.7,966.6,705.1,972.8,694.6,972.8z"/>
		<path fill="none" stroke="#CECECE" stroke-width="13" stroke-linecap="round" stroke-miterlimit="10" d="M567.4,320.2
			c0,0,157.1,0,186.2-147.2c6.8-34.4-12.2-69.2-45.3-80.7c-16.8-5.8-35.5-5.1-52.6,12.2c-28,28.4-25.6,74.5,4.2,101.2
			c34.2,30.6,101.8,43.1,228.2-76.2"/>
		<path fill="none" stroke="#CECECE" stroke-width="13" stroke-linecap="round" stroke-miterlimit="10" d="M598.2,106.4
			c0,0-46,61.2,16.2,114.5"/>
		<path fill="none" stroke="#CECECE" stroke-width="13" stroke-linecap="round" stroke-miterlimit="10" d="M798.3,141.6
			c0,0,41.5-22.7,56.6-47.8"/>
		<path fill="#F7F7F8" stroke="#CECECE" stroke-width="13" stroke-linecap="round" stroke-miterlimit="10" d="M669.9,345.5
			c0,0,60-25.4,81.8-59.7"/>
		<path fill="#0FCE45" d="M501.8,190.5c19.4-4.4,21.6-19.2,21.6-19.2l0,0c0.3-0.2,4.7-4,8.8-5.5c0.1-0.1,0.3-0.1,0.4-0.1
			C539.8,187.8,501.8,190.5,501.8,190.5z"/>
		<path fill="#10BF3D" d="M530.1,161.5c-2.8,1.6-5.8,4.5-6.7,9.9c0,0-2.2,14.8-21.6,19.2c4-4.1,5.9-10.8,6.7-15.3
			c0.9-4.7,3.1-9.2,6.7-12.4C522,156.7,527.7,159.6,530.1,161.5z"/>
		<g>
			<path fill="#0FCE45" d="M850.3,26c-4.2,17.4-17.5,19.3-17.5,19.3l0,0c-0.2,0.2-3.6,4.2-5.1,7.8c0,0.1-0.1,0.2-0.1,0.3
				C847.5,60.2,850.3,26,850.3,26z"/>
			<path fill="#10BF3D" d="M823.9,51.2c1.5-2.5,4.1-5.1,9-5.9c0,0,13.3-1.9,17.5-19.3c-3.7,3.6-9.8,5.2-13.9,5.9
				c-4.3,0.7-8.3,2.7-11.2,5.9C819.6,43.8,822.2,49,823.9,51.2z"/>
		</g>
		<g>
			<path fill="#0FCE45" d="M427.2,303.9c30.7,7.7,44.6-11.6,44.6-11.6l0,0c0.6-0.1,9.5-2.2,16.4-1.5c0.2,0,0.4,0,0.6,0.1
				C483.2,327.6,427.2,303.9,427.2,303.9z"/>
			<path fill="#10BF3D" d="M488.4,283.1c-5.2,0.2-11.4,2.3-16.6,9.2c0,0-13.9,19.4-44.6,11.6c8.6-2.9,16.2-11.1,20.6-16.9
				c4.7-6.1,11.1-10.7,18.5-12.7C480.3,270.5,486.3,278.8,488.4,283.1z"/>
		</g>
		<g>
			<path fill="#0FCE45" d="M617.3,434.9c26.5-17.5,21.5-40.7,21.5-40.7l0,0c0.3-0.5,4.8-8.5,10-13.1c0.2-0.1,0.3-0.3,0.5-0.4
				C672.6,409.6,617.3,434.9,617.3,434.9z"/>
			<path fill="#10BF3D" d="M643.3,375.7c-3.3,4-6,10-4.4,18.5c0,0,4.9,23.3-21.5,40.7c3.7-8.3,2.7-19.4,1.4-26.6
				c-1.4-7.6-0.4-15.4,3.1-22.3C628.5,373.1,638.6,374.3,643.3,375.7z"/>
		</g>
	</g>
</g>
<g id="images" display="none">
	<g display="inline">
		
			<path fill="#F2F2F2" stroke="#CCCCCC" stroke-width="20" stroke-linecap="round" stroke-linejoin="round" stroke-miterlimit="10" d="
			M978.6,636.6V282.5h-432v457H856C873.9,685.5,920.8,645.5,978.6,636.6z"/>
		
			<rect x="75.9" y="183.6" fill="#E6E6E6" stroke="#999999" stroke-width="20" stroke-linecap="round" stroke-linejoin="round" stroke-miterlimit="10" width="472.1" height="632.8"/>
		
			<rect x="21.3" y="59.7" fill="#B3B3B3" stroke="#808080" stroke-width="20" stroke-linecap="round" stroke-linejoin="round" stroke-miterlimit="10" width="581.5" height="123.9"/>
		
			<rect x="21.3" y="816.4" fill="#B3B3B3" stroke="#808080" stroke-width="20" stroke-linecap="round" stroke-linejoin="round" stroke-miterlimit="10" width="581.5" height="123.9"/>
		<path fill="#E0142D" d="M811.7,376.5h-58.5c-10.3,0-18.7-8.2-18.7-18.5s8.4-18.5,18.7-18.5h58.5c10.3,0,18.7,8.2,18.7,18.5
			S822.1,376.5,811.7,376.5z"/>
		
			<line fill="none" stroke="#B3B3B3" stroke-width="30" stroke-linecap="round" stroke-linejoin="round" stroke-miterlimit="10" x1="752.6" y1="666.5" x2="811.6" y2="666.5"/>
		
			<line fill="none" stroke="#B3B3B3" stroke-width="30" stroke-linecap="round" stroke-linejoin="round" stroke-miterlimit="10" x1="622.6" y1="355.5" x2="684.6" y2="355.5"/>
		
			<line fill="none" stroke="#B3B3B3" stroke-width="30" stroke-linecap="round" stroke-linejoin="round" stroke-miterlimit="10" x1="622.6" y1="664.5" x2="684.6" y2="664.5"/>
		<g>
			<path fill="#4D4D4D" d="M312.6,485.5c-25.9,0-47,24-47,47c0,30,21.1,0,47,0s47,30,47,0C359.6,509.5,338.5,485.5,312.6,485.5z"/>
			<path fill="#666666" d="M209.6,356.2c-15.8,0-28,12.9-28,28.7v43.4c0,15.8,12.2,28.7,28,28.7s28-12.9,28-28.7v-43.4
				C237.6,369.1,225.4,356.2,209.6,356.2z"/>
			<path fill="#666666" d="M418.6,356.2c-15.8,0-29,12.9-29,28.7v43.4c0,15.8,13.2,28.7,29,28.7s29-12.9,29-28.7v-43.4
				C447.6,369.1,434.4,356.2,418.6,356.2z"/>
		</g>
		<rect x="602.7" y="391.5" fill="#E6E6E6" width="233.4" height="233.4"/>
		<polygon fill="#CCCCCC" points="827.6,525.9 827.6,616.5 614.6,616.5 614.6,561.6 677.8,521.1 720.9,554.2 788.2,492.8 		"/>
		<polygon fill="#B3B3B3" points="712.9,548.6 788.1,492.8 720.3,554.2 		"/>
		<polygon fill="#B3B3B3" points="678.8,521.1 614.6,574.4 614.6,561.6 		"/>
	</g>
</g>
<g id="contracts" display="none">
	<g display="inline">
		<polygon fill="#F7F7F8" points="521.9,67.5 78.6,67.5 78.6,919.5 691.6,919.5 691.6,237.1 		"/>
	</g>
	<polygon display="inline" fill="#DDDDDD" points="521.3,67.9 541.6,268.5 692.1,249.5 659.4,205.5 	"/>
	<g display="inline">
		<path fill="#B3B3B3" d="M522,364.1H247.3c-5.6,0-10.2-4.6-10.2-10.2v-26.8c0-5.6,4.6-10.2,10.2-10.2H522c5.6,0,10.2,4.6,10.2,10.2
			v26.8C532.2,359.5,527.6,364.1,522,364.1z"/>
		<path fill="#B3B3B3" d="M569.9,461.5H199.3c-5.6,0-10.2-4.6-10.2-10.2v-26.8c0-5.6,4.6-10.2,10.2-10.2h370.6
			c5.6,0,10.2,4.6,10.2,10.2v26.8C580.1,456.9,575.6,461.5,569.9,461.5z"/>
		<path fill="#B3B3B3" d="M569.9,561.8H199.3c-5.6,0-10.2-4.6-10.2-10.2v-26.8c0-5.6,4.6-10.2,10.2-10.2h370.6
			c5.6,0,10.2,4.6,10.2,10.2v26.8C580.1,557.3,575.6,561.8,569.9,561.8z"/>
		<path fill="#B3B3B3" d="M569.9,662.2H199.3c-5.6,0-10.2-4.6-10.2-10.2v-26.8c0-5.6,4.6-10.2,10.2-10.2h370.6
			c5.6,0,10.2,4.6,10.2,10.2V652C580.1,657.6,575.6,662.2,569.9,662.2z"/>
		<path fill="#FF720C" d="M569.9,813.8H438.3c-5.6,0-10.2-4.6-10.2-10.2v-26.8c0-5.6,4.6-10.2,10.2-10.2h131.6
			c5.6,0,10.2,4.6,10.2,10.2v26.8C580.1,809.3,575.6,813.8,569.9,813.8z"/>
	</g>
	<g display="inline">
		<path fill="#B3B3B3" d="M691.6,929.5h-613c-5.5,0-10-4.5-10-10v-852c0-5.5,4.5-10,10-10h443.3c2.7,0,5.2,1.1,7.1,2.9L698.7,230
			c1.9,1.9,2.9,4.4,2.9,7.1v682.4C701.6,925,697.1,929.5,691.6,929.5z M88.6,909.5h593V241.2L517.8,77.5H88.6V909.5z"/>
	</g>
	<g display="inline">
		<rect x="28.8" y="869.6" fill="#FFB41F" width="207.4" height="62.5"/>
		<rect x="66.4" y="807.6" fill="#EEBF5E" width="207.4" height="62.5"/>
		<g>
			<g>
				<circle fill="#D49417" cx="165.1" cy="684.7" r="123.3"/>
				<path fill="#FFB41F" d="M261.9,652.1c0-20.4-4.4-39.8-12.4-57.3c-22.1-20.7-51.8-33.4-84.4-33.4c-68.1,0-123.3,55.2-123.3,123.3
					c0,43,22,80.9,55.4,103c8.6,1.7,17.5,2.6,26.6,2.6C200.1,790.2,261.9,728.4,261.9,652.1z"/>
			</g>
			<g>
				<path fill="#EED199" d="M158.1,771.1v-21.2c-12.2-0.2-24.8-4-32.2-9.3l5-14.1c7.6,5,18.5,9,30.3,9c14.9,0,25-8.6,25-20.6
					c0-11.6-8.2-18.7-23.8-25c-21.5-8.4-34.7-18.1-34.7-36.4c0-17.5,12.4-30.7,31.8-33.9v-21.2h13v20.4c12.6,0.4,21.2,3.8,27.3,7.4
					l-5.3,13.9c-4.4-2.5-13-7.2-26.5-7.2c-16.2,0-22.3,9.7-22.3,18.1c0,10.9,7.8,16.4,26.1,24c21.7,8.8,32.6,19.8,32.6,38.5
					c0,16.6-11.6,32.2-33.2,35.8v21.9H158.1z"/>
			</g>
		</g>
	</g>
	<g display="inline">
		<path fill="#FD7717" d="M895.2,287.8L534.4,648.6l0.4,0.4L492,754l105-42.8l-0.1-0.1l361.4-361.4c17.1-17.1,17.1-44.8,0-61.9l0,0
			C940.8,270.4,912.6,270.4,895.2,287.8z"/>
		<path fill="#6E6E6E" d="M958.2,287.8L958.2,287.8c-17.4-17.4-45.6-17.4-63,0l-98.1,98.1l62.4,62.4l98.6-98.6
			C975.3,332.5,975.3,304.8,958.2,287.8z"/>
		<path fill="#DA2F00" d="M492.3,754.2L597,711.1l-0.1-0.1l361.4-361.4c17.1-17.1,17.3-44.5,0.3-61.6l0,0c-0.1-0.1,0,0.1,0,0.1
			L492.9,753.8L492.3,754.2z"/>
		<path fill="#484848" d="M958.5,288.1L829,417.6l30.6,30.6l98.6-98.6C975.2,332.6,975.3,305.2,958.5,288.1z"/>
	</g>
	
		<polygon display="inline" fill="#E6E6E6" stroke="#B3B3B3" stroke-width="20" stroke-linecap="round" stroke-linejoin="round" stroke-miterlimit="10" points="
		521.3,67.9 691.5,237.5 520.7,237.5 	"/>
</g>
<g id="sender">
	<path fill="#EDE9E8" d="M745.5,533.6v315.1H263.2V533.6l48.2-48.2h392.1L745.5,533.6z"/>
	<path fill="#DFD7D5" d="M745.5,533.6v315.1H504.3V485.3h199.2L745.5,533.6z"/>
	<path fill="#AFAFAF" d="M407.9,654.1h192.9v194.5H407.9V654.1z"/>
	<path fill="#969696" d="M504.3,654.1h96.5v194.5h-96.5V654.1z"/>
	<path fill="#DFD7D5" d="M745.5,73.8v459.8H263.2V73.8c0-13.5,10.6-24.1,24.1-24.1h434.1C734.9,49.6,745.5,60.3,745.5,73.8z"/>
	<path fill="#D2C5C2" d="M745.5,533.6H504.3V49.6h217c13.5,0,24.1,10.6,24.1,24.1V533.6z"/>
	<path fill="#5E5E5E" d="M311.4,388.9h96.5v96.5h-96.5V388.9z"/>
	<path fill="#5E5E5E" d="M456.1,388.9h96.5v96.5h-96.5V388.9z"/>
	<path fill="#494949" d="M600.8,388.9h96.5v96.5h-96.5V388.9z"/>
	<path fill="#494949" d="M600.8,244.2h96.5v96.5h-96.5V244.2z"/>
	<g>
		<path fill="#5E5E5E" d="M456.1,244.2h96.5v96.5h-96.5V244.2z"/>
		<path fill="#5E5E5E" d="M311.4,244.2h96.5v96.5h-96.5V244.2z"/>
		<path fill="#5E5E5E" d="M311.4,97.9h96.5v98.1h-96.5V97.9z"/>
		<path fill="#5E5E5E" d="M456.1,97.9h96.5v98.1h-96.5V97.9z"/>
	</g>
	<path fill="#494949" d="M600.8,97.9h96.5v98.1h-96.5V97.9z"/>
	<path fill="#494949" d="M504.3,97.9h48.2v98.1h-48.2V97.9z"/>
	<path fill="#494949" d="M504.3,244.2h48.2v96.5h-48.2V244.2z"/>
	<path fill="#494949" d="M504.3,388.9h48.2v96.5h-48.2V388.9z"/>
	<path fill="#90E36A" d="M843.6,848.7c0,13.5-10.2,24.1-21.5,24.1H176.6c-11.3,0-20.1-10.6-20.1-24.1c0-13.5,8.9-24.1,20.1-24.1
		h645.5C833.4,824.5,843.6,835.1,843.6,848.7z"/>
	<path fill="#56C225" d="M843.6,848.7c0,13.5-12.2,24.1-25.7,24.1H504.3v-48.2h313.5C831.3,824.5,843.6,835.1,843.6,848.7z"/>
	<path fill="#9E9E9E" d="M649,654.1c0,13.5-10.6,24.1-24.1,24.1H383.8c-13.5,0-24.1-10.6-24.1-24.1c0-13.5,10.6-24.1,24.1-24.1
		h241.1C638.4,630,649,640.6,649,654.1z"/>
	<path fill="#777777" d="M624.9,678.2H504.3V630h120.6c13.5,0,24.1,10.6,24.1,24.1C649,667.6,638.4,678.2,624.9,678.2z"/>
	<g>
		<path fill="#FF623F" d="M597.9,792.3c0,28.3-14.5,50.3-30.6,72.3l-63,85.7l-63-85.7c-16.1-22-30.6-44-30.6-72.3
			c0-51.6,42-93.6,93.6-93.6h0.4C556.1,698.9,597.9,740.8,597.9,792.3z"/>
		<path fill="#E30020" d="M597.9,792.3c0,28.3-14.5,50.3-30.6,72.3l-63,85.7V698.7h0.4C556.1,698.9,597.9,740.8,597.9,792.3z"/>
		<path fill="#FFFFFF" d="M559.9,792.3c0,30.7-24.9,55.6-55.6,55.6s-55.6-24.9-55.6-55.6c0-30.6,24.9-55.6,55.6-55.6
			S559.9,761.6,559.9,792.3z"/>
		<path fill="#D6D6D8" d="M559.9,792.3c0,30.7-24.9,55.6-55.6,55.6V736.7C535,736.7,559.9,761.6,559.9,792.3z"/>
	</g>
</g>
<g id="addressee" display="none">
	<path display="inline" fill="#FED2A4" d="M782.9,441.6v361.8c0,11.8-9.3,21.1-21.1,21.1H252.2c-11.8,0-21.1-9.3-21.1-21.1V441.6
		L507,188.2L782.9,441.6z"/>
	<path display="inline" fill="#FFBD86" d="M782.9,441.6v361.8c0,11.8-9.3,21.1-21.1,21.1H507V188.2L782.9,441.6z"/>
	<path display="inline" fill="#804231" d="M698.4,167.1h84.5v211.1h-84.5V167.1z"/>
	<path display="inline" fill="#FF7816" d="M862.3,444.9l-27.9,31.7c-7.6,8.9-21.1,9.7-30,2.1L507,208.9L209.6,478.7
		c-8.9,7.6-22.4,6.8-30-2.1l-27.9-31.7c-7.6-8.9-6.8-22.4,2.1-30l339.2-305.7c3.8-3.8,8.9-5.5,13.9-5.5c5.1,0,10.1,1.7,13.9,5.5
		L860.2,415C869,422.6,869.9,436.1,862.3,444.9z"/>
	<path display="inline" fill="#FF4B00" d="M862.3,444.9l-27.9,31.7c-7.6,8.9-21.1,9.7-30,2.1L507,208.9V103.7
		c5.1,0,10.1,1.7,13.9,5.5L860.2,415C869,422.6,869.9,436.1,862.3,444.9z"/>
	<path display="inline" fill="#B35F49" d="M804,188.2H677.3c-11.7,0-21.1-9.4-21.1-21.1c0-11.7,9.4-21.1,21.1-21.1H804
		c11.7,0,21.1,9.4,21.1,21.1C825.1,178.8,815.7,188.2,804,188.2z"/>
	<path display="inline" fill="#AFAFAF" d="M410.6,654h192.9v194.5H410.6V654z"/>
	<path display="inline" fill="#969696" d="M507.1,654h96.5v194.5h-96.5V654z"/>
	<path display="inline" fill="#5E5E5E" d="M314.1,458.1h96.5v96.5h-96.5V458.1z"/>
	<path display="inline" fill="#5E5E5E" d="M458.8,458.1h96.5v96.5h-96.5V458.1z"/>
	<path display="inline" fill="#494949" d="M603.5,458.1h96.5v96.5h-96.5V458.1z"/>
	<path display="inline" fill="#494949" d="M507,458.1h48.2v96.5H507V458.1z"/>
	<path display="inline" fill="#90E36A" d="M841.3,848.6c0,13.5-10.2,24.1-21.5,24.1H174.3c-11.3,0-20.1-10.6-20.1-24.1
		c0-13.5,8.9-24.1,20.1-24.1h645.5C831.1,824.5,841.3,835.1,841.3,848.6z"/>
	<path display="inline" fill="#56C225" d="M841.3,848.6c0,13.5-12.2,24.1-25.7,24.1H502.1v-48.2h313.5
		C829.1,824.5,841.3,835.1,841.3,848.6z"/>
	<g display="inline">
		<path fill="#FF623F" d="M600.6,792.2c0,28.3-14.5,50.3-30.6,72.3l-63,85.7l-63-85.7c-16.1-22-30.6-44-30.6-72.3
			c0-51.6,42-93.6,93.6-93.6h0.4C558.9,698.9,600.6,740.7,600.6,792.2z"/>
		<path fill="#E30020" d="M600.6,792.2c0,28.3-14.5,50.3-30.6,72.3l-63,85.7V698.6h0.4C558.9,698.9,600.6,740.7,600.6,792.2z"/>
		<path fill="#FFFFFF" d="M562.7,792.2c0,30.7-24.9,55.6-55.6,55.6s-55.6-24.9-55.6-55.6c0-30.6,24.9-55.6,55.6-55.6
			S562.7,761.6,562.7,792.2z"/>
		<path fill="#D6D6D8" d="M562.7,792.2c0,30.7-24.9,55.6-55.6,55.6V736.6C537.7,736.6,562.7,761.6,562.7,792.2z"/>
	</g>
</g>
<g id="guide">
	<g>
		<path fill="#ECF0F1" d="M270.8,972.5h458.3c15.5,0,28.1-12.6,28.1-28.1V64.7c0-15.5-12.6-28.1-28.1-28.1H270.8
			c-15.5,0-28.1,12.6-28.1,28.1v879.7C242.7,959.9,255.3,972.5,270.8,972.5z"/>
		<path fill="#95A5A5" d="M327,188c-5-5-8-11.8-8-19.4c0-15.2,12.3-27.5,27.5-27.5l329.7,0c15.2,0,27.5,12.3,27.5,27.5
			c0,15.2-12.3,27.5-27.5,27.5l-329.7,0C338.8,196,331.9,193,327,188z"/>
		<path fill="#95A5A5" d="M491.8,270.4c-5-5-8-11.8-8-19.4c0-15.2,12.3-27.5,27.5-27.5h164.9c15.2,0,27.5,12.3,27.5,27.5
			c0,15.2-12.3,27.5-27.5,27.5l-164.9,0C503.7,278.4,496.8,275.4,491.8,270.4z"/>
		<path fill="#95A5A5" d="M491.8,380.3c-5-5-8-11.8-8-19.4c0-15.2,12.3-27.5,27.5-27.5l164.8,0c15.2,0,27.5,12.3,27.5,27.5
			c0,15.2-12.3,27.5-27.5,27.5l-164.8,0C503.7,388.3,496.8,385.3,491.8,380.3z"/>
		<path fill="#95A5A5" d="M491.8,462.7c-5-5-8-11.8-8-19.4c0-15.2,12.3-27.5,27.5-27.5h164.8c15.2,0,27.5,12.3,27.5,27.5
			c0,15.2-12.3,27.5-27.5,27.5H511.2C503.7,470.7,496.8,467.7,491.8,462.7z"/>
		<path fill="#95A5A5" d="M491.8,600.1c-5-5-8-11.8-8-19.4c0-15.2,12.3-27.5,27.5-27.5h164.9c15.2,0,27.5,12.3,27.5,27.5
			s-12.3,27.5-27.5,27.5H511.2C503.7,608.1,496.8,605,491.8,600.1z"/>
		<path fill="#95A5A5" d="M491.8,682.5c-5-5-8-11.8-8-19.4c0-15.2,12.3-27.5,27.5-27.5h164.9c15.2,0,27.5,12.3,27.5,27.5
			c0,15.2-12.3,27.5-27.5,27.5H511.2C503.7,690.5,496.8,687.5,491.8,682.5z"/>
		<path fill="#95A5A5" d="M491.8,764.9c-5-5-8-11.8-8-19.4c0-15.2,12.3-27.5,27.5-27.5l164.8,0c15.2,0,27.5,12.3,27.5,27.5
			c0,15.2-12.3,27.5-27.5,27.5l-164.8,0C503.7,772.9,496.8,769.9,491.8,764.9z"/>
		<path fill="#95A5A5" d="M327,847.3c-5-5-8-11.8-8-19.4c0-15.2,12.3-27.5,27.5-27.5h329.7c15.2,0,27.5,12.3,27.5,27.5
			c0,15.2-12.3,27.5-27.5,27.5H346.4C338.8,855.4,332,852.3,327,847.3z"/>
		<path fill="#95A5A5" d="M354.5,270.4c-5-5-8-11.8-8-19.4c0-15.2,12.3-27.5,27.5-27.5l27.5,0c15.2,0,27.5,12.3,27.5,27.5
			c0,15.2-12.3,27.5-27.5,27.5l-27.5,0C366.3,278.4,359.4,275.4,354.5,270.4z"/>
		<path fill="#95A5A5" d="M354.5,380.3c-5-5-8-11.8-8-19.4c0-15.2,12.3-27.5,27.5-27.5l27.5,0c15.2,0,27.5,12.3,27.5,27.5
			c0,15.2-12.3,27.5-27.5,27.5l-27.5,0C366.3,388.3,359.4,385.3,354.5,380.3z"/>
		<path fill="#95A5A5" d="M354.4,462.7c-5-5-8-11.8-8-19.4c0-15.2,12.3-27.5,27.5-27.5l27.5,0c15.2,0,27.5,12.3,27.5,27.5
			c0,15.2-12.3,27.5-27.5,27.5h-27.5C366.3,470.7,359.4,467.7,354.4,462.7z"/>
		<path fill="#95A5A5" d="M354.5,600.1c-5-5-8-11.8-8-19.4c0-15.2,12.3-27.5,27.5-27.5h27.5c15.2,0,27.5,12.3,27.5,27.5
			s-12.3,27.5-27.5,27.5h-27.5C366.3,608.1,359.4,605,354.5,600.1z"/>
		<path fill="#95A5A5" d="M354.5,682.5c-5-5-8-11.8-8-19.4c0-15.2,12.3-27.5,27.5-27.5h27.5c15.2,0,27.5,12.3,27.5,27.5
			s-12.3,27.5-27.5,27.5h-27.5C366.3,690.5,359.4,687.4,354.5,682.5z"/>
		<path fill="#95A5A5" d="M354.4,764.9c-5-5-8-11.8-8-19.4c0-15.2,12.3-27.5,27.5-27.5h27.5c15.2,0,27.5,12.3,27.5,27.5
			c0,15.2-12.3,27.5-27.5,27.5h-27.5C366.3,773,359.4,769.9,354.4,764.9z"/>
	</g>
</g>
<g id="toolbox" display="none">
	<rect x="122" y="150.6" display="inline" fill="#656D78" width="756" height="349.4"/>
	<path display="inline" fill="#999999" d="M449.5,47.8h93.6c17.2,0,31.2,14,31.2,31.2v31.2h-156V79
		C418.4,61.8,432.3,47.8,449.5,47.8z"/>
	<path display="inline" fill="#0071BC" d="M168.8,47.8H200c17.2,0,31.2,14,31.2,31.2v31.2h-93.6V79
		C137.6,61.8,151.6,47.8,168.8,47.8z"/>
	<path display="inline" fill="#0071BC" d="M792.7,47.8h31.2c17.2,0,31.2,14,31.2,31.2v31.2h-93.6V79
		C761.5,61.8,775.5,47.8,792.7,47.8z"/>
	<path display="inline" fill="#E6E6E6" stroke="#B3B3B3" stroke-width="20" stroke-linecap="round" stroke-miterlimit="10" d="
		M917.5,133.6v390h-62.4V164.8H137.6v358.8H75.2V133.6c0-17.2,14-31.1,31.2-31.2h779.9C903.5,102.4,917.4,116.4,917.5,133.6z"/>
	<path display="inline" fill="#E6E6E6" stroke="#B3B3B3" stroke-width="20" stroke-linecap="round" stroke-miterlimit="10" d="
		M75.2,492.3h842.3c17.2,0,31.2,14,31.2,31.2v390c0,17.2-14,31.2-31.2,31.2H75.2c-17.2,0-31.2-14-31.2-31.2v-390
		C44,506.3,58,492.3,75.2,492.3z"/>
	<g display="inline">
		<rect x="137.6" y="592.5" fill="#BDC3C7" width="93.6" height="62.4"/>
		<rect x="137.6" y="483.3" fill="#0071BC" width="93.6" height="109.2"/>
		<path fill="#0071BC" d="M231.2,654.9v78c-0.1,17.2-14,31.1-31.2,31.2h-31.2c-17.2-0.1-31.1-14-31.2-31.2v-78H231.2z"/>
	</g>
	<g display="inline">
		<rect x="761.5" y="483.3" fill="#0071BC" width="93.6" height="109.2"/>
		<path fill="#0071BC" d="M855.1,654.9v78c-0.1,17.2-14,31.1-31.2,31.2h-31.2c-17.2-0.1-31.1-14-31.2-31.2v-78H855.1z"/>
		<rect x="761.5" y="592.5" fill="#BDC3C7" width="93.6" height="62.4"/>
	</g>
	<path display="inline" fill="#999999" d="M418.4,483.3h156v140.4c0,17.2-14,31.2-31.2,31.2h-93.6c-17.2,0-31.2-14-31.2-31.2V483.3z
		"/>
</g>
<g id="warehouse" display="none">
	<g display="inline">
		<polygon fill="#808080" points="184.7,475 92.9,566.8 92.9,475 		"/>
		<polygon fill="#808080" points="815.3,475 907.1,566.8 907.1,475 		"/>
		<polygon fill="#808080" points="184.7,117.6 92.9,209.4 92.9,117.6 		"/>
		<polygon fill="#808080" points="184.7,832.4 92.9,924.3 92.9,832.4 		"/>
		<g>
			<polygon fill="#666666" points="135,475 92.9,475 92.9,566.8 135,524.7 			"/>
			<polygon fill="#666666" points="135,117.6 92.9,117.6 92.9,209.4 135,167.3 			"/>
			<polygon fill="#666666" points="135,832.4 92.9,832.4 92.9,924.3 135,882.1 			"/>
		</g>
		<polygon fill="#808080" points="815.3,832.4 907.1,924.3 907.1,832.4 		"/>
		<g>
			<polygon fill="#CCCCCC" points="199,420.5 71.5,420.5 71.5,477 199,477 720.6,477 776.8,477 805.9,477 933.4,477 933.4,420.5 
				805.9,420.5 			"/>
			<polygon fill="#CCCCCC" points="199,777.9 71.5,777.9 71.5,834.4 199,834.4 805.9,834.4 933.4,834.4 933.4,777.9 805.9,777.9 			
				"/>
			<polygon fill="#CCCCCC" points="805.9,63.1 199,63.1 71.5,63.1 71.5,119.6 199,119.6 720.6,119.6 776.8,119.6 805.9,119.6 
				933.4,119.6 933.4,63.1 			"/>
		</g>
		<g>
			<polygon fill="#B3B3B3" points="80.9,420.5 71.5,420.5 71.5,477 80.9,477 119.3,477 123.5,477 125.6,477 135,477 135,420.5 
				125.6,420.5 			"/>
			<polygon fill="#B3B3B3" points="80.9,777.9 71.5,777.9 71.5,834.4 80.9,834.4 125.6,834.4 135,834.4 135,777.9 125.6,777.9 			
				"/>
			<polygon fill="#B3B3B3" points="125.6,63.1 80.9,63.1 71.5,63.1 71.5,119.6 80.9,119.6 119.3,119.6 123.5,119.6 125.6,119.6 
				135,119.6 135,63.1 			"/>
		</g>
		<path fill="#E6E6E6" d="M907.6,327.9c-26.3,9.3-52,23.9-65,39.8v-40.4c0-7.5,10.8-18.1,28-27.2c12-6.3,25-11.1,37-13.4v-9.8
			c-13.5,2.4-27.9,7.6-41.5,14.7c-7,3.7-17.5,9.5-23.5,16.7v-50.8h-1.1c0-1,3.7-6.6,13.7-11.8c8.9-4.7,19.3-7.5,26.4-7.5
			c4.1,0,5.7,1.1,6.2,1.5l19.8,19.8v-13.7c-7.5-7-13-12.8-13-12.9c-2.1-2.5-2-12.8,3.6-26.3c3.1-7.4,6.4-12.6,9.4-15.8v-17.4
			c-3.8-3.4-7.3-9.2-10.5-17.1c-5.5-13.3-5.3-22.4-3.4-24.4c0.1-0.1,0.1-0.2,0.2-0.3l12-12.1h-13.7l-5.8,5.8c-0.6,0.4-2,1-5.2,1
			c-7,0-16-3-23.7-6.8h-42.9c-7.5,3.5-16.1,6-23,6c-4.3,0-5.8-1.1-6.1-1.4c0,0-0.1,0-0.1-0.1l-4.5-4.5h-13.7l11.5,11.5
			c2.2,2.4,2.2,12.9-3.5,26.6c-5.6,13.5-12.3,19.9-15.1,19.9h-50c9.1-9,17.1-23.3,22.7-36.8c2.7-6.5,5.2-14,7-21.2h-10
			c-1.5,5.6-3.5,11.6-6,17.5c-9.7,23.3-23.4,40.5-32.7,40.5h-40.2c14.3-13,27-34.3,35.6-55.3c0.3-0.8,0.7-1.9,1-2.7h-10.5
			c-14.3,34-34,58-48.2,58h-16.6c-2.7,0-4.8,1.8-4.8,4.5c0,2.7,2.2,4.5,4.8,4.5h16.6c15,0,36.7,26.3,51.7,62.3
			c13.6,32.8,16.9,62.7,8.2,73.8L674.7,337c-1.9,1.9-1.9,5,0,6.9c0.9,0.9,2.2,1.4,3.4,1.4c1.2,0,2.5-0.5,3.4-1.4
			c0,0,13-12.8,13.2-13c3.9-3.9,11-5.9,20.7-5.9c20.1,0,49.4,8.9,74.7,22.7c25.7,14,42,30.1,42,41.9c0,0,0.4,0,0.4,0v16.6
			c0,2.7,2.3,4.8,5,4.8s5-2.2,5-4.8v-16.6c0-17.2,30.4-38.5,65-51.3V327.9z M889,202.7c-2.5,6.1-4.6,12.9-5.3,19.3l-35.4-35.4H898
			C893.5,192.5,890.3,199.5,889,202.7z M883,142.6c1,7.3,3.6,14.5,4.9,17.6c2.5,6,5.9,12.3,9.8,17.3h-49.4L883,142.6z M842.6,120.8
			c9,7.5,23.5,13.3,34.7,14.8l-34.7,34.7V120.8z M842.6,193.6L878,229c-10.8,1.3-26.4,6.8-35.4,14.2V193.6z M784.3,161.3
			c2.5-6.1,4.6-12.9,5.3-19.2l35.4,35.5h-49.6C779.8,171.5,783,164.5,784.3,161.3z M790.3,221.3c-1-7.2-3.6-14.3-4.9-17.4
			c-2.5-6.1-5.9-12.4-9.8-17.4H825L790.3,221.3z M792.1,237.6c6.9,0,17.1,3.1,26,8c10.1,5.5,14.1,10.6,14.1,12.7c0,0,0.4,0,0.4,0
			v49.8c-8-7.9-18.4-14.1-24.2-17.3c-19.1-10.4-40.9-16.9-56.4-16.9c-0.1,0-0.2,0-0.3,0c0,0,34.9-34.9,35-35
			C787,238.6,788.2,237.6,792.1,237.6z M760.3,186.5c3.1,0,10.5,7.4,16.2,21.1c5.3,12.8,5.2,21.7,3.5,24.1l-35.2,35.2
			c0-12.6-4.2-28.1-9.7-41.3c-5.8-13.9-14.5-29.1-24.5-39.1H760.3z M689.8,245.1c-8.9-21.5-22.8-44.6-38.3-58.6h39.9
			c9.8,0,24.8,18.5,34.9,42.8c9.2,22.1,11.6,42.9,6,50.2l-28.8,28.8C704.7,289.8,698.3,265.7,689.8,245.1z M832.6,367.3
			c-12-12.8-28.3-23.2-37.4-28.2c-26.6-14.5-57.9-23.9-79.5-23.9c-1.9,0-3.8,0.1-5.6,0.2c0,0,28.1-28,28.3-28.2
			c2.4-2.4,7.1-3.7,13.4-3.7c30.7,0,80.4,27,80.4,43.8c0,0,0.4,0,0.4,0V367.3z M832.6,243.1c-10-7.5-23.5-13.3-34.7-14.8l34.7-34.7
			V243.1z M832.6,170.3l-35.4-35.4c10.8-1.3,25.4-6.8,35.4-14.2V170.3z"/>
		<polygon fill="#808080" points="815.3,117.6 907.1,209.4 907.1,117.6 		"/>
		<g>
			<path fill="#36A1CB" d="M961.6,201.6V63.5c0-13.9-11.3-25.2-25.2-25.2h-6.2c-13.9,0-25.2,11.3-25.2,25.2v151.2v570.6v151.2
				c0,13.9,11.3,25.2,25.2,25.2h6.2c13.9,0,25.2-11.3,25.2-25.2V785.3V253.1"/>
			<path fill="#36A1CB" d="M38.4,63.5v151.2v570.6v151.2c0,13.9,11.3,25.2,25.2,25.2h6.2c13.9,0,25.2-11.3,25.2-25.2V785.3V214.7
				V63.5c0-13.9-11.3-25.2-25.2-25.2h-6.2C49.6,38.4,38.4,49.6,38.4,63.5z"/>
		</g>
	</g>
</g>
<g id="equip" display="none">
	<g display="inline">
		<rect x="270.8" y="325.6" fill="#FFFFFF" width="458.4" height="217.1"/>
		<rect x="270.8" y="325.6" fill="#E6E6E6" width="458.4" height="217.1"/>
		<rect x="293.2" y="348" fill="#03C0E0" width="330.9" height="144.8"/>
		<rect x="293.2" y="466.9" fill="#68D9EC" width="330.9" height="25.8"/>
		<circle fill="#E6E6E6" cx="675.8" cy="492.8" r="20.7"/>
		<circle fill="#999999" cx="675.8" cy="492.8" r="8.6"/>
		<circle fill="#E6E6E6" cx="675.8" cy="396.3" r="20.7"/>
		<circle fill="#999999" cx="675.8" cy="396.3" r="8.6"/>
		<path fill="#999999" d="M631,499.7H286.3V341.2H631V499.7L631,499.7z M300.1,485.9h317.1v-131H300.1V485.9z"/>
		<g>
			<rect x="313.9" y="513.5" fill="#CCCCCC" width="13.8" height="13.8"/>
			<rect x="369" y="513.5" fill="#CCCCCC" width="13.8" height="13.8"/>
			<rect x="424.2" y="513.5" fill="#CCCCCC" width="13.8" height="13.8"/>
			<rect x="479.3" y="513.5" fill="#CCCCCC" width="13.8" height="13.8"/>
			<rect x="534.5" y="513.5" fill="#CCCCCC" width="13.8" height="13.8"/>
			<rect x="589.6" y="513.5" fill="#CCCCCC" width="13.8" height="13.8"/>
		</g>
		<g>
			<rect x="286.3" y="513.5" fill="#999999" width="13.8" height="13.8"/>
			<rect x="341.5" y="513.5" fill="#999999" width="13.8" height="13.8"/>
			<rect x="396.6" y="513.5" fill="#999999" width="13.8" height="13.8"/>
			<rect x="451.7" y="513.5" fill="#999999" width="13.8" height="13.8"/>
			<rect x="506.9" y="513.5" fill="#999999" width="13.8" height="13.8"/>
			<rect x="562" y="513.5" fill="#999999" width="13.8" height="13.8"/>
			<rect x="617.2" y="513.5" fill="#999999" width="13.8" height="13.8"/>
		</g>
		<path fill="#ED5565" d="M682.7,369.6v-14.7h-13.8v14.7c-11.9,3.1-20.7,13.9-20.7,26.7c0,15.2,12.4,27.6,27.6,27.6
			c15.2,0,27.6-12.4,27.6-27.6C703.3,383.5,694.5,372.7,682.7,369.6z M675.8,410.1c-7.6,0-13.8-6.2-13.8-13.8s6.2-13.8,13.8-13.8
			c7.6,0,13.8,6.2,13.8,13.8S683.4,410.1,675.8,410.1z"/>
		<path fill="#ED5565" d="M682.7,466.1v-14.7h-13.8v14.7c-11.9,3.1-20.7,13.9-20.7,26.7c0,15.2,12.4,27.6,27.6,27.6
			c15.2,0,27.6-12.4,27.6-27.6C703.3,480,694.5,469.2,682.7,466.1z M675.8,506.6c-7.6,0-13.8-6.2-13.8-13.8
			c0-7.6,6.2-13.8,13.8-13.8c7.6,0,13.8,6.2,13.8,13.8C689.6,500.4,683.4,506.6,675.8,506.6z"/>
		<g>
			<rect x="369" y="458.3" fill="#FFFFFF" width="13.8" height="13.8"/>
			<polygon fill="#FFFFFF" points="485.2,457.4 463,415.5 454.6,423.9 313.9,423.9 313.9,410.1 448.9,410.1 466.4,392.6 
				487.2,431.7 503.4,410.1 603.4,410.1 603.4,423.9 510.3,423.9 			"/>
		</g>
		<path fill="#B3B3B3" d="M736.1,318.7H263.9v230.9h36.2v19h13.8v-19h373.9v19h13.8v-19h34.5V318.7z M722.3,535.9H277.7V332.5h444.6
			V535.9z"/>
	</g>
	<polygon display="inline" fill="#808080" points="270.2,645.1 141.1,774.2 141.1,645.1 	"/>
	<polygon display="inline" fill="#808080" points="729.8,645.1 858.9,774.2 858.9,645.1 	"/>
	<polygon display="inline" fill="#808080" points="270.2,143.2 141.1,272.2 141.1,143.2 	"/>
	<polygon display="inline" fill="#666666" points="200.3,645.1 141.1,645.1 141.1,774.2 200.3,715 	"/>
	<polygon display="inline" fill="#666666" points="200.3,143.2 141.1,143.2 141.1,272.2 200.3,213.1 	"/>
	<polygon display="inline" fill="#CCCCCC" points="229.1,568.6 111.2,568.6 111.2,648 229.1,648 711.3,648 763.3,648 790.2,648 
		908,648 908,568.6 790.2,568.6 	"/>
	<polygon display="inline" fill="#CCCCCC" points="790.2,66.7 229.1,66.7 111.2,66.7 111.2,146 229.1,146 711.3,146 763.3,146 
		790.2,146 908,146 908,66.7 	"/>
	<polygon display="inline" fill="#B3B3B3" points="124.4,568.6 111.2,568.6 111.2,648 124.4,648 178.3,648 184.1,648 187.1,648 
		200.3,648 200.3,568.6 187.1,568.6 	"/>
	<polygon display="inline" fill="#B3B3B3" points="187.1,66.7 124.4,66.7 111.2,66.7 111.2,146 124.4,146 178.3,146 184.1,146 
		187.1,146 200.3,146 200.3,66.7 	"/>
	<polygon display="inline" fill="#808080" points="729.8,143.2 858.9,272.2 858.9,143.2 	"/>
	<path display="inline" fill="#ED5565" d="M935.4,197.5v-140c0-14.1-15.8-25.5-35.3-25.5h-8.7C871.9,32,856,43.4,856,57.5v153.3
		v578.4v153.3c0,14.1,15.8,25.5,35.3,25.5h8.7c19.5,0,35.3-11.4,35.3-25.5V789.2V249.7"/>
	<path display="inline" fill="#ED5565" d="M64.6,57.5v153.3v578.4v153.3c0,14.1,15.8,25.5,35.3,25.5h8.7c19.5,0,35.3-11.4,35.3-25.5
		V789.2V210.8V57.5c0-14.1-15.8-25.5-35.3-25.5H100C80.4,32,64.6,43.4,64.6,57.5z"/>
</g>
<g id="actives" display="none">
	<path display="inline" fill="#FDD2A3" d="M350.3,84.3H689v367.8H350.3V84.3z"/>
	<path display="inline" fill="#FFBC85" d="M689,452.1H350.3C525.1,421,660.3,281.5,686,105.9l3.1-21.6V452.1z"/>
	<path display="inline" fill="#FF7815" d="M565.9,238.5l-46.2-46.2l-46.2,46.2v-154h92.4V238.5z"/>
	<path display="inline" fill="#5A5A5A" d="M488.9,253.7h61.6v30.8h-61.6V253.7z"/>
	<path display="inline" fill="#999999" d="M150.2,811.8h61.6v86.3h-61.6V811.8z"/>
	<path display="inline" fill="#999999" d="M488.9,811.8h61.6v86.3h-61.6V811.8z"/>
	<path display="inline" fill="#999999" d="M827.6,811.8h61.6v86.3h-61.6V811.8z"/>
	<path display="inline" fill="#FDD2A3" d="M181,423h677.4v360.1H181V423z"/>
	<path display="inline" fill="#FFBC85" d="M519.7,783.1H181c175-32,310.3-171.7,336.9-347.6l1.9-12.5V783.1z"/>
	<path display="inline" fill="#FFBC85" d="M858.4,783.1H519.7c180.6-25.4,320.4-171.2,338-352.7l0.7-7.4V783.1z"/>
	<path display="inline" fill="#FF7815" d="M735.2,577L689,530.8L642.9,577V423h92.4V577z"/>
	<path display="inline" fill="#FF7815" d="M396.5,577l-46.2-46.2L304.1,577V423h92.4V577z"/>
	<path display="inline" fill="#5A5A5A" d="M658.3,623.2h61.6V654h-61.6V623.2z"/>
	<path display="inline" fill="#5A5A5A" d="M319.5,623.2h61.6V654h-61.6V623.2z"/>
	<path display="inline" fill="#CCCCCC" d="M119.4,884.9H920v61.6H119.4V884.9z"/>
	<path display="inline" fill="#CCCCCC" d="M119.4,761.7H920v61.6H119.4V761.7z"/>
</g>
<g id="providers" display="none">
	<rect x="341" y="134.4" display="inline" fill="#E6E6E6" width="578.1" height="673.4"/>
	<path display="inline" fill="#666666" d="M919.1,821.9H341c-7.8,0-14.1-6.2-14.1-14.1V134.4c0-7.8,6.2-14.1,14.1-14.1h578.1
		c7.8,0,14.1,6.2,14.1,14.1v673.4C933.2,815.6,926.9,821.9,919.1,821.9z M355,793.7h551.6V148.4H355V793.7z"/>
	<rect x="395" y="187.5" display="inline" fill="#FFFFFF" width="470.3" height="565.6"/>
	<path display="inline" fill="#F7D19F" d="M319.1,901.6c21.9,10.9,85.9,37.5,84.4-9.4c21.9,7.8,42.2-1.6,40.6-26.6
		c21.9,7.8,40.6-6.2,40.6-29.7c40.6,7.8,43.7-34.4,25-59.4c-14.1-17.2-31.2-31.2-48.4-45.3c-26.6-23.4-51.6-48.4-78.1-68.7
		c-18.7-14.1-37.5-14.1-60.9-18.7c-40.6-7.8-71.9-9.4-106.3-34.4l-82.8,123.4c10.9,10.9,25,23.4,37.5,35.9"/>
	<path display="inline" fill="#FFFFFF" d="M172.2,575L84.7,704.7c-7.8,12.5-4.7,29.7,7.8,37.5s29.7,4.7,37.5-7.8l87.5-129.7
		c7.8-12.5,4.7-29.7-7.8-37.5C197.2,559.4,181.6,562.5,172.2,575z"/>
	<path display="inline" fill="#FFFFFF" d="M611.3,748.4V592.2c0-15.6-12.5-28.1-28.1-28.1S555,576.6,555,592.2v156.3
		c0,15.6,12.5,28.1,28.1,28.1C598.8,775,611.3,762.5,611.3,748.4z"/>
	<path display="inline" fill="#F7D19F" d="M326.9,859.4L326.9,859.4c-9.4-10.9-25-10.9-37.5-1.6l-18.7,15.6
		c-10.9,9.4-12.5,26.6-3.1,37.5c9.4,10.9,26.6,12.5,37.5,3.1l18.7-15.6C336.3,887.5,336.3,870.3,326.9,859.4z"/>
	<path display="inline" fill="#F7D19F" d="M211.3,762.5c-7.8-9.4-23.4-10.9-32.8-1.6l-15.6,12.5c-9.4,7.8-10.9,23.4-1.6,32.8l0,0
		c7.8,9.4,23.4,10.9,32.8,1.6l15.6-12.5C219.1,785.9,220.7,771.9,211.3,762.5z"/>
	<path display="inline" fill="#F7D19F" d="M300.4,814.1c-9.4-10.9-25-12.5-35.9-3.1L230,842.2c-10.9,9.4-12.5,26.6-3.1,35.9l0,0
		c9.4,10.9,25,10.9,35.9,3.1l34.4-31.2C309.7,840.6,309.7,825,300.4,814.1z"/>
	<path display="inline" fill="#F7D19F" d="M275.4,768.7c-9.4-10.9-25-10.9-34.4-3.1l-53.1,46.9c-10.9,9.4-10.9,25-3.1,34.4
		c9.4,10.9,25,10.9,34.4,3.1l53.1-46.9C283.2,795.3,284.7,779.7,275.4,768.7z"/>
	<path display="inline" fill="#4D4D4D" d="M376.9,932.8c-26.6,0-57.8-15.6-64.1-18.7c-6.2-3.1-6.6-10.5-3.5-18.3
		c6.5-5.3,8.2-9.8,16-6.7c21.9,10.9,51.6,20.3,60.9,14.1c3.1-1.6,3.1-4.7,3.1-10.9c0-4.7,1.6-9.4,4.7-10.9c3.1-3.1,7.8-3.1,12.5-1.6
		c12.5,4.7,23.4,1.6,23.4-12.5c0-4.7,1.6-9.4,4.7-10.9c3.1-3.1,7.8-3.1,12.5-1.6c14.1,4.7,21.9-3.1,23.4-17.2c0-4.7,1.6-7.8,4.7-9.4
		c3.1-3.1,6.2-3.1,10.9-3.1c9.4,1.6,15.6,0,18.7-4.7c4.7-6.2,3.1-21.9-6.2-32.8c-10.9-12.5-23.4-23.4-37.5-35.9l-9.4-7.8
		c-9.4-7.8-17.2-15.6-26.6-23.4c-17.2-15.6-34.4-31.2-51.6-45.3c-12.5-9.4-25-10.9-42.2-14.1c-4.7,0-9.4-1.6-12.5-1.6
		c-6.2-1.6-12.5-1.6-18.7-3.1c-28.1-4.7-54.7-9.4-81.2-25l-68.7,101.6c3.1,3.1,6.2,6.2,10.9,9.4c6.2,6.2,12.5,12.5,18.7,17.2
		c4.7,4.7,3,13.5-3.2,18.2c-4.7,4.7-10.9,6.8-15.5,0.6c-6.2-6.2-12.5-10.9-18.7-17.2c-6.2-6.2-12.5-12.5-18.7-17.2
		c-4.7-4.7-6.2-12.5-1.6-17.2L205,603.1c1.6-3.1,4.7-4.7,9.4-6.2c3.1,0,7.8,0,10.9,1.6c26.6,18.7,51.6,23.4,82.8,28.1
		c6.2,1.6,12.5,1.6,18.7,3.1c4.7,1.6,7.8,1.6,12.5,1.6c18.7,3.1,35.9,6.2,53.1,18.7c18.7,14.1,37.5,31.2,54.7,46.9
		c7.8,7.8,17.2,15.6,25,23.4l9.4,7.8c14.1,12.5,28.1,23.4,40.6,39.1c15.6,18.7,18.7,46.9,9.4,64.1c-6.2,10.9-18.7,17.2-32.8,18.7
		c-4.7,17.2-18.7,31.2-40.6,31.2c-4.7,17.2-20.3,28.1-40.6,26.6C409.7,925,395.7,932.8,376.9,932.8z"/>
	<path display="inline" fill="#4D4D4D" d="M108.2,760.9L108.2,760.9c-7.8,0-15.6-3.1-23.4-6.2c-18.7-12.5-23.4-37.5-10.9-56.2
		l87.5-129.7c12.5-18.7,37.5-23.4,56.2-10.9c18.7,12.5,23.4,37.5,10.9,56.2L141,743.7C134.7,754.7,122.2,760.9,108.2,760.9z
		 M183.2,582.8L95.7,712.5c-4.7,6.2-3.1,15.6,3.1,18.7c6.2,4.7,15.6,3.1,18.7-3.1l87.5-129.7c4.7-6.2,3.1-15.6-3.1-18.7
		C197.2,575,187.9,576.6,183.2,582.8z"/>
	<path display="inline" fill="#4D4D4D" d="M583.2,789.1L583.2,789.1c-21.9,0-40.6-18.7-40.6-40.6V592.2c0-21.9,18.7-40.6,40.6-40.6
		c21.9,0,40.6,18.7,40.6,40.6v156.3C625.4,770.3,606.6,789.1,583.2,789.1z M583.2,578.1c-7.8,0-14.1,6.2-14.1,14.1v156.3
		c0,7.8,6.2,14.1,14.1,14.1s14.1-6.2,14.1-14.1V592.2C597.2,584.4,591,578.1,583.2,578.1z"/>
	<path display="inline" fill="#4D4D4D" d="M486.3,850c-3.1,0-6.2-1.6-9.4-3.1l-67.2-60.9c-6.2-4.7-6.2-14.1-1.6-18.7
		c4.7-6.2,14.1-6.2,18.7-1.6l67.2,60.9c6.2,4.7,6.2,14.1,1.6,18.7C492.5,848.4,489.4,850,486.3,850z"/>
	<path display="inline" fill="#4D4D4D" d="M444.1,879.7c-3.1,0-6.2-1.6-9.4-3.1l-59.4-53.1c-6.2-4.7-6.2-14.1-1.6-18.7
		c4.7-6.2,14.1-6.2,18.7-1.6l59.4,53.1c6.2,4.7,6.2,14.1,1.6,18.7C451.9,878.1,448.8,879.7,444.1,879.7z"/>
	<path display="inline" fill="#4D4D4D" d="M403.5,906.3c-3.1,0-6.2-1.6-9.4-4.7l-35.9-35.9c-4.7-4.7-4.7-14.1,0-18.7
		c4.7-4.7,14.1-4.7,18.7,0l35.9,35.9c4.7,4.7,4.7,14.1,0,18.7C411.3,904.7,406.6,906.3,403.5,906.3z"/>
	<path display="inline" fill="#4D4D4D" d="M289.4,932.8L289.4,932.8c-10.9,0-21.9-4.7-29.7-14.1c-14.1-17.2-12.5-42.2,4.7-56.2
		l18.7-15.6c15.6-14.1,42.2-12.5,56.2,4.7c14.1,17.2,12.5,42.2-4.7,56.2L316,923.4C308.2,929.7,298.8,932.8,289.4,932.8z
		 M308.2,864.1c-1.6,0-4.7,0-7.8,3.1l-18.7,15.6c-4.7,4.7-6.2,12.5-1.6,18.7c4.7,4.7,12.5,6.2,18.7,1.6l18.7-15.6
		c4.7-4.7,6.2-12.5,1.6-18.7C314.4,865.6,311.3,864.1,308.2,864.1z"/>
	<path display="inline" fill="#4D4D4D" d="M180,826.6L180,826.6c-10.9,0-20.3-4.7-28.1-12.5c-12.5-15.6-10.9-37.5,3.1-51.6
		l15.6-12.5c14.1-12.5,39.1-10.9,51.6,3.1c12.5,15.6,10.9,37.5-3.1,51.6l-15.6,12.5C197.2,823.4,187.9,826.6,180,826.6z
		 M194.1,767.2c-1.6,0-3.1,0-6.2,1.6l-15.6,12.5c-3.1,3.1-4.7,9.4-1.6,12.5c1.6,1.6,4.7,3.1,6.2,3.1l0,0c1.6,0,3.1,0,6.2-1.6
		l15.6-12.5c3.1-3.1,4.7-9.4,1.6-12.5C200.4,768.7,197.2,767.2,194.1,767.2z"/>
	<path display="inline" fill="#4D4D4D" d="M245.7,900L245.7,900c-10.9,0-21.9-4.7-29.7-14.1c-6.2-7.8-10.9-18.7-9.4-28.1
		c0-10.9,6.2-20.3,14.1-26.6L255,800c15.6-14.1,42.2-12.5,56.2,3.1c14.1,15.6,12.5,40.6-4.7,56.2l-34.4,31.2
		C264.4,896.9,255,900,245.7,900z M281.6,818.7c-1.6,0-4.7,0-7.8,3.1l-34.4,31.2c-3.1,1.6-4.7,4.7-4.7,7.8c0,3.1,1.6,6.2,3.1,9.4
		c4.7,4.7,12.5,6.2,17.2,1.6l34.4-31.3c4.7-4.7,6.2-12.5,1.6-17.2C287.9,820.3,284.7,818.7,281.6,818.7z"/>
	<path display="inline" fill="#4D4D4D" d="M203.5,870.3L203.5,870.3c-10.9,0-21.9-4.7-28.1-12.5c-6.2-7.8-9.4-17.2-9.4-28.1
		c0-9.4,4.7-18.7,12.5-26.6l53.1-46.9c15.6-12.5,40.6-10.9,53.1,3.1c6.2,7.8,9.4,17.2,9.4,28.1c0,9.4-4.7,18.7-12.5,26.6l-53.1,46.9
		C222.2,865.6,212.9,870.3,203.5,870.3z M256.6,775c-1.6,0-4.7,0-7.8,3.1L195.7,825c-4.7,4.7-4.7,10.9-1.6,15.6
		c1.6,3.1,4.7,3.1,7.8,3.1l0,0c1.6,0,4.7,0,7.8-3.1l53.1-46.9c1.6-1.6,3.1-4.7,3.1-7.8s0-6.2-3.1-7.8C262.9,775,259.7,775,256.6,775
		z"/>
	<polygon display="inline" fill="#F16051" points="792.5,189.1 484.7,189.1 536.3,81.3 741,81.3 	"/>
	<path display="inline" fill="#666666" d="M792.5,203.1L792.5,203.1H484.7c-4.7,0-9.4-3.1-10.9-6.2c-3.1-4.7-3.1-9.4-1.6-12.5
		L523.8,75c1.6-4.7,6.2-7.8,12.5-7.8h206.2c4.7,0,9.4,3.1,12.5,7.8l50,106.3c1.6,1.6,3.1,4.7,3.1,7.8
		C806.6,196.9,800.4,203.1,792.5,203.1z M505,175h265.6l-39.1-81.2H544.1L505,175z"/>
	<rect x="448.8" y="268.8" display="inline" fill="#FFFFFF" width="56.2" height="56.2"/>
	<path display="inline" fill="#666666" d="M505,337.5h-56.2c-7.8,0-14.1-6.2-14.1-14.1v-56.2c0-7.8,6.2-14.1,14.1-14.1H505
		c7.8,0,14.1,6.2,14.1,14.1v56.2C519.1,331.2,512.9,337.5,505,337.5z M462.9,310.9h29.7v-29.7h-29.7V310.9z"/>
	<rect x="448.8" y="409.4" display="inline" fill="#FFFFFF" width="56.2" height="56.2"/>
	<g display="inline">
		<path fill="#666666" d="M505,479.7h-56.2c-7.8,0-14.1-6.2-14.1-14.1v-56.2c0-7.8,6.2-14.1,14.1-14.1H505c7.8,0,14.1,6.2,14.1,14.1
			v56.2C519.1,473.4,512.9,479.7,505,479.7z M462.9,451.6h29.7v-29.7h-29.7V451.6z"/>
		<path fill="#666666" d="M808.2,309.4H611.3c-7.8,0-14.1-6.2-14.1-14.1s6.2-14.1,14.1-14.1h196.9c7.8,0,14.1,6.2,14.1,14.1
			C820.7,303.1,814.4,309.4,808.2,309.4z"/>
		<path fill="#666666" d="M808.2,451.6H611.3c-7.8,0-14.1-6.2-14.1-14.1s6.2-14.1,14.1-14.1h196.9c7.8,0,14.1,6.2,14.1,14.1
			C820.7,445.3,814.4,451.6,808.2,451.6z"/>
		<path fill="#666666" d="M808.2,592.2H680c-7.8,0-14.1-6.2-14.1-14.1s6.2-14.1,14.1-14.1h128.1c7.8,0,14.1,6.2,14.1,14.1
			C820.7,585.9,814.4,592.2,808.2,592.2z"/>
		<rect x="666" y="678.1" fill="#666666" width="26.6" height="26.6"/>
		<rect x="730" y="678.1" fill="#666666" width="26.6" height="26.6"/>
		<rect x="794.1" y="678.1" fill="#666666" width="26.6" height="26.6"/>
	</g>
	<path display="inline" fill="#F7D19F" d="M372.2,653.1l129.7,112.5l54.7-25V598.4l-195.3-32.8l-82.8,73.4
		c-14.1,12.5-14.1,34.4-1.6,46.9l0,0c10.9,10.9,26.6,12.5,39.1,4.7L372.2,653.1z"/>
	<path display="inline" fill="#4D4D4D" d="M501.9,779.7c-3.1,0-6.2-1.6-9.4-3.1L370.7,670.3l-50,31.2c-7.8,4.7-15.6,6.2-23.4,6.2
		l0,0c-12.5,0-23.4-4.7-31.2-12.5c-18.7-18.7-17.2-48.4,1.6-67.2l82.8-73.4c3.1-3.1,7.8-3.1,10.9-3.1l195.3,32.8
		c6.2,1.6,10.9,6.2,10.9,14.1v142.2c0,4.7-3.1,9.4-7.8,12.5l-54.7,25C505,778.1,503.5,779.7,501.9,779.7z M372.2,639.1
		c3.1,0,6.2,1.6,9.4,3.1l121.9,106.3l39.1-17.2V609.4l-178.1-29.7l-78.1,68.7c-7.8,6.2-7.8,18.7-1.6,26.6c6.2,6.2,15.6,6.2,21.9,3.1
		l57.8-35.9C367.5,640.6,370.7,639.1,372.2,639.1z"/>
</g>
<g id="graphic" display="none">
</g>
</svg>
