<?xml version="1.0" encoding="utf-8"?>
<!-- Generator: Adobe Illustrator 19.0.0, SVG Export Plug-In . SVG Version: 6.00 Build 0)  -->
<svg version="1.1" baseProfile="basic" xmlns="http://www.w3.org/2000/svg" xmlns:xlink="http://www.w3.org/1999/xlink" x="0px"
	 y="0px" viewBox="0 0 1000 1000" xml:space="preserve">
<g id="services" display="none">
	<g display="inline">
		
			<path fill="#1D98D6" stroke="#0E81A5" stroke-width="20" stroke-linecap="round" stroke-linejoin="round" stroke-miterlimit="10" d="
			M936,772.5L743.3,579.8l-8.1,8.1c-13.4,13.4-35.1,13.4-48.5,0c-13.4-13.4-13.4-35.1,0-48.5l8.1-8.1l-48.5-48.5L484.9,644.4
			l48.5,48.5l8.1-8.1c13.4-13.4,35.1-13.4,48.5,0c13.4,13.4,13.4,35.1,0,48.5l-8.1,8.1L774.5,934c5.8,5.8,12.3,11,19.2,15.4
			l157.7-157.6C946.9,784.8,941.8,778.3,936,772.5z"/>
		
			<path fill="#E6E6E6" stroke="#B3B3B3" stroke-width="20" stroke-linecap="round" stroke-linejoin="round" stroke-miterlimit="10" d="
			M951.4,791.7L793.7,949.4c53,34.1,123.6,18.7,157.7-34.3C975.5,877.5,975.5,829.3,951.4,791.7z"/>
		
			<path fill="#E6E6E6" stroke="#B3B3B3" stroke-width="20" stroke-linecap="round" stroke-linejoin="round" stroke-miterlimit="10" d="
			M226.4,159.8l-16.1-64.6L97.2,30.6L32.6,95.2l64.6,113.1l64.6,16.2l371.5,371.5l64.6-64.6L226.4,159.8z"/>
		
			<path fill="#E6E6E6" stroke="#B3B3B3" stroke-width="20" stroke-linecap="round" stroke-linejoin="round" stroke-miterlimit="10" d="
			M964,165.3L856.4,272.9l-96.9-32.3l-32.3-96.9L834.8,36c-94.7-24.2-191,33-215.2,127.7c-7.3,28.7-7.3,58.8,0,87.5L253.2,617.6
			c-95.7-24.3-192.9,33.6-217.2,129.2C11.8,842.5,69.6,939.7,165.3,964s192.9-33.6,217.2-129.2c7.3-28.8,7.3-59.1,0-87.9
			l366.4-366.4c94.8,24.1,191.1-33.2,215.2-127.9C971.3,223.9,971.3,193.9,964,165.3z M258.7,870.5h-96.9l-48.5-80.8l48.5-80.8h96.9
			l48.5,80.8L258.7,870.5z"/>
		<path fill="#B3B3B3" d="M311.9,665.3l355.4-355.4l22.8,22.8L334.7,688.1L311.9,665.3z"/>
		<path fill="#0E81A5" d="M667.3,688.1l22.8-22.8l161.5,161.5l-22.8,22.8L667.3,688.1z"/>
	</g>
</g>
<g id="types" display="none">
	<g display="inline">
		
			<path fill="#E6E6E6" stroke="#B3B3B3" stroke-width="20" stroke-linecap="round" stroke-linejoin="round" stroke-miterlimit="10" d="
			M431,264.9h135.8V143.7H431c-15.2,0-27.6,12.4-27.6,27.6v65.9C403.4,252.5,415.8,264.9,431,264.9z"/>
		
			<path fill="#E6E6E6" stroke="#B3B3B3" stroke-width="20" stroke-linecap="round" stroke-linejoin="round" stroke-miterlimit="10" d="
			M625.5,240.1h-58.7v-62.8h58.7c7.9,0,14.3,6.4,14.3,14.3v34.1C639.8,233.7,633.4,240.1,625.5,240.1z"/>
		
			<line fill="none" stroke="#B3B3B3" stroke-width="20" stroke-linecap="round" stroke-linejoin="round" stroke-miterlimit="10" x1="643.6" y1="208.5" x2="705.6" y2="208.5"/>
		
			<path fill="#E6E6E6" stroke="#B3B3B3" stroke-width="20" stroke-linecap="round" stroke-linejoin="round" stroke-miterlimit="10" d="
			M535.8,648.3h-51c-22.6,0-40.7-18.8-39.7-41.4l13.9-342h107.9l8.7,342.6C576.1,629.8,558.1,648.3,535.8,648.3z"/>
		
			<line fill="#3FA9F5" stroke="#3FA9F5" stroke-width="20" stroke-linecap="round" stroke-linejoin="round" stroke-miterlimit="10" x1="498.9" y1="420.6" x2="496" y2="546.1"/>
		
			<circle fill="#ED1C24" stroke="#ED1C24" stroke-width="20" stroke-linecap="round" stroke-linejoin="round" stroke-miterlimit="10" cx="494.3" cy="586.2" r="10"/>
		
			<path fill="#E6E6E6" stroke="#B3B3B3" stroke-width="20" stroke-linecap="round" stroke-linejoin="round" stroke-miterlimit="10" d="
			M527.3,736.5h-36.6c-8.5,0-15.3-6.9-15.3-15.3v-74h67.3v74C542.6,729.6,535.8,736.5,527.3,736.5z"/>
		<path fill="none" stroke="#B3B3B3" stroke-width="20" stroke-linecap="round" stroke-linejoin="round" stroke-miterlimit="10" d="
			M508.6,736.8v26.3c0,36-29.2,65.2-65.2,65.2h0c-36,0-65.2-29.2-65.2-65.2V500.4c0-23.1-18.7-41.8-41.8-41.8h0
			c-23.1,0-41.8,18.7-41.8,41.8v251"/>
	</g>
</g>
<g id="clients" display="none">
	<g display="inline">
		<path fill="#E6E6E6" stroke="#B3B3B3" stroke-width="20" stroke-linecap="round" stroke-miterlimit="10" d="M574,691.4v-78.4
			l7.4-11.4c5.5-8.4,8.4-18.3,8.4-28.4v-76c0-41.1-33.3-74.4-74.4-74.4H501h-14.4c-41.6,0-75.6,34-75.6,75.6v74.8
			c0,10.1,2.9,19.9,8.4,28.4l7.4,11.4v78.4c-40.9,17.5-70.8,37.3-91.9,54.9c-28.7,23.9-45.1,59.5-45.1,96.9v22.3H501h210v-22.3
			c0-37.4-16.4-73-45.1-96.9C644.8,728.7,615,708.9,574,691.4z"/>
		<g>
			<path fill="#D6B822" d="M534.6,276.7c0-7.8-2.7-14.4-8.2-19.8c-5.5-5.5-14.5-10.4-27.2-14.7c-17.4-5.3-30.5-12.3-39.4-21.1
				c-8.9-8.8-13.3-20.5-13.3-35.2c0-14.2,4.1-25.8,12.3-34.8c8.2-9,19.4-14.3,33.7-16.2v-28.6h20.4v28.7
				c14.4,1.9,25.6,7.8,33.5,17.7c8,9.9,12,23.2,12,39.8H533c0-10.9-2.7-19.8-8.1-26.6c-5.4-6.8-12.9-10.2-22.5-10.2
				c-10.2,0-17.8,2.7-22.9,7.9c-5.1,5.3-7.6,12.6-7.6,21.8c0,8.4,2.6,15.1,7.9,20.3c5.3,5.2,14.7,10.1,28.3,14.7
				c17.6,5.7,30.6,12.8,39.2,21.3c8.5,8.5,12.8,20,12.8,34.6c0,14.8-4.4,26.6-13.3,35.3c-8.9,8.7-21.1,13.9-36.6,15.6v24.8h-20.3
				v-24.7c-14.8-1.6-27-7-36.4-16.2c-9.5-9.3-14-22.9-13.7-40.8l0.3-0.6h24.6c0,13.3,3.4,22.7,10.1,28.4c6.7,5.6,14.9,8.5,24.6,8.5
				c11.1,0,19.8-2.6,26-7.9C531.5,293.4,534.6,286.1,534.6,276.7z"/>
		</g>
		<g>
			<g>
				<path fill="#D6B822" d="M334.8,303.1c0-5-1.8-9.4-5.3-12.9c-3.6-3.6-9.5-6.7-17.7-9.5c-11.3-3.4-19.9-8-25.7-13.7
					c-5.8-5.7-8.7-13.3-8.7-22.9c0-9.3,2.7-16.8,8-22.6c5.3-5.8,12.6-9.3,22-10.5v-18.6h13.3v18.7c9.4,1.2,16.6,5.1,21.8,11.5
					c5.2,6.5,7.8,15.1,7.8,25.9h-16.5c0-7.1-1.8-12.9-5.3-17.3c-3.5-4.4-8.4-6.6-14.6-6.6c-6.6,0-11.6,1.7-14.9,5.2
					c-3.3,3.4-5,8.2-5,14.2c0,5.4,1.7,9.8,5.1,13.2c3.4,3.4,9.6,6.6,18.4,9.6c11.4,3.7,19.9,8.3,25.5,13.8c5.6,5.5,8.3,13,8.3,22.5
					c0,9.6-2.9,17.3-8.7,23c-5.8,5.7-13.7,9.1-23.8,10.1v16.2h-13.2v-16.1c-9.6-1-17.6-4.5-23.7-10.6c-6.2-6-9.1-14.9-8.9-26.5
					l0.2-0.4h16c0,8.6,2.2,14.8,6.6,18.5c4.4,3.7,9.7,5.5,16,5.5c7.2,0,12.9-1.7,17-5.2C332.8,314,334.8,309.2,334.8,303.1z"/>
			</g>
			<g>
				<path fill="#D6B822" d="M710.1,303.1c0-5-1.8-9.4-5.3-12.9c-3.6-3.6-9.5-6.7-17.7-9.5c-11.3-3.4-19.9-8-25.7-13.7
					c-5.8-5.7-8.7-13.3-8.7-22.9c0-9.3,2.7-16.8,8-22.6c5.3-5.8,12.6-9.3,22-10.5v-18.6H696v18.7c9.4,1.2,16.6,5.1,21.8,11.5
					c5.2,6.5,7.8,15.1,7.8,25.9h-16.5c0-7.1-1.8-12.9-5.3-17.3c-3.5-4.4-8.4-6.6-14.6-6.6c-6.6,0-11.6,1.7-14.9,5.2
					c-3.3,3.4-5,8.2-5,14.2c0,5.4,1.7,9.8,5.1,13.2c3.4,3.4,9.6,6.6,18.4,9.6c11.4,3.7,19.9,8.3,25.5,13.8c5.6,5.5,8.3,13,8.3,22.5
					c0,9.6-2.9,17.3-8.7,23c-5.8,5.7-13.7,9.1-23.8,10.1v16.2H681v-16.1c-9.6-1-17.6-4.5-23.7-10.6c-6.2-6-9.1-14.9-8.9-26.5
					l0.2-0.4h16c0,8.6,2.2,14.8,6.6,18.5c4.4,3.7,9.7,5.5,16,5.5c7.2,0,12.9-1.7,17-5.2C708.1,314,710.1,309.2,710.1,303.1z"/>
			</g>
		</g>
		<g>
			<path fill="#EFD225" d="M534.6,283.5c0-7.8-2.7-14.4-8.2-19.8c-5.5-5.5-14.5-10.4-27.2-14.7c-17.4-5.3-30.5-12.3-39.4-21.1
				c-8.9-8.8-13.3-20.5-13.3-35.2c0-14.2,4.1-25.8,12.3-34.8c8.2-9,19.4-14.3,33.7-16.2v-28.6h20.4v28.7
				c14.4,1.9,25.6,7.8,33.5,17.7c8,9.9,12,23.2,12,39.8H533c0-10.9-2.7-19.8-8.1-26.6c-5.4-6.8-12.9-10.2-22.5-10.2
				c-10.2,0-17.8,2.7-22.9,7.9c-5.1,5.3-7.6,12.6-7.6,21.8c0,8.4,2.6,15.1,7.9,20.3c5.3,5.2,14.7,10.1,28.3,14.7
				c17.6,5.7,30.6,12.8,39.2,21.3c8.5,8.5,12.8,20,12.8,34.6c0,14.8-4.4,26.6-13.3,35.3c-8.9,8.7-21.1,13.9-36.6,15.6v24.8h-20.3
				v-24.7c-14.8-1.6-27-7-36.4-16.2c-9.5-9.3-14-22.9-13.7-40.8l0.3-0.6h24.6c0,13.3,3.4,22.7,10.1,28.4c6.7,5.6,14.9,8.5,24.6,8.5
				c11.1,0,19.8-2.6,26-7.9C531.5,300.2,534.6,292.8,534.6,283.5z"/>
		</g>
		<g>
			<g>
				<path fill="#EFD225" d="M334.8,309.8c0-5-1.8-9.4-5.3-12.9c-3.6-3.6-9.5-6.7-17.7-9.5c-11.3-3.4-19.9-8-25.7-13.7
					c-5.8-5.7-8.7-13.3-8.7-22.9c0-9.3,2.7-16.8,8-22.6c5.3-5.8,12.6-9.3,22-10.5V199h13.3v18.7c9.4,1.2,16.6,5.1,21.8,11.5
					c5.2,6.5,7.8,15.1,7.8,25.9h-16.5c0-7.1-1.8-12.9-5.3-17.3c-3.5-4.4-8.4-6.6-14.6-6.6c-6.6,0-11.6,1.7-14.9,5.2
					c-3.3,3.4-5,8.2-5,14.2c0,5.4,1.7,9.8,5.1,13.2c3.4,3.4,9.6,6.6,18.4,9.6c11.4,3.7,19.9,8.3,25.5,13.8c5.6,5.5,8.3,13,8.3,22.5
					c0,9.6-2.9,17.3-8.7,23c-5.8,5.7-13.7,9.1-23.8,10.1v16.2h-13.2v-16.1c-9.6-1-17.6-4.5-23.7-10.6c-6.2-6-9.1-14.9-8.9-26.5
					l0.2-0.4h16c0,8.6,2.2,14.8,6.6,18.5c4.4,3.7,9.7,5.5,16,5.5c7.2,0,12.9-1.7,17-5.2C332.8,320.7,334.8,315.9,334.8,309.8z"/>
			</g>
			<g>
				<path fill="#EFD225" d="M710.1,309.8c0-5-1.8-9.4-5.3-12.9c-3.6-3.6-9.5-6.7-17.7-9.5c-11.3-3.4-19.9-8-25.7-13.7
					c-5.8-5.7-8.7-13.3-8.7-22.9c0-9.3,2.7-16.8,8-22.6c5.3-5.8,12.6-9.3,22-10.5V199H696v18.7c9.4,1.2,16.6,5.1,21.8,11.5
					c5.2,6.5,7.8,15.1,7.8,25.9h-16.5c0-7.1-1.8-12.9-5.3-17.3c-3.5-4.4-8.4-6.6-14.6-6.6c-6.6,0-11.6,1.7-14.9,5.2
					c-3.3,3.4-5,8.2-5,14.2c0,5.4,1.7,9.8,5.1,13.2c3.4,3.4,9.6,6.6,18.4,9.6c11.4,3.7,19.9,8.3,25.5,13.8c5.6,5.5,8.3,13,8.3,22.5
					c0,9.6-2.9,17.3-8.7,23c-5.8,5.7-13.7,9.1-23.8,10.1v16.2H681v-16.1c-9.6-1-17.6-4.5-23.7-10.6c-6.2-6-9.1-14.9-8.9-26.5
					l0.2-0.4h16c0,8.6,2.2,14.8,6.6,18.5c4.4,3.7,9.7,5.5,16,5.5c7.2,0,12.9-1.7,17-5.2C708.1,320.7,710.1,315.9,710.1,309.8z"/>
			</g>
		</g>
	</g>
</g>
<g id="sucursals" display="none">
	<g display="inline">
		
			<rect x="273.4" y="218.8" fill="#E6E6E6" stroke="#B3B3B3" stroke-width="20" stroke-linecap="round" stroke-linejoin="round" stroke-miterlimit="10" width="467.4" height="605.4"/>
		
			<rect x="230.2" y="146.7" fill="#E6E6E6" stroke="#B3B3B3" stroke-width="20" stroke-linecap="round" stroke-linejoin="round" stroke-miterlimit="10" width="547.7" height="72.1"/>
		
			<rect x="372.3" y="287.5" fill="#F7F7F8" stroke="#B3B3B3" stroke-width="20" stroke-miterlimit="10" width="100.4" height="95.8"/>
		
			<rect x="539.1" y="287.5" fill="#F7F7F8" stroke="#B3B3B3" stroke-width="20" stroke-miterlimit="10" width="100.4" height="95.8"/>
		
			<rect x="370.5" y="454.3" fill="#F7F7F8" stroke="#B3B3B3" stroke-width="20" stroke-miterlimit="10" width="100.4" height="95.8"/>
		
			<rect x="537.3" y="454.3" fill="#F7F7F8" stroke="#B3B3B3" stroke-width="20" stroke-miterlimit="10" width="100.4" height="95.8"/>
		
			<rect x="422.5" y="622.6" fill="#F7F7F8" stroke="#B3B3B3" stroke-width="20" stroke-miterlimit="10" width="166.8" height="201.6"/>
		
			<line fill="none" stroke="#B3B3B3" stroke-width="20" stroke-linecap="round" stroke-linejoin="round" stroke-miterlimit="10" x1="150.6" y1="824.5" x2="849.6" y2="824.5"/>
		
			<path fill="#E6E6E6" stroke="#B3B3B3" stroke-width="20" stroke-linecap="round" stroke-linejoin="round" stroke-miterlimit="10" d="
			M222.8,824.2h-51.3V702.4c0-6.5,5.2-11.7,11.7-11.7h27.9c6.5,0,11.7,5.2,11.7,11.7V824.2z"/>
		<g>
			<path fill="#B3B3B3" d="M194.8,602.2c1.9,0,1.9-3,0-3C192.8,599.2,192.8,602.2,194.8,602.2L194.8,602.2z"/>
		</g>
		
			<line fill="none" stroke="#B3B3B3" stroke-width="20" stroke-linecap="round" stroke-linejoin="round" stroke-miterlimit="10" x1="193.6" y1="691.5" x2="193.6" y2="368.5"/>
		
			<path fill="#EFD225" stroke="#E2BC1B" stroke-width="20" stroke-linecap="round" stroke-linejoin="round" stroke-miterlimit="10" d="
			M211.1,361h-27.9c-6.5,0-11.7-5.2-11.7-11.7v-27.9c0-6.5,5.2-11.7,11.7-11.7h27.9c6.5,0,11.7,5.2,11.7,11.7v27.9
			C222.8,355.8,217.6,361,211.1,361z"/>
		
			<path fill="#E6E6E6" stroke="#B3B3B3" stroke-width="20" stroke-linecap="round" stroke-linejoin="round" stroke-miterlimit="10" d="
			M845,825.3h-51.3V703.5c0-6.5,5.2-11.7,11.7-11.7h27.9c6.5,0,11.7,5.2,11.7,11.7V825.3z"/>
		<g>
			<path fill="#B3B3B3" d="M816.9,603.2c1.9,0,1.9-3,0-3C815,600.2,815,603.2,816.9,603.2L816.9,603.2z"/>
		</g>
		
			<line fill="none" stroke="#B3B3B3" stroke-width="20" stroke-linecap="round" stroke-linejoin="round" stroke-miterlimit="10" x1="817.6" y1="691.5" x2="817.6" y2="454.5"/>
		
			<path fill="#EFD225" stroke="#E2BC1B" stroke-width="20" stroke-linecap="round" stroke-linejoin="round" stroke-miterlimit="10" d="
			M833.3,454h-27.9c-6.5,0-11.7-5.2-11.7-11.7v-27.9c0-6.5,5.2-11.7,11.7-11.7h27.9c6.5,0,11.7,5.2,11.7,11.7v27.9
			C845,448.8,839.7,454,833.3,454z"/>
		
			<line fill="none" stroke="#B3B3B3" stroke-width="20" stroke-linecap="round" stroke-linejoin="round" stroke-miterlimit="10" x1="171.6" y1="410.5" x2="222.6" y2="410.5"/>
		
			<line fill="none" stroke="#B3B3B3" stroke-width="20" stroke-linecap="round" stroke-linejoin="round" stroke-miterlimit="10" x1="790.6" y1="502.5" x2="843.6" y2="502.5"/>
	</g>
</g>
<g id="todo">
	<g>
		<path fill="#E6E6E6" stroke="#B3B3B3" stroke-width="20" stroke-linecap="round" stroke-miterlimit="10" d="M790.3,985.9H209.7
			c-45,0-81.5-36.5-81.5-81.5V183c0-45,36.5-81.5,81.5-81.5h580.5c45,0,81.5,36.5,81.5,81.5v721.4
			C871.7,949.4,835.2,985.9,790.3,985.9z"/>
		<path fill="#F7F7F8" stroke="#B3B3B3" stroke-width="20" stroke-miterlimit="10" d="M759.8,930.1H242.2
			c-32.7,0-59.2-26.5-59.2-59.2V220.2c0-32.7,26.5-59.2,59.2-59.2h517.6c32.7,0,59.2,26.5,59.2,59.2v650.7
			C819,903.6,792.5,930.1,759.8,930.1z"/>
		<g>
			<path fill="#E6E6E6" stroke="#B3B3B3" stroke-width="20" stroke-linecap="round" stroke-miterlimit="10" d="M377.6,418.6H307
				c-11.2,0-20.2-9.1-20.2-20.2v-70.6c0-11.2,9.1-20.2,20.2-20.2h70.6c11.2,0,20.2,9.1,20.2,20.2v70.6
				C397.8,409.5,388.8,418.6,377.6,418.6z"/>
			<g>
				<path fill="#B3B3B3" d="M552.8,350.2h-90.3c-3.1,0-5.7-2.5-5.7-5.7V326c0-3.1,2.5-5.7,5.7-5.7h90.3c3.1,0,5.7,2.5,5.7,5.7v18.6
					C558.4,347.7,555.9,350.2,552.8,350.2z"/>
				<path fill="#B3B3B3" d="M705.5,405.8h-243c-3.1,0-5.7-2.5-5.7-5.7v-18.6c0-3.1,2.5-5.7,5.7-5.7h243c3.1,0,5.7,2.5,5.7,5.7v18.6
					C711.1,403.2,708.6,405.8,705.5,405.8z"/>
			</g>
			<path fill="#E6E6E6" stroke="#B3B3B3" stroke-width="20" stroke-linecap="round" stroke-miterlimit="10" d="M377.6,602.1H307
				c-11.2,0-20.2-9.1-20.2-20.2v-70.6c0-11.2,9.1-20.2,20.2-20.2h70.6c11.2,0,20.2,9.1,20.2,20.2v70.6
				C397.8,593,388.8,602.1,377.6,602.1z"/>
			<g>
				<path fill="#B3B3B3" d="M552.8,533.7h-90.3c-3.1,0-5.7-2.5-5.7-5.7v-18.6c0-3.1,2.5-5.7,5.7-5.7h90.3c3.1,0,5.7,2.5,5.7,5.7V528
					C558.4,531.2,555.9,533.7,552.8,533.7z"/>
				<path fill="#B3B3B3" d="M705.5,589.3h-243c-3.1,0-5.7-2.5-5.7-5.7V565c0-3.1,2.5-5.7,5.7-5.7h243c3.1,0,5.7,2.5,5.7,5.7v18.6
					C711.1,586.7,708.6,589.3,705.5,589.3z"/>
			</g>
			<path fill="#E6E6E6" stroke="#B3B3B3" stroke-width="20" stroke-linecap="round" stroke-miterlimit="10" d="M377.6,785.6H307
				c-11.2,0-20.2-9.1-20.2-20.2v-70.6c0-11.2,9.1-20.2,20.2-20.2h70.6c11.2,0,20.2,9.1,20.2,20.2v70.6
				C397.8,776.5,388.8,785.6,377.6,785.6z"/>
			<g>
				<path fill="#B3B3B3" d="M552.8,717.2h-90.3c-3.1,0-5.7-2.5-5.7-5.7v-18.6c0-3.1,2.5-5.7,5.7-5.7h90.3c3.1,0,5.7,2.5,5.7,5.7
					v18.6C558.4,714.6,555.9,717.2,552.8,717.2z"/>
				<path fill="#B3B3B3" d="M705.5,772.7h-243c-3.1,0-5.7-2.5-5.7-5.7v-18.6c0-3.1,2.5-5.7,5.7-5.7h243c3.1,0,5.7,2.5,5.7,5.7v18.6
					C711.1,770.2,708.6,772.7,705.5,772.7z"/>
			</g>
		</g>
		<g>
			<path fill="#0FCE45" d="M263.2,551.7c-1.5-1.5-2.2-3.4-2.2-5.7c0-2.3,0.7-4.2,2.2-5.7l11.7-11.4c1.5-1.7,3.3-2.5,5.6-2.5
				c2.2,0,4.2,0.8,5.9,2.5l35.6,35.6l76.2-76.2c1.7-1.7,3.7-2.5,5.9-2.5c2.2,0,4.1,0.8,5.6,2.5l11.7,11.4c1.5,1.5,2.2,3.4,2.2,5.7
				c0,2.3-0.7,4.2-2.2,5.7l-93.7,93.4c-1.5,1.7-3.4,2.5-5.7,2.5s-4.2-0.8-5.7-2.5L263.2,551.7z"/>
		</g>
		<g>
			<path fill="#0FCE45" d="M263.2,735.4c-1.5-1.5-2.2-3.4-2.2-5.7c0-2.3,0.7-4.2,2.2-5.7l11.7-11.4c1.5-1.7,3.3-2.5,5.6-2.5
				c2.2,0,4.2,0.8,5.9,2.5l35.6,35.6l76.2-76.2c1.7-1.7,3.7-2.5,5.9-2.5c2.2,0,4.1,0.8,5.6,2.5l11.7,11.4c1.5,1.5,2.2,3.4,2.2,5.7
				c0,2.3-0.7,4.2-2.2,5.7l-93.7,93.4c-1.5,1.7-3.4,2.5-5.7,2.5s-4.2-0.8-5.7-2.5L263.2,735.4z"/>
		</g>
		<g>
			<path fill="#0FCE45" d="M263.2,368.4c-1.5-1.5-2.2-3.4-2.2-5.7c0-2.3,0.7-4.2,2.2-5.7l11.7-11.4c1.5-1.7,3.3-2.5,5.6-2.5
				c2.2,0,4.2,0.8,5.9,2.5l35.6,35.6l76.2-76.2c1.7-1.7,3.7-2.5,5.9-2.5c2.2,0,4.1,0.8,5.6,2.5l11.7,11.4c1.5,1.5,2.2,3.4,2.2,5.7
				c0,2.3-0.7,4.2-2.2,5.7l-93.7,93.4c-1.5,1.7-3.4,2.5-5.7,2.5c-2.3,0-4.2-0.8-5.7-2.5L263.2,368.4z"/>
		</g>
		
			<path fill="#B3B3B3" stroke="#808080" stroke-width="20" stroke-linecap="round" stroke-linejoin="round" stroke-miterlimit="10" d="
			M644.3,75.5h-82.5c-0.7-32-28.2-60.9-62.1-60.9s-61.4,28.9-62.1,60.9h-82.5c-14.5,0-28.6,11.3-28.6,25.8v75
			c0,14.5,14,27.1,28.6,27.1h289.1c14.5,0,25.3-12.6,25.3-27.1v-75C669.6,86.8,658.8,75.5,644.3,75.5z"/>
		<g>
			<g>
				
					<line fill="none" stroke="#666666" stroke-width="20" stroke-linecap="round" stroke-miterlimit="10" x1="420.6" y1="126.5" x2="420.6" y2="158.5"/>
				
					<line fill="none" stroke="#666666" stroke-width="20" stroke-linecap="round" stroke-miterlimit="10" x1="579.6" y1="120.5" x2="579.6" y2="156.5"/>
			</g>
			<path fill="none" stroke="#666666" stroke-width="20" stroke-linecap="round" stroke-miterlimit="10" d="M479.6,144.7
				c0,0,17.7,18,40.3,0"/>
		</g>
	</g>
</g>
<g id="cash" display="none">
	<g display="inline">
		
			<path fill="#E6E6E6" stroke="#B3B3B3" stroke-width="20" stroke-linecap="round" stroke-linejoin="round" stroke-miterlimit="10" d="
			M639.3,967.5H132.9c-24,0-43.5-19.5-43.5-43.5V76c0-24,19.5-43.5,43.5-43.5h506.4c24,0,43.5,19.5,43.5,43.5v848
			C682.8,948,663.4,967.5,639.3,967.5z"/>
		
			<rect x="163.9" y="227.4" fill="#F7F7F8" stroke="#B3B3B3" stroke-width="20" stroke-linecap="round" stroke-linejoin="round" stroke-miterlimit="10" width="453.3" height="208"/>
		<g>
			
				<path fill="#CCCCCC" stroke="#B3B3B3" stroke-width="20" stroke-linecap="round" stroke-linejoin="round" stroke-miterlimit="10" d="
				M261.1,591.8h-71.8c-8,0-14.5-6.5-14.5-14.5v-46.5c0-8,6.5-14.5,14.5-14.5h71.8c8,0,14.5,6.5,14.5,14.5v46.5
				C275.6,585.4,269.1,591.8,261.1,591.8z"/>
			
				<path fill="#CCCCCC" stroke="#B3B3B3" stroke-width="20" stroke-linecap="round" stroke-linejoin="round" stroke-miterlimit="10" d="
				M426.4,591.8h-71.8c-8,0-14.5-6.5-14.5-14.5v-46.5c0-8,6.5-14.5,14.5-14.5h71.8c8,0,14.5,6.5,14.5,14.5v46.5
				C440.9,585.4,434.4,591.8,426.4,591.8z"/>
			<path fill="#E0142D" d="M591.7,591.8H520c-8,0-14.5-6.5-14.5-14.5v-46.5c0-8,6.5-14.5,14.5-14.5h71.8c8,0,14.5,6.5,14.5,14.5
				v46.5C606.2,585.4,599.7,591.8,591.7,591.8z"/>
		</g>
		<g>
			
				<path fill="#CCCCCC" stroke="#B3B3B3" stroke-width="20" stroke-linecap="round" stroke-linejoin="round" stroke-miterlimit="10" d="
				M261.1,740.6h-71.8c-8,0-14.5-6.5-14.5-14.5v-46.5c0-8,6.5-14.5,14.5-14.5h71.8c8,0,14.5,6.5,14.5,14.5v46.5
				C275.6,734.1,269.1,740.6,261.1,740.6z"/>
			
				<path fill="#CCCCCC" stroke="#B3B3B3" stroke-width="20" stroke-linecap="round" stroke-linejoin="round" stroke-miterlimit="10" d="
				M426.4,740.6h-71.8c-8,0-14.5-6.5-14.5-14.5v-46.5c0-8,6.5-14.5,14.5-14.5h71.8c8,0,14.5,6.5,14.5,14.5v46.5
				C440.9,734.1,434.4,740.6,426.4,740.6z"/>
			
				<path fill="#CCCCCC" stroke="#B3B3B3" stroke-width="20" stroke-linecap="round" stroke-linejoin="round" stroke-miterlimit="10" d="
				M591.7,740.6H520c-8,0-14.5-6.5-14.5-14.5v-46.5c0-8,6.5-14.5,14.5-14.5h71.8c8,0,14.5,6.5,14.5,14.5v46.5
				C606.2,734.1,599.7,740.6,591.7,740.6z"/>
		</g>
		<g>
			
				<path fill="#CCCCCC" stroke="#B3B3B3" stroke-width="20" stroke-linecap="round" stroke-linejoin="round" stroke-miterlimit="10" d="
				M261.1,889.3h-71.8c-8,0-14.5-6.5-14.5-14.5v-46.5c0-8,6.5-14.5,14.5-14.5h71.8c8,0,14.5,6.5,14.5,14.5v46.5
				C275.6,882.8,269.1,889.3,261.1,889.3z"/>
			
				<path fill="#CCCCCC" stroke="#B3B3B3" stroke-width="20" stroke-linecap="round" stroke-linejoin="round" stroke-miterlimit="10" d="
				M426.4,889.3h-71.8c-8,0-14.5-6.5-14.5-14.5v-46.5c0-8,6.5-14.5,14.5-14.5h71.8c8,0,14.5,6.5,14.5,14.5v46.5
				C440.9,882.8,434.4,889.3,426.4,889.3z"/>
			
				<path fill="#CCCCCC" stroke="#B3B3B3" stroke-width="20" stroke-linecap="round" stroke-linejoin="round" stroke-miterlimit="10" d="
				M591.7,889.3H520c-8,0-14.5-6.5-14.5-14.5v-46.5c0-8,6.5-14.5,14.5-14.5h71.8c8,0,14.5,6.5,14.5,14.5v46.5
				C606.2,882.8,599.7,889.3,591.7,889.3z"/>
		</g>
		
			<path fill="#E6E6E6" stroke="#B3B3B3" stroke-width="20" stroke-linecap="round" stroke-linejoin="round" stroke-miterlimit="10" d="
			M900.1,893.1H682.8V375.2h217.2c5.8,0,10.5,4.7,10.5,10.5v496.9C910.6,888.3,905.9,893.1,900.1,893.1z"/>
		<path fill="#808080" d="M617.1,123.5H164.6c-8.1,0-14.7,6.9-14.7,15s6.6,15,14.7,15h452.4c8.1,0,14.7-6.9,14.7-15
			S625.2,123.5,617.1,123.5z"/>
		<g>
			<path fill="#E0142D" d="M434.6,393.6c-1.6,1.6-3.5,2.4-5.7,2.4c-2.2,0-4.2-0.8-5.7-2.4L390.5,361l-32.6,32.6
				c-1.6,1.6-3.5,2.4-5.7,2.4c-2.2,0-4.2-0.8-5.7-2.4l-18.2-18.2c-1.6-1.6-2.4-3.5-2.4-5.7c0-2.2,0.8-4.2,2.4-5.7l32.6-32.6
				l-32.6-32.6c-1.6-1.6-2.4-3.5-2.4-5.7c0-2.2,0.8-4.2,2.4-5.7l18.2-18.2c1.6-1.6,3.5-2.4,5.7-2.4c2.2,0,4.2,0.8,5.7,2.4l32.6,32.6
				l32.6-32.6c1.6-1.6,3.5-2.4,5.7-2.4c2.2,0,4.2,0.8,5.7,2.4l18.2,18.2c1.6,1.6,2.4,3.5,2.4,5.7c0,2.2-0.8,4.2-2.4,5.7l-32.6,32.6
				l32.6,32.6c1.6,1.6,2.4,3.5,2.4,5.7c0,2.2-0.8,4.2-2.4,5.7L434.6,393.6z"/>
		</g>
		<rect x="759.7" y="389.8" fill="#808080" width="71.5" height="488.5"/>
	</g>
</g>
<g id="reports" display="none">
	<g display="inline">
		<g>
			<g>
				<path fill="#B3B3B3" d="M966.7,405.1c-0.8-2.7-2.1-4.5-4-6.7c-3.8-4.3-9.3-5.9-15-5.9h-41.1v-224c0-15.2-12.6-28-27.7-28H400.3
					l-38.8-64.6c-4.9-8.3-13.9-13.4-23.6-13.4H122.5c-15.2,0-26.9,12.7-26.9,27.9v302.1H52.4c-5.7,0-11.2,1.6-15,5.9
					c-1.9,2.2-3.2,4.4-4,7.1c-0.8,2.7-1,5.3-0.5,8.2l34.3,226.7l33.2,218.4l9.2,61.6c1.5,9.8,9.8,17.2,19.7,17.2h741.7
					c9.9,0,18.1-7.1,19.6-16.9l9.2-61.1h0.1l33.1-218.8l34.4-227C967.6,410.8,967.5,407.7,966.7,405.1z M126.6,93.5h209.2l38.8,64.6
					c5,8.2,14,13.4,23.7,13.4h475.3v221h-747V93.5z M111.6,725.1l-5.9-39.4l-2.2-14.2h61.7L111.6,725.1z M126,819.9l-8.6-56.5
					l92-91.9h65.1L126,819.9z M492.9,828.5h-80.7l156-157h80.7L492.9,828.5z M693,671.5h80.8l-156,157H537L693,671.5z M368,828.5
					h-80.7l156-157h80.7L368,828.5z M243.2,828.5h-80.7l156-157h80.7L243.2,828.5z M861.1,906.5H138.9l-7.1-47h736.3L861.1,906.5z
					 M872.9,828.5h-86.2l101.7-101.6L872.9,828.5z M896.2,674.3L742.5,828.5h-80.7l156-157h78.7L896.2,674.3z M901.3,640.5H98.7
					l-33.1-219h868.7L901.3,640.5z"/>
			</g>
		</g>
		<path fill="#CCCCCC" d="M873.6,171.5v221h-747v-299h209.2l38.8,64.6c5,8.2,14,13.4,23.7,13.4H873.6z"/>
		<polygon opacity="0.2" fill="#999999" points="126.6,316.7 873.6,349.9 873.6,392.5 126.6,392.5 		"/>
	</g>
</g>
<g id="brands" display="none">
	<g display="inline">
		<g>
			<path fill="#F2F2F2" d="M969.6,600.7v202.7c0,43.2-36.5,79.1-79.7,79.1H109.8c-43.2,0-77.2-35.9-77.2-79.1V790
				C32.6,790,524.6,484.5,969.6,600.7z"/>
			<path fill="#F7F7F8" d="M969.6,573v27.7C524.6,484.5,32.6,790,32.6,790V573c0-43.2,34.1-76.5,77.2-76.5h780.1
				C933.1,496.5,969.6,529.8,969.6,573z"/>
			<path fill="#B3B3B3" d="M890,897.5H110c-51.9,0-94.1-42.2-94.1-94.1V573c0-51.9,42.2-94.1,94.1-94.1H890
				c51.9,0,94.1,42.2,94.1,94.1v230.4C984.2,855.3,941.9,897.5,890,897.5z M110,510.7c-34.4,0-62.3,28-62.3,62.3v230.4
				c0,34.4,28,62.3,62.3,62.3H890c34.4,0,62.3-28,62.3-62.3V573c0-34.4-28-62.3-62.3-62.3H110z"/>
		</g>
		<g>
			<path fill="#666666" d="M173,610l42.1,121.7h0.7L258.2,610h43.3v165.2h-33.1v-49.2l3.2-72.9l-0.7-0.1l-44.2,122.3h-22.2
				l-44-121.8l-0.7,0.1l3.2,72.5v49.2h-33.1V610H173z"/>
			<path fill="#666666" d="M421.1,739.5h-58l-11.2,35.6h-33.5L375.3,610h33.9l56.6,165.2h-33.5L421.1,739.5z M371.3,713.6h41.6
				l-20.4-64.9h-0.7L371.3,713.6z"/>
			<path fill="#666666" d="M514.4,709.1v66h-33.1V610h62.3c18.8,0,33.6,4.3,44.2,12.9c10.6,8.6,15.9,20.6,15.9,35.9
				c0,8.5-2.2,15.9-6.7,22c-4.5,6.1-11,11.1-19.6,14.9c9.8,2.9,16.8,7.7,21,14.4c4.3,6.7,6.4,15.1,6.4,25v12.1
				c0,4.6,0.6,9.4,1.9,14.5c1.2,5,3.4,8.8,6.4,11.2v2.4h-34.1c-3-2.4-5-6.5-5.9-12.1c-0.9-5.7-1.4-11-1.4-16.1v-11.7
				c0-8.2-2.3-14.7-6.8-19.2c-4.5-4.6-10.8-6.9-19-6.9H514.4z M514.4,683.6H543c9.3,0,16.2-2,20.8-5.9c4.6-3.9,6.9-9.8,6.9-17.5
				c0-7.6-2.3-13.6-6.9-18c-4.6-4.5-11.3-6.7-20.3-6.7h-29.2V683.6z"/>
			<path fill="#666666" d="M759.5,718.9l0.2,0.7c0.3,17.8-5.1,31.9-16.3,42.3c-11.2,10.4-26.6,15.7-46.5,15.7
				c-19.9,0-36-6.4-48.4-19.2C636.2,745.6,630,729.1,630,709v-32.8c0-20,6.1-36.5,18.2-49.4c12.1-12.9,27.8-19.3,47.2-19.3
				c20.4,0,36.4,5.2,47.9,15.7c11.5,10.5,17.1,24.8,16.8,42.8l-0.2,0.7h-32.2c0-10.9-2.6-19.2-7.8-25c-5.2-5.8-13.4-8.7-24.4-8.7
				c-9.9,0-17.8,4-23.6,12.1c-5.8,8-8.7,18.3-8.7,30.8v33c0,12.6,3.1,23,9.2,31c6.1,8,14.4,12.1,24.8,12.1c10.4,0,18-2.8,23-8.3
				c5-5.6,7.4-13.8,7.4-24.8H759.5z"/>
			<path fill="#666666" d="M872,739.5h-58l-11.2,35.6h-33.5L826.1,610h33.9l56.6,165.2h-33.5L872,739.5z M822.2,713.6h41.6
				l-20.4-64.9h-0.7L822.2,713.6z"/>
		</g>
		<path fill="#F7F7F8" stroke="#808080" stroke-width="20" stroke-miterlimit="10" d="M852.9,326.8H703.6
			c-20.7,0-37.5-16.8-37.5-37.5V140c0-20.7,16.8-37.5,37.5-37.5h149.3c20.7,0,37.5,16.8,37.5,37.5v149.3
			C890.4,310,873.6,326.8,852.9,326.8z"/>
		<path fill="#E6E6E6" stroke="#B3B3B3" stroke-width="20" stroke-miterlimit="10" d="M293.7,401.7h-72.4c-11,0-19.9-8.9-19.9-19.9
			v-72.4c0-11,8.9-19.9,19.9-19.9h72.4c11,0,19.9,8.9,19.9,19.9v72.4C313.6,392.8,304.7,401.7,293.7,401.7z"/>
		<circle fill="#E0142D" cx="778.1" cy="212.5" r="47.7"/>
	</g>
</g>
<g id="anticipos" display="none">
	<g display="inline">
		<path fill="#E6E6E6" stroke="#B3B3B3" stroke-width="20" stroke-linecap="round" stroke-miterlimit="10" d="M976.6,746.5V356.1
			L626,69c0,0-21.5-19.5-55.4-35.2c-44.1-20.4-95.4-20.4-139.5,0C397.1,49.6,374.6,69,374.6,69l-351,287.1v390.4H976.6z"/>
		<g>
			<path fill="#0FCE45" d="M835.7,522.6H169.1c-20.3,0-36.7-16.4-36.7-36.7V150.9c0-20.3,16.4-36.7,36.7-36.7h666.6
				c20.3,0,36.7,16.4,36.7,36.7v335.1C872.3,506.2,855.9,522.6,835.7,522.6z"/>
			<path fill="#0B9432" d="M811.9,539.1H192.8c-42.4,0-76.9-34.5-76.9-76.9V174.6c0-42.4,34.5-76.9,76.9-76.9h619.2
				c42.4,0,76.9,34.5,76.9,76.9v287.6C888.8,504.6,854.3,539.1,811.9,539.1z M192.8,130.7c-24.2,0-43.9,19.7-43.9,43.9v287.6
				c0,24.2,19.7,43.9,43.9,43.9h619.2c24.2,0,43.9-19.7,43.9-43.9V174.6c0-24.2-19.7-43.9-43.9-43.9H192.8z"/>
		</g>
		<g>
			<path fill="#0FCE45" d="M732,194.9c0-2-0.7-3.4-0.5-5.4H282.9c0,38-32.3,68.4-72.3,68.8v118.3c40,0,71.4,29.9,72.2,69.9h448.4
				c0.8-40,30.3-69.9,72.3-69.9V265.1C761.6,265.1,732,234,732,194.9z"/>
			<path fill="#0B9432" d="M276.4,459.5l-0.1-8.7c-0.7-34.7-29.2-65.3-63.4-65.3h-7.2V251.8l7.5-0.1c35.3-0.4,64.5-29.2,64.5-64.2
				v-8h460.8l-0.4,7.6c-0.1,2-0.1,3.4-0.1,4.5c0,0.7,0,2.4,0,3.1c0,35.6,28.9,65.8,64.5,65.8h6.1v125h-6.1
				c-34.9,0-64,30.6-64.7,65.3l-0.1,8.7H276.4z M297.8,194.5c-4.7,0-8.8,3.2-9.7,7.8c-5.9,30.5-31.2,55-61.6,61.1
				c-4.6,0.9-8.8,4.9-8.8,9.6v88.7c0,4.7,4.2,8.8,8.9,9.7c29.8,5.9,54.5,30.1,60.9,60.2c1,4.6,5.4,7.8,10.1,7.8h419.2
				c4.7,0,8.7-3.3,9.7-7.8c3.1-14.8,10.5-28.4,21.4-39.2c11.1-10.9,25.3-18.2,40.5-21.1c4.7-0.9,8.4-5,8.4-9.7V280
				c0-4.7-3.7-8.8-8.4-9.7c-33-6.3-58.9-33.9-62.7-67.2c-0.6-5-5-8.6-10-8.6H297.8z"/>
		</g>
		<circle fill="#0B9432" cx="500.6" cy="321.6" r="78.6"/>
		<circle fill="#FCEE21" cx="500.6" cy="321.6" r="62.5"/>
		<path fill="#E6E6E6" stroke="#B3B3B3" stroke-width="20" stroke-linecap="round" stroke-miterlimit="10" d="M624.1,678.6
			c0,0-20.8,19.5-54.8,35.2c-44.1,20.4-95,20.4-139.2,0c-33.9-15.7-54.8-35.2-54.8-35.2L26.1,391.5v483.8
			c0,58.7,47.6,106.2,106.2,106.2h366.2h2.3h366.2c58.7,0,106.2-47.6,106.2-106.2V391.5L624.1,678.6z"/>
		
			<line fill="#E6E6E6" stroke="#B3B3B3" stroke-width="20" stroke-linecap="round" stroke-miterlimit="10" x1="325.1" y1="738.5" x2="112.6" y2="901.3"/>
		
			<line fill="#E6E6E6" stroke="#B3B3B3" stroke-width="20" stroke-linecap="round" stroke-miterlimit="10" x1="675.5" y1="738.5" x2="887.9" y2="901.3"/>
		<g>
			<path fill="#1A1A1A" d="M479.8,371.5l5.7-19.5l-1.6-2.5H479c-6.1,0-13.4-4.9-13.4-11v-5l1.1-1.6c-4.4-1.6-5.1-5.7-5.1-10.4v-5
				l-1.9-1.6c-4.4-1.6-8.1-5.7-8.1-10.4v-11.2h31.6l-1.6-1.5v-14.5h18.6c8.4,0,18.4,1.8,18.4,10.2v4.2l-1.5,1.5h31.5v11.2
				c0,4.7-3.7,8.8-8.1,10.4l-1.9,1.6v5c0,4.7-2.2,8.8-6.6,10.4l-0.4,1.6v5c0,6.1-4.2,11-10.3,11h-4.9l-1.6,2.5l5.7,19.5H479.8z
				 M487.3,366l1.6,5.5h22.5l1.6-5.5l-5.7-22.5h14.1c3.2,0,6.3-1.7,6.3-5v-4.2l-2-3.8h-15v-2h19.2c3.2,0,6.8-3.6,6.8-6.9v-4.2
				l-2.5-0.9h-13.5v-4h17.7c3.2,0,2.3-4.6,2.3-7.8v-4.2l1.9,2.1h-29.6c-2.4,0-3.5-1.2-4.9-0.2c-1.7,1.1-3.8,1.6-7.8,1.6
				c-4,0-6.1,0-7.8-1.2c-1.5-1-2.5-0.3-4.9-0.3h-29.6l1.8-2.1v4.2c0,3.2-0.8,7.8,2.5,7.8h17.5v4h-13.3l-2.7,0.9v4.2
				c0,3.2,3.7,6.9,6.9,6.9h19.1v2h-14.8l-2.2,3.8v4.2c0,3.2,3.2,5,6.4,5h14.1L487.3,366z M489.6,279.3v13.3l1.4,1.6
				c1.7,0.5,3.1,1.3,4.1,2c1.5,1,2.6,1.7,5,1.7c2.4,0,3.5-0.7,4.9-1.7c1.1-0.7,2.5-1.5,4.2-2l1.3-1.6v-4.8c0-5.6-4.9-6.2-10.4-6.2
				h-8.5L489.6,279.3z"/>
		</g>
	</g>
</g>
<g id="equipments" display="none">
	<g display="inline">
		<g>
			<g>
				<g>
					<polygon fill="#E6E6E6" points="795.6,513.9 900.4,319.4 683.2,164.4 501.3,213.5 492.6,181.1 689.8,127.9 943.8,309.2 
						825.1,529.8 					"/>
					<path fill="#B3B3B3" d="M687.8,138.8l243.1,173.5L821,516.2l-11.9-6.4l104.2-193.5L685.2,153.5l-176.8,47.7l-3.5-13
						L687.8,138.8 M691.7,117l-9.1,2.5l-182.9,49.4l-19.3,5.2l5.2,19.3l3.5,13l5.2,19.3l19.3-5.2l167.6-45.3l206.1,147.1l-95.8,178
						L782,518l17.6,9.5l11.9,6.4l17.6,9.5l9.5-17.6l109.8-204l8.4-15.5L942.5,296L699.4,122.5L691.7,117L691.7,117z"/>
				</g>
			</g>
			
				<circle fill="#1130EA" stroke="#B3B3B3" stroke-width="20" stroke-linecap="round" stroke-miterlimit="10" cx="682.4" cy="148.4" r="46.3"/>
			
				<circle fill="#1130EA" stroke="#B3B3B3" stroke-width="20" stroke-linecap="round" stroke-miterlimit="10" cx="922.5" cy="308.9" r="46.3"/>
			<circle fill="#140D93" cx="683.3" cy="149.3" r="10.3"/>
			<circle fill="#140D93" cx="922.1" cy="308.4" r="10.3"/>
			<path fill="#E6E6E6" stroke="#B3B3B3" stroke-width="20" stroke-linecap="round" stroke-miterlimit="10" d="M601.4,331.1
				L349.2,225.6l14.6-35c5.1-12.3,19.3-18.1,31.6-12.9l207.7,86.9c12.3,5.1,18.1,19.3,12.9,31.6L601.4,331.1z"/>
			<path fill="#E6E6E6" stroke="#B3B3B3" stroke-width="20" stroke-linecap="round" stroke-miterlimit="10" d="M587.2,257.9
				l-175.9-73.6l9.6-22.8c3.4-8,12.6-11.8,20.6-8.4l146.9,61.5c8,3.4,11.8,12.6,8.4,20.6L587.2,257.9z"/>
			<path fill="#E6E6E6" stroke="#B3B3B3" stroke-width="20" stroke-linecap="round" stroke-miterlimit="10" d="M939.3,563.4H601.8
				c-5.4,0-9.8-4.4-9.8-9.8v-30.8c0-5.4,4.4-9.8,9.8-9.8h337.5c5.4,0,9.8,4.4,9.8,9.8v30.8C949,559,944.7,563.4,939.3,563.4z"/>
			
				<rect x="644.6" y="563.4" fill="#E6E6E6" stroke="#B3B3B3" stroke-width="20" stroke-linecap="round" stroke-miterlimit="10" width="277.4" height="327.8"/>
			
				<rect x="447" y="727.3" fill="#E6E6E6" stroke="#B3B3B3" stroke-width="20" stroke-linecap="round" stroke-miterlimit="10" width="162.6" height="119.4"/>
			<path fill="#CCCCCC" stroke="#B3B3B3" stroke-width="20" stroke-linecap="round" stroke-miterlimit="10" d="M647.7,897.9h-249
				c-5.5,0-10-4.5-10-10v-31.3c0-5.5,4.5-10,10-10h249c5.5,0,10,4.5,10,10V888C657.7,893.5,653.2,897.9,647.7,897.9z"/>
			<path fill="#E6E6E6" stroke="#B3B3B3" stroke-width="20" stroke-linecap="round" stroke-miterlimit="10" d="M857,844.5
				c0,0,61.5-71.4-54.5-122.6c0,0-100.5-22.9-120.7,19.6C681.8,741.5,813.7,797.9,857,844.5z"/>
			<path fill="#E6E6E6" stroke="#B3B3B3" stroke-width="20" stroke-linecap="round" stroke-miterlimit="10" d="M687.2,748.9
				c0,0,34.4-92.4-149.1-106.6c0,0-155.1,0-168.6,68.1C369.5,710.4,643.3,717.2,687.2,748.9z"/>
			<path fill="#E6E6E6" stroke="#B3B3B3" stroke-width="20" stroke-linecap="round" stroke-miterlimit="10" d="M374.9,715.7
				c0,0-18.9-105.1-114.7-154.3c-95.8-49.2-150.4-17.5-150.4-17.5S165.1,650.9,374.9,715.7z"/>
			<path fill="#E6E6E6" stroke="#B3B3B3" stroke-width="20" stroke-linecap="round" stroke-miterlimit="10" d="M121.9,546.5
				c0,0,31.7-107.3-64.7-99.5C57.2,447,63.9,522.3,121.9,546.5z"/>
			<g>
				<g>
					<path fill="#E6E6E6" d="M850.6,861.7c-2.4,0-4.8-0.9-6.6-2.5c-61.2-54.5-124.5-83.5-166.8-98.2c-40.6-14.2-70.2-18.2-76.1-18.9
						c-5.2,0.3-12.5,0.4-21.7,0.4c-33,0-86.8-1.8-126.2-3.3c-70.2-2.7-139.1-23.2-199.4-59.4c-47.5-28.5-98.6-61.3-133.2-83.9
						c-31.1-20.3-57.5-47.3-76.4-78.2c-27.4-44.7-24.7-66.1-20.6-74.9c1.6-3.6,5.2-5.8,9.1-5.8c0.1,0,0.2,0,0.3,0l13.7,0.5
						c3.4,0.1,6.6,1.5,8.3,4.4c1.7,2.8,2.1,5.9,0.8,8.9c-0.4,1.9-2.6,17.6,16.9,49.5c16.3,26.6,39.2,50,66.1,67.6
						c34.3,22.4,85,55,132.1,83.2c55.4,33.2,118.9,52.1,183.4,54.6c56.9,2.2,98.9,3.3,124.8,3.3c9.4,0,16.5-0.2,21.2-0.4l0.5,0
						c0.2,0,0.4,0,0.6,0c0.3,0,0.6,0,0.9,0l0.5,0c1.4,0.1,35.3,3.4,84.7,20.6c45.3,15.7,113,46.7,178.5,105c4.1,3.7,4.5,10,0.8,14.1
						l-9,10.1c-1.8,2-4.2,3.2-6.9,3.3C851,861.7,850.8,861.7,850.6,861.7z"/>
					<path fill="#B3B3B3" d="M32.7,447l13.7,0.5c0,0-6.7,18,17.8,58c17.1,27.9,41,52.4,69.2,70.8c34.4,22.4,85.2,55.1,132.4,83.4
						c56.9,34.1,122,53.5,188.2,56c57,2.2,99.4,3.3,125.2,3.3c9.6,0,16.9-0.2,21.8-0.5l0.5,0l0.5,0c1.4,0.1,34.1,3.3,82.4,20.1
						c44.4,15.4,110.9,45.8,175.1,103l-9,10.1c-62.4-55.6-127-85.2-170.1-100.2c-43.7-15.2-74.9-19-79.2-19.5
						c-5.3,0.3-12.8,0.5-22,0.5c-32,0-83.5-1.7-125.8-3.3c-68.5-2.6-135.8-22.7-194.6-58c-47.4-28.4-98.4-61.2-132.8-83.7
						c-29.8-19.5-55.2-45.4-73.3-75C24.4,466.2,31.6,449.4,32.7,447 M32.7,427c-7.8,0-14.9,4.5-18.2,11.6
						c-6,12.9-7.1,38.1,21.2,84.3c19.7,32.1,47.1,60.2,79.4,81.3c34.6,22.6,85.9,55.5,133.5,84.1c61.7,37,132.3,58,204.1,60.8
						c39.4,1.5,93.4,3.3,126.6,3.3c9,0,16-0.1,21.3-0.4c7.2,0.9,35.1,5,73.2,18.3c41.4,14.4,103.4,42.9,163.4,96.2
						c3.7,3.3,8.4,5.1,13.3,5.1c0.4,0,0.8,0,1.2,0c5.3-0.3,10.3-2.7,13.8-6.7l9-10.1c7.3-8.3,6.6-20.9-1.6-28.2
						c-66.7-59.4-135.7-90.9-181.8-107c-49.7-17.3-83.4-20.8-87.1-21.1l-0.5,0c-0.6-0.1-1.2-0.1-1.9-0.1c-0.4,0-0.9,0-1.3,0l-0.5,0
						c-4.4,0.3-11.3,0.4-20.5,0.4c-25.8,0-67.6-1.1-124.4-3.3c-62.9-2.4-124.7-20.8-178.7-53.2c-46.9-28.1-97.6-60.7-131.8-83
						c-25.7-16.8-47.5-39.1-63.1-64.5c-16.6-27-15.8-40.3-15.6-42.1c1.6-5.6,0.6-11.7-2.6-16.6c-3.6-5.3-9.5-8.6-15.9-8.8l-13.7-0.5
						C33.1,427.1,32.9,427,32.7,427L32.7,427z"/>
				</g>
			</g>
		</g>
		<polygon opacity="0.25" fill="#FCEE21" points="363.9,239.3 134.6,421.2 544.1,603 567.4,325.5 		"/>
	</g>
</g>
<g id="files" display="none">
	<g display="inline">
		<g>
			<path fill="#C0C1C4" d="M122.1-12.5c1.9,0,1.9-3,0-3C120.2-15.5,120.2-12.5,122.1-12.5L122.1-12.5z"/>
		</g>
		<g>
			<path fill="#CCCCCC" d="M386,500.3L386,500.3c0-11.1-9-20.1-20.1-20.1H251.4c-11.1,0-20.1,9-20.1,20.1v0c0,11.1-9,20.1-20.1,20.1
				h-66.7c-11.1,0-20.1,9-20.1,20.1v412.8c0,11.1,9,20.1,20.1,20.1h547.4c11.1,0,20.1-9,20.1-20.1V540.5c0-11.1-9-20.1-20.1-20.1
				H406.2C395.1,520.4,386,511.4,386,500.3z"/>
			<polygon opacity="0.2" fill="#999999" points="124.4,585.5 712.1,585.5 723.6,838.2 132.1,968.9 			"/>
			<path fill="#B3B3B3" d="M691.8,986H144.4c-18,0-32.7-14.7-32.7-32.7V540.5c0-18,14.7-32.7,32.7-32.7h66.7c4.2,0,7.6-3.4,7.6-7.6
				c0-18,14.7-32.7,32.7-32.7h114.5c18,0,32.7,14.7,32.7,32.7c0,4.2,3.4,7.6,7.6,7.6h285.7c18,0,32.7,14.7,32.7,32.7v412.8
				C724.5,971.3,709.9,986,691.8,986z M144.4,533c-4.2,0-7.6,3.4-7.6,7.6v412.8c0,4.2,3.4,7.6,7.6,7.6h547.4c4.2,0,7.6-3.4,7.6-7.6
				V540.5c0-4.2-3.4-7.6-7.6-7.6H406.2c-18,0-32.7-14.7-32.7-32.7c0-4.2-3.4-7.6-7.6-7.6H251.4c-4.2,0-7.6,3.4-7.6,7.6
				c0,18-14.7,32.7-32.7,32.7H144.4z"/>
		</g>
		<path fill="#E6E6E6" stroke="#B3B3B3" stroke-width="20" stroke-linecap="round" stroke-miterlimit="10" d="M694.6,972.8H164.9
			c-19.2,0-32.1-19.7-24.4-37.3l128.9-294c4.2-9.7,13.8-15.9,24.4-15.9h529.6c19.2,0,32.1,19.7,24.4,37.3l-128.9,294
			C714.7,966.6,705.1,972.8,694.6,972.8z"/>
		<path fill="none" stroke="#CECECE" stroke-width="13" stroke-linecap="round" stroke-miterlimit="10" d="M567.4,320.2
			c0,0,157.1,0,186.2-147.2c6.8-34.4-12.2-69.2-45.3-80.7c-16.8-5.8-35.5-5.1-52.6,12.2c-28,28.4-25.6,74.5,4.2,101.2
			c34.2,30.6,101.8,43.1,228.2-76.2"/>
		<path fill="none" stroke="#CECECE" stroke-width="13" stroke-linecap="round" stroke-miterlimit="10" d="M598.2,106.4
			c0,0-46,61.2,16.2,114.5"/>
		<path fill="none" stroke="#CECECE" stroke-width="13" stroke-linecap="round" stroke-miterlimit="10" d="M798.3,141.6
			c0,0,41.5-22.7,56.6-47.8"/>
		<path fill="#F7F7F8" stroke="#CECECE" stroke-width="13" stroke-linecap="round" stroke-miterlimit="10" d="M669.9,345.5
			c0,0,60-25.4,81.8-59.7"/>
		<path fill="#0FCE45" d="M501.8,190.5c19.4-4.4,21.6-19.2,21.6-19.2l0,0c0.3-0.2,4.7-4,8.8-5.5c0.1-0.1,0.3-0.1,0.4-0.1
			C539.8,187.8,501.8,190.5,501.8,190.5z"/>
		<path fill="#10BF3D" d="M530.1,161.5c-2.8,1.6-5.8,4.5-6.7,9.9c0,0-2.2,14.8-21.6,19.2c4-4.1,5.9-10.8,6.7-15.3
			c0.9-4.7,3.1-9.2,6.7-12.4C522,156.7,527.7,159.6,530.1,161.5z"/>
		<g>
			<path fill="#0FCE45" d="M850.3,26c-4.2,17.4-17.5,19.3-17.5,19.3l0,0c-0.2,0.2-3.6,4.2-5.1,7.8c0,0.1-0.1,0.2-0.1,0.3
				C847.5,60.2,850.3,26,850.3,26z"/>
			<path fill="#10BF3D" d="M823.9,51.2c1.5-2.5,4.1-5.1,9-5.9c0,0,13.3-1.9,17.5-19.3c-3.7,3.6-9.8,5.2-13.9,5.9
				c-4.3,0.7-8.3,2.7-11.2,5.9C819.6,43.8,822.2,49,823.9,51.2z"/>
		</g>
		<g>
			<path fill="#0FCE45" d="M427.2,303.9c30.7,7.7,44.6-11.6,44.6-11.6l0,0c0.6-0.1,9.5-2.2,16.4-1.5c0.2,0,0.4,0,0.6,0.1
				C483.2,327.6,427.2,303.9,427.2,303.9z"/>
			<path fill="#10BF3D" d="M488.4,283.1c-5.2,0.2-11.4,2.3-16.6,9.2c0,0-13.9,19.4-44.6,11.6c8.6-2.9,16.2-11.1,20.6-16.9
				c4.7-6.1,11.1-10.7,18.5-12.7C480.3,270.5,486.3,278.8,488.4,283.1z"/>
		</g>
		<g>
			<path fill="#0FCE45" d="M617.3,434.9c26.5-17.5,21.5-40.7,21.5-40.7l0,0c0.3-0.5,4.8-8.5,10-13.1c0.2-0.1,0.3-0.3,0.5-0.4
				C672.6,409.6,617.3,434.9,617.3,434.9z"/>
			<path fill="#10BF3D" d="M643.3,375.7c-3.3,4-6,10-4.4,18.5c0,0,4.9,23.3-21.5,40.7c3.7-8.3,2.7-19.4,1.4-26.6
				c-1.4-7.6-0.4-15.4,3.1-22.3C628.5,373.1,638.6,374.3,643.3,375.7z"/>
		</g>
	</g>
</g>
<g id="images" display="none">
	<g display="inline">
		
			<path fill="#F2F2F2" stroke="#CCCCCC" stroke-width="20" stroke-linecap="round" stroke-linejoin="round" stroke-miterlimit="10" d="
			M978.6,636.6V282.5h-432v457H856C873.9,685.5,920.8,645.5,978.6,636.6z"/>
		
			<rect x="75.9" y="183.6" fill="#E6E6E6" stroke="#999999" stroke-width="20" stroke-linecap="round" stroke-linejoin="round" stroke-miterlimit="10" width="472.1" height="632.8"/>
		
			<rect x="21.3" y="59.7" fill="#B3B3B3" stroke="#808080" stroke-width="20" stroke-linecap="round" stroke-linejoin="round" stroke-miterlimit="10" width="581.5" height="123.9"/>
		
			<rect x="21.3" y="816.4" fill="#B3B3B3" stroke="#808080" stroke-width="20" stroke-linecap="round" stroke-linejoin="round" stroke-miterlimit="10" width="581.5" height="123.9"/>
		<path fill="#E0142D" d="M811.7,376.5h-58.5c-10.3,0-18.7-8.2-18.7-18.5s8.4-18.5,18.7-18.5h58.5c10.3,0,18.7,8.2,18.7,18.5
			S822.1,376.5,811.7,376.5z"/>
		
			<line fill="none" stroke="#B3B3B3" stroke-width="30" stroke-linecap="round" stroke-linejoin="round" stroke-miterlimit="10" x1="752.6" y1="666.5" x2="811.6" y2="666.5"/>
		
			<line fill="none" stroke="#B3B3B3" stroke-width="30" stroke-linecap="round" stroke-linejoin="round" stroke-miterlimit="10" x1="622.6" y1="355.5" x2="684.6" y2="355.5"/>
		
			<line fill="none" stroke="#B3B3B3" stroke-width="30" stroke-linecap="round" stroke-linejoin="round" stroke-miterlimit="10" x1="622.6" y1="664.5" x2="684.6" y2="664.5"/>
		<g>
			<path fill="#4D4D4D" d="M312.6,485.5c-25.9,0-47,24-47,47c0,30,21.1,0,47,0s47,30,47,0C359.6,509.5,338.5,485.5,312.6,485.5z"/>
			<path fill="#666666" d="M209.6,356.2c-15.8,0-28,12.9-28,28.7v43.4c0,15.8,12.2,28.7,28,28.7s28-12.9,28-28.7v-43.4
				C237.6,369.1,225.4,356.2,209.6,356.2z"/>
			<path fill="#666666" d="M418.6,356.2c-15.8,0-29,12.9-29,28.7v43.4c0,15.8,13.2,28.7,29,28.7s29-12.9,29-28.7v-43.4
				C447.6,369.1,434.4,356.2,418.6,356.2z"/>
		</g>
		<rect x="602.7" y="391.5" fill="#E6E6E6" width="233.4" height="233.4"/>
		<polygon fill="#CCCCCC" points="827.6,525.9 827.6,616.5 614.6,616.5 614.6,561.6 677.8,521.1 720.9,554.2 788.2,492.8 		"/>
		<polygon fill="#B3B3B3" points="712.9,548.6 788.1,492.8 720.3,554.2 		"/>
		<polygon fill="#B3B3B3" points="678.8,521.1 614.6,574.4 614.6,561.6 		"/>
	</g>
</g>
</svg>
