<?xml version="1.0" encoding="utf-8"?>
<!-- Generator: Adobe Illustrator 19.0.0, SVG Export Plug-In . SVG Version: 6.00 Build 0)  -->
<svg version="1.1" baseProfile="basic" id="FINAL_HORIZONTAL"
	 xmlns="http://www.w3.org/2000/svg" xmlns:xlink="http://www.w3.org/1999/xlink" x="0px" y="0px" viewBox="0 0 566 82.9"
	 xml:space="preserve">
<g id="XMLID_362_">
	<g id="XMLID_382_">
		<path id="XMLID_407_" fill="#191816" d="M166.4,12.6L151,43.9c4.1,0,8.5,0.1,13.1,0.1l16-31.3H166.4z M142.8,63.2h-0.3
			c0.1-1.4,0.2-3.5,0.3-6.5c0-1.3,0-2.5,0-3.4c-4.3,0.3-8.2,0.6-11.6,0.9l1.9,22.1h14.5l12.2-23.9c-4.7,0.2-9.1,0.4-13.2,0.7
			C145.7,55.2,144.4,58.6,142.8,63.2z M140.3,12.6h-12.8l2.7,31.2c3.6,0,7.6,0,11.9,0L140.3,12.6z"/>
		<path id="XMLID_404_" fill="#191816" d="M184.4,12.6L177.7,44c4.3,0,8.7,0.1,13.2,0.1l6.7-31.6H184.4z M170.8,76.2h13.3l5.3-25
			c-4.6,0.1-9.1,0.3-13.4,0.4L170.8,76.2z"/>
		<path id="XMLID_401_" fill="#191816" d="M203.3,12.6l-2.4,11.2h15.3l-4.3,20.6c4.3,0.1,8.7,0.1,13.2,0.2l4.4-20.8h15.4l2.4-11.2
			H203.3z M205.2,76.2h13.3l5.4-25.7c-4.5,0.1-9,0.2-13.3,0.3L205.2,76.2z"/>
		<path id="XMLID_398_" fill="#191816" d="M285.3,49.8c-13.6,0.1-26.9,0.3-39.7,0.4L232,76.2h13.9l7.5-15.1H274l1,15.1H288
			L285.3,49.8z M267,33c1.9-3.9,3.5-7.6,4.8-11.1v1.6c0,3.5,0.1,7.2,0.4,11l0.8,10.9c3.9,0.1,7.9,0.2,11.9,0.3l-3.3-33.4h-16.2
			l-17,32.6c4.2,0.1,8.5,0.2,12.8,0.3L267,33z"/>
		<path id="XMLID_395_" fill="#191816" d="M307.7,65.1l3.3-15.5c-4.5,0-8.9,0-13.3,0.1l-5.6,26.6h35.6l2.4-11.1H307.7z M318.8,12.6
			h-13.3l-7.1,33.5c4.4,0.1,8.8,0.2,13.2,0.3L318.8,12.6z"/>
		<path id="XMLID_391_" fill="#191816" d="M385.8,12.3h-2.9l-35.8,63.9h5.1l12.5-22.6H387l3,22.6h4.6L385.8,12.3z M367,49.6
			c7.9-14.4,12.3-22.6,13.3-24.5c1-2,1.9-3.8,2.8-5.7c0.2,4.6,0.8,10.5,1.7,17.5l1.7,12.7H367z"/>
		<path id="XMLID_387_" fill="#191816" d="M425.6,12.6h-13.2L399,76.2h4.5l5.7-27.5h14.1l9.2,27.5h4.8c-0.6-1.6-3.8-11-9.6-28.2
			c5.2-0.9,9.3-3.1,12.3-6.6c3-3.5,4.5-7.9,4.5-13.2C444.3,17.8,438.1,12.6,425.6,12.6z M434.9,40.5c-3.2,2.8-7.8,4.1-13.8,4.1h-11
			l6-28.1h9.2c9.5,0,14.3,3.9,14.3,11.7C439.6,33.7,438,37.8,434.9,40.5z"/>
		<path id="XMLID_385_" fill="#191816" d="M506.3,12.6l-31.9,54.7h-0.3l-8.9-54.7H459l-13.4,63.6h4.2l8.5-40.1
			c1.7-7.9,2.8-14.1,3.4-18.5h0.3l9.7,58.7h2.2l33.9-58.7h0.3c-0.6,2.3-2.1,8.7-4.3,19.5l-8.3,39.2h4.4l13.1-63.6H506.3z"/>
		<path id="XMLID_383_" fill="#191816" d="M555,12.6l-23.7,35.6l-8.8-35.6h-4.4l10.3,39.9l-5.2,23.7h4.6l4.7-23.1l27.5-40.6H555z"/>
	</g>
	<g id="XMLID_379_">
		<polygon id="XMLID_380_" fill="#191816" points="95.8,12.6 75.8,76.2 59.2,76.2 64.4,59.5 56.6,59.5 64.1,48.3 67.9,48.3 
			73.9,29.3 41.2,76.2 12.2,76.2 27,29.3 16.4,29.3 21.7,12.6 48.9,12.6 34.1,59.6 68.6,12.6 		"/>
	</g>
</g>
</svg>
