<?xml version="1.0" encoding="utf-8"?>
<!-- Generator: Adobe Illustrator 19.0.0, SVG Export Plug-In . SVG Version: 6.00 Build 0)  -->
<svg version="1.1" xmlns="http://www.w3.org/2000/svg" xmlns:xlink="http://www.w3.org/1999/xlink" x="0px" y="0px"
	 viewBox="0 0 500 500" style="enable-background:new 0 0 500 500;" xml:space="preserve">
<style type="text/css">
	.st0{display:none;}
	.st1{display:inline;fill:#F1F2F2;}
	.st2{display:inline;}
	.st3{fill:#95A5A5;}
	.st4{fill:#2C3E50;}
	.st5{fill:#CC4B4C;}
	.st6{fill:#C03A2B;}
	.st7{fill:#E57E25;}
	.st8{fill:#F0C419;}
	.st9{fill:#67B9CC;}
	.st10{fill:#802F34;}
	.st11{fill:#7F8C8D;}
	.st12{fill:#BDC3C7;}
	.st13{display:inline;fill:#FFFFFF;}
	.st14{font-family:'BebasNeueRegular';}
	.st15{font-size:45px;}
	.st16{letter-spacing:1;}
	.st17{display:inline;fill:#F28838;}
	.st18{display:inline;fill:#EF711D;}
	.st19{display:inline;fill:#7A7A7A;}
	.st20{display:inline;fill:#686868;}
	.st21{display:inline;fill:#FCA468;}
	.st22{display:inline;fill:#C3C3C3;}
	.st23{display:inline;fill:#B6B6B6;}
	.st24{display:inline;fill:#868686;}
	.st25{display:inline;fill:#EA6428;}
	.st26{display:inline;fill:#DD4D14;}
	.st27{display:inline;fill:#58595B;}
	.st28{display:inline;fill:#414042;}
	.st29{display:inline;fill:#D1D3D4;}
	.st30{display:inline;fill:#E6E7E8;}
	.st31{fill:#414042;}
	.st32{fill:#9A9A9A;}
	.st33{fill:#7E7E7E;}
	.st34{fill:#757575;}
	.st35{fill:#626262;}
	.st36{fill:#D8D8D8;}
	.st37{fill:#DDDDDD;}
	.st38{fill:#CECECE;}
	.st39{fill:#A9A9A9;}
	.st40{fill:#BCBEC0;}
	.st41{fill:#808285;}
	.st42{fill:#F1F2F2;}
	.st43{fill:#E6E7E8;}
	.st44{fill:#58595B;}
	.st45{fill:#FFDA73;}
	.st46{fill:#55627A;}
	.st47{fill:#3B404D;}
	.st48{clip-path:url(#XMLID_609_);fill:#52B5D8;}
	.st49{clip-path:url(#XMLID_609_);fill:#F76C59;}
	.st50{fill:#E85142;}
	.st51{fill:#E6E6E6;}
	.st52{fill:#CCCCCC;}
	.st53{fill:#F9A54B;}
	.st54{fill:#F76C59;}
	.st55{display:inline;fill:#9A9A9A;}
	.st56{fill:#DADADA;}
	.st57{fill:#B4B4B4;}
	.st58{fill:#949494;}
	.st59{fill:#EFEFEF;}
	.st60{fill:#CCD0D2;}
	.st61{fill:#A7A9AC;}
	.st62{fill:#324D5B;}
	.st63{fill:#27AAE1;}
	.st64{fill:#FFFFFF;}
	.st65{fill:#EFC75E;}
	.st66{fill:#73B287;}
	.st67{fill:#EF4136;}
	.st68{fill:#31978C;}
	.st69{fill:#44C4A1;}
	.st70{fill:#3EA69B;}
	.st71{fill:#F6C358;}
	.st72{fill:#FCD462;}
	.st73{fill:#DC8744;}
	.st74{fill:#29ABE2;}
	.st75{fill:#4D4D4D;}
	.st76{fill:#FC7A51;}
	.st77{clip-path:url(#XMLID_610_);fill:#F4D521;}
	.st78{clip-path:url(#XMLID_610_);fill:#86D359;}
	.st79{fill:#77BC4A;}
	.st80{fill:#F9DE58;}
	.st81{clip-path:url(#XMLID_611_);fill:#D6B71D;}
	.st82{clip-path:url(#XMLID_611_);fill:#808080;}
	.st83{fill:#2BE0C6;}
	.st84{fill:#808080;}
	.st85{fill:#999999;}
	.st86{fill:#5C546A;}
	.st87{clip-path:url(#XMLID_612_);fill:#8A8895;}
	.st88{clip-path:url(#XMLID_612_);fill:#5D647F;}
	.st89{fill:#FFD100;}
	.st90{fill:#B8BAC0;}
	.st91{fill:#8A8895;}
	.st92{fill:#FF4F19;}
	.st93{fill:#FF9500;}
	.st94{clip-path:url(#XMLID_613_);fill:#FFB57F;}
	.st95{clip-path:url(#XMLID_613_);fill:#DE4A3A;}
	.st96{fill:#78472E;}
	.st97{fill:#4297CF;}
	.st98{fill:#3D8AC7;}
	.st99{fill:#5CB3CF;}
	.st100{clip-path:url(#XMLID_614_);fill:#5CB3CF;}
	.st101{clip-path:url(#XMLID_614_);fill:#87B335;}
	.st102{fill:#FFB57F;}
	.st103{fill:#689428;}
	.st104{fill:#FDB52E;}
	.st105{fill:#FD7A2E;}
	.st106{fill:#F0A36E;}
</style>
<g id="Layer_1" class="st0">
	<circle id="XMLID_14_" class="st1" cx="250" cy="250" r="239"/>
	<g id="XMLID_16_" class="st2">
		<path id="XMLID_13_" class="st3" d="M105.7,324c-3.6,0-6.6-2.9-6.6-6.6V140.3c0-3.6,2.9-6.6,6.6-6.6s6.6,2.9,6.6,6.6v177.1
			C112.3,321,109.3,324,105.7,324z"/>
		<g id="XMLID_28_">
			<path id="XMLID_12_" class="st4" d="M217.2,369.9h39.4v45.9c0,7.2-5.9,13.1-13.1,13.1h-13.1c-7.2,0-13.1-5.9-13.1-13.1V369.9z"/>
			<path id="XMLID_11_" class="st4" d="M368.1,369.9h39.4v45.9c0,7.2-5.9,13.1-13.1,13.1h-13.1c-7.2,0-13.1-5.9-13.1-13.1V369.9z"/>
		</g>
		<path id="XMLID_10_" class="st5" d="M416.9,48.5H207.7c-13.7,0.9-24.1,12.6-23.3,26.2v268.9l15.5,35.7c0.9,2.2,2.9,3.6,5.2,3.7
			h214.3c2.3-0.1,4.4-1.5,5.2-3.7l15.5-35.7V74.7C441,61.1,430.6,49.4,416.9,48.5z"/>
		<path id="XMLID_9_" class="st6" d="M440.2,343.7l-15.5,35.7c-0.9,2.2-2.9,3.6-5.2,3.7H205.2c-2.3-0.1-4.4-1.5-5.2-3.7l-15.5-35.7
			H440.2z"/>
		<path id="XMLID_8_" class="st7" d="M223.8,74.7h177.1c7.2,0,13.1,5.9,13.1,13.1v6.6c0,7.2-5.9,13.1-13.1,13.1H223.8
			c-7.2,0-13.1-5.9-13.1-13.1v-6.6C210.6,80.6,216.5,74.7,223.8,74.7z"/>
		<g id="XMLID_22_">
			<circle id="XMLID_7_" class="st8" cx="230.3" cy="297.7" r="19.7"/>
			<circle id="XMLID_6_" class="st8" cx="394.3" cy="297.7" r="19.7"/>
		</g>
		<path id="XMLID_5_" class="st9" d="M223.8,133.8h177.1c7.2,0,13.1,5.9,13.1,13.1v91.8c0,7.2-5.9,13.1-13.1,13.1H223.8
			c-7.2,0-13.1-5.9-13.1-13.1v-91.8C210.6,139.6,216.5,133.8,223.8,133.8z"/>
		<path id="XMLID_4_" class="st10" d="M289.4,310.9h45.9c7.2,0,13.1,5.9,13.1,13.1v19.7h-72.1V324
			C276.2,316.7,282.1,310.9,289.4,310.9z"/>
		<circle id="XMLID_3_" class="st5" cx="105.7" cy="120.7" r="45.9"/>
		<path id="XMLID_2_" class="st11" d="M99.1,291.2h13.1c7.2,0,13.1,5.9,13.1,13.1v124.6H86V304.3C86,297.1,91.9,291.2,99.1,291.2z"
			/>
		<path id="XMLID_15_" class="st12" d="M440.2,435.5H59.8c-3.6,0-6.6-2.9-6.6-6.6c0-3.6,2.9-6.6,6.6-6.6h380.4
			c3.6,0,6.6,2.9,6.6,6.6C446.8,432.6,443.8,435.5,440.2,435.5z"/>
	</g>
	<text id="XMLID_1_" transform="matrix(1 0 0 1 70.3098 136.4665)" class="st13 st14 st15 st16">STOP</text>
</g>
<g id="Layer_2" class="st0">
	<path id="XMLID_58_" class="st17" d="M216.2,304.7h-10h-12h-10h-61.8h-10h-12h-10c-3.1,0-5.7,2.6-5.7,5.7v77c0,3.1,2.6,5.7,5.7,5.7
		h10h12h10h61.8h10h12h10c3.2,0,5.7-2.6,5.7-5.7v-77C221.9,307.2,219.4,304.7,216.2,304.7z"/>
	<path id="XMLID_54_" class="st18" d="M104.6,387.4v-77c0-3.1,2.6-5.7,5.7-5.7h-10h-10c-3.1,0-5.7,2.6-5.7,5.7v77
		c0,3.1,2.6,5.7,5.7,5.7h10h10C107.1,393.1,104.6,390.5,104.6,387.4z"/>
	<polygon id="XMLID_46_" class="st19" points="92.2,241.5 46.3,287.5 46.3,241.5 	"/>
	<polygon id="XMLID_45_" class="st19" points="407.8,241.5 453.7,287.5 453.7,241.5 	"/>
	<polygon id="XMLID_44_" class="st20" points="92.2,62.6 46.3,108.6 46.3,62.6 	"/>
	<polygon id="XMLID_43_" class="st19" points="407.8,62.6 453.7,108.6 453.7,62.6 	"/>
	<polygon id="XMLID_42_" class="st19" points="92.2,420.3 46.3,466.3 46.3,420.3 	"/>
	<polygon id="XMLID_41_" class="st20" points="67.4,241.5 46.3,241.5 46.3,287.5 67.4,266.4 	"/>
	<polygon id="XMLID_40_" class="st20" points="67.4,62.6 46.3,62.6 46.3,108.6 67.4,87.5 	"/>
	<polygon id="XMLID_39_" class="st20" points="67.4,420.3 46.3,420.3 46.3,466.3 67.4,445.2 	"/>
	<polygon id="XMLID_38_" class="st19" points="407.8,420.3 453.7,466.3 453.7,420.3 	"/>
	<path id="XMLID_37_" class="st21" d="M177.2,370.9h-43.2c-4.2,0-7.5-3.4-7.5-7.5c0-4.2,3.4-7.5,7.5-7.5h43.2c4.2,0,7.5,3.4,7.5,7.5
		C184.8,367.5,181.4,370.9,177.2,370.9z"/>
	<polygon id="XMLID_35_" class="st22" points="99.4,214.2 35.6,214.2 35.6,242.5 99.4,242.5 360.4,242.5 388.5,242.5 403.1,242.5 
		466.9,242.5 466.9,214.2 403.1,214.2 	"/>
	<polygon id="XMLID_34_" class="st22" points="99.4,393.1 35.6,393.1 35.6,421.3 99.4,421.3 403.1,421.3 466.9,421.3 466.9,393.1 
		403.1,393.1 	"/>
	<polygon id="XMLID_33_" class="st22" points="403.1,35.4 99.4,35.4 35.6,35.4 35.6,63.6 99.4,63.6 360.4,63.6 388.5,63.6 
		403.1,63.6 466.9,63.6 466.9,35.4 	"/>
	<polygon id="XMLID_32_" class="st23" points="40.3,214.2 35.6,214.2 35.6,242.5 40.3,242.5 59.5,242.5 61.6,242.5 62.7,242.5 
		67.4,242.5 67.4,214.2 62.7,214.2 	"/>
	<polygon id="XMLID_31_" class="st23" points="40.3,393.1 35.6,393.1 35.6,421.3 40.3,421.3 62.7,421.3 67.4,421.3 67.4,393.1 
		62.7,393.1 	"/>
	<polygon id="XMLID_30_" class="st23" points="62.7,35.4 40.3,35.4 35.6,35.4 35.6,63.6 40.3,63.6 59.5,63.6 61.6,63.6 62.7,63.6 
		67.4,63.6 67.4,35.4 	"/>
	<path id="XMLID_29_" class="st24" d="M481,104.7V35.6c0-7-5.6-12.6-12.6-12.6h-3.1c-7,0-12.6,5.6-12.6,12.6v75.7v285.5v75.7
		c0,7,5.6,12.6,12.6,12.6h3.1c7,0,12.6-5.6,12.6-12.6v-75.7V130.5"/>
	<path id="XMLID_27_" class="st24" d="M19,35.6v75.7v285.5v75.7c0,7,5.6,12.6,12.6,12.6h3.1c7,0,12.6-5.6,12.6-12.6v-75.7V111.2
		V35.6c0-7-5.6-12.6-12.6-12.6h-3.1C24.6,23,19,28.6,19,35.6z"/>
	<path id="XMLID_26_" class="st25" d="M216.2,304.7h-10h-12h-10h-61.8h-10h-12h-10c-3.1,0-5.7,2.6-5.7,5.7v25.4h137.5v-25.4
		C221.9,307.2,219.4,304.7,216.2,304.7z"/>
	<path id="XMLID_25_" class="st26" d="M104.6,310.4c0-3.1,2.6-5.7,5.7-5.7h-10h-10c-3.1,0-5.7,2.6-5.7,5.7v25.4h20.1V310.4z"/>
	<rect id="XMLID_59_" x="7" y="15" class="st24" width="486" height="20.4"/>
	<path id="XMLID_100_" class="st27" d="M384.2,214.2c-0.7,0-1.3-0.6-1.3-1.3c0-0.7,0.6-1.3,1.3-1.3h0.2c8.9,0,21.2-24.2,21.2-38
		c0-3.2-0.7-5.6-2-6.9c-0.1-0.1-0.3-0.4-0.3-0.4c-0.3-0.3-0.4-0.6-0.4-1c0-0.3,0.1-0.7,0.4-0.9c0.2-0.2,0.5-0.4,0.9-0.4
		c0.3,0,0.7,0.1,0.9,0.4l0.8,0.8l0.1,0c1.4,1,3.5,1.6,6.4,1.6c4.8,0,11.3-1.5,17.8-4.2c11.8-4.9,20.3-12,20.3-17v-1.5
		c0-0.7,0.6-1.3,1.3-1.3s1.3,0.6,1.3,1.3v70H384.2z M436,201.4c-0.6,3-2,6.3-3.7,8.8l-1.1,1.6h17.3l-12.1-12.1L436,201.4z
		 M421.5,186.9c-0.4,4.9-2.4,11.1-5.4,16.6c-1,1.8-2.5,4.3-4.4,6.5l-1.5,1.7h16.7c2.5-0.2,7-8.1,7-13.2c0-1.2-0.3-1.7-0.4-1.9
		c0-0.1-0.1-0.1-10.3-10.3l-1.5-1.5L421.5,186.9z M408.1,173.7c0,10.1-6.6,27.7-15.4,36.2l-1.8,1.7h13.6c2.6,0,6.2-3.6,9.3-9.4
		c3.1-5.7,5.1-12.3,5.1-16.9c0-1.5-0.2-3.5-1.3-4.6c0,0-9.6-9.6-9.6-9.6V173.7z M448.8,193.7c-1.7,1.2-3.5,2-4.5,2.4
		c-1,0.4-2.6,1-4.3,1.4l-1.8,0.4l12.1,12.1v-17.2L448.8,193.7z M448.7,173c-2.8,2.5-6.8,4.9-11.4,6.8c-1.9,0.8-7,2.7-11.7,3.1
		l-2.2,0.2l11.8,11.8l0.1,0.1c0.4,0.2,0.9,0.3,1.7,0.3c0.9,0,3.2-0.2,6.7-1.7c3.7-1.6,6.4-3.8,6.5-5.2l0-16.8L448.7,173z M448.6,154
		c-3.9,4-10.3,8-17.6,11.1c-6.9,2.8-13.5,4.4-18.6,4.4l-2.4,0l9.8,9.8l0.1,0c0.9,0.7,2.3,1,4.2,1c3.3,0,7.7-1,12.3-2.9
		c8.1-3.4,14-8.2,14-11.6v-13.6L448.6,154z"/>
	<path id="XMLID_53_" class="st28" d="M379.9,214.2c-0.7,0-1.3-0.5-1.3-1c0-0.6,0.6-1,1.3-1h0.2c9.5,0,22.5-19.9,22.5-31.1
		c0-2.6-0.7-4.6-2.1-5.7c-0.1-0.1-0.3-0.3-0.3-0.3c-0.3-0.3-0.5-0.5-0.5-0.8c0-0.3,0.1-0.5,0.4-0.7c0.2-0.2,0.6-0.3,0.9-0.3
		c0.4,0,0.7,0.1,0.9,0.3l0.9,0.7l0.1,0c1.5,0.9,3.7,1.3,6.8,1.3c5.1,0,12-1.3,18.9-3.5c12.5-4,21.6-9.9,21.6-13.9v-1.2
		c0-0.6,0.6-1,1.3-1s1.3,0.5,1.3,1v57.3H379.9z M435,203.7c-0.7,2.5-2.2,5.2-3.9,7.2l-1.1,1.3h18.3l-12.9-9.9L435,203.7z
		 M419.5,191.9c-0.4,4-2.5,9.1-5.7,13.6c-1,1.4-2.7,3.5-4.7,5.3l-1.6,1.4h17.7c2.6-0.2,7.4-6.6,7.4-10.8c0-1-0.3-1.4-0.5-1.6
		c-0.1-0.1-0.1-0.1-10.9-8.4l-1.6-1.3L419.5,191.9z M405.3,181c0,8.3-7,22.7-16.4,29.7l-1.9,1.4h14.4c2.8,0,6.6-2.9,9.9-7.7
		c3.3-4.7,5.4-10.1,5.4-13.8c0-1.2-0.2-2.9-1.4-3.7c0,0-10.2-7.9-10.2-7.9V181z M448.5,197.4c-1.9,1-3.8,1.6-4.7,1.9
		c-1.1,0.3-2.7,0.8-4.5,1.1l-1.9,0.3l12.8,9.9v-14.1L448.5,197.4z M448.4,180.5c-2.9,2-7.2,4-12.1,5.5c-2.1,0.7-7.4,2.2-12.4,2.5
		l-2.3,0.1l12.6,9.7l0.1,0.1c0.4,0.2,1,0.3,1.8,0.3c0.9,0,3.4-0.1,7.2-1.4c3.9-1.3,6.8-3.1,6.9-4.3l0-13.7L448.4,180.5z
		 M448.3,164.9c-4.1,3.3-11,6.6-18.7,9.1c-7.3,2.3-14.3,3.6-19.8,3.6l-2.6,0l10.4,8.1l0.1,0c1,0.5,2.5,0.8,4.5,0.8
		c3.5,0,8.2-0.9,13-2.4c8.6-2.8,14.9-6.7,14.9-9.5v-11.2L448.3,164.9z"/>
	<path id="XMLID_64_" class="st29" d="M87.4,63.6c0.4,0,0.7,0.3,0.7,0.7c0,0.4-0.3,0.7-0.7,0.7h-0.1c-5.2,0-12.4,14.2-12.4,22.2
		c0,1.9,0.4,3.3,1.2,4c0,0,0.2,0.2,0.2,0.2c0.2,0.2,0.3,0.4,0.3,0.6c0,0.2-0.1,0.4-0.2,0.5c-0.1,0.1-0.3,0.2-0.5,0.2
		c-0.2,0-0.4-0.1-0.5-0.2l-0.5-0.5l0,0c-0.8-0.6-2.1-0.9-3.7-0.9c-2.8,0-6.6,0.9-10.4,2.5c-6.9,2.9-11.9,7-11.9,10v0.9
		c0,0.4-0.3,0.7-0.7,0.7c-0.4,0-0.7-0.3-0.7-0.7V63.6H87.4z M57.1,71.1c0.4-1.8,1.2-3.7,2.2-5.1l0.6-0.9H49.8l7.1,7.1L57.1,71.1z
		 M65.6,79.6c0.2-2.9,1.4-6.5,3.1-9.7c0.6-1,1.5-2.5,2.6-3.8l0.9-1h-9.8c-1.4,0.1-4.1,4.7-4.1,7.7c0,0.7,0.2,1,0.3,1.1c0,0,0,0,6,6
		l0.9,0.9L65.6,79.6z M73.4,87.3c0-5.9,3.9-16.2,9-21.2l1-1h-7.9c-1.5,0-3.6,2.1-5.5,5.5c-1.8,3.3-3,7.2-3,9.9
		c0,0.9,0.1,2.1,0.8,2.7c0,0,5.6,5.6,5.6,5.6V87.3z M49.7,75.6c1-0.7,2.1-1.2,2.6-1.4c0.6-0.2,1.5-0.6,2.5-0.8l1.1-0.2l-7.1-7.1
		v10.1L49.7,75.6z M49.7,87.7c1.6-1.4,4-2.8,6.6-4c1.1-0.5,4.1-1.6,6.8-1.8l1.3-0.1l-6.9-6.9l-0.1,0c-0.2-0.1-0.5-0.2-1-0.2
		c-0.5,0-1.9,0.1-3.9,1c-2.1,0.9-3.7,2.2-3.8,3.1l0,9.8L49.7,87.7z M49.7,98.8c2.3-2.3,6-4.7,10.3-6.5c4-1.7,7.9-2.6,10.9-2.6l1.4,0
		L66.6,84l0,0c-0.5-0.4-1.4-0.6-2.5-0.6c-2,0-4.5,0.6-7.2,1.7c-4.7,2-8.2,4.8-8.2,6.8v8L49.7,98.8z"/>
	<path id="XMLID_17_" class="st30" d="M77,63.5c0.3,0,0.5,0.2,0.5,0.5c0,0.3-0.2,0.5-0.5,0.5h-0.1c-3.9,0-9.2,10.5-9.2,16.4
		c0,1.4,0.3,2.4,0.9,3c0,0,0.1,0.2,0.1,0.2c0.1,0.1,0.2,0.3,0.2,0.4c0,0.1-0.1,0.3-0.2,0.4c-0.1,0.1-0.2,0.2-0.4,0.2
		c-0.1,0-0.3-0.1-0.4-0.2l-0.4-0.4l0,0c-0.6-0.5-1.5-0.7-2.8-0.7c-2.1,0-4.9,0.7-7.7,1.8c-5.1,2.1-8.8,5.2-8.8,7.4v0.7
		c0,0.3-0.2,0.5-0.5,0.5s-0.5-0.2-0.5-0.5V63.5H77z M54.6,69c0.3-1.3,0.9-2.7,1.6-3.8l0.5-0.7h-7.5l5.2,5.2L54.6,69z M60.9,75.3
		c0.2-2.1,1-4.8,2.3-7.2c0.4-0.8,1.1-1.9,1.9-2.8l0.6-0.7h-7.2c-1.1,0.1-3,3.5-3,5.7c0,0.5,0.1,0.7,0.2,0.8c0,0,0,0,4.4,4.5l0.7,0.7
		L60.9,75.3z M66.6,81c0-4.4,2.8-12,6.7-15.7l0.8-0.7h-5.9c-1.1,0-2.7,1.6-4,4c-1.3,2.5-2.2,5.3-2.2,7.3c0,0.6,0.1,1.5,0.6,2
		c0,0,4.1,4.2,4.1,4.2V81z M49.1,72.4c0.8-0.5,1.5-0.9,1.9-1c0.4-0.2,1.1-0.4,1.8-0.6l0.8-0.2l-5.2-5.2v7.5L49.1,72.4z M49.1,81.3
		c1.2-1.1,2.9-2.1,4.9-2.9c0.8-0.3,3-1.2,5-1.3L60,77l-5.1-5.1l0,0c-0.2-0.1-0.4-0.1-0.7-0.1c-0.4,0-1.4,0.1-2.9,0.7
		c-1.6,0.7-2.8,1.6-2.8,2.3l0,7.2L49.1,81.3z M49.1,89.5c1.7-1.7,4.5-3.5,7.6-4.8c3-1.2,5.8-1.9,8-1.9l1,0l-4.2-4.2l0,0
		c-0.4-0.3-1-0.4-1.8-0.4c-1.4,0-3.3,0.5-5.3,1.3c-3.5,1.5-6.1,3.6-6.1,5v5.9L49.1,89.5z"/>
	<g id="XMLID_18_" class="st2">
		<path id="XMLID_47_" class="st31" d="M397.2,134.5h-0.5c0.2-0.2,0.4-0.4,0.4-0.7v-0.9c0-1.3-1.1-2.4-2.4-2.4h-4.3
			c-1.4-1.1-3.3-1.9-5.3-2.1V63.6h-1.9v64.7c-2,0.2-3.8,0.9-5.3,2.1h-4.3c-1.3,0-2.4,1.1-2.4,2.4v0.9c0,0.3,0.1,0.6,0.4,0.7h-0.5
			c-1.3,0-2.4,1.1-2.4,2.4v1.3c0,0.5,0.4,1,1,1c0.1,0,0.2,0,0.3-0.1c-0.4,0.4-0.6,1-0.6,1.6v2.4c0,0.5,0.4,1,1,1s1-0.4,1-1v-2.4
			c0-0.3,0.2-0.5,0.5-0.5h3.5c0.2,0.4,0.3,0.8,0.6,1.1h-1.2c-1.3,0-2.4,1.1-2.4,2.4v3.4c0,0.5,0.4,1,1,1c0.5,0,1-0.4,1-1v-3.4
			c0-0.3,0.2-0.5,0.5-0.5h2.7c1.7,1.6,4.1,2.7,6.8,2.7c2.7,0,5.1-1,6.8-2.7h2.7c0.3,0,0.5,0.2,0.5,0.5v3.4c0,0.5,0.4,1,1,1
			c0.5,0,1-0.4,1-1v-3.4c0-1.3-1.1-2.4-2.4-2.4h-1.2c0.2-0.4,0.4-0.7,0.6-1.1h3.5c0.3,0,0.5,0.2,0.5,0.5v2.4c0,0.5,0.4,1,1,1
			c0.5,0,1-0.4,1-1v-2.4c0-0.6-0.2-1.2-0.6-1.6c0.1,0,0.2,0.1,0.3,0.1c0.5,0,1-0.4,1-1v-1.3C399.6,135.5,398.5,134.5,397.2,134.5z
			 M371.8,138.2c-0.5,0-0.9,0.1-1.3,0.4c0.1-0.1,0.1-0.3,0.1-0.5v-1.3c0-0.3,0.2-0.5,0.5-0.5h3.5c0,0.2,0,0.4,0,0.7
			c0,0.4,0,0.8,0.1,1.2H371.8z M375.1,134.5h-2.2c0.2-0.2,0.4-0.4,0.4-0.7v-0.9c0-0.3,0.2-0.5,0.5-0.5h2.5
			C375.7,133,375.3,133.7,375.1,134.5z M384.2,143.9c-4.2,0-7.6-3.1-7.6-6.9c0-3.8,3.4-6.9,7.6-6.9c4.2,0,7.6,3.1,7.6,6.9
			C391.8,140.8,388.3,143.9,384.2,143.9z M392.2,132.3h2.5c0.3,0,0.5,0.2,0.5,0.5v0.9c0,0.3,0.1,0.6,0.4,0.7h-2.2
			C393,133.7,392.6,133,392.2,132.3z M396.5,138.2h-2.9c0.1-0.4,0.1-0.8,0.1-1.2c0-0.2,0-0.4,0-0.7h3.5c0.3,0,0.5,0.2,0.5,0.5v1.3
			c0,0.2,0,0.3,0.1,0.5C397.4,138.4,397,138.2,396.5,138.2z"/>
		<path id="XMLID_23_" class="st31" d="M382,139.4c-0.2-0.2-0.4-0.3-0.7-0.3c-0.3,0-0.5,0.1-0.7,0.3c-0.2,0.2-0.3,0.4-0.3,0.7
			c0,0.2,0.1,0.5,0.3,0.7c0.2,0.2,0.4,0.3,0.7,0.3c0.3,0,0.5-0.1,0.7-0.3s0.3-0.4,0.3-0.7C382.3,139.9,382.1,139.6,382,139.4z"/>
		<path id="XMLID_19_" class="st31" d="M387.7,139.4c-0.2-0.2-0.4-0.3-0.7-0.3c-0.2,0-0.5,0.1-0.7,0.3c-0.2,0.2-0.3,0.4-0.3,0.7
			c0,0.3,0.1,0.5,0.3,0.7c0.2,0.2,0.4,0.3,0.7,0.3c0.3,0,0.5-0.1,0.7-0.3c0.2-0.2,0.3-0.4,0.3-0.7
			C388,139.9,387.9,139.6,387.7,139.4z"/>
	</g>
</g>
<g id="Layer_3" class="st0">
	<g id="XMLID_79_" class="st2">
		<polygon id="XMLID_115_" class="st32" points="28.1,170.3 250.5,19.4 472.9,170.3 472.9,480.1 28.1,480.1 		"/>
		<polygon id="XMLID_114_" class="st33" points="266.4,30.2 250.5,19.4 28.1,170.3 28.1,480.1 59.9,480.1 59.9,170.3 		"/>
		<rect id="SVGCleanerId_0" x="107.5" y="210" class="st34" width="285.9" height="270"/>
		<g id="XMLID_80_">
			<rect id="SVGCleanerId_0_1_" x="107.5" y="210" class="st34" width="285.9" height="270"/>
		</g>
		<rect id="XMLID_113_" x="107.5" y="210" class="st35" width="31.8" height="270"/>
		<rect id="XMLID_112_" x="91.7" y="178.3" class="st36" width="317.7" height="31.8"/>
		<rect id="XMLID_111_" x="107.5" y="289.5" class="st37" width="95.3" height="95.3"/>
		<rect id="XMLID_110_" x="107.5" y="289.5" class="st38" width="23.8" height="95.3"/>
		<rect id="XMLID_109_" x="139.3" y="289.5" class="st39" width="31.8" height="47.6"/>
		<rect id="XMLID_108_" x="107.5" y="384.8" class="st37" width="95.3" height="95.3"/>
		<rect id="XMLID_99_" x="107.5" y="384.8" class="st38" width="23.8" height="95.3"/>
		<rect id="XMLID_98_" x="139.3" y="384.8" class="st39" width="31.8" height="47.6"/>
		<rect id="XMLID_97_" x="202.8" y="384.8" class="st37" width="95.3" height="95.3"/>
		<rect id="XMLID_96_" x="202.8" y="384.8" class="st38" width="23.8" height="95.3"/>
		<rect id="XMLID_95_" x="234.6" y="384.8" class="st39" width="31.8" height="47.6"/>
		<path id="XMLID_116_" class="st31" d="M476.8,164.2L254.6,13.3c-2.5-1.7-5.8-1.7-8.3,0L23.7,164.2c-2,1.4-3.5,3.7-3.5,6.2v309.7
			c0,4.1,3.8,7.9,7.9,7.9h444.7c4.1,0,6.9-3.8,6.9-7.9V170.3C479.8,167.9,478.8,165.6,476.8,164.2z M98.6,203.1v-16.9h302.8v16.9
			H98.6z M146.3,297.4h16.9v32.8h-16.9V297.4z M139.3,345.1h31.8c4.1,0,6.9-3.8,6.9-7.9v-39.7h16.9v80.4h-23.8h-31.8h-24.8v-80.4
			h16.9v39.7C131.4,341.2,135.2,345.1,139.3,345.1z M146.3,392.7h16.9v32.8h-16.9V392.7z M114.5,392.7h16.9v39.7
			c0,4.1,3.8,7.9,7.9,7.9h31.8c4.1,0,6.9-3.8,6.9-7.9v-39.7h16.9v80.4h-80.4V392.7z M209.8,473.1v-80.4h16.9v39.7
			c0,4.1,3.8,7.9,7.9,7.9h31.8c4.1,0,6.9-3.8,6.9-7.9v-39.7h16.9v80.4H209.8z M241.6,392.7h16.9v32.8h-16.9V392.7z M464.9,473.1
			h-64.5V313.3c0-4.1-3.3-7.4-7.4-7.4c-4.1,0-7.4,3.3-7.4,7.4v159.8h-80.4v-88.4c0-4.1-2.8-6.9-6.9-6.9h-88.4v-88.4
			c0-4.1-2.8-6.9-6.9-6.9h-88.4V218h271v63.5c0,4.1,3.3,7.4,7.4,7.4c4.1,0,7.4-3.3,7.4-7.4V218h8.9c4.1,0,6.9-3.8,6.9-7.9v-31.8
			c0-4.1-2.8-6.9-6.9-6.9H91.7c-4.1,0-7.9,2.8-7.9,6.9V210c0,4.1,3.8,7.9,7.9,7.9h7.9v255.1H35.1V174.3L250,28.4l214.9,145.8V473.1z
			"/>
		<path id="XMLID_85_" class="st40" d="M211.3,83.5c0,4.1,3.3,7.4,7.4,7.4h63.5c4.1,0,7.4-3.3,7.4-7.4c0-4.1-3.3-7.4-7.4-7.4h-63.5
			C214.6,76,211.3,79.4,211.3,83.5z"/>
		<path id="XMLID_84_" class="st40" d="M282.3,107.8h-63.5c-4.1,0-7.4,3.3-7.4,7.4s3.3,7.4,7.4,7.4h63.5c4.1,0,7.4-3.3,7.4-7.4
			S286.4,107.8,282.3,107.8z"/>
		<path id="XMLID_83_" class="st40" d="M282.3,139.6h-63.5c-4.1,0-7.4,3.3-7.4,7.4c0,4.1,3.3,7.4,7.4,7.4h63.5
			c4.1,0,7.4-3.3,7.4-7.4C289.7,142.9,286.4,139.6,282.3,139.6z"/>
		<path id="XMLID_82_" class="st41" d="M139.3,368.9h31.8c4.1,0,7.4-3.3,7.4-7.4s-3.3-7.4-7.4-7.4h-31.8c-4.1,0-7.4,3.3-7.4,7.4
			S135.2,368.9,139.3,368.9z"/>
		<path id="XMLID_81_" class="st41" d="M171.1,449.3h-31.8c-4.1,0-7.4,3.3-7.4,7.4c0,4.1,3.3,7.4,7.4,7.4h31.8
			c4.1,0,7.4-3.3,7.4-7.4C178.5,452.6,175.2,449.3,171.1,449.3z"/>
		<path id="XMLID_117_" class="st41" d="M266.4,449.3h-31.8c-4.1,0-7.4,3.3-7.4,7.4c0,4.1,3.3,7.4,7.4,7.4h31.8
			c4.1,0,7.4-3.3,7.4-7.4C273.8,452.6,270.5,449.3,266.4,449.3z"/>
	</g>
	<g id="XMLID_118_" class="st2">
		<rect id="XMLID_123_" x="300.9" y="217.5" class="st31" width="1.2" height="44.3"/>
		<path id="XMLID_126_" class="st31" d="M306.7,262.8h-3.5c-0.3,0-0.5-0.2-0.5-0.5V262c0-0.3,0.2-0.5,0.5-0.5h3.5
			c0.3,0,0.5,0.2,0.5,0.5v0.3C307.1,262.6,306.9,262.8,306.7,262.8z"/>
		<g id="XMLID_130_">
			<path id="XMLID_133_" class="st31" d="M306.3,263.4c-0.3,0-0.5-0.2-0.5-0.5v-0.5c0-0.3,0.2-0.5,0.5-0.5s0.5,0.2,0.5,0.5v0.5
				C306.9,263.2,306.6,263.4,306.3,263.4z"/>
			<path id="XMLID_132_" class="st31" d="M306.3,318.6c-0.3,0-0.5-0.2-0.5-0.5v-1c0-0.3,0.2-0.5,0.4-0.5c-0.2,0-0.4-0.3-0.4-0.5v-1
				c0-0.3,0.2-0.5,0.4-0.5c-0.2,0-0.4-0.3-0.4-0.5v-1c0-0.3,0.2-0.5,0.4-0.5c-0.2,0-0.4-0.3-0.4-0.5v-1c0-0.3,0.2-0.5,0.4-0.5
				c-0.2,0-0.4-0.3-0.4-0.5v-1c0-0.3,0.2-0.5,0.4-0.5c-0.2,0-0.4-0.3-0.4-0.5v-1c0-0.3,0.2-0.5,0.4-0.5c-0.2,0-0.4-0.3-0.4-0.5v-1
				c0-0.3,0.2-0.5,0.4-0.5c-0.2,0-0.4-0.3-0.4-0.5v-1c0-0.3,0.2-0.5,0.4-0.5c-0.2,0-0.4-0.3-0.4-0.5v-1c0-0.3,0.2-0.5,0.4-0.5
				c-0.2,0-0.4-0.3-0.4-0.5v-1c0-0.3,0.2-0.5,0.4-0.5c-0.2,0-0.4-0.3-0.4-0.5v-1c0-0.3,0.2-0.5,0.4-0.5c-0.2,0-0.4-0.3-0.4-0.5v-1
				c0-0.3,0.2-0.5,0.4-0.5c-0.2,0-0.4-0.3-0.4-0.5v-1c0-0.3,0.2-0.5,0.4-0.5c-0.2,0-0.4-0.3-0.4-0.5v-1c0-0.3,0.2-0.5,0.4-0.5
				c-0.2,0-0.4-0.3-0.4-0.5v-1c0-0.3,0.2-0.5,0.4-0.5c-0.2,0-0.4-0.3-0.4-0.5v-1c0-0.3,0.2-0.5,0.4-0.5c-0.2,0-0.4-0.3-0.4-0.5v-1
				c0-0.3,0.2-0.5,0.4-0.5c-0.2,0-0.4-0.3-0.4-0.5v-1c0-0.3,0.2-0.5,0.4-0.5c-0.2,0-0.4-0.3-0.4-0.5v-1c0-0.3,0.2-0.5,0.4-0.5
				c-0.2,0-0.4-0.3-0.4-0.5v-1c0-0.3,0.2-0.5,0.4-0.5c-0.2,0-0.4-0.3-0.4-0.5v-1c0-0.3,0.2-0.5,0.4-0.5c-0.2,0-0.4-0.3-0.4-0.5v-1
				c0-0.3,0.2-0.5,0.4-0.5c-0.2,0-0.4-0.3-0.4-0.5v-1c0-0.3,0.2-0.5,0.4-0.5c-0.2,0-0.4-0.3-0.4-0.5v-1c0-0.3,0.2-0.5,0.4-0.5
				c-0.2,0-0.4-0.3-0.4-0.5v-1c0-0.3,0.2-0.5,0.4-0.5c-0.2,0-0.4-0.3-0.4-0.5v-1c0-0.3,0.2-0.5,0.4-0.5c-0.2,0-0.4-0.3-0.4-0.5v-1
				c0-0.3,0.2-0.5,0.5-0.5s0.5,0.2,0.5,0.5v1c0,0.3-0.2,0.5-0.4,0.5c0.2,0,0.4,0.3,0.4,0.5v1c0,0.3-0.2,0.5-0.4,0.5
				c0.2,0,0.4,0.3,0.4,0.5v1c0,0.3-0.2,0.5-0.4,0.5c0.2,0,0.4,0.3,0.4,0.5v1c0,0.3-0.2,0.5-0.4,0.5c0.2,0,0.4,0.3,0.4,0.5v1
				c0,0.3-0.2,0.5-0.4,0.5c0.2,0,0.4,0.3,0.4,0.5v1c0,0.3-0.2,0.5-0.4,0.5c0.2,0,0.4,0.3,0.4,0.5v1c0,0.3-0.2,0.5-0.4,0.5
				c0.2,0,0.4,0.3,0.4,0.5v1c0,0.3-0.2,0.5-0.4,0.5c0.2,0,0.4,0.3,0.4,0.5v1c0,0.3-0.2,0.5-0.4,0.5c0.2,0,0.4,0.3,0.4,0.5v1
				c0,0.3-0.2,0.5-0.4,0.5c0.2,0,0.4,0.3,0.4,0.5v1c0,0.3-0.2,0.5-0.4,0.5c0.2,0,0.4,0.3,0.4,0.5v1c0,0.3-0.2,0.5-0.4,0.5
				c0.2,0,0.4,0.3,0.4,0.5v1c0,0.3-0.2,0.5-0.4,0.5c0.2,0,0.4,0.3,0.4,0.5v1c0,0.3-0.2,0.5-0.4,0.5c0.2,0,0.4,0.3,0.4,0.5v1
				c0,0.3-0.2,0.5-0.4,0.5c0.2,0,0.4,0.3,0.4,0.5v1c0,0.3-0.2,0.5-0.4,0.5c0.2,0,0.4,0.3,0.4,0.5v1c0,0.3-0.2,0.5-0.4,0.5
				c0.2,0,0.4,0.3,0.4,0.5v1c0,0.3-0.2,0.5-0.4,0.5c0.2,0,0.4,0.3,0.4,0.5v1c0,0.3-0.2,0.5-0.4,0.5c0.2,0,0.4,0.3,0.4,0.5v1
				c0,0.3-0.2,0.5-0.4,0.5c0.2,0,0.4,0.3,0.4,0.5v1c0,0.3-0.2,0.5-0.4,0.5c0.2,0,0.4,0.3,0.4,0.5v1c0,0.3-0.2,0.5-0.4,0.5
				c0.2,0,0.4,0.3,0.4,0.5v1c0,0.3-0.2,0.5-0.4,0.5c0.2,0,0.4,0.3,0.4,0.5v1c0,0.3-0.2,0.5-0.4,0.5c0.2,0,0.4,0.3,0.4,0.5v1
				c0,0.3-0.2,0.5-0.4,0.5c0.2,0,0.4,0.3,0.4,0.5v1c0,0.3-0.2,0.5-0.4,0.5c0.2,0,0.4,0.3,0.4,0.5v1
				C306.9,318.3,306.6,318.6,306.3,318.6z"/>
			<path id="XMLID_135_" class="st31" d="M306.3,320.1c-0.3,0-0.5-0.2-0.5-0.5v-0.5c0-0.3,0.2-0.5,0.5-0.5s0.5,0.2,0.5,0.5v0.5
				C306.9,319.9,306.6,320.1,306.3,320.1z"/>
		</g>
		<g id="XMLID_119_">
			<path id="XMLID_122_" class="st42" d="M298,267.5c-0.4,1.3-1.1,2.4-2.1,3.3c-1.9,1.6-3.1,3.9-3.1,6.6c0,4.9,4.1,8.9,9.1,8.6
				c4.4-0.2,8.1-3.9,8.2-8.4c0.1-2.8-1.1-5.2-3.1-6.8c-1.1-0.9-1.8-2-2.2-3.3H298L298,267.5z"/>
			<path id="XMLID_121_" class="st43" d="M302.3,267.4h-0.6l2.5,9.3c-0.1,0-0.1,0-0.2,0c-0.3,0-0.6,0.1-0.9,0.4
				c-0.1,0.1-0.3,0.2-0.4,0.2c-0.2,0-0.3-0.1-0.4-0.2c-0.4-0.5-1.2-0.5-1.6,0c-0.1,0.1-0.3,0.2-0.4,0.2c-0.1,0-0.3-0.1-0.4-0.2
				c-0.3-0.3-0.5-0.4-0.9-0.4c-0.1,0-0.1,0-0.2,0l2.4-9.3h-0.6l-2.6,9.8c0,0.1,0,0.3,0.1,0.3c0.1,0.1,0.3,0,0.3-0.1
				c0.1-0.1,0.3-0.2,0.4-0.2c0.2,0,0.3,0.1,0.5,0.2c0.3,0.3,0.5,0.4,0.8,0.4c0.3,0,0.6-0.1,0.8-0.4c0.3-0.3,0.6-0.3,0.9,0
				c0.2,0.3,0.5,0.4,0.8,0.4l0,0c0.3,0,0.6-0.1,0.8-0.4c0.1-0.1,0.3-0.2,0.5-0.2c0.1,0,0.3,0.1,0.4,0.2c0.1,0.1,0.2,0.1,0.3,0.1
				c0.1-0.1,0.2-0.2,0.1-0.3L302.3,267.4z"/>
			<g id="XMLID_128_">
				<path id="XMLID_124_" class="st31" d="M303.4,261.8c-0.3-0.8-1.1-1.3-1.9-1.3c-0.9,0-1.6,0.6-1.9,1.3H303.4z"/>
				<path id="XMLID_125_" class="st31" d="M299.1,261.7h4.6c0.6,0,1.1,0.5,1.1,1.1v4.8H298v-4.8C298,262.2,298.5,261.7,299.1,261.7z
					"/>
			</g>
			<g id="XMLID_120_">
				<path id="XMLID_127_" class="st44" d="M298.1,265.2h6.8c0.4,0,0.7,0.3,0.7,0.7l0,0c0,0.4-0.3,0.7-0.7,0.7h-6.8
					c-0.4,0-0.7-0.3-0.7-0.7l0,0C297.4,265.5,297.7,265.2,298.1,265.2z"/>
				<path id="XMLID_129_" class="st44" d="M298.1,263h6.8c0.4,0,0.7,0.3,0.7,0.7l0,0c0,0.4-0.3,0.7-0.7,0.7h-6.8
					c-0.4,0-0.7-0.3-0.7-0.7l0,0C297.4,263.4,297.7,263,298.1,263z"/>
			</g>
		</g>
		<ellipse id="XMLID_131_" class="st44" cx="306.3" cy="319.8" rx="0.8" ry="1.3"/>
	</g>
</g>
<g id="Layer_4" class="st0">
	<g class="st2">
		<path id="XMLID_136_" class="st45" d="M489,250c0,132-107,239-239,239S11,382,11,250S118,11,250,11S489,118,489,250L489,250z
			 M489,250"/>
		<path id="XMLID_137_" class="st46" d="M335,473.4C308.6,483.5,280,489,250,489c-30,0-58.6-5.5-85-15.6l19.5-56.6l15.7-45.6h99.5
			l15.7,45.6L335,473.4z M335,473.4"/>
		<path id="XMLID_138_" class="st47" d="M315.5,416.8l-144.7,39.6l29.4-85.2h99.5L315.5,416.8z M315.5,416.8"/>
		<path id="XMLID_139_" class="st46" d="M479.7,85.8v230.3c-7.8,27.2-20.3,52.3-36.5,74.6H56.8c-16.2-22.3-28.7-47.4-36.5-74.6V85.8
			c0-15.8,12.8-28.7,28.7-28.7H451C466.9,57.1,479.7,70,479.7,85.8L479.7,85.8z M479.7,85.8"/>
		<g id="XMLID_140_">
			<defs>
				<rect id="XMLID_165_" x="11" y="11" width="478" height="478"/>
			</defs>
			<clipPath id="XMLID_609_">
				<use xlink:href="#XMLID_165_"  style="overflow:visible;"/>
			</clipPath>
			<path id="XMLID_141_" class="st48" d="M49,331.6c-5.1,0-9.2-4.1-9.2-9.2V85.8c0-5.1,4.1-9.2,9.2-9.2H451c5.1,0,9.2,4.1,9.2,9.2
				v236.7c0,5.1-4.1,9.2-9.2,9.2H49z M49,331.6"/>
			<path id="XMLID_142_" class="st49" d="M179.3,66.2c-1.6-72.8-110.9-72.8-112.4,0c0,0.8,0,1.6,0,2.4c0,41.2,22.7,77,56.2,95.8
				c33.5-18.8,56.2-54.6,56.2-95.8C179.3,67.8,179.3,67,179.3,66.2L179.3,66.2z M179.3,66.2"/>
		</g>
		<path id="XMLID_143_" class="st50" d="M123.1,164.4c-33.5-18.8-56.2-54.6-56.2-95.8c0-0.8,0-1.6,0-2.4
			c0.8-36.2,28.2-54.4,55.7-54.6c-20.6,0.3-41.1,18.5-41.7,54.6c0,0.8,0,1.6,0,2.4C80.9,109.8,97.9,145.7,123.1,164.4L123.1,164.4z
			 M123.1,164.4"/>
		<path id="XMLID_144_" class="st51" d="M123.2,99.6c-7.2,0-13.9-2.5-19.2-6.7c-3.7-3-6.7-6.8-8.8-11.1c-1-2.1-1.7-4.4-2.2-6.7
			c0,0,0,0,0,0c-0.4-2-0.6-4.1-0.6-6.3c0-17,13.8-30.8,30.8-30.8c9.1,0,17.3,4,23,10.3c1.1,1.2,2,2.5,2.9,3.8
			c3.1,4.8,4.9,10.5,4.9,16.7c0,0.3,0,0.5,0,0.8C153.6,86.3,139.9,99.6,123.2,99.6L123.2,99.6z M123.2,99.6"/>
		<path id="XMLID_145_" class="st52" d="M123.2,99.6c-7.2,0-13.9-2.5-19.2-6.7c-3.7-3-6.7-6.8-8.8-11.1c-1-2.1-1.7-4.4-2.2-6.7
			c0,0,0,0,0,0c-0.4-2-0.6-4.1-0.6-6.3c0-17,13.8-30.8,30.8-30.8c1.6,0,3.2,0.1,4.8,0.4c-14.7,2.3-26,15-26,30.4
			c0,2.2,0.2,4.3,0.6,6.3v0c0.5,2.3,1.2,4.6,2.2,6.7c2,4.3,5,8.1,8.8,11.1c4.1,3.2,9,5.5,14.4,6.3C126.5,99.5,124.8,99.6,123.2,99.6
			L123.2,99.6z M123.2,99.6"/>
		<rect id="XMLID_158_" x="316.4" y="195" class="st45" width="115" height="115"/>
		<rect id="XMLID_157_" x="316.4" y="297.6" class="st53" width="115" height="12.4"/>
		<rect id="XMLID_156_" x="316.4" y="195" class="st53" width="8.4" height="115"/>
		<path id="XMLID_146_" class="st53" d="M391.8,251h-35.7c-4.7,0-8.5-3.8-8.5-8.5c0-4.7,3.8-8.5,8.5-8.5h35.7c4.7,0,8.5,3.8,8.5,8.5
			C400.3,247.2,396.5,251,391.8,251L391.8,251z M391.8,251"/>
		<path id="XMLID_147_" class="st54" d="M389.3,230l-15.4-9.1l-15.4,9.1V195h30.8V230z M389.3,230"/>
		<rect id="XMLID_151_" x="283.5" y="281.2" class="st51" width="14.6" height="9.8"/>
		<path id="XMLID_148_" class="st51" d="M263.9,290.9h-29.3v-9.8h29.3V290.9z M215,290.9h-26.8c-0.9,0-1.8,0-2.7-0.1l0.4-9.7
			c0.8,0,1.5,0,2.3,0H215V290.9z M164.9,286.5c-9.8-3.9-18.7-10.2-25.5-18.4l7.5-6.3c5.8,6.9,13.3,12.3,21.6,15.6L164.9,286.5z
			 M128.7,250c-2.8-7.3-4.2-14.9-4.2-22.8c0-2.8,0.2-5.6,0.5-8.4l9.7,1.3c-0.3,2.3-0.5,4.8-0.5,7.1c0,6.7,1.2,13.2,3.6,19.3
			L128.7,250z M140,203l-8.7-4.4c4.8-9.5,11.9-17.7,20.6-23.7l5.6,8C150,188,144,195,140,203L140,203z M173.5,175.2l-2.6-9.4
			c5.6-1.6,11.4-2.4,17.3-2.4h13.1v9.8h-13.1c0,0,0,0,0,0C183.2,173.2,178.3,173.9,173.5,175.2L173.5,175.2z M348,173.2h-29.3v-9.8
			H348V173.2z M299.1,173.2h-29.3v-9.8h29.3V173.2z M250.2,173.2h-29.3v-9.8h29.3V173.2z M368.8,171.6l-2.8-9.3
			c8-2.4,14.5-8.6,17.3-16.5l9.2,3.3C388.6,159.9,379.8,168.3,368.8,171.6L368.8,171.6z M384,129.6c-2.2-8.1-8.3-14.7-16.1-17.7
			l3.5-9.1c10.7,4.1,18.9,13.2,22,24.2L384,129.6z M350.4,110.1H321v-9.8h29.3V110.1z M301.5,110.1h-29.3v-9.8h29.3V110.1z
			 M252.6,110.1h-29.3v-9.8h29.3V110.1z M252.6,110.1"/>
		<rect id="XMLID_191_" x="188.9" y="100.4" class="st51" width="14.6" height="9.8"/>
	</g>
</g>
<g id="Layer_5" class="st0">
	<rect id="XMLID_221_" x="-9.5" class="st55" width="519.1" height="500"/>
	<g class="st2">
		<path id="XMLID_236_" class="st32" d="M394.4,250c0,79.8-64.7,144.4-144.4,144.4S105.6,329.8,105.6,250S170.2,105.6,250,105.6
			S394.4,170.2,394.4,250L394.4,250z M394.4,250"/>
		<path id="XMLID_235_" class="st56" d="M378.7,186.5l-12.9,19.3l12.9,12.9v96.9c-10.3,20.3-25.3,37.8-43.6,51.1
			c-23.9,17.5-53.3,27.8-85.1,27.8s-61.3-10.3-85.1-27.8c-9.1-6.7-17.4-14.4-24.7-22.9c-7.3-8.6-13.7-18-18.8-28.2V137h192.1l7.3,14
			l26.1-14h9.9l-1.5,34.3l23.5-1.8V186.5z M378.7,186.5"/>
		<path id="XMLID_234_" class="st57" d="M335.1,366.6c-23.9,17.5-53.3,27.8-85.1,27.8s-61.3-10.3-85.1-27.8H335.1z M335.1,366.6"/>
		<path id="XMLID_233_" class="st57" d="M140.1,137v206.7c-7.3-8.6-13.7-18-18.8-28.2V137H140.1z M140.1,137"/>
		<path id="XMLID_232_" class="st58" d="M284.5,180.5L250,160l-34.5,20.5V137h69V180.5z M284.5,180.5"/>
		<path id="XMLID_231_" class="st56" d="M378.7,186.5l-12.9,19.3l12.9,12.9v72L295.1,137l12-12l6.3,12l7.3,14l26.1-14l10.2-5.5
			l-0.2,5.5l-1.5,34.3l23.5-1.8l11.9-0.9L378.7,186.5z M378.7,186.5"/>
		<path id="XMLID_230_" class="st57" d="M307.1,125l-12.3,35.2l0.3-23.2L307.1,125z M307.1,125"/>
		<path id="XMLID_229_" class="st57" d="M357,131.5l-43.7,65.2l-3.1-11.8l-13,0.8l23.6-34.7L357,131.5z M357,131.5"/>
		<path id="XMLID_228_" class="st57" d="M390.6,168.7l-77.3,28.1l42-25.4L390.6,168.7z M390.6,168.7"/>
		<path id="XMLID_227_" class="st57" d="M378.7,218.7l-22.2,2l9.3-14.9L378.7,218.7z M378.7,218.7"/>
		<path id="XMLID_226_" class="st57" d="M307.5,223.5l37.1-17.7l-16.8,25.6L307.5,223.5z M307.5,223.5"/>
		<path id="XMLID_225_" class="st58" d="M288.1,225.5l13.8,13.8l-90,90l-13.8-13.8L288.1,225.5z M288.1,225.5"/>
		<path id="XMLID_224_" class="st58" d="M301.9,315.5l-13.8,13.8l-90-90l13.8-13.8L301.9,315.5z M301.9,315.5"/>
		<path id="XMLID_223_" class="st56" d="M366.7,152.7l20.3-30.1l7.4,20.3L366.7,152.7z M366.7,152.7"/>
		<path id="XMLID_192_" class="st56" d="M321.6,105.6l0.9,29.5l20.8-20.8L321.6,105.6z M321.6,105.6"/>
	</g>
</g>
<g id="PENDIENTE" class="st0">
	<g id="XMLID_341_" class="st2">
		<path id="XMLID_384_" class="st59" d="M445.8,34c0,7.4-6.1,13.5-13.5,13.5c-7.4,0-13.5-6.1-13.5-13.5h-20.3
			c0,7.4-6.1,13.5-13.5,13.5c-7.4,0-13.5-6.1-13.5-13.5h-20.3c0,7.4-6.1,13.5-13.5,13.5c-7.4,0-13.5-6.1-13.5-13.5H304
			c0,29.7-24.3,54-54,54c-29.7,0-54-24.3-54-54h-20.3c0,7.4-6.1,13.5-13.5,13.5c-7.4,0-13.5-6.1-13.5-13.5h-20.2
			c0,7.4-6.1,13.5-13.5,13.5c-7.4,0-13.5-6.1-13.5-13.5H81.2c0,7.4-6.1,13.5-13.5,13.5c-7.4,0-13.5-6.1-13.5-13.5H34v418.5
			c0,7.4,6.1,13.5,13.5,13.5h405c7.4,0,13.5-6.1,13.5-13.5V34H445.8z M445.8,34"/>
		<path id="XMLID_381_" class="st60" d="M405.3,209.5H94.8c-7.4,0-13.5,6.1-13.5,13.5v243h13.5V229.8c0-3.7,3-6.8,6.7-6.8h297
			c3.7,0,6.8,3,6.8,6.8V466h13.5V223C418.8,215.6,412.7,209.5,405.3,209.5L405.3,209.5z M405.3,209.5"/>
		<path id="XMLID_375_" class="st61" d="M167.3,419.3l-4.9-0.8l-2.2-4.6c-0.3-0.4-0.7-0.7-1.2-0.7c-0.5,0-1,0.3-1.2,0.8l-2.2,4.6
			l-4.9,0.8c-0.5,0.1-1,0.4-1.1,1c-0.1,0.5,0,1.1,0.3,1.4l3.7,3.7l-0.8,5.2c-0.1,0.5,0.1,1.1,0.5,1.4c0.3,0.1,0.5,0.3,0.8,0.3
			c0.3,0,0.4,0,0.7-0.1l4.4-2.5l4.4,2.5c0.3,0.1,0.4,0.1,0.7,0.1c0.3,0,0.5-0.1,0.8-0.3c0.4-0.3,0.7-0.8,0.5-1.4l-1.1-5.2l3.7-3.8
			c0.4-0.4,0.5-1,0.3-1.4C168.2,419.8,167.8,419.4,167.3,419.3L167.3,419.3z M231.7,417.8l-7.1-1.2l-3.2-6.7c-0.4-0.6-1-1-1.8-1
			c-0.8,0-1.4,0.4-1.8,1.2l-3.2,6.7l-7.1,1.2c-0.8,0.2-1.4,0.6-1.6,1.4c-0.2,0.8,0,1.6,0.4,2l5.3,5.3l-1.2,7.5
			c-0.2,0.8,0.2,1.6,0.8,2c0.4,0.2,0.8,0.4,1.2,0.4c0.4,0,0.6,0,1-0.2l6.3-3.5l6.3,3.5c0.4,0.2,0.6,0.2,1,0.2c0.4,0,0.8-0.2,1.2-0.4
			c0.6-0.4,1-1.2,0.8-2l-1.6-7.5l5.3-5.5c0.6-0.6,0.8-1.4,0.4-2C233.1,418.6,232.5,418,231.7,417.8L231.7,417.8z M294.8,416.8
			l-8.5-1.4l-3.8-8c-0.5-0.7-1.2-1.2-2.1-1.2c-0.9,0-1.7,0.5-2.1,1.4l-3.8,8L266,417c-0.9,0.2-1.7,0.7-1.9,1.7
			c-0.2,0.9,0,1.9,0.5,2.4l6.4,6.4l-1.4,9c-0.2,0.9,0.2,1.9,0.9,2.4c0.5,0.2,0.9,0.5,1.4,0.5c0.5,0,0.7,0,1.2-0.2l7.6-4.3l7.6,4.3
			c0.5,0.2,0.7,0.2,1.2,0.2c0.5,0,0.9-0.2,1.4-0.5c0.7-0.5,1.2-1.4,0.9-2.4l-1.9-9l6.4-6.6c0.7-0.7,0.9-1.7,0.5-2.4
			C296.5,417.7,295.8,417,294.8,416.8L294.8,416.8z M360.7,417.6c-0.3-1.1-1.1-1.7-2.3-2l-10.2-1.7l-4.5-9.6
			c-0.6-0.9-1.4-1.4-2.6-1.4c-1.1,0-2,0.6-2.6,1.7l-4.5,9.6l-10.2,1.7c-1.1,0.3-2,0.9-2.3,2c-0.3,1.1,0,2.3,0.6,2.8l7.7,7.7
			l-1.7,10.8c-0.3,1.1,0.3,2.3,1.1,2.8c0.6,0.3,1.1,0.6,1.7,0.6c0.6,0,0.9,0,1.4-0.3l9.1-5.1l9.1,5.1c0.6,0.3,0.9,0.3,1.4,0.3
			c0.6,0,1.1-0.3,1.7-0.6c0.9-0.6,1.4-1.7,1.1-2.8l-2.3-10.8l7.7-7.9C361,419.9,361.3,418.7,360.7,417.6L360.7,417.6z M364.4,416.6"
			/>
		<path id="XMLID_367_" class="st60" d="M229.8,142h-27c-3.7,0-6.7,3-6.7,6.7c0,3.7,3,6.8,6.7,6.8h27c3.7,0,6.7-3,6.7-6.8
			C236.5,145,233.5,142,229.8,142L229.8,142z M297.3,142h-27c-3.7,0-6.7,3-6.7,6.7c0,3.7,3,6.8,6.7,6.8h27c3.7,0,6.7-3,6.7-6.8
			C304,145,301,142,297.3,142L297.3,142z M364.7,142h-27c-3.7,0-6.8,3-6.8,6.7c0,3.7,3,6.8,6.8,6.8h27c3.7,0,6.8-3,6.8-6.8
			C371.5,145,368.5,142,364.7,142L364.7,142z M432.2,142h-27c-3.7,0-6.8,3-6.8,6.7c0,3.7,3,6.8,6.8,6.8h27c3.7,0,6.8-3,6.8-6.8
			C439,145,436,142,432.2,142L432.2,142z M162.3,142h-27c-3.7,0-6.7,3-6.7,6.7c0,3.7,3,6.8,6.7,6.8h27c3.7,0,6.7-3,6.7-6.8
			C169,145,166,142,162.3,142L162.3,142z M94.8,142h-27c-3.7,0-6.7,3-6.7,6.7c0,3.7,3,6.8,6.7,6.8h27c3.7,0,6.7-3,6.7-6.8
			C101.5,145,98.5,142,94.8,142L94.8,142z M94.8,142"/>
		<g id="XMLID_342_">
			<polygon id="XMLID_366_" class="st62" points="197.5,276.7 203.7,276.7 203.7,313.8 209.9,313.8 209.9,276.7 216,276.7 
				216,311.3 222.2,311.3 222.2,276.7 228.4,276.7 228.4,309.7 234.6,309.7 234.6,276.7 240.7,276.7 240.7,305.3 246.9,305.3 
				246.9,276.7 253.1,276.7 253.1,287.3 259.3,287.3 259.3,276.7 265.4,276.7 265.4,296.7 271.6,296.7 271.6,276.7 277.8,276.7 
				277.8,292.8 284,292.8 284,276.7 290.1,276.7 290.1,287.3 296.3,287.3 296.3,276.7 302.5,276.7 302.5,290.7 308.6,290.7 
				308.6,270.5 191.4,270.5 191.4,324.2 197.5,324.2 			"/>
			<path id="XMLID_363_" class="st62" d="M166.7,261.3v105c0,5.1,4.2,9.3,9.3,9.3h148.2c5.1,0,9.3-4.2,9.3-9.3v-105
				c0-5.1-4.2-9.3-9.3-9.3H175.9C170.8,252,166.7,256.2,166.7,261.3z M327.2,261.3v105c0,1.7-1.4,3.1-3.1,3.1H175.9
				c-1.7,0-3.1-1.4-3.1-3.1v-105c0-1.7,1.4-3.1,3.1-3.1h148.2C325.8,258.2,327.2,259.6,327.2,261.3z"/>
			<path id="XMLID_362_" class="st62" d="M324.1,239.7h-18.5v6.2h18.5c8.5,0,15.4,6.9,15.4,15.4v18.5h6.2v-18.5
				C345.7,249.4,336,239.7,324.1,239.7z"/>
			<path id="XMLID_361_" class="st62" d="M160.5,261.3c0-8.5,6.9-15.4,15.4-15.4h18.5v-6.2h-18.5c-11.9,0-21.6,9.7-21.6,21.6v18.5
				h6.2V261.3z"/>
			<path id="XMLID_360_" class="st62" d="M160.5,366.2v-18.5h-6.2v18.5c0,11.9,9.7,21.6,21.6,21.6h18.5v-6.2h-18.5
				C167.4,381.7,160.5,374.7,160.5,366.2z"/>
			<path id="XMLID_359_" class="st62" d="M339.5,366.2c0,8.5-6.9,15.4-15.4,15.4h-18.5v6.2h18.5c11.9,0,21.6-9.7,21.6-21.6v-18.5
				h-6.2V366.2z"/>
		</g>
	</g>
	<g id="XMLID_250_" class="st2">
		<path id="XMLID_338_" class="st63" d="M490.4,107.9c0,55-44.6,99.6-99.6,99.6c-55,0-99.6-44.6-99.6-99.6c0-55,44.6-99.6,99.6-99.6
			C445.8,8.3,490.4,52.9,490.4,107.9L490.4,107.9z M490.4,107.9"/>
	</g>
	<g id="XMLID_330_" class="st2">
		<path id="XMLID_455_" class="st64" d="M358.9,133.7c-3.1,0-5.7,1.1-7.8,3.2c-2.1,2.1-3.2,4.8-3.2,7.8c0,3.1,1.1,5.7,3.2,7.8
			c2.2,2.1,4.8,3.2,7.8,3.2c3,0,5.6-1.1,7.8-3.2c2.2-2.1,3.3-4.8,3.3-7.8c0-3.1-1.1-5.7-3.3-7.8
			C364.5,134.8,361.9,133.7,358.9,133.7L358.9,133.7z M358.9,133.7"/>
		<path id="XMLID_452_" class="st64" d="M356.4,110.4c0-3.4-1.2-6.3-3.6-8.7c-2.4-2.4-5.3-3.6-8.7-3.6c-3.4,0-6.3,1.2-8.7,3.6
			c-2.4,2.4-3.6,5.3-3.6,8.7c0,3.4,1.2,6.3,3.6,8.7c2.4,2.4,5.3,3.6,8.7,3.6c3.4,0,6.3-1.2,8.7-3.6
			C355.2,116.6,356.4,113.7,356.4,110.4L356.4,110.4z M356.4,110.4"/>
		<path id="XMLID_449_" class="st64" d="M427.6,82.1c1.7,0,3.1-0.6,4.3-1.8c1.2-1.2,1.8-2.6,1.8-4.3c0-1.7-0.6-3.1-1.8-4.3
			c-1.2-1.2-2.6-1.8-4.3-1.8c-1.7,0-3.1,0.6-4.3,1.8c-1.2,1.2-1.8,2.6-1.8,4.3c0,1.7,0.6,3.1,1.8,4.3
			C424.5,81.5,425.9,82.1,427.6,82.1L427.6,82.1z M427.6,82.1"/>
		<path id="XMLID_446_" class="st64" d="M358.9,62.5c-3.7,0-6.9,1.3-9.6,4c-2.6,2.6-4,5.8-4,9.6c0,3.7,1.3,6.9,4,9.6
			c2.6,2.6,5.8,4,9.6,4c3.7,0,6.9-1.3,9.6-4c2.6-2.6,4-5.8,4-9.6c0-3.7-1.3-6.9-4-9.6C365.8,63.8,362.6,62.5,358.9,62.5L358.9,62.5z
			 M358.9,62.5"/>
		<path id="XMLID_443_" class="st64" d="M447.6,105.1c-1.4-1.4-3.2-2.1-5.2-2.1c-2,0-3.8,0.7-5.2,2.1c-1.4,1.4-2.1,3.2-2.1,5.2
			c0,2,0.7,3.8,2.1,5.2c1.4,1.4,3.2,2.1,5.2,2.1c2,0,3.8-0.7,5.2-2.1c1.4-1.4,2.1-3.2,2.1-5.2C449.7,108.3,449,106.6,447.6,105.1
			L447.6,105.1z M447.6,105.1"/>
		<path id="XMLID_440_" class="st64" d="M427.6,136.1c-2.4,0-4.4,0.8-6.1,2.5c-1.7,1.7-2.5,3.7-2.5,6.1c0,2.4,0.8,4.4,2.5,6.1
			c1.7,1.7,3.7,2.5,6.1,2.5c2.4,0,4.4-0.8,6.1-2.5c1.7-1.7,2.5-3.7,2.5-6.1c0-2.4-0.8-4.4-2.5-6.1C432,137,430,136.1,427.6,136.1
			L427.6,136.1z M427.6,136.1"/>
		<path id="XMLID_437_" class="st64" d="M393.3,149.6c-2.7,0-5,1-7,2.9c-1.9,1.9-2.9,4.2-2.9,6.9c0,2.7,1,5,2.9,6.9
			c1.9,1.9,4.2,2.9,7,2.9c2.7,0,5-1,6.9-2.9c1.9-1.9,2.9-4.2,2.9-6.9c0-2.7-1-5-2.9-6.9C398.3,150.6,396,149.6,393.3,149.6
			L393.3,149.6z M393.3,149.6"/>
		<path id="XMLID_331_" class="st64" d="M393.3,46.5c-4.1,0-7.6,1.4-10.4,4.3c-2.9,2.9-4.3,6.3-4.3,10.4c0,4.1,1.4,7.6,4.3,10.4
			c2.9,2.9,6.3,4.3,10.4,4.3c4.1,0,7.6-1.4,10.4-4.3c2.9-2.9,4.3-6.3,4.3-10.4c0-4.1-1.4-7.6-4.3-10.4
			C400.8,47.9,397.3,46.5,393.3,46.5L393.3,46.5z M393.3,46.5"/>
	</g>
</g>
<g id="PAGADO" class="st0">
	<g class="st2">
		<path id="XMLID_238_" class="st59" d="M445.8,34c0,7.4-6.1,13.5-13.5,13.5c-7.4,0-13.5-6.1-13.5-13.5h-20.3
			c0,7.4-6.1,13.5-13.5,13.5c-7.4,0-13.5-6.1-13.5-13.5h-20.3c0,7.4-6.1,13.5-13.5,13.5c-7.4,0-13.5-6.1-13.5-13.5H304
			c0,29.7-24.3,54-54,54c-29.7,0-54-24.3-54-54h-20.3c0,7.4-6.1,13.5-13.5,13.5c-7.4,0-13.5-6.1-13.5-13.5h-20.2
			c0,7.4-6.1,13.5-13.5,13.5c-7.4,0-13.5-6.1-13.5-13.5H81.2c0,7.4-6.1,13.5-13.5,13.5c-7.4,0-13.5-6.1-13.5-13.5H34v418.5
			c0,7.4,6.1,13.5,13.5,13.5h405c7.4,0,13.5-6.1,13.5-13.5V34H445.8z M445.8,34"/>
		<path id="XMLID_239_" class="st60" d="M405.3,209.5H94.8c-7.4,0-13.5,6.1-13.5,13.5v243h13.5V229.8c0-3.7,3-6.8,6.7-6.8h297
			c3.7,0,6.8,3,6.8,6.8V466h13.5V223C418.8,215.6,412.7,209.5,405.3,209.5L405.3,209.5z M405.3,209.5"/>
		<path id="XMLID_271_" class="st65" d="M179.5,414.3l-12.1-2l-5.4-11.5c-0.7-1-1.7-1.7-3-1.7c-1.3,0-2.4,0.7-3,2l-5.4,11.5l-12.1,2
			c-1.4,0.3-2.4,1-2.7,2.4c-0.3,1.4,0,2.7,0.7,3.4l9.1,9.1l-2,12.8c-0.3,1.3,0.3,2.7,1.3,3.4c0.7,0.3,1.4,0.7,2,0.7
			c0.7,0,1,0,1.7-0.3l10.8-6.1L170,446c0.7,0.3,1,0.3,1.7,0.3c0.7,0,1.3-0.3,2-0.7c1-0.7,1.7-2,1.3-3.4l-2.7-12.8l9.1-9.5
			c1-1,1.3-2.4,0.7-3.4C181.8,415.6,180.8,414.6,179.5,414.3L179.5,414.3z M240.2,414.3l-12.2-2l-5.4-11.5c-0.7-1-1.7-1.7-3-1.7
			c-1.4,0-2.4,0.7-3,2l-5.4,11.5l-12.2,2c-1.3,0.3-2.4,1-2.7,2.4c-0.3,1.4,0,2.7,0.7,3.4l9.1,9.1l-2,12.8c-0.3,1.3,0.3,2.7,1.4,3.4
			c0.7,0.3,1.4,0.7,2,0.7s1,0,1.7-0.3l10.8-6.1l10.8,6.1c0.7,0.3,1,0.3,1.7,0.3c0.7,0,1.3-0.3,2-0.7c1-0.7,1.7-2,1.3-3.4l-2.7-12.8
			l9.1-9.5c1-1,1.3-2.4,0.7-3.4C242.6,415.6,241.6,414.6,240.2,414.3L240.2,414.3z M301,414.3l-12.2-2l-5.4-11.5
			c-0.7-1-1.7-1.7-3-1.7c-1.3,0-2.4,0.7-3,2l-5.4,11.5l-12.2,2c-1.3,0.3-2.4,1-2.7,2.4c-0.3,1.4,0,2.7,0.7,3.4l9.1,9.1l-2,12.8
			c-0.3,1.3,0.3,2.7,1.4,3.4c0.7,0.3,1.3,0.7,2,0.7c0.7,0,1,0,1.7-0.3l10.8-6.1l10.8,6.1c0.7,0.3,1,0.3,1.7,0.3c0.7,0,1.4-0.3,2-0.7
			c1-0.7,1.7-2,1.4-3.4l-2.7-12.8l9.1-9.5c1-1,1.4-2.4,0.7-3.4C303.3,415.6,302.3,414.6,301,414.3L301,414.3z M364.4,416.6
			c-0.3-1.4-1.4-2-2.7-2.4l-12.1-2l-5.4-11.5c-0.7-1-1.7-1.7-3-1.7c-1.3,0-2.4,0.7-3,2l-5.4,11.5l-12.1,2c-1.4,0.3-2.4,1-2.7,2.4
			c-0.3,1.4,0,2.7,0.7,3.4l9.1,9.1l-2,12.8c-0.3,1.3,0.3,2.7,1.3,3.4c0.7,0.3,1.4,0.7,2,0.7c0.7,0,1,0,1.7-0.3l10.8-6.1l10.8,6.1
			c0.7,0.3,1,0.3,1.7,0.3c0.7,0,1.4-0.3,2-0.7c1-0.7,1.7-2,1.3-3.4l-2.7-12.8l9.1-9.5C364.7,419.3,365.1,418,364.4,416.6
			L364.4,416.6z M364.4,416.6"/>
		<path id="XMLID_240_" class="st60" d="M229.8,142h-27c-3.7,0-6.7,3-6.7,6.7c0,3.7,3,6.8,6.7,6.8h27c3.7,0,6.7-3,6.7-6.8
			C236.5,145,233.5,142,229.8,142L229.8,142z M297.3,142h-27c-3.7,0-6.7,3-6.7,6.7c0,3.7,3,6.8,6.7,6.8h27c3.7,0,6.7-3,6.7-6.8
			C304,145,301,142,297.3,142L297.3,142z M364.7,142h-27c-3.7,0-6.8,3-6.8,6.7c0,3.7,3,6.8,6.8,6.8h27c3.7,0,6.8-3,6.8-6.8
			C371.5,145,368.5,142,364.7,142L364.7,142z M432.2,142h-27c-3.7,0-6.8,3-6.8,6.7c0,3.7,3,6.8,6.8,6.8h27c3.7,0,6.8-3,6.8-6.8
			C439,145,436,142,432.2,142L432.2,142z M162.3,142h-27c-3.7,0-6.7,3-6.7,6.7c0,3.7,3,6.8,6.7,6.8h27c3.7,0,6.7-3,6.7-6.8
			C169,145,166,142,162.3,142L162.3,142z M94.8,142h-27c-3.7,0-6.7,3-6.7,6.7c0,3.7,3,6.8,6.7,6.8h27c3.7,0,6.7-3,6.7-6.8
			C101.5,145,98.5,142,94.8,142L94.8,142z M94.8,142"/>
		<g id="XMLID_269_">
			<polygon id="XMLID_283_" class="st62" points="197.5,276.7 203.7,276.7 203.7,357 209.9,357 209.9,276.7 216,276.7 216,344.6 
				222.2,344.6 222.2,276.7 228.4,276.7 228.4,344.6 234.6,344.6 234.6,276.7 240.7,276.7 240.7,344.6 246.9,344.6 246.9,276.7 
				253.1,276.7 253.1,357 259.3,357 259.3,276.7 265.4,276.7 265.4,344.6 271.6,344.6 271.6,276.7 277.8,276.7 277.8,344.6 
				284,344.6 284,276.7 290.1,276.7 290.1,357 296.3,357 296.3,276.7 302.5,276.7 302.5,357 308.6,357 308.6,270.5 191.4,270.5 
				191.4,357 197.5,357 			"/>
			<path id="XMLID_295_" class="st62" d="M166.7,261.3v105c0,5.1,4.2,9.3,9.3,9.3h148.2c5.1,0,9.3-4.2,9.3-9.3v-105
				c0-5.1-4.2-9.3-9.3-9.3H175.9C170.8,252,166.7,256.2,166.7,261.3z M327.2,261.3v105c0,1.7-1.4,3.1-3.1,3.1H175.9
				c-1.7,0-3.1-1.4-3.1-3.1v-105c0-1.7,1.4-3.1,3.1-3.1h148.2C325.8,258.2,327.2,259.6,327.2,261.3z"/>
			<path id="XMLID_280_" class="st62" d="M324.1,239.7h-18.5v6.2h18.5c8.5,0,15.4,6.9,15.4,15.4v18.5h6.2v-18.5
				C345.7,249.4,336,239.7,324.1,239.7z"/>
			<path id="XMLID_279_" class="st62" d="M160.5,261.3c0-8.5,6.9-15.4,15.4-15.4h18.5v-6.2h-18.5c-11.9,0-21.6,9.7-21.6,21.6v18.5
				h6.2V261.3z"/>
			<path id="XMLID_278_" class="st62" d="M160.5,366.2v-18.5h-6.2v18.5c0,11.9,9.7,21.6,21.6,21.6h18.5v-6.2h-18.5
				C167.4,381.7,160.5,374.7,160.5,366.2z"/>
			<path id="XMLID_277_" class="st62" d="M339.5,366.2c0,8.5-6.9,15.4-15.4,15.4h-18.5v6.2h18.5c11.9,0,21.6-9.7,21.6-21.6v-18.5
				h-6.2V366.2z"/>
			<rect id="XMLID_276_" x="277.8" y="350.8" class="st62" width="6.2" height="6.2"/>
			<rect id="XMLID_275_" x="265.4" y="350.8" class="st62" width="6.2" height="6.2"/>
			<rect id="XMLID_274_" x="216" y="350.8" class="st62" width="6.2" height="6.2"/>
			<rect id="XMLID_273_" x="228.4" y="350.8" class="st62" width="6.2" height="6.2"/>
			<rect id="XMLID_272_" x="240.7" y="350.8" class="st62" width="6.2" height="6.2"/>
		</g>
	</g>
	<g id="XMLID_268_" class="st2">
		<path id="XMLID_335_" class="st66" d="M491.4,109.9c0,55-44.6,99.6-99.6,99.6c-55,0-99.6-44.6-99.6-99.6c0-55,44.6-99.6,99.6-99.6
			C446.8,10.3,491.4,54.9,491.4,109.9L491.4,109.9z M491.4,109.9"/>
		<path id="XMLID_332_" class="st64" d="M363.9,164.4l-25.1-30.1c-4.4-5.3-3.7-13.1,1.6-17.5v0c5.3-4.4,13.1-3.7,17.5,1.6l14.9,17.8
			l53.9-74c4-5.6,11.8-6.8,17.4-2.7c5.6,4,6.8,11.8,2.7,17.4l-63.3,86.9C378.7,170.3,369,170.6,363.9,164.4L363.9,164.4z
			 M363.9,164.4"/>
	</g>
</g>
<g id="CANCELADO" class="st0">
	<g id="XMLID_291_" class="st2">
		<path id="XMLID_346_" class="st59" d="M445.8,34c0,7.4-6.1,13.5-13.5,13.5c-7.4,0-13.5-6.1-13.5-13.5h-20.3
			c0,7.4-6.1,13.5-13.5,13.5c-7.4,0-13.5-6.1-13.5-13.5h-20.3c0,7.4-6.1,13.5-13.5,13.5c-7.4,0-13.5-6.1-13.5-13.5H304
			c0,29.7-24.3,54-54,54c-29.7,0-54-24.3-54-54h-20.3c0,7.4-6.1,13.5-13.5,13.5c-7.4,0-13.5-6.1-13.5-13.5h-20.2
			c0,7.4-6.1,13.5-13.5,13.5c-7.4,0-13.5-6.1-13.5-13.5H81.2c0,7.4-6.1,13.5-13.5,13.5c-7.4,0-13.5-6.1-13.5-13.5H34v418.5
			c0,7.4,6.1,13.5,13.5,13.5h405c7.4,0,13.5-6.1,13.5-13.5V34H445.8z M445.8,34"/>
		<path id="XMLID_343_" class="st60" d="M405.3,209.5H94.8c-7.4,0-13.5,6.1-13.5,13.5v243h13.5V229.8c0-3.7,3-6.8,6.7-6.8h297
			c3.7,0,6.8,3,6.8,6.8V466h13.5V223C418.8,215.6,412.7,209.5,405.3,209.5L405.3,209.5z M405.3,209.5"/>
		<path id="XMLID_307_" class="st60" d="M229.8,142h-27c-3.7,0-6.7,3-6.7,6.7c0,3.7,3,6.8,6.7,6.8h27c3.7,0,6.7-3,6.7-6.8
			C236.5,145,233.5,142,229.8,142L229.8,142z M297.3,142h-27c-3.7,0-6.7,3-6.7,6.7c0,3.7,3,6.8,6.7,6.8h27c3.7,0,6.7-3,6.7-6.8
			C304,145,301,142,297.3,142L297.3,142z M364.7,142h-27c-3.7,0-6.8,3-6.8,6.7c0,3.7,3,6.8,6.8,6.8h27c3.7,0,6.8-3,6.8-6.8
			C371.5,145,368.5,142,364.7,142L364.7,142z M432.2,142h-27c-3.7,0-6.8,3-6.8,6.7c0,3.7,3,6.8,6.8,6.8h27c3.7,0,6.8-3,6.8-6.8
			C439,145,436,142,432.2,142L432.2,142z M162.3,142h-27c-3.7,0-6.7,3-6.7,6.7c0,3.7,3,6.8,6.7,6.8h27c3.7,0,6.7-3,6.7-6.8
			C169,145,166,142,162.3,142L162.3,142z M94.8,142h-27c-3.7,0-6.7,3-6.7,6.7c0,3.7,3,6.8,6.7,6.8h27c3.7,0,6.7-3,6.7-6.8
			C101.5,145,98.5,142,94.8,142L94.8,142z M94.8,142"/>
		<g id="XMLID_292_">
			<polygon id="XMLID_306_" class="st62" points="197.5,313.8 203.7,313.8 203.7,394 209.9,394 209.9,313.8 216,313.8 216,381.7 
				222.2,381.7 222.2,313.8 228.4,313.8 228.4,381.7 234.6,381.7 234.6,313.8 240.7,313.8 240.7,381.7 246.9,381.7 246.9,313.8 
				253.1,313.8 253.1,394 259.3,394 259.3,313.8 265.4,313.8 265.4,381.7 271.6,381.7 271.6,313.8 277.8,313.8 277.8,381.7 
				284,381.7 284,313.8 290.1,313.8 290.1,394 296.3,394 296.3,313.8 302.5,313.8 302.5,394 308.6,394 308.6,307.6 191.4,307.6 
				191.4,394 197.5,394 			"/>
			<path id="XMLID_303_" class="st62" d="M166.7,298.3v105c0,5.1,4.2,9.3,9.3,9.3h148.2c5.1,0,9.3-4.2,9.3-9.3v-105
				c0-5.1-4.2-9.3-9.3-9.3H175.9C170.8,289.1,166.7,293.2,166.7,298.3z M327.2,298.3v105c0,1.7-1.4,3.1-3.1,3.1H175.9
				c-1.7,0-3.1-1.4-3.1-3.1v-105c0-1.7,1.4-3.1,3.1-3.1h148.2C325.8,295.2,327.2,296.6,327.2,298.3z"/>
			<path id="XMLID_302_" class="st62" d="M324.1,276.7h-18.5v6.2h18.5c8.5,0,15.4,6.9,15.4,15.4v18.5h6.2v-18.5
				C345.7,286.4,336,276.7,324.1,276.7z"/>
			<path id="XMLID_301_" class="st62" d="M160.5,298.3c0-8.5,6.9-15.4,15.4-15.4h18.5v-6.2h-18.5c-11.9,0-21.6,9.7-21.6,21.6v18.5
				h6.2V298.3z"/>
			<path id="XMLID_300_" class="st62" d="M160.5,403.3v-18.5h-6.2v18.5c0,11.9,9.7,21.6,21.6,21.6h18.5v-6.2h-18.5
				C167.4,418.7,160.5,411.8,160.5,403.3z"/>
			<path id="XMLID_299_" class="st62" d="M339.5,403.3c0,8.5-6.9,15.4-15.4,15.4h-18.5v6.2h18.5c11.9,0,21.6-9.7,21.6-21.6v-18.5
				h-6.2V403.3z"/>
			<rect id="XMLID_298_" x="277.8" y="387.8" class="st62" width="6.2" height="6.2"/>
			<rect id="XMLID_297_" x="265.4" y="387.8" class="st62" width="6.2" height="6.2"/>
			<rect id="XMLID_296_" x="216" y="387.8" class="st62" width="6.2" height="6.2"/>
			<rect id="XMLID_294_" x="228.4" y="387.8" class="st62" width="6.2" height="6.2"/>
			<rect id="XMLID_293_" x="240.7" y="387.8" class="st62" width="6.2" height="6.2"/>
		</g>
	</g>
	<g id="XMLID_353_" class="st2">
		<path id="XMLID_350_" class="st67" d="M491.2,109.9c0,54.5-44.1,98.6-98.6,98.6s-98.6-44.2-98.6-98.6c0-54.5,44.2-98.6,98.6-98.6
			S491.2,55.4,491.2,109.9L491.2,109.9z M491.2,109.9"/>
		<path id="XMLID_349_" class="st64" d="M410.7,113.5l33.4-36.6c4.2-4.7,3.8-11.9-0.8-16.3c-2.1-1.9-4.8-3-7.7-3
			c-3.3,0-6.5,1.4-8.6,3.9l-31.8,35l-31.3-34.5c-2.1-2.4-5.2-3.8-8.5-3.8c-2.9,0-5.7,1.1-7.7,3c-2.4,2.1-3.7,4.9-3.9,8.1
			c-0.1,3.1,1,6,3.1,8.2l32.8,36.2l-31.8,35.1c-4.2,4.7-3.8,11.9,0.9,16.5c2.2,1.8,4.9,2.8,7.6,2.8c3.3,0,6.5-1.5,8.5-3.8l30.4-33.3
			l30.7,33.9c2.2,2.4,5.2,3.7,8.5,3.7c2.9,0,5.5-1,7.9-2.9c4.7-4.3,5-11.6,0.8-16.2L410.7,113.5z"/>
	</g>
</g>
<g id="DEVUELTO" class="st0">
	<g id="XMLID_254_" class="st2">
		<path id="XMLID_323_" class="st59" d="M445.8,34c0,7.4-6.1,13.5-13.5,13.5c-7.4,0-13.5-6.1-13.5-13.5h-20.3
			c0,7.4-6.1,13.5-13.5,13.5c-7.4,0-13.5-6.1-13.5-13.5h-20.3c0,7.4-6.1,13.5-13.5,13.5c-7.4,0-13.5-6.1-13.5-13.5H304
			c0,29.7-24.3,54-54,54c-29.7,0-54-24.3-54-54h-20.3c0,7.4-6.1,13.5-13.5,13.5c-7.4,0-13.5-6.1-13.5-13.5h-20.2
			c0,7.4-6.1,13.5-13.5,13.5c-7.4,0-13.5-6.1-13.5-13.5H81.2c0,7.4-6.1,13.5-13.5,13.5c-7.4,0-13.5-6.1-13.5-13.5H34v418.5
			c0,7.4,6.1,13.5,13.5,13.5h405c7.4,0,13.5-6.1,13.5-13.5V34H445.8z M445.8,34"/>
		<path id="XMLID_320_" class="st60" d="M405.3,209.5H94.8c-7.4,0-13.5,6.1-13.5,13.5v243h13.5V229.8c0-3.7,3-6.8,6.7-6.8h297
			c3.7,0,6.8,3,6.8,6.8V466h13.5V223C418.8,215.6,412.7,209.5,405.3,209.5L405.3,209.5z M405.3,209.5"/>
		<path id="XMLID_288_" class="st60" d="M229.8,142h-27c-3.7,0-6.7,3-6.7,6.7c0,3.7,3,6.8,6.7,6.8h27c3.7,0,6.7-3,6.7-6.8
			C236.5,145,233.5,142,229.8,142L229.8,142z M297.3,142h-27c-3.7,0-6.7,3-6.7,6.7c0,3.7,3,6.8,6.7,6.8h27c3.7,0,6.7-3,6.7-6.8
			C304,145,301,142,297.3,142L297.3,142z M364.7,142h-27c-3.7,0-6.8,3-6.8,6.7c0,3.7,3,6.8,6.8,6.8h27c3.7,0,6.8-3,6.8-6.8
			C371.5,145,368.5,142,364.7,142L364.7,142z M432.2,142h-27c-3.7,0-6.8,3-6.8,6.7c0,3.7,3,6.8,6.8,6.8h27c3.7,0,6.8-3,6.8-6.8
			C439,145,436,142,432.2,142L432.2,142z M162.3,142h-27c-3.7,0-6.7,3-6.7,6.7c0,3.7,3,6.8,6.7,6.8h27c3.7,0,6.7-3,6.7-6.8
			C169,145,166,142,162.3,142L162.3,142z M94.8,142h-27c-3.7,0-6.7,3-6.7,6.7c0,3.7,3,6.8,6.7,6.8h27c3.7,0,6.7-3,6.7-6.8
			C101.5,145,98.5,142,94.8,142L94.8,142z M94.8,142"/>
		<g id="XMLID_255_">
			<polygon id="XMLID_287_" class="st62" points="197.5,313.8 203.7,313.8 203.7,394 209.9,394 209.9,313.8 216,313.8 216,381.7 
				222.2,381.7 222.2,313.8 228.4,313.8 228.4,381.7 234.6,381.7 234.6,313.8 240.7,313.8 240.7,381.7 246.9,381.7 246.9,313.8 
				253.1,313.8 253.1,394 259.3,394 259.3,313.8 265.4,313.8 265.4,381.7 271.6,381.7 271.6,313.8 277.8,313.8 277.8,381.7 
				284,381.7 284,313.8 290.1,313.8 290.1,394 296.3,394 296.3,313.8 302.5,313.8 302.5,394 308.6,394 308.6,307.6 191.4,307.6 
				191.4,394 197.5,394 			"/>
			<path id="XMLID_284_" class="st62" d="M166.7,298.3v105c0,5.1,4.2,9.3,9.3,9.3h148.2c5.1,0,9.3-4.2,9.3-9.3v-105
				c0-5.1-4.2-9.3-9.3-9.3H175.9C170.8,289.1,166.7,293.2,166.7,298.3z M327.2,298.3v105c0,1.7-1.4,3.1-3.1,3.1H175.9
				c-1.7,0-3.1-1.4-3.1-3.1v-105c0-1.7,1.4-3.1,3.1-3.1h148.2C325.8,295.2,327.2,296.6,327.2,298.3z"/>
			<path id="XMLID_270_" class="st62" d="M324.1,276.7h-18.5v6.2h18.5c8.5,0,15.4,6.9,15.4,15.4v18.5h6.2v-18.5
				C345.7,286.4,336,276.7,324.1,276.7z"/>
			<path id="XMLID_263_" class="st62" d="M160.5,298.3c0-8.5,6.9-15.4,15.4-15.4h18.5v-6.2h-18.5c-11.9,0-21.6,9.7-21.6,21.6v18.5
				h6.2V298.3z"/>
			<path id="XMLID_262_" class="st62" d="M160.5,403.3v-18.5h-6.2v18.5c0,11.9,9.7,21.6,21.6,21.6h18.5v-6.2h-18.5
				C167.4,418.7,160.5,411.8,160.5,403.3z"/>
			<path id="XMLID_261_" class="st62" d="M339.5,403.3c0,8.5-6.9,15.4-15.4,15.4h-18.5v6.2h18.5c11.9,0,21.6-9.7,21.6-21.6v-18.5
				h-6.2V403.3z"/>
			<rect id="XMLID_260_" x="277.8" y="387.8" class="st62" width="6.2" height="6.2"/>
			<rect id="XMLID_259_" x="265.4" y="387.8" class="st62" width="6.2" height="6.2"/>
			<rect id="XMLID_258_" x="216" y="387.8" class="st62" width="6.2" height="6.2"/>
			<rect id="XMLID_257_" x="228.4" y="387.8" class="st62" width="6.2" height="6.2"/>
			<rect id="XMLID_256_" x="240.7" y="387.8" class="st62" width="6.2" height="6.2"/>
		</g>
	</g>
	<g id="XMLID_134_" class="st2">
		<path id="XMLID_326_" class="st67" d="M491.2,109.9c0,54.5-44.1,98.6-98.6,98.6s-98.6-44.2-98.6-98.6c0-54.5,44.2-98.6,98.6-98.6
			S491.2,55.4,491.2,109.9L491.2,109.9z M491.2,109.9"/>
	</g>
	<path id="XMLID_329_" class="st13" d="M454.5,111.9c0,31.7-25.8,57.5-57.5,57.5c-5.6,0-10.2-4.5-10.2-10.1
		c0-5.6,4.6-10.2,10.2-10.2c20.5,0,37.2-16.7,37.2-37.2c0-20.5-16.7-37.2-37.2-37.2c-19.5,0-35.5,15-37,34.1l6.2-6.2
		c4-4,10.4-4,14.3,0c4,4,4,10.4,0,14.3l-22.8,22.8c-1.9,1.9-4.5,3-7.2,3c-2.7,0-5.3-1.1-7.2-3L320.6,117c-4-4-4-10.4,0-14.3
		c4-4,10.4-4,14.3,0l4.9,4.9c2.3-29.6,27-53.1,57.2-53.1C428.7,54.5,454.5,80.2,454.5,111.9L454.5,111.9z M454.5,111.9"/>
</g>
<g id="Layer_10" class="st0">
	<g id="XMLID_356_" class="st2">
		
			<rect id="XMLID_468_" x="67.1" y="110.8" transform="matrix(-0.863 0.5053 -0.5053 -0.863 586.3661 257.1671)" class="st68" width="382.5" height="194.7"/>
		<path id="XMLID_467_" class="st69" d="M348.8,64.2L88.6,216.5c5.7,9.7,2.2,22.2-7.8,28L139.6,345c9.9-5.8,22.6-2.7,28.3,7
			l260.2-152.4c-5.7-9.7-2.2-22.2,7.8-28L377,71.2C367.1,77,354.4,73.9,348.8,64.2z"/>
		<g>
			
				<ellipse id="XMLID_466_" transform="matrix(-0.5053 -0.863 0.863 -0.5053 209.2594 536.1648)" class="st68" cx="258.3" cy="208.1" rx="66.4" ry="52.5"/>
			<ellipse id="XMLID_465_" class="st68" cx="386.5" cy="133" rx="11.9" ry="11.9"/>
		</g>
		<ellipse id="XMLID_464_" class="st70" cx="130.1" cy="283.2" rx="11.9" ry="11.9"/>
		<path class="st69" d="M282.9,255.7l-4.8-8.1c-10.8,4.9-22.3,6.2-34.5,3.9l2.5-14.4c9.4,1.8,17.7,1.2,24.9-1.6l-12.6-21.6
			c-9.6,2.9-17.3,3.9-23.1,2.9c-5.8-1-10.6-4.7-14.4-11.1c-3.8-6.4-4.6-13-2.5-19.7c2.1-6.7,6.6-12.4,13.6-17l-3.3-5.6l7.1-4.2
			l3.3,5.7c8.5-4.2,17.9-5.9,28.1-5.2l-1.2,14.5c-6.9-0.6-13.5,0.3-19.7,2.9l12.3,20.9l0.3-0.2c9.7-3,17.6-4,23.6-2.9
			c6,1.1,10.9,4.8,14.7,11.3c3.8,6.5,4.6,13.1,2.4,19.9c-2.2,6.8-7,12.6-14.3,17.4l4.7,8L282.9,255.7z M233,188.4
			c-0.9,2.8-0.6,5.4,0.8,7.9c1.5,2.5,3.4,4,5.7,4.6c2.3,0.6,6,0.3,10.9-0.8l-11.3-19.3C235.9,183.1,233.9,185.6,233,188.4z
			 M285,223.5c1.1-2.9,0.9-5.7-0.7-8.3c-1.5-2.6-3.5-4.2-6.1-4.7c-2.5-0.6-6.4-0.2-11.6,1.1l11.7,20
			C281.7,229.1,283.9,226.4,285,223.5z"/>
		
			<rect id="XMLID_460_" x="221.2" y="110.8" transform="matrix(-0.863 0.5053 -0.5053 -0.863 586.3787 257.1543)" class="st71" width="74.3" height="194.7"/>
		<g>
			
				<rect id="XMLID_459_" x="230.6" y="125.3" transform="matrix(-0.863 0.5053 -0.5053 -0.863 547.4553 296.856)" class="st64" width="5.7" height="194.7"/>
			
				<rect id="XMLID_458_" x="280.3" y="96.2" transform="matrix(-0.863 0.5053 -0.5053 -0.863 625.3207 217.4645)" class="st64" width="5.7" height="194.7"/>
		</g>
		
			<rect id="XMLID_435_" x="68.4" y="177.1" transform="matrix(-0.982 0.1888 -0.1888 -0.982 566.4176 494.9774)" class="st70" width="382.5" height="194.7"/>
		<path id="XMLID_434_" class="st69" d="M98.6,376.2L72.4,239.7c7.5-1.4,12.5-8.7,11-16.3l321-61.7c1.4,7.5,8.7,12.5,16.3,11
			l26.2,136.5c-7.5,1.4-12.5,8.7-11,16.3l-321,61.7C113.5,379.7,106.2,374.8,98.6,376.2z"/>
		<g>
			
				<ellipse id="XMLID_433_" transform="matrix(-0.1888 -0.982 0.982 -0.1888 39.1223 581.2654)" class="st70" cx="259.7" cy="274.5" rx="66.4" ry="52.5"/>
			<ellipse id="XMLID_432_" class="st70" cx="405.6" cy="246.4" rx="11.9" ry="11.9"/>
			<ellipse id="XMLID_431_" class="st70" cx="113.7" cy="302.5" rx="11.9" ry="11.9"/>
		</g>
		<path class="st69" d="M267,327.5l-1.8-9.2c-11.8,1-23.1-1.6-33.8-7.8l7.1-12.8c8.3,4.8,16.3,7.1,24,6.8l-4.7-24.6
			c-10-0.4-17.6-2.1-22.7-5c-5.1-2.9-8.4-8-9.8-15.3c-1.4-7.3,0-13.8,4.2-19.4c4.2-5.6,10.4-9.4,18.5-11.4l-1.2-6.3l8.1-1.6l1.2,6.5
			c9.4-1.1,18.8,0.4,28.2,4.4l-6,13.2c-6.3-2.9-12.8-4.2-19.5-3.9l4.6,23.8l0.4-0.1c10.2,0.4,17.9,2.1,23.2,5.1
			c5.3,3,8.7,8.2,10.1,15.6c1.4,7.4,0,13.9-4.4,19.6c-4.3,5.7-10.8,9.5-19.3,11.6l1.8,9.1L267,327.5z M242.3,247.5
			c-1.8,2.3-2.4,4.9-1.9,7.7c0.5,2.8,1.8,4.9,3.8,6.2c2,1.3,5.5,2.3,10.5,2.9l-4.2-21.9C246.9,243.5,244.1,245.1,242.3,247.5z
			 M279.7,297.9c2-2.4,2.7-5.1,2.1-8c-0.6-3-1.9-5.1-4.1-6.5c-2.2-1.4-6-2.3-11.3-2.9l4.4,22.8C274.7,302.1,277.7,300.3,279.7,297.9
			z"/>
		<path id="XMLID_427_" class="st71" d="M182.8,439.9c0,18-34.8,32.7-77.7,32.7s-77.7-14.6-77.7-32.7v-26.7h155.3V439.9z"/>
		<ellipse id="XMLID_426_" class="st72" cx="105.1" cy="413.1" rx="77.7" ry="32.6"/>
		<g>
			<path class="st73" d="M105.1,386.9c-37.4,0-67.8,11.8-67.8,26.3c0,14.5,30.3,26.3,67.8,26.3s67.8-11.8,67.8-26.3
				C172.9,398.6,142.6,386.9,105.1,386.9z M105.1,436.5c-33.3,0-60.3-10.5-60.3-23.4c0-12.9,27-23.4,60.3-23.4s60.3,10.5,60.3,23.4
				C165.4,426.1,138.4,436.5,105.1,436.5z"/>
			<path class="st73" d="M102.7,431.3v-3.2c-10.3-0.4-19.6-2-27.8-4.8l8.2-3.8c6.3,2.1,12.8,3.4,19.5,3.8v-8.5
				c-8.5-0.8-14.7-1.8-18.7-3.1c-4-1.3-5.9-3.2-5.9-5.7c0-2.5,2.3-4.6,6.8-6.2c4.6-1.6,10.5-2.5,17.8-2.6V395h7.2v2.2
				c8.3,0.2,16.1,1.3,23.5,3.3l-7.3,4c-5-1.4-10.4-2.2-16.2-2.5v8.2h0.3c8.7,0.8,15,1.9,19.1,3.2c4.1,1.3,6.1,3.3,6.1,5.8
				c0,2.6-2.3,4.6-7,6.2c-4.7,1.6-10.8,2.5-18.5,2.6v3.2H102.7z M94.7,403c-1.9,0.7-2.9,1.5-2.9,2.5c0,1,0.8,1.8,2.3,2.3
				c1.5,0.6,4.4,1.1,8.6,1.6v-7.6C99.3,402,96.6,402.4,94.7,403z M118.5,422.2c2.1-0.7,3.2-1.5,3.2-2.5c0-1-0.8-1.8-2.5-2.4
				c-1.7-0.6-4.8-1.2-9.3-1.7v7.9C113.5,423.3,116.4,422.9,118.5,422.2z"/>
		</g>
		<path id="XMLID_420_" class="st71" d="M182.8,407.4c0,18-34.8,32.7-77.7,32.7s-77.7-14.6-77.7-32.7v-26.7h155.3V407.4z"/>
		<ellipse id="XMLID_419_" class="st72" cx="105.1" cy="380.7" rx="77.7" ry="32.6"/>
		<g>
			<path class="st73" d="M105.1,354.4c-37.4,0-67.8,11.8-67.8,26.3c0,14.5,30.3,26.3,67.8,26.3s67.8-11.8,67.8-26.3
				C172.9,366.2,142.6,354.4,105.1,354.4z M105.1,404.1c-33.3,0-60.3-10.5-60.3-23.4c0-12.9,27-23.4,60.3-23.4s60.3,10.5,60.3,23.4
				C165.4,393.6,138.4,404.1,105.1,404.1z"/>
			<path class="st73" d="M102.7,398.9v-3.2c-10.3-0.4-19.6-2-27.8-4.8l8.2-3.8c6.3,2.1,12.8,3.4,19.5,3.8v-8.5
				c-8.5-0.8-14.7-1.8-18.7-3.1c-4-1.3-5.9-3.2-5.9-5.7c0-2.5,2.3-4.6,6.8-6.2c4.6-1.6,10.5-2.5,17.8-2.6v-2.2h7.2v2.2
				c8.3,0.2,16.1,1.3,23.5,3.3l-7.3,4c-5-1.4-10.4-2.2-16.2-2.5v8.2h0.3c8.7,0.8,15,1.9,19.1,3.2c4.1,1.3,6.1,3.3,6.1,5.8
				c0,2.6-2.3,4.6-7,6.2c-4.7,1.6-10.8,2.5-18.5,2.6v3.2H102.7z M94.7,370.6c-1.9,0.7-2.9,1.5-2.9,2.5c0,1,0.8,1.8,2.3,2.3
				c1.5,0.6,4.4,1.1,8.6,1.6v-7.6C99.3,369.6,96.6,369.9,94.7,370.6z M118.5,389.8c2.1-0.7,3.2-1.5,3.2-2.5c0-1-0.8-1.8-2.5-2.4
				c-1.7-0.6-4.8-1.2-9.3-1.7v7.9C113.5,390.9,116.4,390.5,118.5,389.8z"/>
		</g>
		<path id="XMLID_413_" class="st71" d="M182.8,375c0,18-34.8,32.7-77.7,32.7S27.5,393,27.5,375v-26.7h155.3V375z"/>
		<ellipse id="XMLID_412_" class="st72" cx="105.1" cy="348.3" rx="77.7" ry="32.6"/>
		<g>
			<path class="st73" d="M105.1,322c-37.4,0-67.8,11.8-67.8,26.3c0,14.5,30.3,26.3,67.8,26.3s67.8-11.8,67.8-26.3
				C172.9,333.8,142.6,322,105.1,322z M105.1,371.6c-33.3,0-60.3-10.5-60.3-23.4c0-12.9,27-23.4,60.3-23.4s60.3,10.5,60.3,23.4
				C165.4,361.2,138.4,371.6,105.1,371.6z"/>
			<path class="st73" d="M102.7,366.4v-3.2c-10.3-0.4-19.6-2-27.8-4.8l8.2-3.8c6.3,2.1,12.8,3.4,19.5,3.8V350
				c-8.5-0.8-14.7-1.8-18.7-3.1c-4-1.3-5.9-3.2-5.9-5.7s2.3-4.6,6.8-6.2c4.6-1.6,10.5-2.5,17.8-2.6v-2.2h7.2v2.2
				c8.3,0.2,16.1,1.3,23.5,3.3l-7.3,4c-5-1.4-10.4-2.2-16.2-2.5v8.2h0.3c8.7,0.8,15,1.9,19.1,3.2c4.1,1.3,6.1,3.3,6.1,5.8
				c0,2.6-2.3,4.6-7,6.2c-4.7,1.6-10.8,2.5-18.5,2.6v3.2H102.7z M94.7,338.2c-1.9,0.7-2.9,1.5-2.9,2.5c0,1,0.8,1.8,2.3,2.3
				c1.5,0.6,4.4,1.1,8.6,1.6V337C99.3,337.1,96.6,337.5,94.7,338.2z M118.5,357.4c2.1-0.7,3.2-1.5,3.2-2.5c0-1-0.8-1.8-2.5-2.4
				c-1.7-0.6-4.8-1.2-9.3-1.7v7.9C113.5,358.4,116.4,358,118.5,357.4z"/>
		</g>
		<path id="XMLID_406_" class="st71" d="M182.8,342.5c0,18-34.8,32.7-77.7,32.7s-77.7-14.6-77.7-32.7v-26.7h155.3V342.5z"/>
		<ellipse id="XMLID_405_" class="st72" cx="105.1" cy="315.8" rx="77.7" ry="32.6"/>
		<g>
			<path class="st73" d="M105.1,289.6c-37.4,0-67.8,11.8-67.8,26.3c0,14.5,30.3,26.3,67.8,26.3s67.8-11.8,67.8-26.3
				C172.9,301.3,142.6,289.6,105.1,289.6z M105.1,339.2c-33.3,0-60.3-10.5-60.3-23.4c0-12.9,27-23.4,60.3-23.4s60.3,10.5,60.3,23.4
				C165.4,328.7,138.4,339.2,105.1,339.2z"/>
			<path class="st73" d="M102.7,334v-3.2c-10.3-0.4-19.6-2-27.8-4.8l8.2-3.8c6.3,2.1,12.8,3.4,19.5,3.8v-8.5
				c-8.5-0.8-14.7-1.8-18.7-3.1c-4-1.3-5.9-3.2-5.9-5.7s2.3-4.6,6.8-6.2c4.6-1.6,10.5-2.5,17.8-2.6v-2.2h7.2v2.2
				c8.3,0.2,16.1,1.3,23.5,3.3l-7.3,4c-5-1.4-10.4-2.2-16.2-2.5v8.2h0.3c8.7,0.8,15,1.9,19.1,3.2c4.1,1.3,6.1,3.3,6.1,5.8
				c0,2.6-2.3,4.6-7,6.2c-4.7,1.6-10.8,2.5-18.5,2.6v3.2H102.7z M94.7,305.7c-1.9,0.7-2.9,1.5-2.9,2.5c0,1,0.8,1.8,2.3,2.3
				c1.5,0.6,4.4,1.1,8.6,1.6v-7.6C99.3,304.7,96.6,305.1,94.7,305.7z M118.5,324.9c2.1-0.7,3.2-1.5,3.2-2.5c0-1-0.8-1.8-2.5-2.4
				c-1.7-0.6-4.8-1.2-9.3-1.7v7.9C113.5,326,116.4,325.6,118.5,324.9z"/>
		</g>
		<path id="XMLID_399_" class="st71" d="M346.6,439.9c0,18-34.8,32.7-77.7,32.7s-77.7-14.6-77.7-32.7v-26.7h155.3V439.9z"/>
		<ellipse id="XMLID_398_" class="st72" cx="268.9" cy="413.1" rx="77.7" ry="32.6"/>
		<g>
			<path class="st73" d="M268.9,386.9c-37.4,0-67.8,11.8-67.8,26.3c0,14.5,30.3,26.3,67.8,26.3s67.8-11.8,67.8-26.3
				C336.7,398.6,306.4,386.9,268.9,386.9z M268.9,436.5c-33.3,0-60.3-10.5-60.3-23.4c0-12.9,27-23.4,60.3-23.4s60.3,10.5,60.3,23.4
				C329.2,426.1,302.2,436.5,268.9,436.5z"/>
			<path class="st73" d="M266.5,431.3v-3.2c-10.3-0.4-19.6-2-27.8-4.8l8.2-3.8c6.3,2.1,12.8,3.4,19.5,3.8v-8.5
				c-8.5-0.8-14.7-1.8-18.7-3.1c-4-1.3-5.9-3.2-5.9-5.7c0-2.5,2.3-4.6,6.8-6.2c4.6-1.6,10.5-2.5,17.8-2.6V395h7.2v2.2
				c8.3,0.2,16.1,1.3,23.5,3.3l-7.3,4c-5-1.4-10.4-2.2-16.2-2.5v8.2h0.3c8.7,0.8,15,1.9,19.1,3.2c4.1,1.3,6.1,3.3,6.1,5.8
				c0,2.6-2.3,4.6-7,6.2c-4.7,1.6-10.8,2.5-18.5,2.6v3.2H266.5z M258.5,403c-1.9,0.7-2.9,1.5-2.9,2.5c0,1,0.8,1.8,2.3,2.3
				c1.5,0.6,4.4,1.1,8.6,1.6v-7.6C263.1,402,260.4,402.4,258.5,403z M282.3,422.2c2.1-0.7,3.2-1.5,3.2-2.5c0-1-0.8-1.8-2.5-2.4
				c-1.7-0.6-4.8-1.2-9.3-1.7v7.9C277.3,423.3,280.1,422.9,282.3,422.2z"/>
		</g>
		<path id="XMLID_392_" class="st71" d="M346.6,407.4c0,18-34.8,32.7-77.7,32.7s-77.7-14.6-77.7-32.7v-26.7h155.3V407.4z"/>
		<ellipse id="XMLID_391_" class="st72" cx="268.9" cy="380.7" rx="77.7" ry="32.6"/>
		<g>
			<path class="st73" d="M268.9,354.4c-37.4,0-67.8,11.8-67.8,26.3c0,14.5,30.3,26.3,67.8,26.3s67.8-11.8,67.8-26.3
				C336.7,366.2,306.4,354.4,268.9,354.4z M268.9,404.1c-33.3,0-60.3-10.5-60.3-23.4c0-12.9,27-23.4,60.3-23.4s60.3,10.5,60.3,23.4
				C329.2,393.6,302.2,404.1,268.9,404.1z"/>
			<path class="st73" d="M266.5,398.9v-3.2c-10.3-0.4-19.6-2-27.8-4.8l8.2-3.8c6.3,2.1,12.8,3.4,19.5,3.8v-8.5
				c-8.5-0.8-14.7-1.8-18.7-3.1s-5.9-3.2-5.9-5.7c0-2.5,2.3-4.6,6.8-6.2c4.6-1.6,10.5-2.5,17.8-2.6v-2.2h7.2v2.2
				c8.3,0.2,16.1,1.3,23.5,3.3l-7.3,4c-5-1.4-10.4-2.2-16.2-2.5v8.2h0.3c8.7,0.8,15,1.9,19.1,3.2c4.1,1.3,6.1,3.3,6.1,5.8
				c0,2.6-2.3,4.6-7,6.2c-4.7,1.6-10.8,2.5-18.5,2.6v3.2H266.5z M258.5,370.6c-1.9,0.7-2.9,1.5-2.9,2.5c0,1,0.8,1.8,2.3,2.3
				c1.5,0.6,4.4,1.1,8.6,1.6v-7.6C263.1,369.6,260.4,369.9,258.5,370.6z M282.3,389.8c2.1-0.7,3.2-1.5,3.2-2.5c0-1-0.8-1.8-2.5-2.4
				c-1.7-0.6-4.8-1.2-9.3-1.7v7.9C277.3,390.9,280.1,390.5,282.3,389.8z"/>
		</g>
	</g>
</g>
<g id="Layer_13">
	<g>
		<path class="st74" d="M255.7,87.7v108.5c0,7-5.7,12.7-12.7,12.7H49c-7,0-12.7-5.7-12.7-12.7V87.7C36.3,80.7,42,75,49,75h194.1
			C250.1,75,255.7,80.7,255.7,87.7L255.7,87.7z M255.7,87.7"/>
		<rect id="XMLID_605_" x="36.3" y="103.5" class="st75" width="219.4" height="32.7"/>
		<path class="st76" d="M64.3,176.1c0,6.8,2.6,13,6.8,17.6c-0.6,0.1-1.2,0.1-1.8,0.1c-9.8,0-17.7-7.9-17.7-17.7
			c0-9.8,7.9-17.7,17.7-17.7c0.6,0,1.2,0,1.8,0.1C66.8,163.1,64.3,169.3,64.3,176.1L64.3,176.1z M64.3,176.1"/>
		<g>
			<defs>
				<rect id="XMLID_599_" x="36.3" y="11.2" width="427" height="477.8"/>
			</defs>
			<clipPath id="XMLID_610_">
				<use xlink:href="#XMLID_599_"  style="overflow:visible;"/>
			</clipPath>
			<path class="st77" d="M108.4,176.1c0,9.8-7.9,17.7-17.7,17.7c-9.8,0-17.7-7.9-17.7-17.7c0-9.8,7.9-17.7,17.7-17.7
				C100.4,158.4,108.4,166.3,108.4,176.1L108.4,176.1z M108.4,176.1"/>
			<rect id="XMLID_600_" x="189.6" y="139.9" class="st78" width="273.9" height="147.4"/>
		</g>
		<path class="st79" d="M447.8,181.3v65.1c-14.1,0-25.5,11.3-25.7,25.3H231c-0.3-14-11.7-25.3-25.7-25.3v-65.1
			c14.2,0,25.8-11.5,25.8-25.8h191.1C422.1,169.8,433.6,181.3,447.8,181.3L447.8,181.3z M447.8,181.3"/>
		<path class="st80" d="M220,277.3c0,25.1-20.3,45.4-45.4,45.4c-1.1,0-2.2,0-3.4-0.1c-6.6-0.5-12.7-2.4-18.2-5.3
			c-14.2-7.7-23.9-22.7-23.9-40c0-17.3,9.7-32.3,23.9-40c5.5-3,11.7-4.8,18.2-5.3c1.1-0.1,2.2-0.1,3.4-0.1
			C199.6,231.9,220,252.3,220,277.3L220,277.3z M220,277.3"/>
		<g>
			<defs>
				<rect id="XMLID_590_" x="36.3" y="11.2" width="427" height="477.8"/>
			</defs>
			<clipPath id="XMLID_611_">
				<use xlink:href="#XMLID_590_"  style="overflow:visible;"/>
			</clipPath>
			<path class="st81" d="M204,277.4c0,16.3-13.2,29.5-29.5,29.5c-16.3,0-29.5-13.2-29.5-29.5c0-16.3,13.2-29.5,29.5-29.5
				C190.8,247.9,204,261.1,204,277.4L204,277.4z M204,277.4"/>
			<path class="st82" d="M362.6,33.6v304.3c0,12.5-10.1,22.6-22.6,22.6H193.7c-12.5,0-22.6-10.1-22.6-22.6V33.6
				c0-12.5,10.1-22.6,22.6-22.6H340C352.5,11,362.6,21.1,362.6,33.6L362.6,33.6z M362.6,33.6"/>
		</g>
		<rect id="XMLID_589_" x="180.2" y="57.1" class="st83" width="173.3" height="251"/>
		<path class="st75" d="M284.7,335c0,9.9-8,17.9-17.9,17.9c-9.9,0-17.9-8-17.9-17.9c0-9.9,8-17.9,17.9-17.9
			C276.7,317.1,284.7,325.1,284.7,335L284.7,335z M284.7,335"/>
		<path class="st51" d="M335.2,121.5H198.9c-1.6,0-2.9-1.3-2.9-2.9v-37c0-1.6,1.3-2.9,2.9-2.9h136.3c1.6,0,2.9,1.3,2.9,2.9v37
			C338.1,120.1,336.8,121.5,335.2,121.5L335.2,121.5z M335.2,121.5"/>
		<path class="st80" d="M335.2,165.4H316c-1.6,0-2.9-1.3-2.9-2.9v-19.2c0-1.6,1.3-2.9,2.9-2.9h19.2c1.6,0,2.9,1.3,2.9,2.9v19.2
			C338.1,164,336.8,165.4,335.2,165.4L335.2,165.4z M335.2,165.4"/>
		<path class="st76" d="M335.2,203H316c-1.6,0-2.9-1.3-2.9-2.9v-19.2c0-1.6,1.3-2.9,2.9-2.9h19.2c1.6,0,2.9,1.3,2.9,2.9V200
			C338.1,201.7,336.8,203,335.2,203L335.2,203z M335.2,203"/>
		<path class="st84" d="M218.2,165.4h-19.2c-1.6,0-2.9-1.3-2.9-2.9v-19.2c0-1.6,1.3-2.9,2.9-2.9h19.2c1.6,0,2.9,1.3,2.9,2.9v19.2
			C221.1,164,219.8,165.4,218.2,165.4L218.2,165.4z M218.2,165.4"/>
		<path class="st84" d="M257.2,165.4H238c-1.6,0-2.9-1.3-2.9-2.9v-19.2c0-1.6,1.3-2.9,2.9-2.9h19.2c1.6,0,2.9,1.3,2.9,2.9v19.2
			C260.1,164,258.8,165.4,257.2,165.4L257.2,165.4z M257.2,165.4"/>
		<path class="st84" d="M296.2,165.4H277c-1.6,0-2.9-1.3-2.9-2.9v-19.2c0-1.6,1.3-2.9,2.9-2.9h19.2c1.6,0,2.9,1.3,2.9,2.9v19.2
			C299.1,164,297.8,165.4,296.2,165.4L296.2,165.4z M296.2,165.4"/>
		<path class="st84" d="M218.2,203h-19.2c-1.6,0-2.9-1.3-2.9-2.9v-19.2c0-1.6,1.3-2.9,2.9-2.9h19.2c1.6,0,2.9,1.3,2.9,2.9V200
			C221.1,201.7,219.8,203,218.2,203L218.2,203z M218.2,203"/>
		<path class="st84" d="M257.2,203H238c-1.6,0-2.9-1.3-2.9-2.9v-19.2c0-1.6,1.3-2.9,2.9-2.9h19.2c1.6,0,2.9,1.3,2.9,2.9V200
			C260.1,201.7,258.8,203,257.2,203L257.2,203z M257.2,203"/>
		<path class="st84" d="M296.2,203H277c-1.6,0-2.9-1.3-2.9-2.9v-19.2c0-1.6,1.3-2.9,2.9-2.9h19.2c1.6,0,2.9,1.3,2.9,2.9V200
			C299.1,201.7,297.8,203,296.2,203L296.2,203z M296.2,203"/>
		<path class="st84" d="M218.2,241.4h-19.2c-1.6,0-2.9-1.3-2.9-2.9v-19.2c0-1.6,1.3-2.9,2.9-2.9h19.2c1.6,0,2.9,1.3,2.9,2.9v19.2
			C221.1,240,219.8,241.4,218.2,241.4L218.2,241.4z M218.2,241.4"/>
		<path class="st84" d="M257.2,241.4H238c-1.6,0-2.9-1.3-2.9-2.9v-19.2c0-1.6,1.3-2.9,2.9-2.9h19.2c1.6,0,2.9,1.3,2.9,2.9v19.2
			C260.1,240,258.8,241.4,257.2,241.4L257.2,241.4z M257.2,241.4"/>
		<path class="st84" d="M296.2,241.4H277c-1.6,0-2.9-1.3-2.9-2.9v-19.2c0-1.6,1.3-2.9,2.9-2.9h19.2c1.6,0,2.9,1.3,2.9,2.9v19.2
			C299.1,240,297.8,241.4,296.2,241.4L296.2,241.4z M296.2,241.4"/>
		<path class="st84" d="M335.2,241.4H316c-1.6,0-2.9-1.3-2.9-2.9v-19.2c0-1.6,1.3-2.9,2.9-2.9h19.2c1.6,0,2.9,1.3,2.9,2.9v19.2
			C338.1,240,336.8,241.4,335.2,241.4L335.2,241.4z M335.2,241.4"/>
		<rect id="XMLID_540_" x="295.3" y="105.8" class="st85" width="30.3" height="7.3"/>
		<g id="XMLID_608_">
			
				<image style="overflow:visible;" width="1363" height="1521" id="XMLID_539_" xlink:href="640641C4.jpg"  transform="matrix(0.3135 0 0 0.3135 36.3422 11)">
			</image>
		</g>
	</g>
</g>
<g id="TRANS" class="st0">
	<g id="XMLID_534_" class="st2">
		<path id="XMLID_577_" class="st86" d="M287.2,401.9H67.5c-0.5,0-0.9-0.4-0.9-0.9V98.3c0-0.5,0.4-0.9,0.9-0.9h219.7
			c0.5,0,0.9,0.4,0.9,0.9V401C288.1,401.5,287.7,401.9,287.2,401.9L287.2,401.9z M287.2,401.9"/>
		<rect id="XMLID_530_" x="128.9" y="49" class="st86" width="76.1" height="27.7"/>
		<rect id="XMLID_529_" x="149.7" y="408.8" class="st86" width="55.3" height="55.3"/>
		<g id="XMLID_563_">
			<defs>
				<rect id="XMLID_520_" x="52.8" y="27.9" width="394.3" height="444.1"/>
			</defs>
			<clipPath id="XMLID_612_">
				<use xlink:href="#XMLID_520_"  style="overflow:visible;"/>
			</clipPath>
			<path id="XMLID_568_" class="st87" d="M267.3,28.3H87.4c-19.1,0-34.6,15.5-34.6,34.6v373.6c0,19.1,15.5,34.6,34.6,34.6h179.9
				c19.1,0,34.6-15.5,34.6-34.6V62.9C301.9,43.8,286.4,28.3,267.3,28.3L267.3,28.3z M163.5,55.9h27.7c3.8,0,6.9,3.1,6.9,6.9
				s-3.1,6.9-6.9,6.9h-27.7c-3.8,0-6.9-3.1-6.9-6.9S159.7,55.9,163.5,55.9L163.5,55.9z M137.9,58c2.5-2.5,7.3-2.6,9.8,0
				c1.2,1.3,2,3,2,4.9c0,1.9-0.8,3.6-2,4.9c-1.3,1.2-3,2-4.9,2c-1.9,0-3.6-0.8-4.9-2c-1.2-1.3-2-3-2-4.9
				C135.9,61,136.6,59.3,137.9,58L137.9,58z M177.4,457.2c-11.4,0-20.8-9.3-20.8-20.8c0-11.4,9.3-20.8,20.8-20.8
				c11.4,0,20.8,9.3,20.8,20.8C198.1,447.9,188.8,457.2,177.4,457.2L177.4,457.2z M281.1,401.9H73.6c-3.8,0-6.9-3.1-6.9-6.9V104.4
				c0-3.8,3.1-6.9,6.9-6.9h207.5c3.8,0,6.9,3.1,6.9,6.9v290.6C288.1,398.8,285,401.9,281.1,401.9L281.1,401.9z M281.1,401.9"/>
			<path id="XMLID_565_" class="st88" d="M419.5,381.1H115.1c-15.3,0-27.7-12.4-27.7-27.7V145.9c0-15.3,12.4-27.7,27.7-27.7h304.4
				c15.3,0,27.7,12.4,27.7,27.7v207.5C447.2,368.7,434.8,381.1,419.5,381.1L419.5,381.1z M419.5,381.1"/>
		</g>
		<path id="XMLID_560_" class="st89" d="M211.9,228.9h-69.2c-7.6,0-13.8-6.2-13.8-13.8v-41.5c0-7.6,6.2-13.8,13.8-13.8h69.2
			c7.6,0,13.8,6.2,13.8,13.8v41.5C225.8,222.7,219.6,228.9,211.9,228.9L211.9,228.9z M211.9,228.9"/>
		<path id="XMLID_557_" class="st90" d="M163.5,305h-20.8c-7.6,0-13.8-6.2-13.8-13.8c0-7.6,6.2-13.8,13.8-13.8h20.8
			c7.6,0,13.8,6.2,13.8,13.8C177.4,298.8,171.2,305,163.5,305L163.5,305z M163.5,305"/>
		<path id="XMLID_554_" class="st90" d="M239.6,305h-20.8c-7.6,0-13.8-6.2-13.8-13.8c0-7.6,6.2-13.8,13.8-13.8h20.8
			c7.6,0,13.8,6.2,13.8,13.8C253.5,298.8,247.3,305,239.6,305L239.6,305z M239.6,305"/>
		<path id="XMLID_551_" class="st90" d="M315.7,305H295c-7.6,0-13.8-6.2-13.8-13.8c0-7.6,6.2-13.8,13.8-13.8h20.8
			c7.6,0,13.8,6.2,13.8,13.8C329.6,298.8,323.4,305,315.7,305L315.7,305z M315.7,305"/>
		<path id="XMLID_548_" class="st90" d="M391.8,305h-20.8c-7.6,0-13.8-6.2-13.8-13.8c0-7.6,6.2-13.8,13.8-13.8h20.8
			c7.6,0,13.8,6.2,13.8,13.8C405.7,298.8,399.5,305,391.8,305L391.8,305z M391.8,305"/>
		<path id="XMLID_545_" class="st91" d="M247.2,346.5H135.2c-3.4,0-6.2-3.1-6.2-6.9c0-3.8,2.8-6.9,6.2-6.9h112.1
			c3.4,0,6.2,3.1,6.2,6.9C253.5,343.4,250.7,346.5,247.2,346.5L247.2,346.5z M247.2,346.5"/>
		<path id="XMLID_542_" class="st91" d="M322.6,346.5h-48.4c-3.8,0-6.9-3.1-6.9-6.9c0-3.8,3.1-6.9,6.9-6.9h48.4
			c3.8,0,6.9,3.1,6.9,6.9C329.6,343.4,326.5,346.5,322.6,346.5L322.6,346.5z M322.6,346.5"/>
		<path id="XMLID_505_" class="st92" d="M350.3,215.1c-6.3,8.4-16.4,13.8-27.7,13.8c-19.1,0-34.6-15.5-34.6-34.6
			c0-19.1,15.5-34.6,34.6-34.6c11.3,0,21.3,5.4,27.7,13.8"/>
		<path id="XMLID_538_" class="st89" d="M405.7,194.3c0,19.1-15.5,34.6-34.6,34.6c-19.1,0-34.6-15.5-34.6-34.6
			c0-19.1,15.5-34.6,34.6-34.6C390.2,159.7,405.7,175.2,405.7,194.3L405.7,194.3z M405.7,194.3"/>
		<path id="XMLID_535_" class="st93" d="M163.5,187.4v-27.7h-13.8v69.2h13.8v-27.7h62.3v-13.8H163.5z M163.5,187.4"/>
	</g>
</g>
<g id="Layer_12" class="st0">
	<g id="XMLID_536_" class="st2">
		<g id="XMLID_583_">
			<defs>
				<rect id="XMLID_496_" x="27.5" y="27.5" width="445.1" height="445.1"/>
			</defs>
			<clipPath id="XMLID_613_">
				<use xlink:href="#XMLID_496_"  style="overflow:visible;"/>
			</clipPath>
			<path id="XMLID_588_" class="st94" d="M445.7,154.5L365.3,74v322.5h107.5V219.8C472.8,195.3,463,171.8,445.7,154.5L445.7,154.5z
				 M445.7,154.5"/>
			<path id="XMLID_585_" class="st95" d="M90.3,337.7L29.5,180.1c-6.1-15.8,1.8-33.6,17.6-39.7L333.8,30
				c15.8-6.1,33.6,1.8,39.7,17.6l60.7,157.6c6.1,15.8-1.8,33.6-17.6,39.7L130,355.4C114.1,361.4,96.4,353.6,90.3,337.7L90.3,337.7z
				 M90.3,337.7"/>
		</g>
		<path id="XMLID_580_" class="st96" d="M395.3,104.4L51.7,237.6L74.6,297l343.7-133.1L395.3,104.4z M395.3,104.4"/>
		<path id="XMLID_576_" class="st97" d="M27.5,227.6V58.6c0-17,13.8-30.7,30.7-30.7h307.1c17,0,30.7,13.8,30.7,30.7v168.9
			c0,17-13.8,30.7-30.7,30.7H58.2C41.2,258.3,27.5,244.5,27.5,227.6L27.5,227.6z M27.5,227.6"/>
		<path id="XMLID_573_" class="st98" d="M365.3,27.9h-32.6L102.3,258.3h263c17,0,30.7-13.8,30.7-30.7V58.6
			C396,41.7,382.3,27.9,365.3,27.9L365.3,27.9z M365.3,27.9"/>
		<rect id="XMLID_489_" x="58.2" y="150.8" class="st99" width="30.7" height="15.4"/>
		<rect id="XMLID_488_" x="58.2" y="196.9" class="st99" width="30.7" height="15.4"/>
		<rect id="XMLID_487_" x="196.4" y="196.9" class="st99" width="30.7" height="15.4"/>
		<rect id="XMLID_486_" x="104.3" y="150.8" class="st99" width="30.7" height="15.4"/>
		<rect id="XMLID_485_" x="150.3" y="150.8" class="st99" width="30.7" height="15.4"/>
		<rect id="XMLID_484_" x="196.4" y="150.8" class="st99" width="30.7" height="15.4"/>
		<rect id="XMLID_483_" x="342.3" y="58.6" class="st99" width="15.4" height="23"/>
		<rect id="XMLID_482_" x="311.6" y="58.6" class="st99" width="15.4" height="23"/>
		<rect id="XMLID_481_" x="280.9" y="58.6" class="st99" width="15.4" height="23"/>
		<g id="XMLID_555_">
			<defs>
				<rect id="XMLID_478_" x="27.5" y="27.5" width="445.1" height="445.1"/>
			</defs>
			<clipPath id="XMLID_614_">
				<use xlink:href="#XMLID_478_"  style="overflow:visible;"/>
			</clipPath>
			<rect id="XMLID_480_" x="250.2" y="58.6" class="st100" width="15.4" height="23"/>
			<path id="XMLID_479_" class="st101" d="M334.6,396.5h138.2v0c0,42.4-34.4,76.8-76.8,76.8h-61.4V396.5z"/>
		</g>
		<path id="XMLID_550_" class="st102" d="M312.1,166.6c-13-13-34.1-12.9-47.1,0.1c-12.5,12.6-13,32.8-1,45.9l62.9,68.6
			c-18.9,33.1-18.1,73.9,2.1,106.2l5.6,8.9h99.8V289L312.1,166.6z M312.1,166.6"/>
		<rect id="XMLID_475_" x="357.6" y="419.5" class="st103" width="15.4" height="15.4"/>
		<path id="XMLID_544_" class="st104" d="M58.2,107.8V70.9c0-6.8,5.5-12.3,12.3-12.3h36.9c6.8,0,12.3,5.5,12.3,12.3v36.9
			c0,6.8-5.5,12.3-12.3,12.3H70.5C63.7,120.1,58.2,114.6,58.2,107.8L58.2,107.8z M58.2,107.8"/>
		<rect id="XMLID_472_" x="58.2" y="81.7" class="st105" width="23" height="15.4"/>
		<rect id="XMLID_471_" x="96.6" y="81.7" class="st105" width="23" height="15.4"/>
		<path id="XMLID_537_" class="st106" d="M426.8,289c-2,0-4-0.8-5.4-2.3L390.6,256c-2.9-3-2.9-7.9,0.2-10.9c3-2.9,7.7-2.9,10.7,0
			l30.7,30.7c3,3,3,7.9,0,10.9C430.7,288.2,428.8,289,426.8,289L426.8,289z M426.8,289"/>
	</g>
</g>
</svg>
