<?xml version="1.0" encoding="utf-8"?>
<!-- Generator: Adobe Illustrator 15.1.0, SVG Export Plug-In . SVG Version: 6.00 Build 0)  -->
<!DOCTYPE svg PUBLIC "-//W3C//DTD SVG 1.1//EN" "http://www.w3.org/Graphics/SVG/1.1/DTD/svg11.dtd">
<svg version="1.1" id="Layer_1" xmlns="http://www.w3.org/2000/svg" xmlns:xlink="http://www.w3.org/1999/xlink" x="0px" y="0px"
	 width="396.35px" height="177.372px" viewBox="0 0 396.35 177.372" enable-background="new 0 0 396.35 177.372"
	 xml:space="preserve">
<rect x="152.372" y="18.104" fill="#FCC33C" width="5.482" height="5.161"/>
<rect x="152.372" y="7.245" fill="#FCC33C" width="5.482" height="5.161"/>
<rect x="136.782" y="23.587" fill="#FCC33C" width="5.482" height="5.16"/>
<path fill="#FFFFFF" stroke="#BFBEBC" stroke-width="5.5906" stroke-miterlimit="10" d="M389.329,100.177
	c0,34.276-27.787,62.062-62.064,62.062H79.12c-34.277,0-62.063-27.786-62.063-62.062v-1.519c0-34.276,27.787-62.062,62.063-62.062
	h248.144c34.277,0,62.064,27.787,62.064,62.062L389.329,100.177L389.329,100.177z"/>
<path fill="#FCC33C" d="M75.417,29.085c-38.879,0-70.398,31.519-70.398,70.398c0,38.88,31.52,70.398,70.398,70.398
	c38.88,0,70.397-31.52,70.397-70.398S114.296,29.085,75.417,29.085z M75.417,147.849c-26.711,0-48.365-21.653-48.365-48.365
	c0-26.711,21.654-48.365,48.365-48.365s48.366,21.654,48.366,48.365C123.782,126.195,102.128,147.849,75.417,147.849z"/>
<g id="MhoNbf_1_">
	<g>
		<g id="XMLID_3_">
			<g>
				<path d="M347.613,97.232c-3.439,0-6.881,0-10.32,0c-1.64-6.575,2.387-18.849-0.431-24.083
					c-2.149-3.999-8.632-2.051-10.752,1.291c0,7.599,0,15.193,0,22.792c-3.151,0-6.309,0-9.461,0c0-11.181,0-22.362,0-33.543
					c0.8-0.486,3.195,0.306,5.161,0c1.604,0.546,1.683,2.619,2.15,4.301c3.965-2.697,10.9-7.457,17.632-4.301
					C350.812,68.011,346.636,84.366,347.613,97.232z"/>
				<path d="M293.426,63.259c11.999-2.047,23.206,7.074,20.643,21.072c-1.813,9.908-11.326,13.962-18.062,13.761
					C274.053,97.431,274.216,66.536,293.426,63.259z M299.877,89.062c9.021-3.006,6.604-20.053-5.591-17.202
					C281.278,74.9,289.547,92.506,299.877,89.062z"/>
				<path fill="#FFFFFF" d="M294.287,71.86c12.195-2.851,14.612,14.196,5.591,17.202C289.547,92.506,281.278,74.9,294.287,71.86z"/>
				<path d="M277.945,89.922c0.264,2.317,0.887,4.273,0.86,6.881c-5.87,1.798-12.799,2.076-15.912-1.721
					c-4.489-5.475-1.036-15.903-2.149-24.942c-16.343-2.292-15.585,12.515-15.053,27.093c-3.298,0-6.592,0-9.891,0
					c0-11.181,0-22.362,0-33.543c2.902,0.039,3.509-0.296,6.021,0c0.783,2.37,1.669,4.636,2.58,6.881
					c2.456-5.285,7.539-7.943,16.343-6.881c0.73-3.139,1.428-6.313,1.721-9.891c2.722,0,5.448,0,8.171,0c0,3.152,0,6.309,0,9.461
					c1.677,0.903,4.945,0.215,7.311,0.43c0,2.15,0,4.301,0,6.451c-2.292,0-4.589,0-6.881,0c-0.551,5.6-1.112,14.854,0.432,19.781
					C273.24,90.688,276.122,90.353,277.945,89.922z"/>
				<path fill="#FFFFFF" d="M224.619,77.451c2.438,16.84-21.038,14.307-17.633,0C208.75,70.041,222.357,69.28,224.619,77.451z"/>
				<path d="M212.578,63.259c25.08-4.223,27.841,34.525,3.439,34.833C194.958,98.359,191.492,66.807,212.578,63.259z
					 M206.987,77.451c-3.405,14.307,20.07,16.84,17.633,0C222.357,69.28,208.75,70.041,206.987,77.451z"/>
				<path d="M194.946,51.218c0,15.34,0,30.675,0,46.015c-3.439,0-6.881,0-10.32,0c-4.984-10.497-10.566-20.397-15.482-30.963
					c-1.002,9.461-0.142,20.784-0.43,30.963c-3.152,0-6.31,0-9.461,0c0-15.339,0-30.675,0-46.015c3.729,0,7.453,0,11.182,0
					c4.911,9.28,9.882,18.5,14.622,27.953c1.002-8.459,0.143-18.78,0.43-27.953C188.637,51.218,191.793,51.218,194.946,51.218z"/>
				<path d="M152.371,12.513c0,1.862,0,3.729,0,5.591c-1.721,0-3.44,0-5.161,0c-0.628,0.675,0.718,3.965-0.431,5.161
					c-3.711-0.271-6.137,0.744-9.891,0.43c0,3.44,0,6.88,0,10.321c-1.578,0-3.152,0-4.729,0c0,1.72,0,3.44,0,5.161
					c-1.578,0-3.152,0-4.73,0c-0.985,0.877-0.155,3.569-0.43,5.161c1.578,0,3.151,0,4.729,0c0.826-1.041,0.271-3.458,0.431-5.161
					c1.432,0,2.867,0,4.3,0c0.826-1.041,0.271-3.458,0.43-5.161c1.72,0,3.44,0,5.161,0c0-1.72,0-3.44,0-5.161
					c1.862,0,3.729,0,5.59,0c0.728,0.985,0.026,3.668,0.43,5.161c-1.861,0-3.729,0-5.59,0c-0.984,0.877-0.154,3.569-0.43,5.161
					c-1.72,0-3.44,0-5.161,0c0,3.583,0,7.169,0,10.751c-1.29,0-2.58,0-3.871,0c-0.979,0.598-0.159,2.993-0.43,4.3
					c-1.433,0-2.869,0-4.301,0c-0.882,1.415-0.232,4.356-0.431,6.451c-1.29,0-2.58,0-3.87,0c0,1.72,0,3.44,0,5.161
					c-1.72,0-3.439,0-5.16,0c0-1.578,0-3.152,0-4.73c-0.877-0.985-3.569-0.155-5.161-0.43c0,1.578,0,3.152,0,4.73
					c1.041,0.826,3.458,0.271,5.161,0.43c0,1.862,0,3.729,0,5.591c-1.721,0-3.44,0-5.161,0c0,2.008,0,4.012,0,6.021
					c-1.433,0-2.868,0-4.301,0c0,1.72,0,3.44,0,5.161c-1.289,0-2.58,0-3.87,0c-0.417,9.388-7.44,16.472-11.182,24.083
					c-1.871,3.807-2.791,6.786-4.3,10.32c-1.536,3.596-3.359,10.605-7.311,11.611c-11.182,2.843-12.626-8.842-15.912-15.912
					c-3.261-7.019-8.339-16.092-12.901-21.932c-1.746-2.237-12.919-11.169-7.741-15.482c4.688-3.905,15.556,6.158,18.922,9.461
					c5.337,5.23,9.371,9.753,12.472,14.621c5.707-11.494,11.512-22.89,18.062-33.542c1.29,0,2.581,0,3.871,0c0-1.72,0-3.44,0-5.161
					c1.148,0,2.292,0,3.44,0c0-1.72,0-3.44,0-5.161c2.589,0.142,3.337-0.585,4.729,0c0.92-1.944,0.202-5.53,0.431-8.171
					c1.861,0,3.729,0,5.59,0c0,1.579,0,3.152,0,4.73c0.877,0.985,3.568,0.155,5.161,0.43c0-1.578,0-3.152,0-4.73
					c-1.041-0.826-3.458-0.271-5.161-0.43c0-1.578,0-3.152,0-4.73c1.432,0,2.869,0,4.3,0c0.977-0.456,0.164-2.705,0.43-3.871
					c1.812,0.912,5.238,0.211,7.741,0.43c0.795-0.924,0.288-3.152,0.43-4.73c-0.734-0.985-3.28-0.159-4.729-0.43
					c0-1.72,0-3.44,0-5.161c1.703,0.159,4.12-0.396,5.161,0.43c0,1.432,0,2.869,0,4.301c0.734,0.984,3.28,0.159,4.729,0.43
					c0.955-2.773,0.181-7.276,0.43-10.751c1.578,0,3.152,0,4.73,0c0-1.72,0-3.44,0-5.161c3.152,0,6.309,0,9.461,0
					c0.985-0.877,0.155-3.569,0.43-5.161C147.941,12.096,150.539,12.686,152.371,12.513z"/>
				<path d="M132.159,34.016c1.577,0,3.151,0,4.729,0c-0.159,1.703,0.396,4.12-0.43,5.161c-1.433,0-2.868,0-4.3,0
					C132.159,37.456,132.159,35.736,132.159,34.016z"/>
				<path d="M127.428,39.176c1.578,0,3.152,0,4.73,0c-0.159,1.703,0.396,4.12-0.431,5.161c-1.578,0-3.151,0-4.729,0
					C127.273,42.746,126.443,40.054,127.428,39.176z"/>
				<path d="M118.827,61.109c0,1.578,0,3.152,0,4.73c-1.703-0.159-4.12,0.396-5.161-0.43c0-1.578,0-3.152,0-4.73
					C115.258,60.954,117.95,60.124,118.827,61.109z"/>
				<path d="M118.827,47.777c0,1.578,0,3.152,0,4.73c-1.592-0.275-4.283,0.555-5.161-0.43c0-1.578,0-3.152,0-4.73
					C115.37,47.506,117.787,46.952,118.827,47.777z"/>
			</g>
		</g>
	</g>
</g>
<g>
	<path fill="#BFBEBC" d="M158.748,135.107c1.66,0.979,4.255,1.829,6.937,1.829c3.319,0,5.192-1.574,5.192-3.915
		c0-2.17-1.447-3.447-5.064-4.767c-4.767-1.702-7.788-4.213-7.788-8.342c0-4.724,3.916-8.256,10.171-8.256
		c3.107,0,5.362,0.682,6.853,1.447l-1.234,4.213c-1.063-0.554-3.063-1.361-5.745-1.361c-3.318,0-4.724,1.744-4.724,3.446
		c0,2.213,1.66,3.234,5.49,4.724c4.979,1.873,7.362,4.385,7.362,8.513c0,4.639-3.49,8.639-10.853,8.639
		c-3.063,0-6.213-0.851-7.788-1.83L158.748,135.107z"/>
	<path fill="#BFBEBC" d="M200.876,128.084h-10.811v8.428h12.086v4.298h-17.319v-28.685h16.682v4.299h-11.447v7.404h10.811
		L200.876,128.084L200.876,128.084z"/>
	<path fill="#BFBEBC" d="M231.217,140c-1.234,0.597-3.957,1.276-7.447,1.276c-9.106,0-14.641-5.702-14.641-14.469
		c0-9.448,6.598-15.149,15.363-15.149c3.446,0,5.872,0.723,6.938,1.275l-1.107,4.171c-1.36-0.597-3.274-1.106-5.616-1.106
		c-5.83,0-10.043,3.66-10.043,10.555c0,6.341,3.659,10.342,10,10.342c2.086,0,4.299-0.426,5.703-1.021L231.217,140z"/>
	<path fill="#BFBEBC" d="M244.79,112.125v16.727c0,5.617,2.34,8.213,5.873,8.213c3.787,0,6.043-2.596,6.043-8.213v-16.727h5.233
		v16.386c0,8.852-4.553,12.767-11.446,12.767c-6.64,0-10.938-3.701-10.938-12.725v-16.428H244.79L244.79,112.125z"/>
	<path fill="#BFBEBC" d="M271.852,112.552c2-0.384,4.896-0.64,7.916-0.64c4.129,0,6.896,0.683,8.853,2.299
		c1.573,1.319,2.469,3.319,2.469,5.787c0,3.703-2.512,6.215-5.234,7.149v0.128c2.086,0.768,3.318,2.768,4,5.532
		c0.937,3.575,1.703,6.896,2.256,8.001h-5.362c-0.425-0.852-1.148-3.191-1.914-6.768c-0.853-3.744-2.17-4.937-5.15-5.021h-2.637
		v11.788h-5.193v-28.257H271.852z M277.045,125.191h3.104c3.533,0,5.703-1.873,5.703-4.724c0-3.107-2.17-4.598-5.574-4.598
		c-1.659,0-2.725,0.129-3.233,0.256V125.191z"/>
	<path fill="#BFBEBC" d="M316.024,128.084h-10.811v8.428h12.086v4.298h-17.32v-28.685h16.685v4.299h-11.449v7.404h10.811
		L316.024,128.084L316.024,128.084z"/>
	<path fill="#BFBEBC" d="M325.809,112.51c2.34-0.342,5.234-0.598,8.34-0.598c5.363,0,9.023,1.106,11.662,3.32
		c2.81,2.255,4.51,5.702,4.51,10.555c0,5.148-1.743,8.937-4.469,11.404c-2.85,2.596-7.404,3.915-12.979,3.915
		c-3.021,0-5.32-0.17-7.064-0.383V112.51z M331.043,136.852c0.723,0.128,1.83,0.128,2.893,0.128
		c6.812,0.043,10.854-3.745,10.854-11.022c0.041-6.297-3.617-9.957-10.172-9.957c-1.66,0-2.81,0.127-3.574,0.297L331.043,136.852
		L331.043,136.852z"/>
</g>
</svg>
