<?xml version="1.0" encoding="utf-8"?>
<!-- Generator: Adobe Illustrator 19.0.0, SVG Export Plug-In . SVG Version: 6.00 Build 0)  -->
<svg version="1.1" xmlns="http://www.w3.org/2000/svg" xmlns:xlink="http://www.w3.org/1999/xlink" x="0px" y="0px"
	 viewBox="0 0 566 129" style="enable-background:new 0 0 566 129;" xml:space="preserve">
<style type="text/css">
	.st0{display:none;}
	.st1{fill:url(#XMLID_117_);}
	.st2{display:inline;}
	.st3{fill:#191816;}
	.st4{fill:url(#XMLID_118_);}
	.st5{fill:#FCFCFC;}
	.st6{display:inline;fill:#FCFCFC;}
	.st7{display:inline;fill:#7CC64B;}
	.st8{display:inline;fill:#404853;}
	.st9{display:inline;fill:#191816;}
	.st10{display:inline;fill:#333333;}
	.st11{display:inline;fill:url(#XMLID_119_);}
	.st12{display:inline;fill:url(#XMLID_120_);}
	.st13{display:inline;fill:url(#XMLID_121_);}
	.st14{display:inline;fill:url(#XMLID_122_);}
	.st15{fill:#FF6010;}
	.st16{fill:#FF6E1D;}
	.st17{fill:url(#XMLID_123_);}
	.st18{fill:url(#XMLID_124_);}
	.st19{fill:url(#XMLID_125_);}
	.st20{fill:url(#XMLID_126_);}
	.st21{fill:url(#XMLID_127_);}
	.st22{fill:url(#XMLID_128_);}
	.st23{fill:url(#XMLID_129_);}
	.st24{fill:url(#XMLID_130_);}
	.st25{fill:url(#XMLID_131_);}
	.st26{fill:url(#XMLID_132_);}
	.st27{fill:url(#XMLID_133_);}
	.st28{fill:url(#XMLID_134_);}
	.st29{fill:url(#XMLID_174_);}
	.st30{fill:url(#XMLID_175_);}
	.st31{fill:url(#XMLID_176_);}
	.st32{fill:url(#XMLID_177_);}
	.st33{fill:url(#XMLID_178_);}
	.st34{fill:url(#XMLID_179_);}
	.st35{fill:url(#XMLID_180_);}
	.st36{fill:url(#XMLID_181_);}
	.st37{fill:url(#XMLID_182_);}
	.st38{fill:url(#XMLID_183_);}
	.st39{fill:url(#XMLID_184_);}
	.st40{fill:url(#XMLID_185_);}
	.st41{fill:url(#XMLID_186_);}
	.st42{fill:url(#XMLID_187_);}
	.st43{fill:url(#XMLID_188_);}
</style>
<g id="Hor_Curves" class="st0">
	<linearGradient id="XMLID_117_" gradientUnits="userSpaceOnUse" x1="4.9821" y1="645.7471" x2="446.9821" y2="-314.2528">
		<stop  offset="0" style="stop-color:#F0F0F0"/>
		<stop  offset="7.460624e-002" style="stop-color:#F3F3F3"/>
		<stop  offset="0.4629" style="stop-color:#FCFCFC"/>
		<stop  offset="1" style="stop-color:#FFFFFF"/>
	</linearGradient>
	<rect id="XMLID_64_" x="-217" y="-458.1" class="st1" width="1000" height="1000"/>
	<g id="XMLID_43_" class="st2">
		<path id="XMLID_51_" class="st3" d="M281.3,63.2"/>
		<g id="XMLID_49_">
			<polyline id="XMLID_50_" class="st3" points="192.1,63.7 177.4,63.7 193.6,39.3 199.8,39.3 209.3,8.9 138.1,111.1 75,111.1 
				107.1,9 75,8.7 75,-27.3 154.8,-27.3 122.7,74.9 197.7,-27.3 257,-27.3 213.5,111.1 177.2,111.1 			"/>
		</g>
		<linearGradient id="XMLID_118_" gradientUnits="userSpaceOnUse" x1="281.28" y1="63.2224" x2="281.28" y2="63.2224">
			<stop  offset="0" style="stop-color:#FFFFFF"/>
			<stop  offset="4.629517e-002" style="stop-color:#FFFFFF;stop-opacity:0.9537"/>
			<stop  offset="1" style="stop-color:#FFFFFF;stop-opacity:0"/>
		</linearGradient>
		<path id="XMLID_47_" class="st4" d="M281.3,63.2"/>
		<g id="XMLID_146_">
			<path id="XMLID_147_" class="st3" d="M370.6,55.5h-25.5l-5.8,15.8h-5l21.2-56.1h4.5l21.2,56.1h-4.9L370.6,55.5z M346.6,51.5h22.5
				l-11.3-30.6L346.6,51.5z"/>
			<path id="XMLID_150_" class="st3" d="M411.8,47.8h-16.3v23.4h-4.8V15.1h18.2c6,0,10.7,1.5,14,4.4c3.4,2.9,5,7,5,12.2
				c0,3.6-1.1,6.8-3.2,9.5c-2.1,2.7-4.9,4.6-8.5,5.7l14,23.9v0.5h-5L411.8,47.8z M395.5,43.8H410c4,0,7.2-1.1,9.6-3.4
				c2.4-2.3,3.6-5.2,3.6-8.8c0-4-1.3-7-3.8-9.2c-2.5-2.2-6.1-3.3-10.6-3.3h-13.4V43.8z"/>
			<path id="XMLID_153_" class="st3" d="M448.4,15.1l20.7,49.5l20.8-49.5h6.3v56.1h-4.7V46.8l0.4-25.1l-20.9,49.5h-3.7l-20.8-49.3
				l0.4,24.7v24.6h-4.7V15.1H448.4z"/>
			<path id="XMLID_155_" class="st3" d="M527,45.7l17.2-30.6h5.5l-20.3,35v21.1h-4.7V50.1l-20.2-35h5.6L527,45.7z"/>
		</g>
		<rect id="XMLID_46_" x="286.1" y="-46.3" class="st3" width="4" height="176.5"/>
	</g>
</g>
<g id="FINAL_not_shopped" class="st0">
	<rect id="XMLID_45_" x="-217" y="-458.1" class="st5" width="1000" height="1000"/>
	<g id="XMLID_55_" class="st2">
		<g id="XMLID_248_">
			<g id="XMLID_251_">
				<polygon id="XMLID_266_" class="st3" points="102.6,5.1 79.5,78.7 60.2,78.7 66.3,59.4 57.2,59.4 65.9,46.4 70.3,46.4 
					77.3,24.4 39.4,78.7 5.9,78.7 22.9,24.4 10.7,24.4 16.8,5.1 48.3,5.1 31.2,59.4 71.1,5.1 				"/>
			</g>
		</g>
		<g id="XMLID_56_">
			<path id="XMLID_57_" class="st3" d="M142.8,63.7c2.3-6.4,3.9-10.5,4.8-12.3l18.8-38.3h13.8l-32.6,63.6H133l-5.5-63.6h12.8
				l2.2,38.3c0.1,1.3,0.2,3.2,0.2,5.8c-0.1,3-0.1,5.2-0.3,6.5H142.8z"/>
			<path id="XMLID_65_" class="st3" d="M170.8,76.7l13.6-63.6h13.3l-13.6,63.6H170.8z"/>
			<path id="XMLID_236_" class="st3" d="M218.5,76.7h-13.3l11.1-52.4h-15.3l2.4-11.2h44l-2.4,11.2h-15.4L218.5,76.7z"/>
			<path id="XMLID_238_" class="st3" d="M274,61.5h-20.6l-7.5,15.1H232l33.3-63.9h16.2l6.4,63.9h-12.9L274,61.5z M273.4,50.2
				L272.2,35c-0.3-3.8-0.4-7.5-0.4-11v-1.6c-1.3,3.5-2.9,7.2-4.7,11.1l-8.2,16.8H273.4z"/>
			<path id="XMLID_241_" class="st3" d="M292.1,76.7l13.4-63.6h13.3l-11.1,52.5H330l-2.4,11.1H292.1z"/>
			<path id="XMLID_243_" class="st3" d="M387,54.1h-22.3l-12.5,22.6h-5.1l35.8-63.9h2.9l8.7,63.9H390L387,54.1z M386.5,50l-1.7-12.7
				c-0.9-7-1.5-12.9-1.7-17.5c-0.9,1.8-1.8,3.7-2.8,5.7c-1,1.9-5.4,10.1-13.3,24.5H386.5z"/>
			<path id="XMLID_247_" class="st3" d="M409.1,49.1l-5.7,27.6H399l13.5-63.6h13.2c12.5,0,18.7,5.2,18.7,15.7
				c0,5.3-1.5,9.7-4.5,13.2c-3,3.5-7.1,5.7-12.3,6.6c5.8,17.1,9,26.5,9.6,28.2h-4.8l-9.2-27.6H409.1z M410.1,45.1h11
				c6,0,10.6-1.4,13.8-4.2c3.2-2.8,4.7-6.9,4.7-12.3c0-7.8-4.8-11.7-14.3-11.7h-9.2L410.1,45.1z"/>
			<path id="XMLID_255_" class="st3" d="M474.4,67.8l31.9-54.7h6.5l-13.1,63.6h-4.4l8.3-39.2c2.3-10.7,3.7-17.2,4.4-19.5h-0.3
				l-34,58.7h-2.2L461.9,18h-0.3c-0.6,4.5-1.7,10.6-3.4,18.5l-8.5,40.1h-4.2L459,13.1h6.2l8.9,54.7H474.4z"/>
			<path id="XMLID_257_" class="st3" d="M531.4,48.6L555,13.1h5.1l-27.5,40.6L528,76.7h-4.6l5.2-23.7l-10.3-39.9h4.4L531.4,48.6z"/>
		</g>
		<path id="XMLID_271_" class="st5" d="M109.9,44.3c0,0,109-0.5,228.4,3.4l0,2.2c-107.8,0.4-214.3,1.9-224.4,7.7L109.9,44.3z"/>
	</g>
</g>
<g id="Final_horizontal" class="st0">
	<rect id="XMLID_289_" x="-217" y="-458.1" class="st6" width="1000" height="1000"/>
	<g id="RESPALDO">
		<g id="XMLID_344_" class="st2">
			<g id="XMLID_345_">
				<polygon id="XMLID_346_" class="st3" points="102.6,5.1 79.5,78.7 60.2,78.7 66.3,59.4 57.2,59.4 65.9,46.4 70.3,46.4 
					77.3,24.4 39.4,78.7 5.9,78.7 22.9,24.4 10.7,24.4 16.8,5.1 48.3,5.1 31.2,59.4 71.1,5.1 				"/>
			</g>
		</g>
		<g id="XMLID_280_" class="st2">
			<path id="XMLID_340_" class="st3" d="M166.4,13L151,44.3c4.1,0,8.5,0.1,13.1,0.1l16-31.3H166.4z M142.8,63.7h-0.3
				c0.1-1.4,0.2-3.5,0.3-6.5c0-1.3,0-2.5,0-3.4c-4.3,0.3-8.2,0.6-11.6,0.9l1.9,22.1h14.5l12.2-23.9c-4.7,0.2-9.1,0.4-13.2,0.7
				C145.7,55.7,144.4,59.1,142.8,63.7z M140.3,13h-12.8l2.7,31.2c3.6,0,7.6,0,11.9,0L140.3,13z"/>
			<path id="XMLID_337_" class="st3" d="M184.4,13l-6.7,31.4c4.3,0,8.7,0.1,13.2,0.1l6.7-31.6H184.4z M170.8,76.7h13.3l5.3-25
				c-4.6,0.1-9.1,0.3-13.4,0.4L170.8,76.7z"/>
			<path id="XMLID_334_" class="st3" d="M203.3,13l-2.4,11.2h15.3l-4.3,20.6c4.3,0.1,8.7,0.1,13.2,0.2l4.4-20.8h15.4l2.4-11.2H203.3
				z M205.2,76.7h13.3l5.4-25.7c-4.5,0.1-9,0.2-13.3,0.3L205.2,76.7z"/>
			<path id="XMLID_331_" class="st3" d="M285.3,50.2c-13.6,0.1-26.9,0.3-39.7,0.4L232,76.7h13.9l7.5-15.1H274l1,15.1H288L285.3,50.2
				z M267,33.5c1.9-3.9,3.5-7.6,4.8-11.1V24c0,3.5,0.1,7.2,0.4,11l0.8,10.9c3.9,0.1,7.9,0.2,11.9,0.3l-3.3-33.4h-16.2l-17,32.6
				c4.2,0.1,8.5,0.2,12.8,0.3L267,33.5z"/>
			<path id="XMLID_328_" class="st3" d="M307.7,65.5L311,50c-4.5,0-8.9,0-13.3,0.1l-5.6,26.6h35.6l2.4-11.1H307.7z M318.8,13h-13.3
				l-7.1,33.5c4.4,0.1,8.8,0.2,13.2,0.3L318.8,13z"/>
			<path id="XMLID_324_" class="st3" d="M385.8,12.8h-2.9l-35.8,63.9h5.1l12.5-22.6H387l3,22.6h4.6L385.8,12.8z M367,50
				c7.9-14.4,12.3-22.6,13.3-24.5c1-2,1.9-3.8,2.8-5.7c0.2,4.6,0.8,10.5,1.7,17.5l1.7,12.7H367z"/>
			<path id="XMLID_320_" class="st3" d="M425.6,13h-13.2L399,76.7h4.5l5.7-27.5h14.1l9.2,27.5h4.8c-0.6-1.6-3.8-11-9.6-28.2
				c5.2-0.9,9.3-3.1,12.3-6.6c3-3.5,4.5-7.9,4.5-13.2C444.3,18.3,438.1,13,425.6,13z M434.9,41c-3.2,2.8-7.8,4.1-13.8,4.1h-11
				l6-28.1h9.2c9.5,0,14.3,3.9,14.3,11.7C439.6,34.1,438,38.2,434.9,41z"/>
			<path id="XMLID_292_" class="st3" d="M506.3,13l-31.9,54.7h-0.3L465.2,13H459l-13.4,63.6h4.2l8.5-40.1c1.7-7.9,2.8-14.1,3.4-18.5
				h0.3l9.7,58.7h2.2L507.7,18h0.3c-0.6,2.3-2.1,8.7-4.3,19.5l-8.3,39.2h4.4L512.8,13H506.3z"/>
			<path id="XMLID_290_" class="st3" d="M555,13l-23.7,35.6L522.6,13h-4.4L528.6,53l-5.2,23.7h4.6l4.7-23.1L560.1,13H555z"/>
		</g>
	</g>
	<rect id="XMLID_263_" x="-81" y="-279.2" class="st7" width="65" height="65"/>
	<rect id="XMLID_261_" x="-16" y="-279.2" class="st8" width="65" height="65"/>
	<rect id="XMLID_267_" x="-81" y="-173.2" class="st9" width="65" height="65"/>
	<rect id="XMLID_265_" x="-16" y="-173.2" class="st10" width="65" height="65"/>
</g>
<g id="Layer_11" class="st0">
	<g id="XMLID_249_" class="st2">
		<g id="XMLID_259_">
			<path id="XMLID_281_" class="st3" d="M166.4,13L151,44.3c4.1,0,8.5,0.1,13.1,0.1l16-31.3H166.4z M142.8,63.7h-0.3
				c0.1-1.4,0.2-3.5,0.3-6.5c0-1.3,0-2.5,0-3.4c-4.3,0.3-8.2,0.6-11.6,0.9l1.9,22.1h14.5l12.2-23.9c-4.7,0.2-9.1,0.4-13.2,0.7
				C145.7,55.7,144.4,59.1,142.8,63.7z M140.3,13h-12.8l2.7,31.2c3.6,0,7.6,0,11.9,0L140.3,13z"/>
			<path id="XMLID_279_" class="st3" d="M184.4,13l-6.7,31.4c4.3,0,8.7,0.1,13.2,0.1l6.7-31.6H184.4z M170.8,76.7h13.3l5.3-25
				c-4.6,0.1-9.1,0.3-13.4,0.4L170.8,76.7z"/>
			<path id="XMLID_277_" class="st3" d="M203.3,13l-2.4,11.2h15.3l-4.3,20.6c4.3,0.1,8.7,0.1,13.2,0.2l4.4-20.8h15.4l2.4-11.2H203.3
				z M205.2,76.7h13.3l5.4-25.7c-4.5,0.1-9,0.2-13.3,0.3L205.2,76.7z"/>
			<path id="XMLID_274_" class="st3" d="M285.3,50.2c-13.6,0.1-26.9,0.3-39.7,0.4L232,76.7h13.9l7.5-15.1H274l1,15.1H288L285.3,50.2
				z M267,33.5c1.9-3.9,3.5-7.6,4.8-11.1V24c0,3.5,0.1,7.2,0.4,11l0.8,10.9c3.9,0.1,7.9,0.2,11.9,0.3l-3.3-33.4h-16.2l-17,32.6
				c4.2,0.1,8.5,0.2,12.8,0.3L267,33.5z"/>
			<path id="XMLID_272_" class="st3" d="M307.7,65.5L311,50c-4.5,0-8.9,0-13.3,0.1l-5.6,26.6h35.6l2.4-11.1H307.7z M318.8,13h-13.3
				l-7.1,33.5c4.4,0.1,8.8,0.2,13.2,0.3L318.8,13z"/>
			<path id="XMLID_268_" class="st3" d="M385.8,12.8h-2.9l-35.8,63.9h5.1l12.5-22.6H387l3,22.6h4.6L385.8,12.8z M367,50
				c7.9-14.4,12.3-22.6,13.3-24.5c1-2,1.9-3.8,2.8-5.7c0.2,4.6,0.8,10.5,1.7,17.5l1.7,12.7H367z"/>
			<path id="XMLID_264_" class="st3" d="M425.6,13h-13.2L399,76.7h4.5l5.7-27.5h14.1l9.2,27.5h4.8c-0.6-1.6-3.8-11-9.6-28.2
				c5.2-0.9,9.3-3.1,12.3-6.6c3-3.5,4.5-7.9,4.5-13.2C444.3,18.3,438.1,13,425.6,13z M434.9,41c-3.2,2.8-7.8,4.1-13.8,4.1h-11
				l6-28.1h9.2c9.5,0,14.3,3.9,14.3,11.7C439.6,34.1,438,38.2,434.9,41z"/>
			<path id="XMLID_262_" class="st3" d="M506.3,13l-31.9,54.7h-0.3L465.2,13H459l-13.4,63.6h4.2l8.5-40.1c1.7-7.9,2.8-14.1,3.4-18.5
				h0.3l9.7,58.7h2.2L507.7,18h0.3c-0.6,2.3-2.1,8.7-4.3,19.5l-8.3,39.2h4.4L512.8,13H506.3z"/>
			<path id="XMLID_260_" class="st3" d="M555,13l-23.7,35.6L522.6,13h-4.4L528.6,53l-5.2,23.7h4.6l4.7-23.1L560.1,13H555z"/>
		</g>
	</g>
	<g id="XMLID_283_" class="st2">
		<g id="XMLID_284_">
			<polygon id="XMLID_285_" class="st3" points="95.8,13 75.8,76.7 59.2,76.7 64.4,60 56.6,60 64.1,48.8 67.9,48.8 73.9,29.7 
				41.2,76.7 12.2,76.7 27,29.7 16.4,29.7 21.7,13 48.9,13 34.1,60 68.6,13 			"/>
		</g>
	</g>
	<g id="XMLID_252_">
		<g id="XMLID_347_" class="st2">
			<polygon id="XMLID_348_" class="st3" points="95.8,13 75.8,76.7 59.2,76.7 64.4,60 56.6,60 64.1,48.8 67.9,48.8 73.9,29.7 
				41.2,76.7 12.2,76.7 27,29.7 16.4,29.7 21.7,13 48.9,13 34.1,60 68.6,13 			"/>
		</g>
	</g>
	<g id="XMLID_352_">
		<linearGradient id="XMLID_119_" gradientUnits="userSpaceOnUse" x1="22.671" y1="24.1926" x2="29.8794" y2="21.2759">
			<stop  offset="0" style="stop-color:#414042"/>
			<stop  offset="1" style="stop-color:#191816"/>
		</linearGradient>
		<polygon id="XMLID_360_" class="st11" points="32.2,13 16.4,29.7 27,29.7 		"/>
		<linearGradient id="XMLID_120_" gradientUnits="userSpaceOnUse" x1="22.9219" y1="29.0218" x2="39.2552" y2="63.0218">
			<stop  offset="0" style="stop-color:#414042"/>
			<stop  offset="1" style="stop-color:#191816"/>
		</linearGradient>
		<polygon id="XMLID_354_" class="st12" points="32.2,13 48.9,13 29.5,76.7 12.2,76.7 		"/>
		<linearGradient id="XMLID_121_" gradientUnits="userSpaceOnUse" x1="64.0127" y1="67.9023" x2="68.9294" y2="32.9023">
			<stop  offset="0" style="stop-color:#414042"/>
			<stop  offset="1" style="stop-color:#191816"/>
		</linearGradient>
		<polygon id="XMLID_361_" class="st13" points="68.6,13 85.8,13 65.8,76.7 48.7,76.7 		"/>
		<linearGradient id="XMLID_122_" gradientUnits="userSpaceOnUse" x1="15.2657" y1="78.1654" x2="101.599" y2="-7.0013">
			<stop  offset="0" style="stop-color:#414042"/>
			<stop  offset="1" style="stop-color:#191816"/>
		</linearGradient>
		<polygon id="XMLID_359_" class="st14" points="12.2,76.7 68.6,13 85.8,13 29.5,76.7 		"/>
	</g>
</g>
<g id="FINAL_HORIZONTAL" class="st0">
	<g id="XMLID_362_" class="st2">
		<g id="XMLID_382_">
			<path id="XMLID_407_" class="st3" d="M166.4,13L151,44.3c4.1,0,8.5,0.1,13.1,0.1l16-31.3H166.4z M142.8,63.7h-0.3
				c0.1-1.4,0.2-3.5,0.3-6.5c0-1.3,0-2.5,0-3.4c-4.3,0.3-8.2,0.6-11.6,0.9l1.9,22.1h14.5l12.2-23.9c-4.7,0.2-9.1,0.4-13.2,0.7
				C145.7,55.7,144.4,59.1,142.8,63.7z M140.3,13h-12.8l2.7,31.2c3.6,0,7.6,0,11.9,0L140.3,13z"/>
			<path id="XMLID_404_" class="st3" d="M184.4,13l-6.7,31.4c4.3,0,8.7,0.1,13.2,0.1l6.7-31.6H184.4z M170.8,76.7h13.3l5.3-25
				c-4.6,0.1-9.1,0.3-13.4,0.4L170.8,76.7z"/>
			<path id="XMLID_401_" class="st3" d="M203.3,13l-2.4,11.2h15.3l-4.3,20.6c4.3,0.1,8.7,0.1,13.2,0.2l4.4-20.8h15.4l2.4-11.2H203.3
				z M205.2,76.7h13.3l5.4-25.7c-4.5,0.1-9,0.2-13.3,0.3L205.2,76.7z"/>
			<path id="XMLID_398_" class="st3" d="M285.3,50.2c-13.6,0.1-26.9,0.3-39.7,0.4L232,76.7h13.9l7.5-15.1H274l1,15.1H288L285.3,50.2
				z M267,33.5c1.9-3.9,3.5-7.6,4.8-11.1V24c0,3.5,0.1,7.2,0.4,11l0.8,10.9c3.9,0.1,7.9,0.2,11.9,0.3l-3.3-33.4h-16.2l-17,32.6
				c4.2,0.1,8.5,0.2,12.8,0.3L267,33.5z"/>
			<path id="XMLID_395_" class="st3" d="M307.7,65.5L311,50c-4.5,0-8.9,0-13.3,0.1l-5.6,26.6h35.6l2.4-11.1H307.7z M318.8,13h-13.3
				l-7.1,33.5c4.4,0.1,8.8,0.2,13.2,0.3L318.8,13z"/>
			<path id="XMLID_391_" class="st3" d="M385.8,12.8h-2.9l-35.8,63.9h5.1l12.5-22.6H387l3,22.6h4.6L385.8,12.8z M367,50
				c7.9-14.4,12.3-22.6,13.3-24.5c1-2,1.9-3.8,2.8-5.7c0.2,4.6,0.8,10.5,1.7,17.5l1.7,12.7H367z"/>
			<path id="XMLID_387_" class="st3" d="M425.6,13h-13.2L399,76.7h4.5l5.7-27.5h14.1l9.2,27.5h4.8c-0.6-1.6-3.8-11-9.6-28.2
				c5.2-0.9,9.3-3.1,12.3-6.6c3-3.5,4.5-7.9,4.5-13.2C444.3,18.3,438.1,13,425.6,13z M434.9,41c-3.2,2.8-7.8,4.1-13.8,4.1h-11
				l6-28.1h9.2c9.5,0,14.3,3.9,14.3,11.7C439.6,34.1,438,38.2,434.9,41z"/>
			<path id="XMLID_385_" class="st3" d="M506.3,13l-31.9,54.7h-0.3L465.2,13H459l-13.4,63.6h4.2l8.5-40.1c1.7-7.9,2.8-14.1,3.4-18.5
				h0.3l9.7,58.7h2.2L507.7,18h0.3c-0.6,2.3-2.1,8.7-4.3,19.5l-8.3,39.2h4.4L512.8,13H506.3z"/>
			<path id="XMLID_383_" class="st3" d="M555,13l-23.7,35.6L522.6,13h-4.4L528.6,53l-5.2,23.7h4.6l4.7-23.1L560.1,13H555z"/>
		</g>
		<g id="XMLID_379_">
			<polygon id="XMLID_380_" class="st3" points="95.8,13 75.8,76.7 59.2,76.7 64.4,60 56.6,60 64.1,48.8 67.9,48.8 73.9,29.7 
				41.2,76.7 12.2,76.7 27,29.7 16.4,29.7 21.7,13 48.9,13 34.1,60 68.6,13 			"/>
		</g>
	</g>
</g>
<g id="VA_ENVIOS">
	<g id="XMLID_363_">
		<g id="XMLID_366_">
			<path id="XMLID_422_" class="st3" d="M166.4,13L151,44.3c4.1,0,8.5,0.1,13.1,0.1l16-31.3H166.4z M142.8,63.7h-0.3
				c0.1-1.4,0.2-3.5,0.3-6.5c0-1.3,0-2.5,0-3.4c-4.3,0.3-8.2,0.6-11.6,0.9l1.9,22.1h14.5l12.2-23.9c-4.7,0.2-9.1,0.4-13.2,0.7
				C145.7,55.7,144.4,59.1,142.8,63.7z M140.3,13h-12.8l2.7,31.2c3.6,0,7.6,0,11.9,0L140.3,13z"/>
			<path id="XMLID_419_" class="st3" d="M184.4,13l-6.7,31.4c4.3,0,8.7,0.1,13.2,0.1l6.7-31.6H184.4z M170.8,76.7h13.3l5.3-25
				c-4.6,0.1-9.1,0.3-13.4,0.4L170.8,76.7z"/>
			<path id="XMLID_416_" class="st3" d="M203.3,13l-2.4,11.2h15.3l-4.3,20.6c4.3,0.1,8.7,0.1,13.2,0.2l4.4-20.8h15.4l2.4-11.2H203.3
				z M205.2,76.7h13.3l5.4-25.7c-4.5,0.1-9,0.2-13.3,0.3L205.2,76.7z"/>
			<path id="XMLID_413_" class="st3" d="M285.3,50.2c-13.6,0.1-26.9,0.3-39.7,0.4L232,76.7h13.9l7.5-15.1H274l1,15.1H288L285.3,50.2
				z M267,33.5c1.9-3.9,3.5-7.6,4.8-11.1V24c0,3.5,0.1,7.2,0.4,11l0.8,10.9c3.9,0.1,7.9,0.2,11.9,0.3l-3.3-33.4h-16.2l-17,32.6
				c4.2,0.1,8.5,0.2,12.8,0.3L267,33.5z"/>
			<path id="XMLID_381_" class="st3" d="M307.7,65.5L311,50c-4.5,0-8.9,0-13.3,0.1l-5.6,26.6h35.6l2.4-11.1H307.7z M318.8,13h-13.3
				l-7.1,33.5c4.4,0.1,8.8,0.2,13.2,0.3L318.8,13z"/>
			<path id="XMLID_375_" class="st3" d="M385.8,12.8h-2.9l-35.8,63.9h5.1l12.5-22.6H387l3,22.6h4.6L385.8,12.8z M367,50
				c7.9-14.4,12.3-22.6,13.3-24.5c1-2,1.9-3.8,2.8-5.7c0.2,4.6,0.8,10.5,1.7,17.5l1.7,12.7H367z"/>
			<path id="XMLID_371_" class="st3" d="M425.6,13h-13.2L399,76.7h4.5l5.7-27.5h14.1l9.2,27.5h4.8c-0.6-1.6-3.8-11-9.6-28.2
				c5.2-0.9,9.3-3.1,12.3-6.6c3-3.5,4.5-7.9,4.5-13.2C444.3,18.3,438.1,13,425.6,13z M434.9,41c-3.2,2.8-7.8,4.1-13.8,4.1h-11
				l6-28.1h9.2c9.5,0,14.3,3.9,14.3,11.7C439.6,34.1,438,38.2,434.9,41z"/>
			<path id="XMLID_369_" class="st3" d="M506.3,13l-31.9,54.7h-0.3L465.2,13H459l-13.4,63.6h4.2l8.5-40.1c1.7-7.9,2.8-14.1,3.4-18.5
				h0.3l9.7,58.7h2.2L507.7,18h0.3c-0.6,2.3-2.1,8.7-4.3,19.5l-8.3,39.2h4.4L512.8,13H506.3z"/>
			<path id="XMLID_367_" class="st3" d="M555,13l-23.7,35.6L522.6,13h-4.4L528.6,53l-5.2,23.7h4.6l4.7-23.1L560.1,13H555z"/>
		</g>
		<g id="XMLID_364_">
			<polygon id="XMLID_365_" class="st3" points="95.8,13 75.8,76.7 59.2,76.7 64.4,60 56.6,60 64.1,48.8 67.9,48.8 73.9,29.7 
				41.2,76.7 12.2,76.7 27,29.7 16.4,29.7 21.7,13 48.9,13 34.1,60 68.6,13 			"/>
		</g>
	</g>
	<g id="XMLID_3_">
		<path id="XMLID_5_" class="st15" d="M399.2,120.1c-3.2,0-5.7-0.9-7.5-2.8c-1.8-1.9-2.7-4.5-2.7-7.8c0-3.2,0.6-6.3,1.9-9.3
			c1.3-3,3-5.3,5.1-6.9c2.1-1.7,4.5-2.5,7-2.5c2.6,0,4.6,0.6,5.9,1.7c1.3,1.1,2,2.7,2,4.8c0,3.1-1.4,5.5-4.3,7.3s-6.9,2.6-12.3,2.6
			h-0.9l-0.1,2.1c0,2.3,0.5,4,1.6,5.3c1.1,1.3,2.7,1.9,4.9,1.9c1.1,0,2.2-0.2,3.3-0.5c1.1-0.3,2.6-0.9,4.3-1.7v3.8
			c-1.6,0.8-3,1.3-4.3,1.6S400.7,120.1,399.2,120.1z M402.8,94.5c-1.8,0-3.4,0.8-5,2.4c-1.6,1.6-2.8,3.9-3.6,6.7h0.3
			c3.9,0,6.9-0.5,9-1.5c2.1-1,3.1-2.5,3.1-4.5c0-0.9-0.3-1.7-0.9-2.3C405.1,94.8,404.1,94.5,402.8,94.5z"/>
		<path id="XMLID_11_" class="st15" d="M429.7,119.6l3.8-17.9c0.3-1.8,0.5-3,0.5-3.7c0-1.1-0.3-2-0.9-2.6c-0.6-0.7-1.6-1-2.9-1
			c-1.5,0-3,0.5-4.5,1.5c-1.5,1-2.7,2.5-3.8,4.4c-1.1,1.9-1.9,4.2-2.5,6.9l-2.6,12.3h-4.3l6-28.3h3.6l-0.6,5.2h0.3
			c1.7-2.1,3.3-3.6,4.8-4.5c1.5-0.9,3.1-1.3,4.8-1.3c2.2,0,3.9,0.6,5.2,1.8c1.3,1.2,1.9,2.9,1.9,5c0,1.4-0.2,2.9-0.6,4.6l-3.7,17.4
			H429.7z"/>
		<path id="XMLID_25_" class="st15" d="M445.4,119.6l-3.2-28.3h4.3l1.7,15.8c0.4,4.4,0.6,7.6,0.6,9.3h0.2c2.2-4.7,3.7-7.9,4.6-9.6
			l8.4-15.6h4.6l-15.3,28.3H445.4z"/>
		<path id="XMLID_33_" class="st15" d="M468.2,119.6h-4.3l6-28.3h4.3L468.2,119.6z M470.7,86.9c1-1,2-2.3,3.2-3.9s2.1-2.9,2.8-3.9
			h4.9v0.5c-0.7,0.8-1.9,2.1-3.6,3.9s-3.3,3.1-4.6,4h-2.7V86.9z"/>
		<path id="XMLID_36_" class="st15" d="M490.6,91c3.3,0,5.9,1,7.7,2.9c1.9,1.9,2.8,4.6,2.8,8c0,3.2-0.6,6.3-1.9,9.2
			c-1.2,2.9-2.9,5.1-5,6.7c-2.1,1.6-4.5,2.3-7.2,2.3c-3.3,0-5.9-1-7.8-2.9s-2.8-4.6-2.8-8c0-3.3,0.6-6.3,1.9-9.2s3-5.1,5.1-6.6
			S488,91,490.6,91z M496.7,101.3c0-2-0.5-3.6-1.6-4.8c-1.1-1.2-2.5-1.8-4.4-1.8c-1.9,0-3.6,0.6-5,1.9c-1.5,1.3-2.6,3-3.5,5.3
			c-0.8,2.3-1.2,4.8-1.2,7.6c0,2.3,0.5,4,1.6,5.2c1.1,1.2,2.7,1.8,4.7,1.8c1.8,0,3.4-0.6,4.8-1.9c1.4-1.3,2.5-3,3.3-5.4
			C496.3,106.9,496.7,104.2,496.7,101.3z"/>
		<path id="XMLID_39_" class="st15" d="M520.9,111.6c0,2.7-1,4.8-2.9,6.3s-4.6,2.3-8,2.3c-2.9,0-5.5-0.6-7.9-1.8v-4.1
			c1.2,0.7,2.5,1.3,3.9,1.7s2.7,0.6,3.9,0.6c2.2,0,3.8-0.4,4.9-1.3s1.7-2,1.7-3.3c0-1-0.3-1.8-0.9-2.5s-1.9-1.6-3.9-2.8
			c-2.2-1.3-3.8-2.5-4.8-3.7s-1.4-2.6-1.4-4.3c0-2.4,0.9-4.3,2.6-5.7c1.7-1.5,4-2.2,6.9-2.2c2.9,0,5.8,0.6,8.5,1.9l-1.4,3.5
			l-1.4-0.6c-1.7-0.7-3.6-1.1-5.7-1.1c-1.6,0-2.9,0.4-3.8,1.1c-0.9,0.7-1.4,1.7-1.4,2.9c0,1,0.3,1.8,0.9,2.5
			c0.6,0.7,1.9,1.6,3.8,2.7c1.8,1,3.2,1.9,4,2.7s1.4,1.5,1.8,2.4C520.7,109.6,520.9,110.5,520.9,111.6z"/>
	</g>
	<rect id="XMLID_2_" x="-406" y="-331.1" class="st16" width="36" height="36"/>
	<rect id="XMLID_41_" x="-406" y="-367.1" class="st15" width="36" height="36"/>
	<rect id="XMLID_4_" x="-406" y="-295.1" class="st3" width="36" height="36"/>
	<g id="XMLID_1_">
		<g id="XMLID_6_">
			<linearGradient id="XMLID_123_" gradientUnits="userSpaceOnUse" x1="399.3827" y1="121.9622" x2="398.1327" y2="110.7122">
				<stop  offset="0" style="stop-color:#FF7C34"/>
				<stop  offset="1" style="stop-color:#FF6010"/>
			</linearGradient>
			<path id="XMLID_7_" class="st17" d="M403.3,116c-1.2,0.3-2.3,0.5-3.4,0.5c-2.2,0-3.9-0.6-4.9-1.9c-0.9-1.1-1.5-2.6-1.6-4.5
				c-1.5,0.5-2.9,1-4.3,1.6c0.3,2.3,1.2,4.2,2.6,5.7c1.8,1.9,4.3,2.8,7.5,2.8c1.5,0,2.9-0.2,4.1-0.5c1.2-0.3,2.7-0.8,4.3-1.6v-3.8
				C405.9,115.1,404.5,115.7,403.3,116z"/>
			<linearGradient id="XMLID_124_" gradientUnits="userSpaceOnUse" x1="426.3048" y1="118.9708" x2="425.0548" y2="107.7208">
				<stop  offset="0" style="stop-color:#FF7C34"/>
				<stop  offset="1" style="stop-color:#FF6010"/>
			</linearGradient>
			<path id="XMLID_10_" class="st18" d="M415.8,103.7l-3.4,15.9h4.3l2.6-12.3c0.4-1.7,0.8-3.3,1.4-4.7
				C419,103,417.4,103.4,415.8,103.7z M433.7,100.4c-0.1,0.4-0.1,0.8-0.2,1.3l-3.8,17.9h4.4l3.7-17.3c0.2-0.9,0.3-1.7,0.4-2.5
				C436.7,100,435.2,100.2,433.7,100.4z"/>
			<linearGradient id="XMLID_125_" gradientUnits="userSpaceOnUse" x1="455.0505" y1="115.7768" x2="453.8005" y2="104.5268">
				<stop  offset="0" style="stop-color:#FF7C34"/>
				<stop  offset="1" style="stop-color:#FF6010"/>
			</linearGradient>
			<path id="XMLID_12_" class="st19" d="M458.4,97.8l-4.9,9.1c-0.9,1.7-2.4,4.8-4.6,9.6h-0.2c0-1.8-0.2-4.9-0.6-9.3l-0.9-8.4
				c-1.4,0.1-2.8,0.3-4.2,0.5l2.3,20.4h5.9l11.9-22.1C461.6,97.6,460,97.7,458.4,97.8z"/>
			<linearGradient id="XMLID_126_" gradientUnits="userSpaceOnUse" x1="469.0433" y1="114.2221" x2="467.7933" y2="102.9721">
				<stop  offset="0" style="stop-color:#FF7C34"/>
				<stop  offset="1" style="stop-color:#FF6010"/>
			</linearGradient>
			<path id="XMLID_14_" class="st20" d="M468.6,97.3l-4.8,22.3h4.3l4.8-22.5C471.5,97.2,470,97.2,468.6,97.3z"/>
			<linearGradient id="XMLID_127_" gradientUnits="userSpaceOnUse" x1="489.5661" y1="111.9418" x2="488.3161" y2="100.6918">
				<stop  offset="0" style="stop-color:#FF7C34"/>
				<stop  offset="1" style="stop-color:#FF6010"/>
			</linearGradient>
			<path id="XMLID_17_" class="st21" d="M500.5,97.4c-1.6-0.1-3.3-0.1-4.9-0.2c0.7,1.1,1,2.4,1,4c0,3-0.4,5.6-1.2,7.9
				s-1.9,4.1-3.3,5.4c-1.4,1.3-3,1.9-4.8,1.9c-2,0-3.6-0.6-4.7-1.8c-1.1-1.2-1.6-3-1.6-5.2c0-2.8,0.4-5.3,1.2-7.6
				c0.7-2,1.7-3.5,2.9-4.8c-1.7,0-3.5,0-5.2,0c-0.6,0.9-1.1,1.8-1.5,2.8c-1.3,2.9-1.9,6-1.9,9.2c0,3.4,0.9,6,2.8,8
				c1.9,1.9,4.5,2.9,7.8,2.9c2.7,0,5.1-0.8,7.2-2.4c2.1-1.6,3.8-3.8,5-6.7c1.2-2.9,1.9-5.9,1.9-9.2C501.2,100.2,501,98.7,500.5,97.4
				z"/>
			<linearGradient id="XMLID_128_" gradientUnits="userSpaceOnUse" x1="510.9344" y1="109.5675" x2="509.6844" y2="98.3175">
				<stop  offset="0" style="stop-color:#FF7C34"/>
				<stop  offset="1" style="stop-color:#FF6010"/>
			</linearGradient>
			<path id="XMLID_20_" class="st22" d="M520.3,108.7c-0.4-0.8-1-1.7-1.8-2.4s-2.1-1.6-4-2.7c-1.9-1.1-3.2-2-3.8-2.7
				s-0.9-1.5-0.9-2.5c0-0.2,0-0.4,0-0.6c-1.5-0.1-2.9-0.2-4.3-0.2c0,0.3-0.1,0.7-0.1,1.1c0,1.6,0.5,3.1,1.4,4.3
				c0.9,1.2,2.5,2.4,4.8,3.7c2,1.2,3.3,2.1,3.9,2.8c0.6,0.7,0.9,1.5,0.9,2.5c0,1.3-0.6,2.5-1.7,3.3c-1.1,0.9-2.7,1.3-4.9,1.3
				c-1.2,0-2.5-0.2-3.9-0.6c-1.4-0.4-2.7-1-3.9-1.7v4.1c2.3,1.2,5,1.8,7.9,1.8c3.5,0,6.1-0.8,8-2.3c1.9-1.5,2.9-3.6,2.9-6.3
				C520.9,110.5,520.7,109.6,520.3,108.7z"/>
		</g>
		<linearGradient id="XMLID_129_" gradientUnits="userSpaceOnUse" x1="399.3827" y1="121.9622" x2="398.1327" y2="110.7122">
			<stop  offset="0" style="stop-color:#FF7C34"/>
			<stop  offset="1" style="stop-color:#FF6010"/>
		</linearGradient>
		<path id="XMLID_19_" class="st23" d="M407.6,114.3v3.8c-1.6,0.8-3,1.3-4.3,1.6c-1.2,0.3-2.6,0.5-4.1,0.5c-3.2,0-5.7-0.9-7.5-2.8
			c-1.4-1.5-2.3-3.3-2.6-5.7c1.4-0.5,2.8-1.1,4.3-1.6c0.1,1.9,0.6,3.4,1.6,4.5c1.1,1.3,2.7,1.9,4.9,1.9c1.1,0,2.2-0.2,3.4-0.5
			C404.5,115.7,405.9,115.1,407.6,114.3z"/>
		<linearGradient id="XMLID_130_" gradientUnits="userSpaceOnUse" x1="417.5177" y1="119.9472" x2="416.2677" y2="108.6972">
			<stop  offset="0" style="stop-color:#FF7C34"/>
			<stop  offset="1" style="stop-color:#FF6010"/>
		</linearGradient>
		<path id="XMLID_16_" class="st24" d="M420.7,102.7c-0.6,1.4-1,3-1.4,4.7l-2.6,12.3h-4.3l3.4-15.9C417.4,103.4,419,103,420.7,102.7
			z"/>
		<linearGradient id="XMLID_131_" gradientUnits="userSpaceOnUse" x1="434.8542" y1="118.0209" x2="433.6042" y2="106.7709">
			<stop  offset="0" style="stop-color:#FF7C34"/>
			<stop  offset="1" style="stop-color:#FF6010"/>
		</linearGradient>
		<path id="XMLID_15_" class="st25" d="M438.2,99.8c-0.1,0.8-0.2,1.6-0.4,2.5l-3.7,17.3h-4.4l3.8-17.9c0.1-0.5,0.2-0.9,0.2-1.3
			C435.2,100.2,436.7,100,438.2,99.8z"/>
		<linearGradient id="XMLID_132_" gradientUnits="userSpaceOnUse" x1="455.0505" y1="115.7768" x2="453.8005" y2="104.5268">
			<stop  offset="0" style="stop-color:#FF7C34"/>
			<stop  offset="1" style="stop-color:#FF6010"/>
		</linearGradient>
		<path id="XMLID_18_" class="st26" d="M463.2,97.5l-11.9,22.1h-5.9L443,99.2c1.4-0.2,2.8-0.3,4.2-0.5l0.9,8.4
			c0.4,4.4,0.6,7.6,0.6,9.3h0.2c2.2-4.7,3.7-7.9,4.6-9.6l4.9-9.1C460,97.7,461.6,97.6,463.2,97.5z"/>
		<linearGradient id="XMLID_133_" gradientUnits="userSpaceOnUse" x1="469.0433" y1="114.2221" x2="467.7933" y2="102.9721">
			<stop  offset="0" style="stop-color:#FF7C34"/>
			<stop  offset="1" style="stop-color:#FF6010"/>
		</linearGradient>
		<path id="XMLID_21_" class="st27" d="M473,97.2l-4.8,22.5h-4.3l4.8-22.3C470,97.2,471.5,97.2,473,97.2z"/>
		<linearGradient id="XMLID_134_" gradientUnits="userSpaceOnUse" x1="489.5661" y1="111.9418" x2="488.3161" y2="100.6918">
			<stop  offset="0" style="stop-color:#FF7C34"/>
			<stop  offset="1" style="stop-color:#FF6010"/>
		</linearGradient>
		<path id="XMLID_26_" class="st28" d="M501.2,101.8c0,3.2-0.6,6.3-1.9,9.2c-1.2,2.9-2.9,5.1-5,6.7c-2.1,1.6-4.5,2.4-7.2,2.4
			c-3.3,0-5.9-1-7.8-2.9c-1.9-1.9-2.8-4.6-2.8-8c0-3.3,0.6-6.3,1.9-9.2c0.4-1,1-2,1.5-2.8c1.7,0,3.4,0,5.2,0
			c-1.2,1.2-2.2,2.8-2.9,4.8c-0.8,2.3-1.2,4.8-1.2,7.6c0,2.3,0.5,4,1.6,5.2c1.1,1.2,2.7,1.8,4.7,1.8c1.8,0,3.4-0.6,4.8-1.9
			c1.4-1.3,2.5-3,3.3-5.4s1.2-5,1.2-7.9c0-1.6-0.3-2.9-1-4c1.6,0.1,3.2,0.1,4.9,0.2C501,98.7,501.2,100.2,501.2,101.8z"/>
		<linearGradient id="XMLID_174_" gradientUnits="userSpaceOnUse" x1="510.9344" y1="109.5675" x2="509.6844" y2="98.3175">
			<stop  offset="0" style="stop-color:#FF7C34"/>
			<stop  offset="1" style="stop-color:#FF6010"/>
		</linearGradient>
		<path id="XMLID_28_" class="st29" d="M520.9,111.6c0,2.7-1,4.8-2.9,6.3c-1.9,1.5-4.6,2.3-8,2.3c-2.9,0-5.5-0.6-7.9-1.8v-4.1
			c1.2,0.7,2.5,1.3,3.9,1.7c1.4,0.4,2.7,0.6,3.9,0.6c2.2,0,3.8-0.4,4.9-1.3c1.1-0.9,1.7-2,1.7-3.3c0-1-0.3-1.8-0.9-2.5
			c-0.6-0.7-1.9-1.6-3.9-2.8c-2.2-1.3-3.8-2.5-4.8-3.7c-0.9-1.2-1.4-2.6-1.4-4.3c0-0.4,0-0.7,0.1-1.1c1.4,0.1,2.9,0.2,4.3,0.2
			c0,0.2,0,0.4,0,0.6c0,1,0.3,1.8,0.9,2.5s1.9,1.6,3.8,2.7c1.9,1,3.2,1.9,4,2.7s1.4,1.5,1.8,2.4
			C520.7,109.6,520.9,110.5,520.9,111.6z"/>
	</g>
</g>
<g id="VA_ENVIOS_copy">
	<g id="XMLID_87_">
		<path id="XMLID_100_" class="st15" d="M399.2,120.1c-3.2,0-5.7-0.9-7.5-2.8c-1.8-1.9-2.7-4.5-2.7-7.8c0-3.2,0.6-6.3,1.9-9.3
			c1.3-3,3-5.3,5.1-6.9c2.1-1.7,4.5-2.5,7-2.5c2.6,0,4.6,0.6,5.9,1.7c1.3,1.1,2,2.7,2,4.8c0,3.1-1.4,5.5-4.3,7.3s-6.9,2.6-12.3,2.6
			h-0.9l-0.1,2.1c0,2.3,0.5,4,1.6,5.3c1.1,1.3,2.7,1.9,4.9,1.9c1.1,0,2.2-0.2,3.3-0.5c1.1-0.3,2.6-0.9,4.3-1.7v3.8
			c-1.6,0.8-3,1.3-4.3,1.6S400.7,120.1,399.2,120.1z M402.8,94.5c-1.8,0-3.4,0.8-5,2.4c-1.6,1.6-2.8,3.9-3.6,6.7h0.3
			c3.9,0,6.9-0.5,9-1.5c2.1-1,3.1-2.5,3.1-4.5c0-0.9-0.3-1.7-0.9-2.3C405.1,94.8,404.1,94.5,402.8,94.5z"/>
		<path id="XMLID_98_" class="st15" d="M429.7,119.6l3.8-17.9c0.3-1.8,0.5-3,0.5-3.7c0-1.1-0.3-2-0.9-2.6c-0.6-0.7-1.6-1-2.9-1
			c-1.5,0-3,0.5-4.5,1.5c-1.5,1-2.7,2.5-3.8,4.4c-1.1,1.9-1.9,4.2-2.5,6.9l-2.6,12.3h-4.3l6-28.3h3.6l-0.6,5.2h0.3
			c1.7-2.1,3.3-3.6,4.8-4.5c1.5-0.9,3.1-1.3,4.8-1.3c2.2,0,3.9,0.6,5.2,1.8c1.3,1.2,1.9,2.9,1.9,5c0,1.4-0.2,2.9-0.6,4.6l-3.7,17.4
			H429.7z"/>
		<path id="XMLID_96_" class="st15" d="M445.4,119.6l-3.2-28.3h4.3l1.7,15.8c0.4,4.4,0.6,7.6,0.6,9.3h0.2c2.2-4.7,3.7-7.9,4.6-9.6
			l8.4-15.6h4.6l-15.3,28.3H445.4z"/>
		<path id="XMLID_93_" class="st15" d="M468.2,119.6h-4.3l6-28.3h4.3L468.2,119.6z M470.7,86.9c1-1,2-2.3,3.2-3.9s2.1-2.9,2.8-3.9
			h4.9v0.5c-0.7,0.8-1.9,2.1-3.6,3.9s-3.3,3.1-4.6,4h-2.7V86.9z"/>
		<path id="XMLID_90_" class="st15" d="M490.6,91c3.3,0,5.9,1,7.7,2.9c1.9,1.9,2.8,4.6,2.8,8c0,3.2-0.6,6.3-1.9,9.2
			c-1.2,2.9-2.9,5.1-5,6.7c-2.1,1.6-4.5,2.3-7.2,2.3c-3.3,0-5.9-1-7.8-2.9s-2.8-4.6-2.8-8c0-3.3,0.6-6.3,1.9-9.2s3-5.1,5.1-6.6
			S488,91,490.6,91z M496.7,101.3c0-2-0.5-3.6-1.6-4.8c-1.1-1.2-2.5-1.8-4.4-1.8c-1.9,0-3.6,0.6-5,1.9c-1.5,1.3-2.6,3-3.5,5.3
			c-0.8,2.3-1.2,4.8-1.2,7.6c0,2.3,0.5,4,1.6,5.2c1.1,1.2,2.7,1.8,4.7,1.8c1.8,0,3.4-0.6,4.8-1.9c1.4-1.3,2.5-3,3.3-5.4
			C496.3,106.9,496.7,104.2,496.7,101.3z"/>
		<path id="XMLID_88_" class="st15" d="M520.9,111.6c0,2.7-1,4.8-2.9,6.3s-4.6,2.3-8,2.3c-2.9,0-5.5-0.6-7.9-1.8v-4.1
			c1.2,0.7,2.5,1.3,3.9,1.7s2.7,0.6,3.9,0.6c2.2,0,3.8-0.4,4.9-1.3s1.7-2,1.7-3.3c0-1-0.3-1.8-0.9-2.5s-1.9-1.6-3.9-2.8
			c-2.2-1.3-3.8-2.5-4.8-3.7s-1.4-2.6-1.4-4.3c0-2.4,0.9-4.3,2.6-5.7c1.7-1.5,4-2.2,6.9-2.2c2.9,0,5.8,0.6,8.5,1.9l-1.4,3.5
			l-1.4-0.6c-1.7-0.7-3.6-1.1-5.7-1.1c-1.6,0-2.9,0.4-3.8,1.1c-0.9,0.7-1.4,1.7-1.4,2.9c0,1,0.3,1.8,0.9,2.5
			c0.6,0.7,1.9,1.6,3.8,2.7c1.8,1,3.2,1.9,4,2.7s1.4,1.5,1.8,2.4C520.7,109.6,520.9,110.5,520.9,111.6z"/>
	</g>
	<rect id="XMLID_86_" x="-406" y="-331.1" class="st16" width="36" height="36"/>
	<rect id="XMLID_85_" x="-406" y="-367.1" class="st15" width="36" height="36"/>
	<rect id="XMLID_84_" x="-406" y="-295.1" class="st3" width="36" height="36"/>
	<g id="XMLID_42_">
		<g id="XMLID_70_">
			<linearGradient id="XMLID_175_" gradientUnits="userSpaceOnUse" x1="399.3827" y1="121.9622" x2="398.1327" y2="110.7122">
				<stop  offset="0" style="stop-color:#FF7C34"/>
				<stop  offset="1" style="stop-color:#FF6010"/>
			</linearGradient>
			<path id="XMLID_82_" class="st30" d="M403.3,116c-1.2,0.3-2.3,0.5-3.4,0.5c-2.2,0-3.9-0.6-4.9-1.9c-0.9-1.1-1.5-2.6-1.6-4.5
				c-1.5,0.5-2.9,1-4.3,1.6c0.3,2.3,1.2,4.2,2.6,5.7c1.8,1.9,4.3,2.8,7.5,2.8c1.5,0,2.9-0.2,4.1-0.5c1.2-0.3,2.7-0.8,4.3-1.6v-3.8
				C405.9,115.1,404.5,115.7,403.3,116z"/>
			<linearGradient id="XMLID_176_" gradientUnits="userSpaceOnUse" x1="426.3048" y1="118.9708" x2="425.0548" y2="107.7208">
				<stop  offset="0" style="stop-color:#FF7C34"/>
				<stop  offset="1" style="stop-color:#FF6010"/>
			</linearGradient>
			<path id="XMLID_79_" class="st31" d="M415.8,103.7l-3.4,15.9h4.3l2.6-12.3c0.4-1.7,0.8-3.3,1.4-4.7
				C419,103,417.4,103.4,415.8,103.7z M433.7,100.4c-0.1,0.4-0.1,0.8-0.2,1.3l-3.8,17.9h4.4l3.7-17.3c0.2-0.9,0.3-1.7,0.4-2.5
				C436.7,100,435.2,100.2,433.7,100.4z"/>
			<linearGradient id="XMLID_177_" gradientUnits="userSpaceOnUse" x1="455.0505" y1="115.7768" x2="453.8005" y2="104.5268">
				<stop  offset="0" style="stop-color:#FF7C34"/>
				<stop  offset="1" style="stop-color:#FF6010"/>
			</linearGradient>
			<path id="XMLID_77_" class="st32" d="M458.4,97.8l-4.9,9.1c-0.9,1.7-2.4,4.8-4.6,9.6h-0.2c0-1.8-0.2-4.9-0.6-9.3l-0.9-8.4
				c-1.4,0.1-2.8,0.3-4.2,0.5l2.3,20.4h5.9l11.9-22.1C461.6,97.6,460,97.7,458.4,97.8z"/>
			<linearGradient id="XMLID_178_" gradientUnits="userSpaceOnUse" x1="469.0433" y1="114.2221" x2="467.7933" y2="102.9721">
				<stop  offset="0" style="stop-color:#FF7C34"/>
				<stop  offset="1" style="stop-color:#FF6010"/>
			</linearGradient>
			<path id="XMLID_75_" class="st33" d="M468.6,97.3l-4.8,22.3h4.3l4.8-22.5C471.5,97.2,470,97.2,468.6,97.3z"/>
			<linearGradient id="XMLID_179_" gradientUnits="userSpaceOnUse" x1="489.5661" y1="111.9418" x2="488.3161" y2="100.6918">
				<stop  offset="0" style="stop-color:#FF7C34"/>
				<stop  offset="1" style="stop-color:#FF6010"/>
			</linearGradient>
			<path id="XMLID_73_" class="st34" d="M500.5,97.4c-1.6-0.1-3.3-0.1-4.9-0.2c0.7,1.1,1,2.4,1,4c0,3-0.4,5.6-1.2,7.9
				s-1.9,4.1-3.3,5.4c-1.4,1.3-3,1.9-4.8,1.9c-2,0-3.6-0.6-4.7-1.8c-1.1-1.2-1.6-3-1.6-5.2c0-2.8,0.4-5.3,1.2-7.6
				c0.7-2,1.7-3.5,2.9-4.8c-1.7,0-3.5,0-5.2,0c-0.6,0.9-1.1,1.8-1.5,2.8c-1.3,2.9-1.9,6-1.9,9.2c0,3.4,0.9,6,2.8,8
				c1.9,1.9,4.5,2.9,7.8,2.9c2.7,0,5.1-0.8,7.2-2.4c2.1-1.6,3.8-3.8,5-6.7c1.2-2.9,1.9-5.9,1.9-9.2C501.2,100.2,501,98.7,500.5,97.4
				z"/>
			<linearGradient id="XMLID_180_" gradientUnits="userSpaceOnUse" x1="510.9344" y1="109.5675" x2="509.6844" y2="98.3175">
				<stop  offset="0" style="stop-color:#FF7C34"/>
				<stop  offset="1" style="stop-color:#FF6010"/>
			</linearGradient>
			<path id="XMLID_71_" class="st35" d="M520.3,108.7c-0.4-0.8-1-1.7-1.8-2.4s-2.1-1.6-4-2.7c-1.9-1.1-3.2-2-3.8-2.7
				s-0.9-1.5-0.9-2.5c0-0.2,0-0.4,0-0.6c-1.5-0.1-2.9-0.2-4.3-0.2c0,0.3-0.1,0.7-0.1,1.1c0,1.6,0.5,3.1,1.4,4.3
				c0.9,1.2,2.5,2.4,4.8,3.7c2,1.2,3.3,2.1,3.9,2.8c0.6,0.7,0.9,1.5,0.9,2.5c0,1.3-0.6,2.5-1.7,3.3c-1.1,0.9-2.7,1.3-4.9,1.3
				c-1.2,0-2.5-0.2-3.9-0.6c-1.4-0.4-2.7-1-3.9-1.7v4.1c2.3,1.2,5,1.8,7.9,1.8c3.5,0,6.1-0.8,8-2.3c1.9-1.5,2.9-3.6,2.9-6.3
				C520.9,110.5,520.7,109.6,520.3,108.7z"/>
		</g>
		<linearGradient id="XMLID_181_" gradientUnits="userSpaceOnUse" x1="399.3827" y1="121.9622" x2="398.1327" y2="110.7122">
			<stop  offset="0" style="stop-color:#FF7C34"/>
			<stop  offset="1" style="stop-color:#FF6010"/>
		</linearGradient>
		<path id="XMLID_69_" class="st36" d="M407.6,114.3v3.8c-1.6,0.8-3,1.3-4.3,1.6c-1.2,0.3-2.6,0.5-4.1,0.5c-3.2,0-5.7-0.9-7.5-2.8
			c-1.4-1.5-2.3-3.3-2.6-5.7c1.4-0.5,2.8-1.1,4.3-1.6c0.1,1.9,0.6,3.4,1.6,4.5c1.1,1.3,2.7,1.9,4.9,1.9c1.1,0,2.2-0.2,3.4-0.5
			C404.5,115.7,405.9,115.1,407.6,114.3z"/>
		<linearGradient id="XMLID_182_" gradientUnits="userSpaceOnUse" x1="417.5177" y1="119.9472" x2="416.2677" y2="108.6972">
			<stop  offset="0" style="stop-color:#FF7C34"/>
			<stop  offset="1" style="stop-color:#FF6010"/>
		</linearGradient>
		<path id="XMLID_68_" class="st37" d="M420.7,102.7c-0.6,1.4-1,3-1.4,4.7l-2.6,12.3h-4.3l3.4-15.9C417.4,103.4,419,103,420.7,102.7
			z"/>
		<linearGradient id="XMLID_183_" gradientUnits="userSpaceOnUse" x1="434.8542" y1="118.0209" x2="433.6042" y2="106.7709">
			<stop  offset="0" style="stop-color:#FF7C34"/>
			<stop  offset="1" style="stop-color:#FF6010"/>
		</linearGradient>
		<path id="XMLID_67_" class="st38" d="M438.2,99.8c-0.1,0.8-0.2,1.6-0.4,2.5l-3.7,17.3h-4.4l3.8-17.9c0.1-0.5,0.2-0.9,0.2-1.3
			C435.2,100.2,436.7,100,438.2,99.8z"/>
		<linearGradient id="XMLID_184_" gradientUnits="userSpaceOnUse" x1="455.0505" y1="115.7768" x2="453.8005" y2="104.5268">
			<stop  offset="0" style="stop-color:#FF7C34"/>
			<stop  offset="1" style="stop-color:#FF6010"/>
		</linearGradient>
		<path id="XMLID_66_" class="st39" d="M463.2,97.5l-11.9,22.1h-5.9L443,99.2c1.4-0.2,2.8-0.3,4.2-0.5l0.9,8.4
			c0.4,4.4,0.6,7.6,0.6,9.3h0.2c2.2-4.7,3.7-7.9,4.6-9.6l4.9-9.1C460,97.7,461.6,97.6,463.2,97.5z"/>
		<linearGradient id="XMLID_185_" gradientUnits="userSpaceOnUse" x1="469.0433" y1="114.2221" x2="467.7933" y2="102.9721">
			<stop  offset="0" style="stop-color:#FF7C34"/>
			<stop  offset="1" style="stop-color:#FF6010"/>
		</linearGradient>
		<path id="XMLID_63_" class="st40" d="M473,97.2l-4.8,22.5h-4.3l4.8-22.3C470,97.2,471.5,97.2,473,97.2z"/>
		<linearGradient id="XMLID_186_" gradientUnits="userSpaceOnUse" x1="489.5661" y1="111.9418" x2="488.3161" y2="100.6918">
			<stop  offset="0" style="stop-color:#FF7C34"/>
			<stop  offset="1" style="stop-color:#FF6010"/>
		</linearGradient>
		<path id="XMLID_62_" class="st41" d="M501.2,101.8c0,3.2-0.6,6.3-1.9,9.2c-1.2,2.9-2.9,5.1-5,6.7c-2.1,1.6-4.5,2.4-7.2,2.4
			c-3.3,0-5.9-1-7.8-2.9c-1.9-1.9-2.8-4.6-2.8-8c0-3.3,0.6-6.3,1.9-9.2c0.4-1,1-2,1.5-2.8c1.7,0,3.4,0,5.2,0
			c-1.2,1.2-2.2,2.8-2.9,4.8c-0.8,2.3-1.2,4.8-1.2,7.6c0,2.3,0.5,4,1.6,5.2c1.1,1.2,2.7,1.8,4.7,1.8c1.8,0,3.4-0.6,4.8-1.9
			c1.4-1.3,2.5-3,3.3-5.4s1.2-5,1.2-7.9c0-1.6-0.3-2.9-1-4c1.6,0.1,3.2,0.1,4.9,0.2C501,98.7,501.2,100.2,501.2,101.8z"/>
		<linearGradient id="XMLID_187_" gradientUnits="userSpaceOnUse" x1="510.9344" y1="109.5675" x2="509.6844" y2="98.3175">
			<stop  offset="0" style="stop-color:#FF7C34"/>
			<stop  offset="1" style="stop-color:#FF6010"/>
		</linearGradient>
		<path id="XMLID_48_" class="st42" d="M520.9,111.6c0,2.7-1,4.8-2.9,6.3c-1.9,1.5-4.6,2.3-8,2.3c-2.9,0-5.5-0.6-7.9-1.8v-4.1
			c1.2,0.7,2.5,1.3,3.9,1.7c1.4,0.4,2.7,0.6,3.9,0.6c2.2,0,3.8-0.4,4.9-1.3c1.1-0.9,1.7-2,1.7-3.3c0-1-0.3-1.8-0.9-2.5
			c-0.6-0.7-1.9-1.6-3.9-2.8c-2.2-1.3-3.8-2.5-4.8-3.7c-0.9-1.2-1.4-2.6-1.4-4.3c0-0.4,0-0.7,0.1-1.1c1.4,0.1,2.9,0.2,4.3,0.2
			c0,0.2,0,0.4,0,0.6c0,1,0.3,1.8,0.9,2.5s1.9,1.6,3.8,2.7c1.9,1,3.2,1.9,4,2.7s1.4,1.5,1.8,2.4
			C520.7,109.6,520.9,110.5,520.9,111.6z"/>
	</g>
</g>
<g id="FINAL_copy" class="st0">
	<rect id="XMLID_314_" x="-217" y="-458.1" class="st6" width="1000" height="1000"/>
	<linearGradient id="XMLID_188_" gradientUnits="userSpaceOnUse" x1="4.9821" y1="645.7471" x2="446.9821" y2="-314.2528">
		<stop  offset="0" style="stop-color:#F0F0F0"/>
		<stop  offset="7.460624e-002" style="stop-color:#F3F3F3"/>
		<stop  offset="0.4629" style="stop-color:#FCFCFC"/>
		<stop  offset="1" style="stop-color:#FFFFFF"/>
	</linearGradient>
	<rect id="XMLID_313_" x="-217" y="-458.1" class="st43" width="1000" height="1000"/>
	<g id="XMLID_172_" class="st2">
		<g id="XMLID_297_">
			<polygon id="XMLID_286_" class="st3" points="581.8,-175.5 445.1,259.3 331.2,259.3 367.1,145.2 313.8,145.2 364.9,68.6 
				391.1,68.6 432.1,-61.6 208.4,259.3 10.3,259.3 111.1,-61.4 38.8,-61.4 75,-175.5 260.8,-175.5 160,145.4 395.4,-175.5 			"/>
		</g>
	</g>
</g>
</svg>
