<?xml version="1.0" encoding="utf-8"?>
<!-- Generator: Adobe Illustrator 19.0.0, SVG Export Plug-In . SVG Version: 6.00 Build 0)  -->
<svg version="1.1" xmlns="http://www.w3.org/2000/svg" xmlns:xlink="http://www.w3.org/1999/xlink" x="0px" y="0px"
	 viewBox="0 0 908 147" style="enable-background:new 0 0 908 147;" xml:space="preserve">
<style type="text/css">
	.st0{fill:#D1D3D4;}
	.st1{fill:#E6E7E8;}
	.st2{fill:#73B287;}
	.st3{fill:#36435E;}
	.st4{fill:#55627A;}
	.st5{fill:#EFA492;}
	.st6{fill:#FFBDA9;}
	.st7{fill:#E85142;}
	.st8{fill:#F76C59;}
	.st9{fill:#FFFFFF;}
	.st10{fill:#FFDA73;}
	.st11{fill:#F9A54B;}
	.st12{fill:#E6E6E6;}
	.st13{fill:#CCCCCC;}
	.st14{fill:#52B5D8;}
	.st15{fill:#58595B;}
	.st16{fill:#939598;}
	.st17{fill:#6D6E71;}
	.st18{fill:#EF4136;}
	.st19{fill:#92DCF0;}
	.st20{fill:#3B404D;}
	.st21{fill:#9A9A9A;}
	.st22{fill:#424242;}
	.st23{fill:#616161;}
	.st24{fill:#B9B9B9;}
	.st25{fill:#CFCFCF;}
	.st26{fill:#7D7D7D;}
	.st27{fill:#949494;}
	.st28{fill:#DADADA;}
	.st29{fill:#B4B4B4;}
	.st30{display:none;}
	.st31{display:inline;}
	.st32{fill:#9B9B9B;}
	.st33{fill:#595959;}
	.st34{fill:#959595;}
	.st35{fill:#6E6E6E;}
	.st36{fill:#747474;}
	.st37{display:inline;fill:#FFFFFF;}
	.st38{fill:#C8C8C8;}
	.st39{fill:#404040;}
</style>
<g id="Layer_7">
	<rect id="XMLID_28_" x="118.2" y="71.6" class="st0" width="94.5" height="9.5"/>
	<rect id="XMLID_112_" x="311.1" y="71.6" class="st1" width="94.5" height="9.5"/>
	<rect id="XMLID_113_" x="504" y="71.6" class="st1" width="94.5" height="9.5"/>
	<rect id="XMLID_114_" x="696.9" y="71.6" class="st1" width="94.5" height="9.5"/>
</g>
<g id="Layer_1">
	<g id="XMLID_203_">
		<path id="XMLID_280_" class="st2" d="M511.6,76.4c0,16.5-7,31.3-18.2,41.7c-3.4,3.2-7.3,6-11.4,8.3c-4.7,2.6-9.7,4.5-15.1,5.7
			c-2.4,0.5-4.8,0.9-7.2,1.1c-1.7,0.1-3.4,0.2-5.1,0.2c-1.7,0-3.4-0.1-5.1-0.2c-2.5-0.2-4.9-0.6-7.2-1.1c-2.4-0.5-4.8-1.2-7-2
			c-2.8-1-5.5-2.2-8-3.6c-4.2-2.3-8-5.1-11.4-8.3c-11.2-10.4-18.2-25.2-18.2-41.7c0-31.5,25.5-57,57-57S511.6,44.9,511.6,76.4
			L511.6,76.4z M511.6,76.4"/>
		<path id="XMLID_277_" class="st3" d="M493.4,118.1c-10.2,9.5-23.8,15.3-38.8,15.3c-15,0-28.6-5.8-38.8-15.3l9.3-12.8
			c1.6-2.2,4.2-3.6,7-3.6h45.1c2.8,0,5.4,1.3,7,3.6L493.4,118.1z M493.4,118.1"/>
		<path id="XMLID_274_" class="st4" d="M454.6,111l-13.9,9.5l-3.3-20.2l9.3-1.2L454.6,111z M454.6,111"/>
		<path id="XMLID_271_" class="st4" d="M454.6,111l13.9,9.5l3.3-20.2l-9.3-1.2L454.6,111z M454.6,111"/>
		<path id="XMLID_268_" class="st5" d="M454.6,111c-5.5,0-9.9-4.4-9.9-9.9v-8.7h19.8v8.7C464.5,106.6,460.1,111,454.6,111L454.6,111
			z M454.6,111"/>
		<path id="XMLID_265_" class="st5" d="M438.6,70.1c0,4.5-3.6,8.1-8.1,8.1c-4.5,0-8.1-3.6-8.1-8.1c0-4.5,3.6-8.1,8.1-8.1
			C434.9,62,438.6,65.6,438.6,70.1L438.6,70.1z M438.6,70.1"/>
		<path id="XMLID_262_" class="st5" d="M486.7,70.1c0,4.5-3.6,8.1-8.1,8.1c-4.5,0-8.1-3.6-8.1-8.1c0-4.5,3.6-8.1,8.1-8.1
			C483.1,62,486.7,65.6,486.7,70.1L486.7,70.1z M486.7,70.1"/>
		<path id="XMLID_259_" class="st6" d="M478.7,48.7v26.7c0,13.3-10.8,24.1-24.1,24.1c-13.3,0-24.1-10.8-24.1-24.1V48.7H478.7z
			 M478.7,48.7"/>
		<path id="XMLID_256_" class="st5" d="M458.1,99.3c-1.1,0.2-2.3,0.2-3.5,0.2c-13.3,0-24.1-10.8-24.1-24.1V48.7h6.9v26.7
			C437.4,87.5,446.4,97.6,458.1,99.3L458.1,99.3z M458.1,99.3"/>
		<path id="XMLID_253_" class="st7" d="M480.2,45v13.3L461,49.4l-3.9-1.8L437.6,55l-8.6,3.3V45c0-14.1,11.4-25.6,25.6-25.6
			c1.5,0,2.9,0.1,4.3,0.4C471,21.8,480.2,32.3,480.2,45L480.2,45z M480.2,45"/>
		<path id="XMLID_250_" class="st8" d="M480.2,45v9.3l-14.5-6.7l-4.7,1.8l-3.9-1.8L437.6,55V45c0-12.7,9.2-23.2,21.3-25.2
			C471,21.8,480.2,32.3,480.2,45L480.2,45z M480.2,45"/>
		<path id="XMLID_247_" class="st9" d="M464.3,80.3c0,0.1,0,0.2,0,0.3c0,1-0.2,2.1-0.6,3c-0.1,0.1-0.1,0.3-0.2,0.4
			c-0.4,0.9-0.8,1.7-1.4,2.4c-0.3,0.4-0.6,0.7-1,1c-1.7,1.6-4,2.6-6.6,2.6c-2.5,0-4.8-1-6.6-2.6c-0.3-0.3-0.7-0.7-1-1
			c-0.6-0.7-1.1-1.5-1.4-2.4c-0.1-0.1-0.1-0.3-0.2-0.4c-0.3-0.9-0.5-1.9-0.6-3c0-0.1,0-0.2,0-0.3H464.3z M464.3,80.3"/>
		<path id="XMLID_244_" class="st5" d="M454.6,54.8l-4.5,21.3h4.5V54.8z M454.6,54.8"/>
		<path id="XMLID_241_" class="st5" d="M448.6,66c0-2.5-2-4.5-4.5-4.5c-2.5,0-4.5,2-4.5,4.5H448.6z M448.6,66"/>
		<path id="XMLID_238_" class="st5" d="M469.6,66c0-2.5-2-4.5-4.5-4.5c-2.5,0-4.5,2-4.5,4.5H469.6z M469.6,66"/>
		<path id="XMLID_235_" class="st3" d="M444.1,63.4c1.5,0,2.6,1.2,2.6,2.6v4.1c0,1.5-1.2,2.6-2.6,2.6c-1.5,0-2.6-1.2-2.6-2.6V66
			C441.5,64.5,442.7,63.4,444.1,63.4L444.1,63.4z M444.1,63.4"/>
		<path id="XMLID_231_" class="st3" d="M465.1,63.4c1.5,0,2.6,1.2,2.6,2.6v4.1c0,1.5-1.2,2.6-2.6,2.6c-1.5,0-2.6-1.2-2.6-2.6V66
			C462.5,64.5,463.6,63.4,465.1,63.4L465.1,63.4z M465.1,63.4"/>
		<path id="XMLID_227_" class="st5" d="M478.7,57.7v5c-7.4-3.1-15.6-4.8-24.1-4.8c-8.6,0-16.7,1.7-24.1,4.8v-5c3.3-4,7.6-7.1,12.5-9
			c3.6-1.4,7.5-2.2,11.6-2.2c4.1,0,8,0.8,11.6,2.2C471.1,50.6,475.4,53.7,478.7,57.7L478.7,57.7z M478.7,57.7"/>
		<path id="XMLID_222_" class="st10" d="M454.6,54.3c10.3,0,20,2.5,28.6,6.9c-5-10.8-15.9-18.3-28.6-18.3
			c-12.7,0-23.6,7.5-28.6,18.3C434.6,56.8,444.3,54.3,454.6,54.3L454.6,54.3z M454.6,54.3"/>
		<path id="XMLID_218_" class="st10" d="M482,114.5v11.9c-4.7,2.6-9.7,4.5-15.1,5.7c-2.4,0.5-4.8,0.9-7.2,1.1
			c-1.7,0.1-3.4,0.2-5.1,0.2c-1.7,0-3.4-0.1-5.1-0.2c-2.5-0.2-4.9-0.6-7.2-1.1c-2.4-0.5-4.8-1.2-7-2c-2.8-1-5.5-2.2-8-3.6v-11.9H482
			z M482,114.5"/>
		<path id="XMLID_213_" class="st11" d="M435.2,114.5V130c-2.8-1-5.5-2.2-8-3.6v-11.9H435.2z M435.2,114.5"/>
		<path id="XMLID_209_" class="st11" d="M466.9,132c-2.4,0.5-4.8,0.9-7.2,1.1c-1.7,0.1-3.4,0.2-5.1,0.2c-1.7,0-3.4-0.1-5.1-0.2
			c-2.5-0.2-4.9-0.6-7.2-1.1c0.2-0.6,0.5-1.1,1-1.5c0.7-0.7,1.7-1.2,2.9-1.2h17C464.9,129.3,466.4,130.4,466.9,132L466.9,132z
			 M466.9,132"/>
		<path id="XMLID_204_" class="st8" d="M461.1,125.8l-7-3.3l-7,3.3v-11.3h14V125.8z M461.1,125.8"/>
	</g>
</g>
<g id="Layer_5">
	<g id="XMLID_581_">
		<path id="XMLID_612_" class="st3" d="M125.8,76.4c0,31.5-25.5,57-57,57s-57-25.5-57-57s25.5-57,57-57S125.8,44.9,125.8,76.4
			L125.8,76.4z M125.8,76.4"/>
		<path id="XMLID_609_" class="st10" d="M119.6,31.8v70.4c-4.1,8-10,14.9-17.2,20.2c-9.4,6.9-21,11-33.6,11s-24.2-4.1-33.6-11
			c-3.6-2.6-6.9-5.7-9.8-9c-2.9-3.4-5.4-7.1-7.4-11.1V31.8H119.6z M119.6,31.8"/>
		<path id="XMLID_606_" class="st11" d="M102.4,122.4c-9.4,6.9-21,11-33.6,11s-24.2-4.1-33.6-11H102.4z M102.4,122.4"/>
		<path id="XMLID_603_" class="st11" d="M25.5,31.8v81.6c-2.9-3.4-5.4-7.1-7.4-11.1V31.8H25.5z M25.5,31.8"/>
		<path id="XMLID_600_" class="st8" d="M82.4,48.9l-13.6-8.1l-13.6,8.1V31.8h27.2V48.9z M82.4,48.9"/>
		<path id="XMLID_597_" class="st8" d="M106.9,63.3c0,0,0,55.5-38,63.4c-38-8-38-63.4-38-63.4l38-12.6L106.9,63.3z M106.9,63.3"/>
		<path id="XMLID_594_" class="st7" d="M68.8,50.7v76c-38-8-38-63.4-38-63.4L68.8,50.7z M68.8,50.7"/>
		<path id="XMLID_591_" class="st12" d="M98.8,68.8c-0.4,5.1-1.5,13-4.2,21.2c-5.2,16-13.8,25.6-25.8,28.8
			c-12-3.2-20.7-12.9-25.9-29.1c-2.6-8.1-3.6-15.9-4.1-20.9l30-9.9L98.8,68.8z M98.8,68.8"/>
		<path id="XMLID_588_" class="st13" d="M68.8,58.8v59.9c-12-3.2-20.7-12.9-25.9-29.1c-2.6-8.1-3.6-15.9-4.1-20.9L68.8,58.8z
			 M68.8,58.8"/>
		<path id="XMLID_585_" class="st8" d="M66.8,91.5c0,1,0.7,1.5,2,1.5c0.8,0,2-0.4,2-1.5c0-2.6,0.1-5.7,0.3-8.7
			c0.1-3,0.3-6.1,0.3-8.7c0-1.3-1-2.2-2.5-2.2c-1.5,0-2.5,0.9-2.5,2.2c0,2.6,0.1,5.7,0.3,8.7C66.7,85.8,66.8,88.9,66.8,91.5
			L66.8,91.5z M66.8,91.5"/>
		<path id="XMLID_582_" class="st8" d="M68.8,95.8c-1.5,0-2.7,1.2-2.7,2.7c0,1.5,1.2,2.7,2.7,2.7c1.5,0,2.7-1.3,2.7-2.7
			C71.6,97.1,70.3,95.8,68.8,95.8L68.8,95.8z M68.8,95.8"/>
	</g>
</g>
<g id="Layer_6">
	<g id="XMLID_331_">
		<path id="XMLID_399_" class="st14" d="M897.3,76.4c0,12.6-4.1,24.3-11.1,33.7c-10.4,14.1-27.1,23.2-45.9,23.2c-0.3,0-0.5,0-0.8,0
			c-1.6,0-3.3-0.1-4.8-0.3c-2.9-0.3-5.8-0.8-8.6-1.5c-8.7-2.2-16.7-6.5-23.3-12.3c-3.1-2.7-5.9-5.8-8.4-9.2
			c-1.2-1.7-2.4-3.4-3.4-5.2c-1.5-2.6-2.8-5.2-3.8-8c-2.5-6.4-3.8-13.3-3.8-20.5c0-31.5,25.5-57,57-57S897.3,44.9,897.3,76.4
			L897.3,76.4z M897.3,76.4"/>
		<path id="XMLID_396_" class="st12" d="M886.3,55.7v54.4c-2.5,3.3-5.3,6.4-8.4,9.2c-8.7,7.6-19.7,12.6-31.8,13.8
			c-1.9,0.2-3.7,0.3-5.7,0.3c-7.5,0-14.7-1.5-21.3-4.1c-7.2-2.9-13.7-7.2-19-12.6c-2-2-3.9-4.2-5.6-6.5V55.7H886.3z M886.3,55.7"/>
		<rect id="XMLID_395_" x="794.4" y="55.7" class="st13" width="91.8" height="10.3"/>
		<path id="XMLID_392_" class="st8" d="M794.5,23.5h91.7l7.8,36.8H786.7L794.5,23.5z M794.5,23.5"/>
		<path id="XMLID_389_" class="st8" d="M846,71.4v61.7c12.1-1.2,23.2-6.2,31.8-13.8V71.4H846z M846,71.4"/>
		<path id="XMLID_386_" class="st8" d="M838.8,71.4v47.9c-5.8,4.2-12.5,7.6-19.7,10c-7.2-2.9-13.7-7.2-19-12.6V71.4H838.8z
			 M838.8,71.4"/>
		<rect id="XMLID_385_" x="853.3" y="78.9" class="st14" width="17.3" height="23"/>
		<path id="XMLID_382_" class="st12" d="M853.3,111.6h3c0.9,0,1.6-0.7,1.6-1.6c0-0.9-0.7-1.6-1.6-1.6h-3c-0.9,0-1.6,0.7-1.6,1.6
			C851.7,110.9,852.4,111.6,853.3,111.6L853.3,111.6z M853.3,111.6"/>
		<path id="XMLID_375_" class="st12" d="M851.7,77.2v26.3h20.6V90.4c0,0,0,0,0,0s0,0,0,0V77.2H851.7z M854.9,80.5h5.4v8.2h-5.4V80.5
			z M868.9,80.5v8.2h-5.4v-8.2H868.9z M868.9,100.2h-5.4V92h5.4V100.2z M854.9,100.2V92h5.4v8.2H854.9z M854.9,100.2"/>
		<rect id="XMLID_374_" x="814.9" y="78.9" class="st14" width="17.3" height="23"/>
		<path id="XMLID_367_" class="st12" d="M813.3,77.2v26.3h20.6V90.4c0,0,0,0,0,0s0,0,0,0V77.2H813.3z M816.6,80.5h5.4v8.2h-5.4V80.5
			z M830.6,80.5v8.2h-5.4v-8.2H830.6z M830.6,100.2h-5.4V92h5.4V100.2z M816.6,100.2V92h5.4v8.2H816.6z M816.6,100.2"/>
		<rect id="XMLID_366_" x="806.3" y="78.9" class="st14" width="17.3" height="23"/>
		<path id="XMLID_359_" class="st12" d="M804.6,77.2v26.3h20.6V90.4c0,0,0,0,0,0s0,0,0,0V77.2H804.6z M807.9,80.5h5.4v8.2h-5.4V80.5
			z M821.9,80.5v8.2h-5.4v-8.2H821.9z M821.9,100.2h-5.4V92h5.4V100.2z M807.9,100.2V92h5.4v8.2H807.9z M807.9,100.2"/>
		<path id="XMLID_356_" class="st7" d="M797.3,49.5h86.2c0.9,0,1.6-0.7,1.6-1.6c0-0.9-0.7-1.6-1.6-1.6h-86.2c-0.9,0-1.6,0.7-1.6,1.6
			C795.6,48.7,796.3,49.5,797.3,49.5L797.3,49.5z M797.3,49.5"/>
		<path id="XMLID_353_" class="st7" d="M803.6,37.8h73.5c0.9,0,1.6-0.7,1.6-1.6c0-0.9-0.7-1.6-1.6-1.6h-73.5c-0.9,0-1.6,0.7-1.6,1.6
			C802,37.1,802.7,37.8,803.6,37.8L803.6,37.8z M803.6,37.8"/>
		<path id="XMLID_350_" class="st10" d="M839.5,84.8v48.5c-1.6,0-3.3-0.1-4.8-0.3c-2.9-0.3-5.8-0.8-8.6-1.5
			c-8.7-2.2-16.7-6.5-23.3-12.3c-3.1-2.7-5.9-5.8-8.4-9.2c-1.2-1.7-2.4-3.4-3.4-5.2c-1.5-2.6-2.8-5.2-3.8-8v-12H839.5z M839.5,84.8"
			/>
		<path id="XMLID_347_" class="st11" d="M839.5,131.6v1.8c-1.6,0-3.3-0.1-4.8-0.3c-2.9-0.3-5.8-0.8-8.6-1.5H839.5z M839.5,131.6"/>
		<path id="XMLID_344_" class="st11" d="M791,84.8v20c-1.5-2.6-2.8-5.2-3.8-8v-12H791z M791,84.8"/>
		<path id="XMLID_341_" class="st11" d="M821.5,110.3h-16.2c-2.1,0-3.9-1.7-3.9-3.9c0-2.1,1.7-3.9,3.9-3.9h16.2
			c2.1,0,3.9,1.7,3.9,3.9C825.4,108.6,823.6,110.3,821.5,110.3L821.5,110.3z M821.5,110.3"/>
		<path id="XMLID_338_" class="st8" d="M820.4,100.7l-7-4.2l-7,4.2V84.8h14V100.7z M820.4,100.7"/>
		<path id="XMLID_335_" class="st2" d="M895.9,38c0,10.3-8.3,18.6-18.6,18.6s-18.6-8.3-18.6-18.6c0-10.3,8.3-18.6,18.6-18.6
			S895.9,27.7,895.9,38L895.9,38z M895.9,38"/>
		<path id="XMLID_332_" class="st9" d="M872.1,48.2l-4.7-5.6c-0.8-1-0.7-2.5,0.3-3.3v0c1-0.8,2.5-0.7,3.3,0.3l2.8,3.3l10.1-13.8
			c0.8-1,2.2-1.3,3.2-0.5c1,0.8,1.3,2.2,0.5,3.2l-11.8,16.2C874.9,49.3,873.1,49.4,872.1,48.2L872.1,48.2z M872.1,48.2"/>
	</g>
	<g id="XMLID_27_">
		<g id="XMLID_24_">
			<path id="XMLID_104_" class="st14" d="M897.3,76.4c0,12.6-4.1,24.3-11.1,33.7c-10.4,14.1-27.1,23.2-45.9,23.2c-0.3,0-0.5,0-0.8,0
				c-1.6,0-3.3-0.1-4.8-0.3c-2.9-0.3-5.8-0.8-8.6-1.5c-8.7-2.2-16.7-6.5-23.3-12.3c-3.1-2.7-5.9-5.8-8.4-9.2
				c-1.2-1.7-2.4-3.4-3.4-5.2c-1.5-2.6-2.8-5.2-3.8-8c-2.5-6.4-3.8-13.3-3.8-20.5c0-31.5,25.5-57,57-57S897.3,44.9,897.3,76.4
				L897.3,76.4z M897.3,76.4"/>
			<path id="XMLID_101_" class="st12" d="M886.3,55.7v54.4c-2.5,3.3-5.3,6.4-8.4,9.2c-8.7,7.6-19.7,12.6-31.8,13.8
				c-1.9,0.2-3.7,0.3-5.7,0.3c-7.5,0-14.7-1.5-21.3-4.1c-7.2-2.9-13.7-7.2-19-12.6c-2-2-3.9-4.2-5.6-6.5V55.7H886.3z M886.3,55.7"/>
			<rect id="XMLID_100_" x="794.4" y="55.7" class="st13" width="91.8" height="10.3"/>
			<path id="XMLID_97_" class="st8" d="M794.5,23.5h91.7l7.8,36.8H786.7L794.5,23.5z M794.5,23.5"/>
			<path id="XMLID_94_" class="st8" d="M846,71.4v61.7c12.1-1.2,23.2-6.2,31.8-13.8V71.4H846z M846,71.4"/>
			<path id="XMLID_91_" class="st8" d="M838.8,71.4v47.9c-5.8,4.2-12.5,7.6-19.7,10c-7.2-2.9-13.7-7.2-19-12.6V71.4H838.8z
				 M838.8,71.4"/>
			<rect id="XMLID_90_" x="853.3" y="78.9" class="st15" width="17.3" height="23"/>
			<path id="XMLID_87_" class="st12" d="M853.3,111.6h3c0.9,0,1.6-0.7,1.6-1.6c0-0.9-0.7-1.6-1.6-1.6h-3c-0.9,0-1.6,0.7-1.6,1.6
				C851.7,110.9,852.4,111.6,853.3,111.6L853.3,111.6z M853.3,111.6"/>
			<path id="XMLID_80_" class="st12" d="M851.7,77.2v26.3h20.6V90.4c0,0,0,0,0,0s0,0,0,0V77.2H851.7z M854.9,80.5h5.4v8.2h-5.4V80.5
				z M868.9,80.5v8.2h-5.4v-8.2H868.9z M868.9,100.2h-5.4V92h5.4V100.2z M854.9,100.2V92h5.4v8.2H854.9z M854.9,100.2"/>
			<rect id="XMLID_79_" x="814.9" y="78.9" class="st16" width="17.3" height="23"/>
			<path id="XMLID_72_" class="st12" d="M813.3,77.2v26.3h20.6V90.4c0,0,0,0,0,0s0,0,0,0V77.2H813.3z M816.6,80.5h5.4v8.2h-5.4V80.5
				z M830.6,80.5v8.2h-5.4v-8.2H830.6z M830.6,100.2h-5.4V92h5.4V100.2z M816.6,100.2V92h5.4v8.2H816.6z M816.6,100.2"/>
			<rect id="XMLID_71_" x="806.3" y="78.9" class="st17" width="17.3" height="23"/>
			<path id="XMLID_64_" class="st12" d="M804.6,77.2v26.3h20.6V90.4c0,0,0,0,0,0s0,0,0,0V77.2H804.6z M807.9,80.5h5.4v8.2h-5.4V80.5
				z M821.9,80.5v8.2h-5.4v-8.2H821.9z M821.9,100.2h-5.4V92h5.4V100.2z M807.9,100.2V92h5.4v8.2H807.9z M807.9,100.2"/>
			<path id="XMLID_61_" class="st7" d="M797.3,49.5h86.2c0.9,0,1.6-0.7,1.6-1.6c0-0.9-0.7-1.6-1.6-1.6h-86.2c-0.9,0-1.6,0.7-1.6,1.6
				C795.6,48.7,796.3,49.5,797.3,49.5L797.3,49.5z M797.3,49.5"/>
			<path id="XMLID_58_" class="st7" d="M803.6,37.8h73.5c0.9,0,1.6-0.7,1.6-1.6c0-0.9-0.7-1.6-1.6-1.6h-73.5c-0.9,0-1.6,0.7-1.6,1.6
				C802,37.1,802.7,37.8,803.6,37.8L803.6,37.8z M803.6,37.8"/>
			<path id="XMLID_54_" class="st10" d="M839.5,84.8v48.5c-1.6,0-3.3-0.1-4.8-0.3c-2.9-0.3-5.8-0.8-8.6-1.5
				c-8.7-2.2-16.7-6.5-23.3-12.3c-3.1-2.7-5.9-5.8-8.4-9.2c-1.2-1.7-2.4-3.4-3.4-5.2c-1.5-2.6-2.8-5.2-3.8-8v-12H839.5z M839.5,84.8
				"/>
			<path id="XMLID_49_" class="st11" d="M839.5,131.6v1.8c-1.6,0-3.3-0.1-4.8-0.3c-2.9-0.3-5.8-0.8-8.6-1.5H839.5z M839.5,131.6"/>
			<path id="XMLID_45_" class="st11" d="M791,84.8v20c-1.5-2.6-2.8-5.2-3.8-8v-12H791z M791,84.8"/>
			<path id="XMLID_40_" class="st11" d="M821.5,110.3h-16.2c-2.1,0-3.9-1.7-3.9-3.9c0-2.1,1.7-3.9,3.9-3.9h16.2
				c2.1,0,3.9,1.7,3.9,3.9C825.4,108.6,823.6,110.3,821.5,110.3L821.5,110.3z M821.5,110.3"/>
			<path id="XMLID_36_" class="st8" d="M820.4,100.7l-7-4.2l-7,4.2V84.8h14V100.7z M820.4,100.7"/>
			<path id="XMLID_31_" class="st18" d="M895.9,38c0,10.3-8.3,18.6-18.6,18.6s-18.6-8.3-18.6-18.6c0-10.3,8.3-18.6,18.6-18.6
				S895.9,27.7,895.9,38L895.9,38z M895.9,38"/>
		</g>
		<path id="XMLID_111_" class="st9" d="M880.8,38.7l6.3-6.9c0.8-0.9,0.7-2.2-0.2-3.1c-0.4-0.4-0.9-0.6-1.4-0.6
			c-0.6,0-1.2,0.3-1.6,0.7l-6,6.6l-5.9-6.5c-0.4-0.5-1-0.7-1.6-0.7c-0.5,0-1.1,0.2-1.5,0.6c-0.4,0.4-0.7,0.9-0.7,1.5
			c0,0.6,0.2,1.1,0.6,1.6l6.2,6.8l-6,6.6c-0.8,0.9-0.7,2.2,0.2,3.1c0.4,0.3,0.9,0.5,1.4,0.5c0.6,0,1.2-0.3,1.6-0.7l5.7-6.3l5.8,6.4
			c0.4,0.4,1,0.7,1.6,0.7c0.5,0,1-0.2,1.5-0.6c0.9-0.8,0.9-2.2,0.1-3.1L880.8,38.7z"/>
	</g>
</g>
<g id="Layer_4">
	<g id="XMLID_403_">
		<path id="XMLID_433_" class="st8" d="M318.7,76.4c0,21.5-12,40.3-29.6,50c-0.7,0.4-1.4,0.7-2.1,1.1c-7.6,3.8-16.2,5.9-25.3,5.9
			c-9.9,0-19.2-2.5-27.4-7c-17.6-9.7-29.6-28.4-29.6-50c0-31.5,25.5-57,57-57S318.7,44.9,318.7,76.4L318.7,76.4z M318.7,76.4"/>
		<path id="XMLID_430_" class="st10" d="M289.1,78.6v47.7c-0.7,0.4-1.4,0.7-2.1,1.1c-7.6,3.8-16.2,5.9-25.3,5.9
			c-9.9,0-19.2-2.5-27.4-7V78.6H289.1z M289.1,78.6"/>
		<path id="XMLID_427_" class="st11" d="M287,127.4c-7.6,3.8-16.2,5.9-25.3,5.9c-9.9,0-19.2-2.5-27.4-7V78.6h8v48.8H287z M287,127.4
			"/>
		<path id="XMLID_424_" class="st11" d="M270.2,101.5h-17c-2.2,0-4-1.8-4-4c0-2.2,1.8-4,4-4h17c2.2,0,4,1.8,4,4
			C274.3,99.7,272.4,101.5,270.2,101.5L270.2,101.5z M270.2,101.5"/>
		<path id="XMLID_421_" class="st4" d="M268.2,89.9l-7-3.3l-7,3.3V78.6h14V89.9z M268.2,89.9"/>
		<path id="XMLID_418_" class="st3" d="M212.3,57.3l47.3-18.4v10l-38,14.8v6.8l12.8,23l-8.1,4.5l-14-25.1V57.3z M212.3,57.3"/>
		<path id="XMLID_415_" class="st4" d="M311.1,57.3v15.5l-14,25.1l-8.1-4.5l12.8-23v-6.8l-34.3-13.4v-10L311.1,57.3z M311.1,57.3"/>
		<path id="XMLID_412_" class="st3" d="M283.6,44.2c0,12.1-9.8,21.9-21.9,21.9c-12.1,0-21.9-9.8-21.9-21.9
			c0-12.1,9.8-21.9,21.9-21.9C273.8,22.3,283.6,32.1,283.6,44.2L283.6,44.2z M283.6,44.2"/>
		<path id="XMLID_409_" class="st4" d="M274.1,44.2c0,6.9-5.6,12.4-12.4,12.4s-12.4-5.6-12.4-12.4c0-6.9,5.6-12.4,12.4-12.4
			S274.1,37.3,274.1,44.2L274.1,44.2z M274.1,44.2"/>
		<path id="XMLID_406_" class="st11" d="M268.2,44.2c0,3.6-2.9,6.5-6.5,6.5c-3.6,0-6.5-2.9-6.5-6.5c0-3.6,2.9-6.5,6.5-6.5
			C265.3,37.7,268.2,40.6,268.2,44.2L268.2,44.2z M268.2,44.2"/>
		<rect id="XMLID_405_" x="233" y="19.4" class="st3" width="57.5" height="10"/>
		<rect id="XMLID_404_" x="247" y="19.4" class="st4" width="43.5" height="10"/>
	</g>
</g>
<g id="Layer_3">
	<g id="XMLID_206_">
		<path id="XMLID_295_" class="st14" d="M704.5,76.4c0,11.2-3.3,21.7-8.9,30.6c-6.2,9.8-15.4,17.6-26.3,22.1
			c-6.7,2.8-14.1,4.3-21.8,4.3c-10.3,0-19.9-2.7-28.2-7.5c-17.2-9.8-28.8-28.3-28.8-49.5c0-2.5,0.2-5,0.5-7.4c0.1-0.7,0.2-1.4,0.3-2
			c0.1-0.5,0.2-0.9,0.3-1.4c0.7-3.8,1.9-7.5,3.3-11c0.6-1.4,1.2-2.8,2-4.2c3.7-7.1,8.8-13.3,15-18.3c9.8-7.9,22.2-12.6,35.7-12.6
			c8.1,0,15.7,1.7,22.7,4.7c10.4,4.5,19.1,12,25.2,21.4c1.7,2.6,3.2,5.4,4.4,8.3c1.6,3.7,2.8,7.6,3.6,11.6c0,0,0,0.1,0,0.1
			C704.1,69,704.5,72.7,704.5,76.4L704.5,76.4z M704.5,76.4"/>
		<path id="XMLID_292_" class="st19" d="M703.4,65.4h-50.1c-2.3,0-4.1-1.8-4.1-4.1c0-1.1,0.5-2.2,1.2-2.9c0.7-0.7,1.8-1.2,2.9-1.2
			h25.5c2.3,0,4.1-1.8,4.1-4.1c0-1.1-0.5-2.2-1.2-2.9c-0.7-0.7-1.8-1.2-2.9-1.2h-11.6c-2.3,0-4.1-1.8-4.1-4.1c0-1.1,0.5-2.2,1.2-2.9
			c0.7-0.7,1.8-1.2,2.9-1.2h3.5c2.3,0,4.1-1.8,4.1-4.1c0-1.1-0.5-2.2-1.2-2.9c-0.7-0.7-1.8-1.2-2.9-1.2h-12.6
			c-2.3,0-4.1-1.8-4.1-4.1c0-1.1,0.5-2.2,1.2-2.9c0.7-0.7,1.8-1.2,2.9-1.2h12c10.4,4.5,19.1,12,25.2,21.4c1.7,2.6,3.2,5.4,4.4,8.3
			C701.4,57.5,702.6,61.4,703.4,65.4L703.4,65.4z M703.4,65.4"/>
		<path id="XMLID_289_" class="st4" d="M703.4,87.2c-0.8,4.1-2,8-3.6,11.7c-1.3,2.9-2.7,5.7-4.4,8.3c-10.1,15.7-27.8,26.1-47.9,26.1
			c-13.5,0-25.9-4.7-35.7-12.6c-6.2-5-11.3-11.2-15-18.3c-0.7-1.4-1.4-2.8-2-4.2c-1.5-3.5-2.6-7.2-3.3-11H703.4z M703.4,87.2"/>
		<path id="XMLID_286_" class="st8" d="M651.3,32.3V83c0,3-2.4,5.4-5.4,5.4h-49.9c-2,0-3.7-1.1-4.6-2.6c-0.1-0.7-0.2-1.3-0.3-2
			c-0.3-2.4-0.5-4.9-0.5-7.4V32.3c0-3,2.4-5.4,5.4-5.4h49.9C648.9,26.9,651.3,29.3,651.3,32.3L651.3,32.3z M651.3,32.3"/>
		<path id="XMLID_283_" class="st7" d="M609.4,88.4h-13.4c-2,0-3.7-1.1-4.6-2.6c-0.1-0.7-0.2-1.3-0.3-2c-0.3-2.4-0.5-4.9-0.5-7.4
			V32.3c0-3,2.4-5.4,5.4-5.4c0,14.9,2.7,38.9,11.1,56.9C607.7,85.4,608.5,86.9,609.4,88.4L609.4,88.4z M609.4,88.4"/>
		<path id="XMLID_279_" class="st7" d="M602.4,82.7c-1,0-1.8-0.8-1.8-1.8V34.4c0-1,0.8-1.8,1.8-1.8c1,0,1.8,0.8,1.8,1.8v46.6
			C604.2,81.9,603.4,82.7,602.4,82.7L602.4,82.7z M602.4,82.7"/>
		<path id="XMLID_275_" class="st7" d="M614.7,82.7c-1,0-1.8-0.8-1.8-1.8V34.4c0-1,0.8-1.8,1.8-1.8c1,0,1.8,0.8,1.8,1.8v46.6
			C616.5,81.9,615.7,82.7,614.7,82.7L614.7,82.7z M614.7,82.7"/>
		<path id="XMLID_270_" class="st7" d="M627.1,82.7c-1,0-1.8-0.8-1.8-1.8V34.4c0-1,0.8-1.8,1.8-1.8c1,0,1.8,0.8,1.8,1.8v46.6
			C628.9,81.9,628.1,82.7,627.1,82.7L627.1,82.7z M627.1,82.7"/>
		<path id="XMLID_266_" class="st7" d="M639.4,82.7c-1,0-1.8-0.8-1.8-1.8V34.4c0-1,0.8-1.8,1.8-1.8c1,0,1.8,0.8,1.8,1.8v46.6
			C641.2,81.9,640.4,82.7,639.4,82.7L639.4,82.7z M639.4,82.7"/>
		<path id="XMLID_261_" class="st3" d="M688.9,107.3c0,7.6-6.1,13.7-13.7,13.7c-7.6,0-13.7-6.1-13.7-13.7c0-7.6,6.1-13.7,13.7-13.7
			C682.7,93.6,688.9,99.7,688.9,107.3L688.9,107.3z M688.9,107.3"/>
		<path id="XMLID_257_" class="st12" d="M675.2,113.1c-3.2,0-5.9-2.6-5.9-5.9c0-3.2,2.6-5.9,5.9-5.9c3.2,0,5.9,2.6,5.9,5.9
			C681.1,110.5,678.4,113.1,675.2,113.1L675.2,113.1z M675.2,113.1"/>
		<path id="XMLID_252_" class="st3" d="M623.3,107.3c0,6.8-5,12.5-11.5,13.5c-6.2-5-11.3-11.2-15-18.3c1.9-5.2,6.9-8.9,12.8-8.9
			C617.2,93.6,623.3,99.7,623.3,107.3L623.3,107.3z M623.3,107.3"/>
		<path id="XMLID_248_" class="st10" d="M655.6,83.8l-4.3,23.5h-24.4c0-7.7-5.1-14.3-12.1-16.5c0,0,0,0-0.1,0
			c-1.6-0.5-3.4-0.8-5.1-0.8c-6.1,0-11.6,3.2-14.6,8c0,0.1-0.1,0.2-0.1,0.2c-1.9-4.6-3.2-9.4-3.9-14.5H655.6z M655.6,83.8"/>
		<path id="XMLID_243_" class="st10" d="M699.8,70.5V99c-1.3,2.9-2.7,5.7-4.4,8.3h-2.9c0-9.6-7.7-17.3-17.3-17.3
			c-9.6,0-17.3,7.7-17.3,17.3h-6.6V46.9c0-2.7,2.2-4.8,4.8-4.8h25.7c4.4,0,8.4,2.7,10,6.9l7.5,19.4C699.7,69,699.8,69.8,699.8,70.5
			L699.8,70.5z M699.8,70.5"/>
		<path id="XMLID_239_" class="st12" d="M609.6,113.1c-3.2,0-5.9-2.6-5.9-5.9c0-3.2,2.6-5.9,5.9-5.9c3.2,0,5.9,2.6,5.9,5.9
			C615.5,110.5,612.9,113.1,609.6,113.1L609.6,113.1z M609.6,113.1"/>
		<path id="XMLID_234_" class="st12" d="M692.1,69.4h-33.6V49.2h23.4c1.5,0,2.8,0.9,3.3,2.3L692.1,69.4z M692.1,69.4"/>
		<path id="XMLID_228_" class="st20" d="M665.9,78h-7.4c-1,0-1.7-0.8-1.7-1.7c0-1,0.8-1.7,1.7-1.7h7.4c1,0,1.7,0.8,1.7,1.7
			C667.6,77.2,666.8,78,665.9,78L665.9,78z M665.9,78"/>
		<path id="XMLID_221_" class="st11" d="M614.8,90.8C614.8,90.8,614.8,90.7,614.8,90.8c-1.7-0.5-3.4-0.8-5.2-0.8
			c-6.1,0-11.6,3.2-14.6,8c0,0.1-0.1,0.2-0.1,0.2c-1.9-4.6-3.2-9.4-3.9-14.5h20.1c0.7,1.6,1.5,3.2,2.4,4.7
			C613.9,89.2,614.4,90,614.8,90.8L614.8,90.8z M614.8,90.8"/>
		<path id="XMLID_215_" class="st11" d="M661.3,96.9c-2.2,2.9-3.5,6.5-3.5,10.4h-6.6V46.9c0-2.7,2.2-4.8,4.8-4.8
			C656.1,57.6,654.4,88.9,661.3,96.9L661.3,96.9z M661.3,96.9"/>
		<path id="XMLID_207_" class="st4" d="M646.1,104.5h-14.8c-1.2,0-2.2-1-2.2-2.2v-6.4c0-1.2,1-2.2,2.2-2.2h14.8c1.2,0,2.2,1,2.2,2.2
			v6.4C648.3,103.6,647.3,104.5,646.1,104.5L646.1,104.5z M646.1,104.5"/>
	</g>
</g>
<g id="Layer_1_copy">
	<g id="XMLID_652_">
		<path id="XMLID_719_" class="st21" d="M511.6,76.4c0,16.5-7,31.3-18.2,41.7c-3.4,3.2-7.3,6-11.4,8.3c-4.7,2.6-9.7,4.5-15.1,5.7
			c-2.4,0.5-4.8,0.9-7.2,1.1c-1.7,0.1-3.4,0.2-5.1,0.2c-1.7,0-3.4-0.1-5.1-0.2c-2.5-0.2-4.9-0.6-7.2-1.1c-2.4-0.5-4.8-1.2-7-2
			c-2.8-1-5.5-2.2-8-3.6c-4.2-2.3-8-5.1-11.4-8.3c-11.2-10.4-18.2-25.2-18.2-41.7c0-31.5,25.5-57,57-57S511.6,44.9,511.6,76.4
			L511.6,76.4z M511.6,76.4"/>
		<path id="XMLID_716_" class="st22" d="M493.4,118.1c-10.2,9.5-23.8,15.3-38.8,15.3c-15,0-28.6-5.8-38.8-15.3l9.3-12.8
			c1.6-2.2,4.2-3.6,7-3.6h45.1c2.8,0,5.4,1.3,7,3.6L493.4,118.1z M493.4,118.1"/>
		<path id="XMLID_713_" class="st23" d="M454.6,111l-13.9,9.5l-3.3-20.2l9.3-1.2L454.6,111z M454.6,111"/>
		<path id="XMLID_710_" class="st23" d="M454.6,111l13.9,9.5l3.3-20.2l-9.3-1.2L454.6,111z M454.6,111"/>
		<path id="XMLID_707_" class="st24" d="M454.6,111c-5.5,0-9.9-4.4-9.9-9.9v-8.7h19.8v8.7C464.5,106.6,460.1,111,454.6,111
			L454.6,111z M454.6,111"/>
		<path id="XMLID_704_" class="st24" d="M438.6,70.1c0,4.5-3.6,8.1-8.1,8.1c-4.5,0-8.1-3.6-8.1-8.1c0-4.5,3.6-8.1,8.1-8.1
			C434.9,62,438.6,65.6,438.6,70.1L438.6,70.1z M438.6,70.1"/>
		<path id="XMLID_701_" class="st24" d="M486.7,70.1c0,4.5-3.6,8.1-8.1,8.1c-4.5,0-8.1-3.6-8.1-8.1c0-4.5,3.6-8.1,8.1-8.1
			C483.1,62,486.7,65.6,486.7,70.1L486.7,70.1z M486.7,70.1"/>
		<path id="XMLID_698_" class="st25" d="M478.7,48.7v26.7c0,13.3-10.8,24.1-24.1,24.1c-13.3,0-24.1-10.8-24.1-24.1V48.7H478.7z
			 M478.7,48.7"/>
		<path id="XMLID_695_" class="st24" d="M458.1,99.3c-1.1,0.2-2.3,0.2-3.5,0.2c-13.3,0-24.1-10.8-24.1-24.1V48.7h6.9v26.7
			C437.4,87.5,446.4,97.6,458.1,99.3L458.1,99.3z M458.1,99.3"/>
		<path id="XMLID_692_" class="st26" d="M480.2,45v13.3L461,49.4l-3.9-1.8L437.6,55l-8.6,3.3V45c0-14.1,11.4-25.6,25.6-25.6
			c1.5,0,2.9,0.1,4.3,0.4C471,21.8,480.2,32.3,480.2,45L480.2,45z M480.2,45"/>
		<path id="XMLID_689_" class="st27" d="M480.2,45v9.3l-14.5-6.7l-4.7,1.8l-3.9-1.8L437.6,55V45c0-12.7,9.2-23.2,21.3-25.2
			C471,21.8,480.2,32.3,480.2,45L480.2,45z M480.2,45"/>
		<path id="XMLID_686_" class="st9" d="M464.3,80.3c0,0.1,0,0.2,0,0.3c0,1-0.2,2.1-0.6,3c-0.1,0.1-0.1,0.3-0.2,0.4
			c-0.4,0.9-0.8,1.7-1.4,2.4c-0.3,0.4-0.6,0.7-1,1c-1.7,1.6-4,2.6-6.6,2.6c-2.5,0-4.8-1-6.6-2.6c-0.3-0.3-0.7-0.7-1-1
			c-0.6-0.7-1.1-1.5-1.4-2.4c-0.1-0.1-0.1-0.3-0.2-0.4c-0.3-0.9-0.5-1.9-0.6-3c0-0.1,0-0.2,0-0.3H464.3z M464.3,80.3"/>
		<path id="XMLID_683_" class="st24" d="M454.6,54.8l-4.5,21.3h4.5V54.8z M454.6,54.8"/>
		<path id="XMLID_680_" class="st24" d="M448.6,66c0-2.5-2-4.5-4.5-4.5c-2.5,0-4.5,2-4.5,4.5H448.6z M448.6,66"/>
		<path id="XMLID_677_" class="st24" d="M469.6,66c0-2.5-2-4.5-4.5-4.5c-2.5,0-4.5,2-4.5,4.5H469.6z M469.6,66"/>
		<path id="XMLID_674_" class="st22" d="M444.1,63.4c1.5,0,2.6,1.2,2.6,2.6v4.1c0,1.5-1.2,2.6-2.6,2.6c-1.5,0-2.6-1.2-2.6-2.6V66
			C441.5,64.5,442.7,63.4,444.1,63.4L444.1,63.4z M444.1,63.4"/>
		<path id="XMLID_671_" class="st22" d="M465.1,63.4c1.5,0,2.6,1.2,2.6,2.6v4.1c0,1.5-1.2,2.6-2.6,2.6c-1.5,0-2.6-1.2-2.6-2.6V66
			C462.5,64.5,463.6,63.4,465.1,63.4L465.1,63.4z M465.1,63.4"/>
		<path id="XMLID_668_" class="st24" d="M478.7,57.7v5c-7.4-3.1-15.6-4.8-24.1-4.8c-8.6,0-16.7,1.7-24.1,4.8v-5
			c3.3-4,7.6-7.1,12.5-9c3.6-1.4,7.5-2.2,11.6-2.2c4.1,0,8,0.8,11.6,2.2C471.1,50.6,475.4,53.7,478.7,57.7L478.7,57.7z M478.7,57.7"
			/>
		<path id="XMLID_665_" class="st28" d="M454.6,54.3c10.3,0,20,2.5,28.6,6.9c-5-10.8-15.9-18.3-28.6-18.3
			c-12.7,0-23.6,7.5-28.6,18.3C434.6,56.8,444.3,54.3,454.6,54.3L454.6,54.3z M454.6,54.3"/>
		<path id="XMLID_662_" class="st28" d="M482,114.5v11.9c-4.7,2.6-9.7,4.5-15.1,5.7c-2.4,0.5-4.8,0.9-7.2,1.1
			c-1.7,0.1-3.4,0.2-5.1,0.2c-1.7,0-3.4-0.1-5.1-0.2c-2.5-0.2-4.9-0.6-7.2-1.1c-2.4-0.5-4.8-1.2-7-2c-2.8-1-5.5-2.2-8-3.6v-11.9H482
			z M482,114.5"/>
		<path id="XMLID_659_" class="st29" d="M435.2,114.5V130c-2.8-1-5.5-2.2-8-3.6v-11.9H435.2z M435.2,114.5"/>
		<path id="XMLID_656_" class="st29" d="M466.9,132c-2.4,0.5-4.8,0.9-7.2,1.1c-1.7,0.1-3.4,0.2-5.1,0.2c-1.7,0-3.4-0.1-5.1-0.2
			c-2.5-0.2-4.9-0.6-7.2-1.1c0.2-0.6,0.5-1.1,1-1.5c0.7-0.7,1.7-1.2,2.9-1.2h17C464.9,129.3,466.4,130.4,466.9,132L466.9,132z
			 M466.9,132"/>
		<path id="XMLID_653_" class="st27" d="M461.1,125.8l-7-3.3l-7,3.3v-11.3h14V125.8z M461.1,125.8"/>
	</g>
</g>
<g id="Layer_5_copy" class="st30">
	<g id="XMLID_618_" class="st31">
		<path id="XMLID_649_" class="st22" d="M125.8,76.4c0,31.5-25.5,57-57,57s-57-25.5-57-57s25.5-57,57-57S125.8,44.9,125.8,76.4
			L125.8,76.4z M125.8,76.4"/>
		<path id="XMLID_646_" class="st28" d="M119.6,31.8v70.4c-4.1,8-10,14.9-17.2,20.2c-9.4,6.9-21,11-33.6,11s-24.2-4.1-33.6-11
			c-3.6-2.6-6.9-5.7-9.8-9c-2.9-3.4-5.4-7.1-7.4-11.1V31.8H119.6z M119.6,31.8"/>
		<path id="XMLID_643_" class="st29" d="M102.4,122.4c-9.4,6.9-21,11-33.6,11s-24.2-4.1-33.6-11H102.4z M102.4,122.4"/>
		<path id="XMLID_640_" class="st29" d="M25.5,31.8v81.6c-2.9-3.4-5.4-7.1-7.4-11.1V31.8H25.5z M25.5,31.8"/>
		<path id="XMLID_637_" class="st27" d="M82.4,48.9l-13.6-8.1l-13.6,8.1V31.8h27.2V48.9z M82.4,48.9"/>
		<path id="XMLID_634_" class="st27" d="M106.9,63.3c0,0,0,55.5-38,63.4c-38-8-38-63.4-38-63.4l38-12.6L106.9,63.3z M106.9,63.3"/>
		<path id="XMLID_631_" class="st26" d="M68.8,50.7v76c-38-8-38-63.4-38-63.4L68.8,50.7z M68.8,50.7"/>
		<path id="XMLID_628_" class="st12" d="M98.8,68.8c-0.4,5.1-1.5,13-4.2,21.2c-5.2,16-13.8,25.6-25.8,28.8
			c-12-3.2-20.7-12.9-25.9-29.1c-2.6-8.1-3.6-15.9-4.1-20.9l30-9.9L98.8,68.8z M98.8,68.8"/>
		<path id="XMLID_625_" class="st13" d="M68.8,58.8v59.9c-12-3.2-20.7-12.9-25.9-29.1c-2.6-8.1-3.6-15.9-4.1-20.9L68.8,58.8z
			 M68.8,58.8"/>
		<path id="XMLID_622_" class="st27" d="M66.8,91.5c0,1,0.7,1.5,2,1.5c0.8,0,2-0.4,2-1.5c0-2.6,0.1-5.7,0.3-8.7
			c0.1-3,0.3-6.1,0.3-8.7c0-1.3-1-2.2-2.5-2.2c-1.5,0-2.5,0.9-2.5,2.2c0,2.6,0.1,5.7,0.3,8.7C66.7,85.8,66.8,88.9,66.8,91.5
			L66.8,91.5z M66.8,91.5"/>
		<path id="XMLID_619_" class="st27" d="M68.8,95.8c-1.5,0-2.7,1.2-2.7,2.7c0,1.5,1.2,2.7,2.7,2.7c1.5,0,2.7-1.3,2.7-2.7
			C71.6,97.1,70.3,95.8,68.8,95.8L68.8,95.8z M68.8,95.8"/>
	</g>
</g>
<g id="Layer_6_copy">
	<g id="XMLID_513_">
		<path id="XMLID_615_" class="st32" d="M897.3,76.4c0,12.6-4.1,24.3-11.1,33.7c-10.4,14.1-27.1,23.2-45.9,23.2c-0.3,0-0.5,0-0.8,0
			c-1.6,0-3.3-0.1-4.8-0.3c-2.9-0.3-5.8-0.8-8.6-1.5c-8.7-2.2-16.7-6.5-23.3-12.3c-3.1-2.7-5.9-5.8-8.4-9.2
			c-1.2-1.7-2.4-3.4-3.4-5.2c-1.5-2.6-2.8-5.2-3.8-8c-2.5-6.4-3.8-13.3-3.8-20.5c0-31.5,25.5-57,57-57S897.3,44.9,897.3,76.4
			L897.3,76.4z M897.3,76.4"/>
		<path id="XMLID_578_" class="st12" d="M886.3,55.7v54.4c-2.5,3.3-5.3,6.4-8.4,9.2c-8.7,7.6-19.7,12.6-31.8,13.8
			c-1.9,0.2-3.7,0.3-5.7,0.3c-7.5,0-14.7-1.5-21.3-4.1c-7.2-2.9-13.7-7.2-19-12.6c-2-2-3.9-4.2-5.6-6.5V55.7H886.3z M886.3,55.7"/>
		<rect id="XMLID_577_" x="794.4" y="55.7" class="st13" width="91.8" height="10.3"/>
		<path id="XMLID_574_" class="st27" d="M794.5,23.5h91.7l7.8,36.8H786.7L794.5,23.5z M794.5,23.5"/>
		<path id="XMLID_571_" class="st27" d="M846,71.4v61.7c12.1-1.2,23.2-6.2,31.8-13.8V71.4H846z M846,71.4"/>
		<path id="XMLID_568_" class="st27" d="M838.8,71.4v47.9c-5.8,4.2-12.5,7.6-19.7,10c-7.2-2.9-13.7-7.2-19-12.6V71.4H838.8z
			 M838.8,71.4"/>
		<rect id="XMLID_567_" x="853.3" y="78.9" class="st32" width="17.3" height="23"/>
		<path id="XMLID_564_" class="st12" d="M853.3,111.6h3c0.9,0,1.6-0.7,1.6-1.6c0-0.9-0.7-1.6-1.6-1.6h-3c-0.9,0-1.6,0.7-1.6,1.6
			C851.7,110.9,852.4,111.6,853.3,111.6L853.3,111.6z M853.3,111.6"/>
		<path id="XMLID_557_" class="st12" d="M851.7,77.2v26.3h20.6V90.4c0,0,0,0,0,0s0,0,0,0V77.2H851.7z M854.9,80.5h5.4v8.2h-5.4V80.5
			z M868.9,80.5v8.2h-5.4v-8.2H868.9z M868.9,100.2h-5.4V92h5.4V100.2z M854.9,100.2V92h5.4v8.2H854.9z M854.9,100.2"/>
		<rect id="XMLID_556_" x="814.9" y="78.9" class="st32" width="17.3" height="23"/>
		<path id="XMLID_549_" class="st12" d="M813.3,77.2v26.3h20.6V90.4c0,0,0,0,0,0s0,0,0,0V77.2H813.3z M816.6,80.5h5.4v8.2h-5.4V80.5
			z M830.6,80.5v8.2h-5.4v-8.2H830.6z M830.6,100.2h-5.4V92h5.4V100.2z M816.6,100.2V92h5.4v8.2H816.6z M816.6,100.2"/>
		<rect id="XMLID_548_" x="806.3" y="78.9" class="st32" width="17.3" height="23"/>
		<path id="XMLID_541_" class="st12" d="M804.6,77.2v26.3h20.6V90.4c0,0,0,0,0,0s0,0,0,0V77.2H804.6z M807.9,80.5h5.4v8.2h-5.4V80.5
			z M821.9,80.5v8.2h-5.4v-8.2H821.9z M821.9,100.2h-5.4V92h5.4V100.2z M807.9,100.2V92h5.4v8.2H807.9z M807.9,100.2"/>
		<path id="XMLID_538_" class="st26" d="M797.3,49.5h86.2c0.9,0,1.6-0.7,1.6-1.6c0-0.9-0.7-1.6-1.6-1.6h-86.2
			c-0.9,0-1.6,0.7-1.6,1.6C795.6,48.7,796.3,49.5,797.3,49.5L797.3,49.5z M797.3,49.5"/>
		<path id="XMLID_535_" class="st26" d="M803.6,37.8h73.5c0.9,0,1.6-0.7,1.6-1.6c0-0.9-0.7-1.6-1.6-1.6h-73.5
			c-0.9,0-1.6,0.7-1.6,1.6C802,37.1,802.7,37.8,803.6,37.8L803.6,37.8z M803.6,37.8"/>
		<path id="XMLID_532_" class="st28" d="M839.5,84.8v48.5c-1.6,0-3.3-0.1-4.8-0.3c-2.9-0.3-5.8-0.8-8.6-1.5
			c-8.7-2.2-16.7-6.5-23.3-12.3c-3.1-2.7-5.9-5.8-8.4-9.2c-1.2-1.7-2.4-3.4-3.4-5.2c-1.5-2.6-2.8-5.2-3.8-8v-12H839.5z M839.5,84.8"
			/>
		<path id="XMLID_529_" class="st29" d="M839.5,131.6v1.8c-1.6,0-3.3-0.1-4.8-0.3c-2.9-0.3-5.8-0.8-8.6-1.5H839.5z M839.5,131.6"/>
		<path id="XMLID_526_" class="st29" d="M791,84.8v20c-1.5-2.6-2.8-5.2-3.8-8v-12H791z M791,84.8"/>
		<path id="XMLID_523_" class="st29" d="M821.5,110.3h-16.2c-2.1,0-3.9-1.7-3.9-3.9c0-2.1,1.7-3.9,3.9-3.9h16.2
			c2.1,0,3.9,1.7,3.9,3.9C825.4,108.6,823.6,110.3,821.5,110.3L821.5,110.3z M821.5,110.3"/>
		<path id="XMLID_520_" class="st27" d="M820.4,100.7l-7-4.2l-7,4.2V84.8h14V100.7z M820.4,100.7"/>
		<path id="XMLID_517_" class="st21" d="M895.9,38c0,10.3-8.3,18.6-18.6,18.6s-18.6-8.3-18.6-18.6c0-10.3,8.3-18.6,18.6-18.6
			S895.9,27.7,895.9,38L895.9,38z M895.9,38"/>
		<path id="XMLID_514_" class="st9" d="M872.1,48.2l-4.7-5.6c-0.8-1-0.7-2.5,0.3-3.3v0c1-0.8,2.5-0.7,3.3,0.3l2.8,3.3l10.1-13.8
			c0.8-1,2.2-1.3,3.2-0.5c1,0.8,1.3,2.2,0.5,3.2l-11.8,16.2C874.9,49.3,873.1,49.4,872.1,48.2L872.1,48.2z M872.1,48.2"/>
	</g>
	<g id="XMLID_443_" class="st30">
		<g id="XMLID_445_" class="st31">
			<path id="XMLID_510_" class="st32" d="M897.3,76.4c0,12.6-4.1,24.3-11.1,33.7c-10.4,14.1-27.1,23.2-45.9,23.2c-0.3,0-0.5,0-0.8,0
				c-1.6,0-3.3-0.1-4.8-0.3c-2.9-0.3-5.8-0.8-8.6-1.5c-8.7-2.2-16.7-6.5-23.3-12.3c-3.1-2.7-5.9-5.8-8.4-9.2
				c-1.2-1.7-2.4-3.4-3.4-5.2c-1.5-2.6-2.8-5.2-3.8-8c-2.5-6.4-3.8-13.3-3.8-20.5c0-31.5,25.5-57,57-57S897.3,44.9,897.3,76.4
				L897.3,76.4z M897.3,76.4"/>
			<path id="XMLID_507_" class="st12" d="M886.3,55.7v54.4c-2.5,3.3-5.3,6.4-8.4,9.2c-8.7,7.6-19.7,12.6-31.8,13.8
				c-1.9,0.2-3.7,0.3-5.7,0.3c-7.5,0-14.7-1.5-21.3-4.1c-7.2-2.9-13.7-7.2-19-12.6c-2-2-3.9-4.2-5.6-6.5V55.7H886.3z M886.3,55.7"/>
			<rect id="XMLID_506_" x="794.4" y="55.7" class="st13" width="91.8" height="10.3"/>
			<path id="XMLID_503_" class="st27" d="M794.5,23.5h91.7l7.8,36.8H786.7L794.5,23.5z M794.5,23.5"/>
			<path id="XMLID_500_" class="st27" d="M846,71.4v61.7c12.1-1.2,23.2-6.2,31.8-13.8V71.4H846z M846,71.4"/>
			<path id="XMLID_497_" class="st27" d="M838.8,71.4v47.9c-5.8,4.2-12.5,7.6-19.7,10c-7.2-2.9-13.7-7.2-19-12.6V71.4H838.8z
				 M838.8,71.4"/>
			<rect id="XMLID_496_" x="853.3" y="78.9" class="st33" width="17.3" height="23"/>
			<path id="XMLID_493_" class="st12" d="M853.3,111.6h3c0.9,0,1.6-0.7,1.6-1.6c0-0.9-0.7-1.6-1.6-1.6h-3c-0.9,0-1.6,0.7-1.6,1.6
				C851.7,110.9,852.4,111.6,853.3,111.6L853.3,111.6z M853.3,111.6"/>
			<path id="XMLID_486_" class="st12" d="M851.7,77.2v26.3h20.6V90.4c0,0,0,0,0,0s0,0,0,0V77.2H851.7z M854.9,80.5h5.4v8.2h-5.4
				V80.5z M868.9,80.5v8.2h-5.4v-8.2H868.9z M868.9,100.2h-5.4V92h5.4V100.2z M854.9,100.2V92h5.4v8.2H854.9z M854.9,100.2"/>
			<rect id="XMLID_485_" x="814.9" y="78.9" class="st34" width="17.3" height="23"/>
			<path id="XMLID_478_" class="st12" d="M813.3,77.2v26.3h20.6V90.4c0,0,0,0,0,0s0,0,0,0V77.2H813.3z M816.6,80.5h5.4v8.2h-5.4
				V80.5z M830.6,80.5v8.2h-5.4v-8.2H830.6z M830.6,100.2h-5.4V92h5.4V100.2z M816.6,100.2V92h5.4v8.2H816.6z M816.6,100.2"/>
			<rect id="XMLID_477_" x="806.3" y="78.9" class="st35" width="17.3" height="23"/>
			<path id="XMLID_470_" class="st12" d="M804.6,77.2v26.3h20.6V90.4c0,0,0,0,0,0s0,0,0,0V77.2H804.6z M807.9,80.5h5.4v8.2h-5.4
				V80.5z M821.9,80.5v8.2h-5.4v-8.2H821.9z M821.9,100.2h-5.4V92h5.4V100.2z M807.9,100.2V92h5.4v8.2H807.9z M807.9,100.2"/>
			<path id="XMLID_467_" class="st26" d="M797.3,49.5h86.2c0.9,0,1.6-0.7,1.6-1.6c0-0.9-0.7-1.6-1.6-1.6h-86.2
				c-0.9,0-1.6,0.7-1.6,1.6C795.6,48.7,796.3,49.5,797.3,49.5L797.3,49.5z M797.3,49.5"/>
			<path id="XMLID_464_" class="st26" d="M803.6,37.8h73.5c0.9,0,1.6-0.7,1.6-1.6c0-0.9-0.7-1.6-1.6-1.6h-73.5
				c-0.9,0-1.6,0.7-1.6,1.6C802,37.1,802.7,37.8,803.6,37.8L803.6,37.8z M803.6,37.8"/>
			<path id="XMLID_461_" class="st28" d="M839.5,84.8v48.5c-1.6,0-3.3-0.1-4.8-0.3c-2.9-0.3-5.8-0.8-8.6-1.5
				c-8.7-2.2-16.7-6.5-23.3-12.3c-3.1-2.7-5.9-5.8-8.4-9.2c-1.2-1.7-2.4-3.4-3.4-5.2c-1.5-2.6-2.8-5.2-3.8-8v-12H839.5z M839.5,84.8
				"/>
			<path id="XMLID_458_" class="st29" d="M839.5,131.6v1.8c-1.6,0-3.3-0.1-4.8-0.3c-2.9-0.3-5.8-0.8-8.6-1.5H839.5z M839.5,131.6"/>
			<path id="XMLID_455_" class="st29" d="M791,84.8v20c-1.5-2.6-2.8-5.2-3.8-8v-12H791z M791,84.8"/>
			<path id="XMLID_452_" class="st29" d="M821.5,110.3h-16.2c-2.1,0-3.9-1.7-3.9-3.9c0-2.1,1.7-3.9,3.9-3.9h16.2
				c2.1,0,3.9,1.7,3.9,3.9C825.4,108.6,823.6,110.3,821.5,110.3L821.5,110.3z M821.5,110.3"/>
			<path id="XMLID_449_" class="st27" d="M820.4,100.7l-7-4.2l-7,4.2V84.8h14V100.7z M820.4,100.7"/>
			<path id="XMLID_446_" class="st36" d="M895.9,38c0,10.3-8.3,18.6-18.6,18.6s-18.6-8.3-18.6-18.6c0-10.3,8.3-18.6,18.6-18.6
				S895.9,27.7,895.9,38L895.9,38z M895.9,38"/>
		</g>
		<path id="XMLID_444_" class="st37" d="M880.8,38.7l6.3-6.9c0.8-0.9,0.7-2.2-0.2-3.1c-0.4-0.4-0.9-0.6-1.4-0.6
			c-0.6,0-1.2,0.3-1.6,0.7l-6,6.6l-5.9-6.5c-0.4-0.5-1-0.7-1.6-0.7c-0.5,0-1.1,0.2-1.5,0.6c-0.4,0.4-0.7,0.9-0.7,1.5
			c0,0.6,0.2,1.1,0.6,1.6l6.2,6.8l-6,6.6c-0.8,0.9-0.7,2.2,0.2,3.1c0.4,0.3,0.9,0.5,1.4,0.5c0.6,0,1.2-0.3,1.6-0.7l5.7-6.3l5.8,6.4
			c0.4,0.4,1,0.7,1.6,0.7c0.5,0,1-0.2,1.5-0.6c0.9-0.8,0.9-2.2,0.1-3.1L880.8,38.7z"/>
	</g>
</g>
<g id="Layer_4_copy">
	<g id="XMLID_306_">
		<path id="XMLID_440_" class="st27" d="M318.7,76.4c0,21.5-12,40.3-29.6,50c-0.7,0.4-1.4,0.7-2.1,1.1c-7.6,3.8-16.2,5.9-25.3,5.9
			c-9.9,0-19.2-2.5-27.4-7c-17.6-9.7-29.6-28.4-29.6-50c0-31.5,25.5-57,57-57S318.7,44.9,318.7,76.4L318.7,76.4z M318.7,76.4"/>
		<path id="XMLID_437_" class="st28" d="M289.1,78.6v47.7c-0.7,0.4-1.4,0.7-2.1,1.1c-7.6,3.8-16.2,5.9-25.3,5.9
			c-9.9,0-19.2-2.5-27.4-7V78.6H289.1z M289.1,78.6"/>
		<path id="XMLID_330_" class="st29" d="M287,127.4c-7.6,3.8-16.2,5.9-25.3,5.9c-9.9,0-19.2-2.5-27.4-7V78.6h8v48.8H287z M287,127.4
			"/>
		<path id="XMLID_327_" class="st29" d="M270.2,101.5h-17c-2.2,0-4-1.8-4-4c0-2.2,1.8-4,4-4h17c2.2,0,4,1.8,4,4
			C274.3,99.7,272.4,101.5,270.2,101.5L270.2,101.5z M270.2,101.5"/>
		<path id="XMLID_324_" class="st23" d="M268.2,89.9l-7-3.3l-7,3.3V78.6h14V89.9z M268.2,89.9"/>
		<path id="XMLID_321_" class="st22" d="M212.3,57.3l47.3-18.4v10l-38,14.8v6.8l12.8,23l-8.1,4.5l-14-25.1V57.3z M212.3,57.3"/>
		<path id="XMLID_318_" class="st23" d="M311.1,57.3v15.5l-14,25.1l-8.1-4.5l12.8-23v-6.8l-34.3-13.4v-10L311.1,57.3z M311.1,57.3"
			/>
		<path id="XMLID_315_" class="st22" d="M283.6,44.2c0,12.1-9.8,21.9-21.9,21.9c-12.1,0-21.9-9.8-21.9-21.9
			c0-12.1,9.8-21.9,21.9-21.9C273.8,22.3,283.6,32.1,283.6,44.2L283.6,44.2z M283.6,44.2"/>
		<path id="XMLID_312_" class="st23" d="M274.1,44.2c0,6.9-5.6,12.4-12.4,12.4s-12.4-5.6-12.4-12.4c0-6.9,5.6-12.4,12.4-12.4
			S274.1,37.3,274.1,44.2L274.1,44.2z M274.1,44.2"/>
		<path id="XMLID_309_" class="st29" d="M268.2,44.2c0,3.6-2.9,6.5-6.5,6.5c-3.6,0-6.5-2.9-6.5-6.5c0-3.6,2.9-6.5,6.5-6.5
			C265.3,37.7,268.2,40.6,268.2,44.2L268.2,44.2z M268.2,44.2"/>
		<rect id="XMLID_308_" x="233" y="19.4" class="st22" width="57.5" height="10"/>
		<rect id="XMLID_307_" x="247" y="19.4" class="st23" width="43.5" height="10"/>
	</g>
</g>
<g id="Layer_3_copy">
	<g id="XMLID_110_">
		<path id="XMLID_303_" class="st32" d="M704.5,76.4c0,11.2-3.3,21.7-8.9,30.6c-6.2,9.8-15.4,17.6-26.3,22.1
			c-6.7,2.8-14.1,4.3-21.8,4.3c-10.3,0-19.9-2.7-28.2-7.5c-17.2-9.8-28.8-28.3-28.8-49.5c0-2.5,0.2-5,0.5-7.4c0.1-0.7,0.2-1.4,0.3-2
			c0.1-0.5,0.2-0.9,0.3-1.4c0.7-3.8,1.9-7.5,3.3-11c0.6-1.4,1.2-2.8,2-4.2c3.7-7.1,8.8-13.3,15-18.3c9.8-7.9,22.2-12.6,35.7-12.6
			c8.1,0,15.7,1.7,22.7,4.7c10.4,4.5,19.1,12,25.2,21.4c1.7,2.6,3.2,5.4,4.4,8.3c1.6,3.7,2.8,7.6,3.6,11.6c0,0,0,0.1,0,0.1
			C704.1,69,704.5,72.7,704.5,76.4L704.5,76.4z M704.5,76.4"/>
		<path id="XMLID_300_" class="st38" d="M703.4,65.4h-50.1c-2.3,0-4.1-1.8-4.1-4.1c0-1.1,0.5-2.2,1.2-2.9c0.7-0.7,1.8-1.2,2.9-1.2
			h25.5c2.3,0,4.1-1.8,4.1-4.1c0-1.1-0.5-2.2-1.2-2.9c-0.7-0.7-1.8-1.2-2.9-1.2h-11.6c-2.3,0-4.1-1.8-4.1-4.1c0-1.1,0.5-2.2,1.2-2.9
			c0.7-0.7,1.8-1.2,2.9-1.2h3.5c2.3,0,4.1-1.8,4.1-4.1c0-1.1-0.5-2.2-1.2-2.9c-0.7-0.7-1.8-1.2-2.9-1.2h-12.6
			c-2.3,0-4.1-1.8-4.1-4.1c0-1.1,0.5-2.2,1.2-2.9c0.7-0.7,1.8-1.2,2.9-1.2h12c10.4,4.5,19.1,12,25.2,21.4c1.7,2.6,3.2,5.4,4.4,8.3
			C701.4,57.5,702.6,61.4,703.4,65.4L703.4,65.4z M703.4,65.4"/>
		<path id="XMLID_232_" class="st23" d="M703.4,87.2c-0.8,4.1-2,8-3.6,11.7c-1.3,2.9-2.7,5.7-4.4,8.3
			c-10.1,15.7-27.8,26.1-47.9,26.1c-13.5,0-25.9-4.7-35.7-12.6c-6.2-5-11.3-11.2-15-18.3c-0.7-1.4-1.4-2.8-2-4.2
			c-1.5-3.5-2.6-7.2-3.3-11H703.4z M703.4,87.2"/>
		<path id="XMLID_223_" class="st27" d="M651.3,32.3V83c0,3-2.4,5.4-5.4,5.4h-49.9c-2,0-3.7-1.1-4.6-2.6c-0.1-0.7-0.2-1.3-0.3-2
			c-0.3-2.4-0.5-4.9-0.5-7.4V32.3c0-3,2.4-5.4,5.4-5.4h49.9C648.9,26.9,651.3,29.3,651.3,32.3L651.3,32.3z M651.3,32.3"/>
		<path id="XMLID_214_" class="st26" d="M609.4,88.4h-13.4c-2,0-3.7-1.1-4.6-2.6c-0.1-0.7-0.2-1.3-0.3-2c-0.3-2.4-0.5-4.9-0.5-7.4
			V32.3c0-3,2.4-5.4,5.4-5.4c0,14.9,2.7,38.9,11.1,56.9C607.7,85.4,608.5,86.9,609.4,88.4L609.4,88.4z M609.4,88.4"/>
		<path id="XMLID_205_" class="st26" d="M602.4,82.7c-1,0-1.8-0.8-1.8-1.8V34.4c0-1,0.8-1.8,1.8-1.8c1,0,1.8,0.8,1.8,1.8v46.6
			C604.2,81.9,603.4,82.7,602.4,82.7L602.4,82.7z M602.4,82.7"/>
		<path id="XMLID_154_" class="st26" d="M614.7,82.7c-1,0-1.8-0.8-1.8-1.8V34.4c0-1,0.8-1.8,1.8-1.8c1,0,1.8,0.8,1.8,1.8v46.6
			C616.5,81.9,615.7,82.7,614.7,82.7L614.7,82.7z M614.7,82.7"/>
		<path id="XMLID_151_" class="st26" d="M627.1,82.7c-1,0-1.8-0.8-1.8-1.8V34.4c0-1,0.8-1.8,1.8-1.8c1,0,1.8,0.8,1.8,1.8v46.6
			C628.9,81.9,628.1,82.7,627.1,82.7L627.1,82.7z M627.1,82.7"/>
		<path id="XMLID_148_" class="st26" d="M639.4,82.7c-1,0-1.8-0.8-1.8-1.8V34.4c0-1,0.8-1.8,1.8-1.8c1,0,1.8,0.8,1.8,1.8v46.6
			C641.2,81.9,640.4,82.7,639.4,82.7L639.4,82.7z M639.4,82.7"/>
		<path id="XMLID_145_" class="st22" d="M688.9,107.3c0,7.6-6.1,13.7-13.7,13.7c-7.6,0-13.7-6.1-13.7-13.7c0-7.6,6.1-13.7,13.7-13.7
			C682.7,93.6,688.9,99.7,688.9,107.3L688.9,107.3z M688.9,107.3"/>
		<path id="XMLID_142_" class="st12" d="M675.2,113.1c-3.2,0-5.9-2.6-5.9-5.9c0-3.2,2.6-5.9,5.9-5.9c3.2,0,5.9,2.6,5.9,5.9
			C681.1,110.5,678.4,113.1,675.2,113.1L675.2,113.1z M675.2,113.1"/>
		<path id="XMLID_139_" class="st22" d="M623.3,107.3c0,6.8-5,12.5-11.5,13.5c-6.2-5-11.3-11.2-15-18.3c1.9-5.2,6.9-8.9,12.8-8.9
			C617.2,93.6,623.3,99.7,623.3,107.3L623.3,107.3z M623.3,107.3"/>
		<path id="XMLID_136_" class="st28" d="M655.6,83.8l-4.3,23.5h-24.4c0-7.7-5.1-14.3-12.1-16.5c0,0,0,0-0.1,0
			c-1.6-0.5-3.4-0.8-5.1-0.8c-6.1,0-11.6,3.2-14.6,8c0,0.1-0.1,0.2-0.1,0.2c-1.9-4.6-3.2-9.4-3.9-14.5H655.6z M655.6,83.8"/>
		<path id="XMLID_133_" class="st28" d="M699.8,70.5V99c-1.3,2.9-2.7,5.7-4.4,8.3h-2.9c0-9.6-7.7-17.3-17.3-17.3
			c-9.6,0-17.3,7.7-17.3,17.3h-6.6V46.9c0-2.7,2.2-4.8,4.8-4.8h25.7c4.4,0,8.4,2.7,10,6.9l7.5,19.4C699.7,69,699.8,69.8,699.8,70.5
			L699.8,70.5z M699.8,70.5"/>
		<path id="XMLID_130_" class="st12" d="M609.6,113.1c-3.2,0-5.9-2.6-5.9-5.9c0-3.2,2.6-5.9,5.9-5.9c3.2,0,5.9,2.6,5.9,5.9
			C615.5,110.5,612.9,113.1,609.6,113.1L609.6,113.1z M609.6,113.1"/>
		<path id="XMLID_127_" class="st12" d="M692.1,69.4h-33.6V49.2h23.4c1.5,0,2.8,0.9,3.3,2.3L692.1,69.4z M692.1,69.4"/>
		<path id="XMLID_124_" class="st39" d="M665.9,78h-7.4c-1,0-1.7-0.8-1.7-1.7c0-1,0.8-1.7,1.7-1.7h7.4c1,0,1.7,0.8,1.7,1.7
			C667.6,77.2,666.8,78,665.9,78L665.9,78z M665.9,78"/>
		<path id="XMLID_121_" class="st29" d="M614.8,90.8C614.8,90.8,614.8,90.7,614.8,90.8c-1.7-0.5-3.4-0.8-5.2-0.8
			c-6.1,0-11.6,3.2-14.6,8c0,0.1-0.1,0.2-0.1,0.2c-1.9-4.6-3.2-9.4-3.9-14.5h20.1c0.7,1.6,1.5,3.2,2.4,4.7
			C613.9,89.2,614.4,90,614.8,90.8L614.8,90.8z M614.8,90.8"/>
		<path id="XMLID_118_" class="st29" d="M661.3,96.9c-2.2,2.9-3.5,6.5-3.5,10.4h-6.6V46.9c0-2.7,2.2-4.8,4.8-4.8
			C656.1,57.6,654.4,88.9,661.3,96.9L661.3,96.9z M661.3,96.9"/>
		<path id="XMLID_115_" class="st23" d="M646.1,104.5h-14.8c-1.2,0-2.2-1-2.2-2.2v-6.4c0-1.2,1-2.2,2.2-2.2h14.8
			c1.2,0,2.2,1,2.2,2.2v6.4C648.3,103.6,647.3,104.5,646.1,104.5L646.1,104.5z M646.1,104.5"/>
	</g>
</g>
</svg>
