<?xml version="1.0" encoding="utf-8"?>
<!-- Generator: Adobe Illustrator 22.0.0, SVG Export Plug-In . SVG Version: 6.00 Build 0)  -->
<svg version="1.1" xmlns="http://www.w3.org/2000/svg" xmlns:xlink="http://www.w3.org/1999/xlink" x="0px" y="0px"
	 viewBox="0 0 512 353.1" style="enable-background:new 0 0 512 353.1;" xml:space="preserve">
<style type="text/css">
	.st0{display:none;}
	.st1{display:inline;fill:#E7E8E3;}
	.st2{display:inline;opacity:0.15;fill:#202121;enable-background:new    ;}
	.st3{display:inline;}
	.st4{fill:#D92B2B;}
	.st5{fill:#66CDE7;}
	.st6{fill:#006E90;}
	.st7{fill:#607B53;}
	.st8{fill:#546949;}
	.st9{fill:#D1D4D2;}
	.st10{fill:#A5A5A4;}
	.st11{fill:#6E8C61;}
	.st12{fill:#E9E8D3;}
	.st13{display:inline;fill:#EAEAEA;}
	.st14{fill:#060E9F;}
	.st15{fill:#00ADEE;}
	.st16{fill:#FFFFFF;}
	.st17{fill:#3C58BF;}
	.st18{fill:#293688;}
	.st19{fill:#FFBC00;}
	.st20{fill:#F7981D;}
	.st21{fill:#ED7C00;}
	.st22{fill:#051244;}
	.st23{fill:#FFB600;}
	.st24{fill:#FF8500;}
	.st25{fill:#FF5050;}
	.st26{fill:#E52836;}
	.st27{fill:#CB2026;}
	.st28{fill:#DCE5E5;}
	.st29{fill:#006546;}
	.st30{fill:#FF6600;}
	.st31{fill:#FE000C;}
	.st32{fill:#EEA42D;}
	.st33{fill:#EC1C24;}
	.st34{display:inline;fill:#A86A3F;}
	.st35{display:inline;fill:#3DB39E;}
	.st36{display:inline;fill:#78CABB;}
	.st37{display:inline;fill:#5ABEAC;}
	.st38{display:inline;fill:#8CD2C5;}
	.st39{display:inline;fill:#C47E4D;}
	.st40{display:inline;fill:#EFC75E;}
	.st41{display:inline;fill:#D7B354;}
	.st42{display:inline;fill:#B27245;}
	.st43{display:inline;fill:#CA8B5F;}
	.st44{fill:#A86A3F;}
	.st45{fill:#3DB39E;}
	.st46{fill:#78CABB;}
	.st47{fill:#5ABEAC;}
	.st48{fill:#8CD2C5;}
	.st49{fill:#C47E4D;}
	.st50{fill:#EFC75E;}
	.st51{fill:#D7B354;}
	.st52{fill:#B27245;}
	.st53{fill:#CA8B5F;}
	.st54{fill:#7BD0A7;}
	.st55{fill:#70BD98;}
	.st56{fill:#EEEEED;}
	.st57{fill:#495059;}
</style>
<g id="Capa_1" class="st0">
	<g id="Capa_1_1_">
		<path class="st1" d="M512,322.8c0,16.7-13.5,30.3-30.3,30.3H30.3C13.5,353.1,0,339.5,0,322.8V30.3C0,13.5,13.5,0,30.3,0h451.5
			C498.5,0,512,13.6,512,30.3L512,322.8L512,322.8z"/>
		<path class="st2" d="M21.5,322.8V30.3C21.5,13.5,35.1,0,51.8,0H30.3C13.5,0,0,13.6,0,30.3v292.6c0,16.7,13.5,30.3,30.3,30.3h21.5
			C35.1,353.1,21.5,339.5,21.5,322.8z"/>
		<g class="st3">
			<rect x="44.9" y="59.9" class="st4" width="88.3" height="17.7"/>
			<rect x="44.9" y="123.6" class="st4" width="88.3" height="17.7"/>
			<rect x="44.9" y="91.7" class="st4" width="88.3" height="17.7"/>
		</g>
		<g class="st3">
			<g>
				<path class="st5" d="M65.8,211.8H56v-44.3H45.9v-8.7H76v8.7H65.8V211.8z"/>
				<path class="st5" d="M91.5,191.2v20.6h-9.8v-52.9h12.9c5.5,0,9.5,1.3,12.1,3.9c2.6,2.6,3.9,6.5,3.9,11.8c0,6.7-2.3,11.4-6.8,14
					l10.2,23.2h-10.5L95,191.2L91.5,191.2L91.5,191.2z M91.5,182.8H94c2.3,0,4-0.7,5-2c1-1.3,1.5-3.3,1.5-5.9c0-2.7-0.5-4.6-1.6-5.8
					c-1.1-1.1-2.7-1.7-5-1.7h-2.5L91.5,182.8L91.5,182.8z"/>
				<path class="st5" d="M143.7,211.8l-3-13.4h-13.8l-3,13.4H114l13.1-53.2h13.4l13.1,53.2H143.7z M138.9,189.8l-2.8-12.3
					c-0.2-0.7-0.5-2.6-1.1-5.6c-0.6-3-0.9-5-1.1-6c-0.3,2.1-0.7,4.4-1.2,6.9c-0.5,2.5-1.7,8.2-3.8,17.1L138.9,189.8L138.9,189.8z"/>
				<path class="st5" d="M195.4,211.8h-12L167,173.5h-0.5c0.6,2.9,0.9,6.1,0.9,9.4v28.9h-9.1v-52.9h12.1l16.2,38h0.4
					c-0.5-2.5-0.7-5.6-0.7-9.1v-28.9h9.1L195.4,211.8L195.4,211.8z"/>
				<path class="st5" d="M214.5,211.8h-9.8v-52.9h23.7v8.5h-13.9v14.7h13v8.5h-13V211.8z"/>
				<path class="st5" d="M258.9,211.8h-23.9v-52.9h23.9v8.5h-14V180h13v8.5h-13v14.7h14V211.8z"/>
				<path class="st5" d="M276.5,191.2v20.6h-9.9v-52.9h12.9c5.5,0,9.5,1.3,12.1,3.9c2.6,2.6,3.9,6.5,3.9,11.8c0,6.7-2.3,11.4-6.8,14
					l10.2,23.2h-10.5l-8.4-20.6L276.5,191.2L276.5,191.2z M276.5,182.8h2.5c2.3,0,4-0.7,5-2c1-1.3,1.5-3.3,1.5-5.9
					c0-2.7-0.5-4.6-1.6-5.8s-2.7-1.7-5-1.7h-2.5L276.5,182.8L276.5,182.8z"/>
				<path class="st5" d="M327.6,211.8h-23.9v-52.9h23.9v8.5h-14V180h13v8.5h-13v14.7h14V211.8z"/>
				<path class="st5" d="M372.4,211.8h-12L344,173.5h-0.5c0.6,2.9,0.9,6.1,0.9,9.4v28.9h-9.1v-52.9h12.1l16.2,38h0.4
					c-0.5-2.5-0.7-5.6-0.7-9.1v-28.9h9.1L372.4,211.8L372.4,211.8z"/>
				<path class="st5" d="M399.3,166.8c-2.8,0-5.1,1.7-6.7,5c-1.6,3.3-2.4,7.9-2.4,13.8c0,12.3,3.2,18.4,9.6,18.4
					c2.8,0,5.7-0.9,8.8-2.7v8.8c-2.6,1.7-5.9,2.6-9.9,2.6c-6,0-10.5-2.4-13.7-7.1c-3.2-4.7-4.8-11.4-4.8-20c0-8.6,1.6-15.3,4.9-20.1
					c3.3-4.8,7.9-7.2,13.7-7.2c1.9,0,3.8,0.3,5.6,0.8c1.8,0.5,3.7,1.5,5.7,2.8l-3.3,8c-1.1-0.7-2.2-1.4-3.5-2
					C402.1,167.1,400.7,166.8,399.3,166.8z"/>
				<path class="st5" d="M417.8,211.8v-52.9h9.3v52.9H417.8z"/>
				<path class="st5" d="M463.4,211.8l-3-13.4h-13.8l-3,13.4h-9.9l13.1-53.2h13.4l13.1,53.2H463.4z M458.5,189.8l-2.8-12.3
					c-0.2-0.7-0.5-2.6-1.1-5.6c-0.6-3-0.9-5-1.1-6c-0.3,2.1-0.7,4.4-1.2,6.9c-0.5,2.5-1.7,8.2-3.8,17.1L458.5,189.8L458.5,189.8z"/>
			</g>
		</g>
		<g class="st3">
			<g>
				<path class="st6" d="M44.3,225.6h19.8c8.1,0,14,1.6,17.6,4.7c3.7,3.1,5.5,8.1,5.5,15c0,4.5-1,8.3-2.9,11.3c-1.9,3-4.6,4.9-8,5.5
					v0.5c4.4,1.1,7.6,3.2,9.5,6.2c1.9,3,2.9,7,2.9,12c0,7.1-1.9,12.6-5.7,16.6c-3.8,4-8.9,6-15.5,6H44.3V225.6z M57.9,256.9h6.6
					c3,0,5.2-0.8,6.4-2.4c1.2-1.6,1.9-4.1,1.9-7.3s-0.7-5.5-2.1-6.9c-1.4-1.4-3.7-2.1-6.7-2.1h-6.1V256.9z M57.9,268.9v21.7h7.3
					c3,0,5.3-0.9,6.7-2.8c1.5-1.8,2.2-4.7,2.2-8.6c0-6.9-3-10.4-9.1-10.4H57.9z"/>
				<path class="st6" d="M136.3,303.3l-4.5-19.6h-20.3l-4.5,19.6H92.6l19.2-78h19.6l19.3,78H136.3z M129.1,270.9l-4.1-18.1
					c-0.2-1.1-0.8-3.9-1.7-8.3c-0.9-4.4-1.4-7.4-1.6-8.9c-0.5,3-1,6.4-1.8,10.1s-2.6,12-5.5,25.1H129.1z"/>
				<path class="st6" d="M212.1,303.3h-17.6l-24-56.3h-0.7c0.9,4.3,1.3,8.9,1.3,13.8v42.5h-13.4v-77.7h17.8l23.8,55.7h0.6
					c-0.7-3.7-1-8.1-1-13.3v-42.4h13.3L212.1,303.3L212.1,303.3z"/>
				<path class="st6" d="M251.6,237.2c-4.1,0-7.4,2.4-9.8,7.3c-2.4,4.9-3.6,11.6-3.6,20.3c0,18,4.7,27,14.1,27
					c4.1,0,8.4-1.3,12.9-3.9v12.9c-3.8,2.5-8.6,3.8-14.6,3.8c-8.8,0-15.5-3.5-20.2-10.4c-4.7-7-7-16.8-7-29.4s2.4-22.4,7.3-29.5
					c4.8-7.1,11.6-10.6,20.2-10.6c2.8,0,5.6,0.4,8.2,1.2c2.6,0.8,5.4,2.1,8.4,4.1l-4.8,11.7c-1.6-1.1-3.3-2.1-5.1-3
					C255.7,237.6,253.7,237.2,251.6,237.2z"/>
				<path class="st6" d="M313,303.3l-4.5-19.6h-20.3l-4.5,19.6h-14.5l19.2-78h19.6l19.3,78H313z M305.8,270.9l-4.1-18.1
					c-0.2-1.1-0.8-3.9-1.7-8.3c-0.9-4.4-1.4-7.4-1.6-8.9c-0.5,3-1,6.4-1.8,10.1c-0.7,3.7-2.6,12-5.5,25.1H305.8z"/>
				<path class="st6" d="M348.8,273.1v30.2h-14.5v-77.7h18.9c8,0,13.9,1.9,17.7,5.7c3.8,3.8,5.7,9.6,5.7,17.4
					c0,9.8-3.3,16.7-9.9,20.6l14.9,34.1h-15.5l-12.3-30.2L348.8,273.1L348.8,273.1z M348.8,260.7h3.7c3.4,0,5.8-1,7.3-2.9
					c1.5-1.9,2.2-4.8,2.2-8.6c0-4-0.8-6.8-2.4-8.5c-1.6-1.7-4-2.5-7.3-2.5h-3.6L348.8,260.7L348.8,260.7z"/>
				<path class="st6" d="M391.3,303.3v-77.7H405v77.7H391.3z"/>
				<path class="st6" d="M458.2,303.3l-4.5-19.6h-20.3l-4.5,19.6h-14.5l19.2-78h19.6l19.3,78H458.2z M451,270.9l-4.1-18.1
					c-0.2-1.1-0.8-3.9-1.7-8.3c-0.9-4.4-1.4-7.4-1.6-8.9c-0.5,3-1,6.4-1.8,10.1c-0.7,3.7-2.6,12-5.5,25.1H451z"/>
			</g>
		</g>
	</g>
	<g id="Layer_3">
		<g class="st3">
			<rect x="5" y="325.7" class="st7" width="197.2" height="21.8"/>
			<rect x="309.8" y="325.7" class="st7" width="197.2" height="21.8"/>
			<rect x="5" y="303.9" class="st8" width="197.2" height="21.8"/>
			<rect x="309.8" y="303.9" class="st8" width="197.2" height="21.8"/>
			<rect x="5" y="282" class="st7" width="197.2" height="21.8"/>
			<rect x="309.8" y="282" class="st7" width="197.2" height="21.8"/>
			<rect x="5" y="260.2" class="st8" width="197.2" height="21.8"/>
			<rect x="309.8" y="260.2" class="st8" width="197.2" height="21.8"/>
			<rect x="5" y="238.4" class="st7" width="197.2" height="21.8"/>
			<rect x="309.8" y="238.4" class="st7" width="197.2" height="21.8"/>
			<rect x="202.2" y="5.5" class="st9" width="107.5" height="232.9"/>
			<rect x="202.2" y="238.4" class="st10" width="107.5" height="109.1"/>
			<rect x="5" y="5.5" class="st11" width="502" height="232.9"/>
			<path class="st12" d="M161.4,202c-26.6-16.8-44.3-46.3-44.3-80s17.7-63.3,44.3-80H87.8c0.1,1.2,0.2,2.4,0.2,3.6
				c0,22.1-17.9,40-40,40c-1.2,0-2.4-0.1-3.6-0.2v73.1c1.2-0.1,2.4-0.2,3.6-0.2c22.1,0,40,17.9,40,40c0,1.2-0.1,2.5-0.2,3.7
				L161.4,202L161.4,202z"/>
			<path class="st12" d="M47.9,63.7c-10,0-18.2-8.1-18.2-18.2c0-10,8.2-18.2,18.2-18.2c10.1,0,18.2,8.2,18.2,18.2
				C66.1,55.6,58,63.7,47.9,63.7"/>
			<path class="st12" d="M47.9,216.5c-10,0-18.2-8.1-18.2-18.2c0-10,8.2-18.2,18.2-18.2c10.1,0,18.2,8.2,18.2,18.2
				C66.1,208.4,58,216.5,47.9,216.5"/>
			<path class="st12" d="M424.2,202c-0.1-1.2-0.2-2.4-0.2-3.7c0-22.1,17.9-40,40-40c1.2,0,2.4,0.1,3.6,0.2V85.4
				c-1.2,0.1-2.4,0.2-3.6,0.2c-22.1,0-40-17.9-40-40c0-1.2,0.1-2.4,0.2-3.6h-73.6c26.6,16.7,44.3,46.3,44.3,80s-17.7,63.3-44.3,80
				L424.2,202L424.2,202z"/>
			<path class="st12" d="M464.1,63.7c10,0,18.2-8.1,18.2-18.2c0-10-8.2-18.2-18.2-18.2c-10.1,0-18.2,8.2-18.2,18.2
				C445.9,55.6,454,63.7,464.1,63.7"/>
			<path class="st12" d="M464.1,216.5c10,0,18.2-8.1,18.2-18.2c0-10-8.2-18.2-18.2-18.2c-10.1,0-18.2,8.2-18.2,18.2
				C445.9,208.4,454,216.5,464.1,216.5"/>
			<rect x="5" y="325.7" class="st7" width="197.2" height="21.8"/>
			<rect x="309.8" y="325.7" class="st7" width="197.2" height="21.8"/>
			<rect x="5" y="303.9" class="st8" width="197.2" height="21.8"/>
			<rect x="309.8" y="303.9" class="st8" width="197.2" height="21.8"/>
			<rect x="5" y="282" class="st7" width="197.2" height="21.8"/>
			<rect x="309.8" y="282" class="st7" width="197.2" height="21.8"/>
			<rect x="5" y="260.2" class="st8" width="197.2" height="21.8"/>
			<rect x="309.8" y="260.2" class="st8" width="197.2" height="21.8"/>
			<rect x="5" y="238.4" class="st7" width="197.2" height="21.8"/>
			<rect x="309.8" y="238.4" class="st7" width="197.2" height="21.8"/>
			<rect x="202.2" y="5.5" class="st9" width="107.5" height="232.9"/>
			<rect x="202.2" y="238.4" class="st10" width="107.5" height="109.1"/>
		</g>
	</g>
	<g id="Layer_4">
		<path class="st13" d="M512,322.8c0,16.7-13.5,30.3-30.3,30.3H30.3C13.5,353.1,0,339.5,0,322.8V30.3C0,13.5,13.5,0,30.3,0h451.5
			C498.5,0,512,13.6,512,30.3L512,322.8L512,322.8z"/>
		<path class="st2" d="M21.5,322.8V30.3C21.5,13.5,35.1,0,51.8,0H30.3C13.5,0,0,13.6,0,30.3v292.6c0,16.7,13.5,30.3,30.3,30.3h21.5
			C35.1,353.1,21.5,339.5,21.5,322.8z"/>
		<g class="st3">
			<g>
				<path class="st14" d="M201.9,132.2c0-26.7-33.2-48.4-74.1-48.4c-40.9,0-74.1,21.8-74.1,48.4c0,0.7,0,2.6,0,2.8
					c0,28.3,29,51.2,74.1,51.2c45.4,0,74.1-22.9,74.1-51.2C201.9,134,201.9,133.4,201.9,132.2z"/>
				<ellipse class="st15" cx="127.8" cy="132.1" rx="71.2" ry="45.6"/>
				<g>
					<path class="st16" d="M104.2,117.8c0,0.1-0.7,0.8-0.3,1.4c1.1,1.4,4.6,2.3,8.1,1.5c2.1-0.5,4.8-2.6,7.4-4.7
						c2.8-2.2,5.6-4.5,8.4-5.4c3-0.9,4.9-0.5,6.1-0.2c1.4,0.4,3,1.3,5.6,3.3c4.9,3.7,24.5,20.8,27.9,23.7
						c2.7-1.2,14.8-6.4,31.3-10.1c-1.4-8.8-6.8-16.8-14.9-23.4c-11.3,4.7-25.1,7.2-38.6,0.6c-0.1,0-7.4-3.5-14.6-3.3
						c-10.7,0.2-15.3,4.9-20.2,9.8L104.2,117.8z"/>
					<path class="st16" d="M166.5,139.3c-0.2-0.2-23-20.2-28.2-24c-3-2.2-4.7-2.8-6.4-3c-0.9-0.1-2.2,0.1-3,0.3
						c-2.4,0.7-5.5,2.8-8.3,5c-2.9,2.3-5.6,4.5-8.1,5c-3.2,0.7-7.2-0.1-9-1.3c-0.7-0.5-1.2-1.1-1.5-1.6c-0.7-1.5,0.6-2.8,0.8-3
						l6.3-6.8c0.7-0.7,1.5-1.5,2.2-2.2c-2,0.3-3.9,0.8-5.7,1.3c-2.3,0.6-4.5,1.3-6.7,1.3c-0.9,0-5.9-0.8-6.8-1.1
						c-5.7-1.6-10.7-3.1-18.2-6.6c-8.9,6.7-14.9,15-16.7,24.2c1.3,0.3,3.4,1,4.2,1.1c20.3,4.5,26.6,9.1,27.7,10.1
						c1.2-1.4,3-2.3,5-2.3c2.2,0,4.3,1.1,5.5,2.9c1.2-0.9,2.8-1.7,4.8-1.7c0.9,0,1.9,0.2,2.9,0.5c2.3,0.8,3.5,2.3,4.1,3.7
						c0.8-0.3,1.7-0.6,2.8-0.6c1.1,0,2.2,0.2,3.4,0.7c3.7,1.6,4.3,5.3,4,8c0.3,0,0.5,0,0.8,0c4.4,0,8,3.6,8,8c0,1.4-0.4,2.7-1,3.8
						c1.2,0.7,4.3,2.2,7,1.9c2.2-0.3,3-1,3.3-1.4c0.2-0.3,0.4-0.6,0.2-0.9l-5.7-6.3c0,0-0.9-0.9-0.6-1.2c0.3-0.4,0.9,0.2,1.3,0.5
						c2.9,2.4,6.5,6.1,6.5,6.1c0.1,0,0.3,0.5,1.6,0.7c1.1,0.2,3.1,0.1,4.5-1.1c0.4-0.3,0.7-0.6,1-1c0,0,0,0-0.1,0.1
						c1.5-1.9-0.2-3.8-0.2-3.8l-6.7-7.5c0,0-1-0.9-0.6-1.2c0.3-0.3,0.9,0.2,1.3,0.5c2.1,1.8,5.1,4.8,8,7.6c0.6,0.4,3.1,2,6.4-0.2
						c2-1.3,2.4-3,2.4-4.2c-0.1-1.6-1.4-2.8-1.4-2.8l-9.1-9.2c0,0-1-0.8-0.6-1.2c0.3-0.4,0.9,0.2,1.3,0.5c2.9,2.4,10.8,9.6,10.8,9.6
						c0.1,0.1,2.8,2,6.2-0.1c1.2-0.8,2-1.9,2-3.3C168.2,140.7,166.5,139.3,166.5,139.3z"/>
					<path class="st16" d="M122.3,150.9c-1.4,0-3,0.8-3.2,0.7c-0.1-0.1,0.1-0.6,0.2-1c0.1-0.3,2-5.9-2.5-7.9
						c-3.5-1.5-5.6,0.2-6.3,0.9c-0.2,0.2-0.3,0.2-0.3-0.1c-0.1-1-0.5-3.7-3.5-4.6c-4.3-1.3-7,1.7-7.7,2.8c-0.3-2.4-2.4-4.3-4.9-4.3
						c-2.7,0-5,2.2-5,5c0,2.7,2.2,5,5,5c1.3,0,2.5-0.5,3.4-1.4c0,0,0,0.1,0,0.2c-0.2,1.2-0.6,5.7,4.1,7.5c1.9,0.7,3.5,0.2,4.8-0.7
						c0.4-0.3,0.5-0.2,0.4,0.2c-0.2,1.1,0,3.6,3.5,5c2.6,1.1,4.2,0,5.2-1c0.4-0.4,0.6-0.3,0.6,0.3c0.1,3.3,2.9,6,6.2,6
						c3.5,0,6.3-2.8,6.3-6.2C128.6,153.7,125.8,150.9,122.3,150.9z"/>
				</g>
				<path class="st14" d="M167.4,136.9c-7-6.1-23.3-20.2-27.7-23.5c-2.5-1.9-4.2-2.9-5.7-3.3c-0.7-0.2-1.6-0.4-2.8-0.4
					c-1.1,0-2.3,0.2-3.6,0.6c-2.8,0.9-5.7,3.1-8.4,5.3l-0.1,0.1c-2.6,2-5.2,4.1-7.2,4.6c-0.9,0.2-1.8,0.3-2.7,0.3
					c-2.2,0-4.2-0.6-5-1.6c-0.1-0.2,0-0.4,0.2-0.8l0,0l6.2-6.7c4.8-4.8,9.4-9.4,19.9-9.7c0.2,0,0.4,0,0.5,0c6.6,0,13.1,2.9,13.8,3.3
					c6.1,3,12.5,4.5,18.9,4.5c6.6,0,13.5-1.6,20.7-5c-0.8-0.7-1.6-1.3-2.5-2c-6.3,2.7-12.4,4.1-18.2,4.1c-5.9,0-11.9-1.4-17.6-4.2
					c-0.3-0.1-7.5-3.6-15.1-3.6c-0.2,0-0.4,0-0.6,0c-8.8,0.2-13.8,3.3-17.2,6.1c-3.3,0.1-6.1,0.9-8.6,1.6c-2.2,0.6-4.2,1.2-6,1.2
					c-0.8,0-2.2-0.1-2.3-0.1c-2.2-0.1-13-2.7-21.7-6c-0.9,0.6-1.7,1.3-2.6,1.9c9,3.7,20.1,6.6,23.5,6.8c1,0.1,2,0.2,3,0.2
					c2.3,0,4.6-0.6,6.8-1.3c1.3-0.4,2.8-0.8,4.3-1.1c-0.4,0.4-0.8,0.8-1.2,1.2l-6.3,6.8c-0.5,0.5-1.6,1.8-0.9,3.5
					c0.3,0.7,0.9,1.3,1.7,1.8c1.5,1,4.2,1.7,6.7,1.7c0.9,0,1.8-0.1,2.7-0.3c2.6-0.6,5.4-2.8,8.3-5.1c2.3-1.9,5.6-4.2,8.2-4.9
					c0.7-0.2,1.6-0.3,2.3-0.3c0.2,0,0.4,0,0.6,0c1.7,0.2,3.3,0.8,6.2,3c5.2,3.9,28,23.8,28.2,24c0,0,1.5,1.3,1.4,3.4
					c-0.1,1.2-0.7,2.2-1.8,2.9c-1,0.6-2,0.9-3,0.9c-1.5,0-2.6-0.7-2.6-0.8c-0.1-0.1-7.9-7.2-10.8-9.6c-0.5-0.4-0.9-0.7-1.4-0.7
					c-0.2,0-0.5,0.1-0.6,0.3c-0.5,0.6,0.1,1.3,0.7,1.8l9.1,9.2c0,0,1.1,1.1,1.3,2.5c0.1,1.5-0.7,2.8-2.2,3.8
					c-1.1,0.7-2.2,1.1-3.2,1.1c-1.4,0-2.4-0.6-2.6-0.8l-1.3-1.3c-2.4-2.4-4.9-4.8-6.7-6.3c-0.4-0.4-0.9-0.7-1.4-0.7
					c-0.2,0-0.4,0.1-0.6,0.2c-0.2,0.2-0.4,0.6,0.2,1.3c0.2,0.3,0.5,0.5,0.5,0.5l6.7,7.5c0.1,0.1,1.4,1.6,0.2,3.2l-0.2,0.3
					c-0.2,0.2-0.4,0.4-0.6,0.6c-1.1,0.9-2.7,1-3.3,1c-0.3,0-0.6,0-0.9-0.1c-0.7-0.1-1.1-0.3-1.3-0.6l-0.1-0.1
					c-0.4-0.4-3.7-3.8-6.5-6.1c-0.4-0.3-0.8-0.7-1.3-0.7c-0.2,0-0.4,0.1-0.6,0.3c-0.5,0.6,0.3,1.5,0.6,1.8l5.7,6.3
					c0,0.1-0.1,0.2-0.2,0.4c-0.2,0.3-0.9,1-3,1.2c-0.2,0-0.5,0-0.8,0c-2.1,0-4.4-1-5.6-1.7c0.5-1.1,0.8-2.4,0.8-3.6
					c0-4.7-3.8-8.5-8.5-8.5c-0.1,0-0.2,0-0.3,0c0.2-2.1-0.1-6.2-4.3-8c-1.2-0.5-2.4-0.8-3.5-0.8c-0.9,0-1.8,0.2-2.6,0.5
					c-0.9-1.7-2.3-2.9-4.2-3.5c-1-0.4-2.1-0.5-3-0.5c-1.7,0-3.3,0.5-4.7,1.5c-1.4-1.7-3.4-2.7-5.6-2.7c-1.9,0-3.7,0.8-5.1,2.1
					c-1.8-1.4-8.8-5.8-27.6-10.1c-0.9-0.2-3-0.8-4.3-1.2c-0.2,1-0.4,2-0.5,3.1c0,0,3.5,0.8,4.1,1c19.2,4.3,25.5,8.7,26.6,9.5
					c-0.4,0.9-0.6,1.8-0.6,2.8c0,4,3.2,7.2,7.2,7.2c0.4,0,0.9,0,1.3-0.1c0.6,2.9,2.5,5.1,5.4,6.3c0.9,0.3,1.7,0.5,2.6,0.5
					c0.5,0,1.1-0.1,1.6-0.2c0.5,1.4,1.8,3.1,4.5,4.2c1,0.4,1.9,0.6,2.8,0.6c0.8,0,1.5-0.1,2.2-0.4c1.3,3.2,4.4,5.3,7.8,5.3
					c2.3,0,4.5-0.9,6.1-2.6c1.4,0.8,4.3,2.1,7.2,2.1c0.4,0,0.7,0,1.1-0.1c2.9-0.4,4.2-1.5,4.9-2.4c0.1-0.2,0.2-0.3,0.3-0.5
					c0.7,0.2,1.4,0.4,2.3,0.4c1.6,0,3.1-0.5,4.6-1.7c1.5-1.1,2.6-2.6,2.7-4c0,0,0,0,0-0.1c0.5,0.1,1,0.2,1.6,0.2
					c1.6,0,3.2-0.5,4.8-1.5c3-1.9,3.5-4.5,3.4-6.1c0.5,0.1,1,0.2,1.6,0.2c1.5,0,3-0.5,4.5-1.4c1.8-1.2,2.9-3,3.1-5
					c0.1-1.4-0.2-2.8-1-4.1c5-2.1,16.3-6.3,29.6-9.3c-0.1-1-0.2-2.1-0.4-3.1C182.5,130.4,170.4,135.6,167.4,136.9z M122.3,163
					c-3.1,0-5.7-2.4-5.8-5.5c0-0.3,0-1-0.6-1c-0.2,0-0.5,0.1-0.7,0.4c-0.7,0.6-1.6,1.3-2.8,1.3c-0.6,0-1.2-0.1-1.9-0.4
					c-3.3-1.3-3.4-3.6-3.2-4.5c0-0.2,0-0.5-0.1-0.7l-0.2-0.2h-0.2c-0.2,0-0.3,0.1-0.6,0.2c-1,0.7-1.9,1-2.8,1c-0.5,0-1-0.1-1.6-0.3
					c-4.4-1.7-4-5.8-3.8-7c0-0.3,0-0.4-0.2-0.6l-0.3-0.3l-0.3,0.3c-0.8,0.8-2,1.3-3.1,1.3c-2.5,0-4.5-2-4.5-4.5c0-2.5,2-4.5,4.5-4.5
					c2.3,0,4.2,1.7,4.5,3.9l0.2,1.2l0.7-1c0.1-0.1,1.9-2.9,5.3-2.9c0.6,0,1.3,0.1,2,0.3c2.7,0.8,3.1,3.2,3.2,4.3
					c0,0.6,0.5,0.6,0.5,0.6c0.2,0,0.4-0.1,0.5-0.3c0.5-0.5,1.6-1.4,3.3-1.4c0.8,0,1.6,0.2,2.5,0.6c4.3,1.8,2.3,7.2,2.3,7.3
					c-0.4,0.9-0.4,1.3,0,1.5l0.2,0.1h0.1c0.2,0,0.4-0.1,0.8-0.2c0.6-0.2,1.5-0.5,2.3-0.5h0c3.2,0,5.8,2.6,5.8,5.8
					C128.2,160.4,125.5,163,122.3,163z"/>
			</g>
			<g>
				<path class="st14" d="M454.2,101.3c-2.7-3.4-6.7-5-12.2-5c-5.4,0-9.5,1.7-12.2,5c-2.7,3.3-4,7.3-4,11.9c0,4.6,1.3,8.6,4,11.9
					c2.7,3.3,6.7,4.9,12.2,4.9c5.4,0,9.5-1.7,12.2-4.9c2.7-3.3,4-7.3,4-11.9C458.3,108.6,456.9,104.6,454.2,101.3z M447.6,120.5
					c-1.3,1.7-3.2,2.6-5.6,2.6c-2.4,0-4.3-0.9-5.6-2.6c-1.3-1.7-2-4.2-2-7.3c0-3.2,0.7-5.6,2-7.3c1.3-1.7,3.2-2.6,5.6-2.6
					c2.4,0,4.3,0.9,5.6,2.6c1.3,1.7,1.9,4.2,1.9,7.3C449.6,116.3,448.9,118.8,447.6,120.5z"/>
				<path class="st14" d="M385.9,98.5c-2.7-1.4-5.8-2.1-9.3-2.1c-5.4,0-9.2,1.4-11.4,4.2c-1.4,1.8-2.2,4.1-2.3,6.9h8
					c0.2-1.2,0.6-2.2,1.2-2.9c0.8-1,2.2-1.5,4.2-1.5c1.8,0,3.1,0.2,4,0.7c0.9,0.5,1.4,1.4,1.4,2.7c0,1.1-0.6,1.9-1.8,2.4
					c-0.7,0.3-1.8,0.5-3.3,0.7l-2.8,0.4c-3.2,0.4-5.7,1.1-7.3,2c-3,1.7-4.6,4.6-4.6,8.5c0,3,0.9,5.3,2.8,7c1.9,1.6,4.3,2.3,7.2,2.5
					c18.1,0.8,17.9-9.6,18.1-11.7v-11.9C390,102.5,388.6,99.9,385.9,98.5z M381.7,116.6c-0.1,2.8-0.9,4.7-2.4,5.7
					c-1.5,1-3.2,1.6-5,1.6c-1.1,0-2.1-0.3-2.9-0.9c-0.8-0.6-1.2-1.7-1.2-3.1c0-1.6,0.7-2.8,2-3.5c0.8-0.4,2-0.8,3.8-1.1l1.9-0.4
					c0.9-0.2,1.7-0.4,2.2-0.6c0.5-0.2,1.1-0.5,1.6-0.8L381.7,116.6L381.7,116.6z"/>
				<path class="st14" d="M344.6,103.5c2.1,0,3.6,0.6,4.6,1.9c0.7,0.9,1.1,2,1.3,3.2h8.9c-0.5-4.5-2.1-7.7-4.7-9.4
					c-2.7-1.8-6.1-2.7-10.3-2.7c-4.9,0-8.8,1.5-11.6,4.5c-2.8,3-4.2,7.3-4.2,12.7c0,4.8,1.3,8.7,3.8,11.8c2.5,3,6.5,4.5,11.9,4.5
					c5.4,0,9.4-1.8,12.2-5.4c1.7-2.2,2.7-4.6,2.9-7.1h-8.9c-0.2,1.7-0.7,3-1.6,4.1c-0.9,1-2.3,1.6-4.4,1.6c-2.9,0-4.9-1.3-5.9-4
					c-0.6-1.4-0.9-3.3-0.9-5.6c0-2.4,0.3-4.4,0.9-5.9C339.6,104.9,341.6,103.5,344.6,103.5z"/>
				<path class="st14" d="M326.1,96.5c-18.4,0-17.3,16.3-17.3,16.3v16.5h8.3v-15.5c0-2.5,0.3-4.4,1-5.6c1.1-2.2,3.4-3.3,6.7-3.3
					c0.3,0,0.6,0,1,0c0.4,0,0.9,0.1,1.4,0.1v-8.5c-0.4,0-0.6,0-0.7,0C326.4,96.5,326.3,96.5,326.1,96.5z"/>
				<path class="st14" d="M295.5,120.7c-0.4,0.5-0.7,0.9-1.1,1.3c-1.2,1-2.8,1.3-4.7,1.3c-1.8,0-3.2-0.3-4.4-1.1
					c-2.1-1.3-3.3-3.4-3.4-6.6H305c0-2.7-0.1-4.8-0.3-6.3c-0.4-2.5-1.2-4.7-2.5-6.5c-1.4-2.1-3.3-3.7-5.5-4.7
					c-2.2-1-4.7-1.5-7.4-1.5c-4.6,0-8.4,1.5-11.3,4.4c-2.9,2.9-4.4,7.1-4.4,12.6c0,5.9,1.6,10.1,4.8,12.7c3.2,2.6,6.9,3.9,11.2,3.9
					c5.1,0,9.1-1.5,11.9-4.6c1.5-1.6,2.5-3.2,2.9-4.8H295.5z M284.3,105.2c1.2-1.2,2.8-1.8,4.9-1.8c2,0,3.6,0.6,4.9,1.7
					c1.3,1.1,2.1,2.8,2.2,5h-14.3C282.4,108,283.1,106.4,284.3,105.2z"/>
				<g>
					<path class="st14" d="M270.2,129.3h-7.6v-19.2c0-1.8-0.6-5.9-5.6-5.9c-3.4,0-5.8,2.4-5.8,5.9v19.2h-7.6v-19.2
						c0-1.8-0.5-5.9-5.5-5.9c-3.4,0-5.8,2.4-5.8,5.9v19.2h-7.6v-19c0-7.9,5.3-13.9,13.4-13.9c4,0,7.3,1.7,9.5,4.4
						c2.3-2.7,5.6-4.4,9.5-4.4c8.3,0,13.2,5.7,13.2,13.9L270.2,129.3L270.2,129.3z"/>
				</g>
				<path class="st14" d="M423.4,86.5c0,0-8.4-0.9-8.4,5.9l0,8.9c-0.9-1.5-2.1-2.7-3.6-3.5c-1.5-0.8-3.2-1.3-5.1-1.3
					c-4.2,0-7.5,1.6-10,4.6c-2.5,3.1-3.7,7.6-3.7,13c0,4.7,1.3,8.5,3.8,11.5c2.5,3,7.5,4.3,11.9,4.3c15.4,0,15.2-13.2,15.2-13.2
					L423.4,86.5z M413.4,120.6c-1.2,1.7-3,2.6-5.3,2.6c-2.3,0-4.1-0.9-5.2-2.6c-1.2-1.8-1.7-4.3-1.7-7.2c0-2.7,0.6-5,1.7-6.8
					c1.1-1.8,2.9-2.7,5.3-2.7c1.6,0,3,0.5,4.2,1.5c2,1.7,2.9,4.7,2.9,8.5C415.2,116.6,414.6,118.8,413.4,120.6z"/>
			</g>
			<g>
				<g>
					<path class="st15" d="M285.5,182.2c0,1.1-0.4,2.1-1.2,2.9c-0.8,0.8-1.8,1.2-2.9,1.2h-4.2v-29c0-5.6,1.9-9.2,5-11.5
						c2.1-1.6,5.1-3.1,10.9-3.1c3.9,0,8.5,1.5,10.9,4.5c2.8,3.4,3.9,7.1,3.9,12.1c0,5.1-1.2,9.2-3.7,12.3c-2.5,3.1-5.6,4.6-9.4,4.6
						c-2,0-3.8-0.4-5.4-1.1c-1.6-0.8-2.9-2.1-3.9-3.8L285.5,182.2L285.5,182.2z M299.5,159.7c0-3.1-0.6-5.6-1.8-7.3
						c-1.2-1.7-3-2.5-5.3-2.5c-2.2,0-3.9,0.9-5.2,2.5c-1.1,1.5-1.7,4-1.7,7.3c0,3.1,0.6,5.4,1.8,6.9c1.2,1.7,3,2.5,5.3,2.5
						c2.1,0,3.8-0.8,5-2.5C298.9,164.9,299.5,162.6,299.5,159.7"/>
					<path class="st15" d="M363.2,173.6v-2c-1.4,2.3-3.4,3.7-5.8,4.2c-2.5,0.6-4.9,0.4-7.3-0.6c-2.4-1-4.5-2.8-6.2-5.4
						c-1.7-2.6-2.6-6.1-2.6-10.3c0-5,1.1-9,3.4-12.1c2.3-3.1,6-4.5,11-4.7c5-0.1,7.9,1,10.7,3.1c3.1,2.4,4.9,6,4.9,11.6v17
						c0,5.4-3.8,15.5-15.6,14.6c-7.4-0.5-11.4-3.6-13.7-10.4h8.8c0.6,1.1,1.6,2,3,2.6c1.3,0.6,2.6,0.8,4,0.5
						c1.3-0.3,2.5-1.1,3.6-2.4C362.4,178.1,363.1,176.2,363.2,173.6 M349.5,159.7c0,5.6,1.6,8.6,4.8,9.2c3.2,0.6,5.6-0.1,7.1-2.2
						c0.7-0.9,1.2-2.3,1.6-4.2c0.3-1.9,0.3-3.8,0.1-5.6c-0.3-1.9-0.9-3.5-2-5c-1-1.4-2.6-2.2-4.6-2.2c-2.7,0-4.6,1-5.5,3
						C350,154.8,349.5,157.1,349.5,159.7"/>
					<path class="st15" d="M334.2,144.9c-2.7-1.4-5.8-2.1-9.3-2.1c-5.4,0-9.2,1.4-11.4,4.2c-1.4,1.8-2.2,4.1-2.3,6.9h8
						c0.2-1.2,0.6-2.2,1.2-2.9c0.8-1,2.2-1.5,4.2-1.5c1.8,0,3.1,0.2,4,0.7c0.9,0.5,1.4,1.4,1.4,2.7c0,1.1-0.6,1.9-1.8,2.4
						c-0.7,0.3-1.8,0.5-3.3,0.7l-2.8,0.3c-3.2,0.4-5.7,1.1-7.3,2c-3,1.7-4.6,4.6-4.6,8.5c0,3,0.9,5.3,2.8,7c1.9,1.6,4.3,2.3,7.2,2.5
						c18.1,0.8,17.9-9.6,18.1-11.7v-11.9C338.2,148.9,336.9,146.3,334.2,144.9 M330,163c-0.1,2.8-0.9,4.7-2.4,5.7
						c-1.5,1-3.2,1.6-5,1.6c-1.1,0-2.1-0.3-2.9-0.9c-0.8-0.6-1.2-1.7-1.2-3.1c0-1.6,0.7-2.8,2-3.5c0.8-0.4,2-0.8,3.8-1.1l1.9-0.4
						c0.9-0.2,1.7-0.4,2.2-0.6c0.6-0.2,1.1-0.5,1.6-0.8L330,163L330,163z"/>
					<path class="st15" d="M402.9,147.6c-2.7-3.4-6.7-5-12.2-5c-5.4,0-9.5,1.7-12.2,5c-2.7,3.3-4,7.3-4,11.9c0,4.6,1.3,8.6,4,11.9
						c2.7,3.3,6.7,4.9,12.2,4.9c5.4,0,9.5-1.7,12.2-4.9c2.7-3.3,4-7.3,4-11.9C406.9,154.9,405.6,150.9,402.9,147.6 M396.3,166.8
						c-1.3,1.7-3.2,2.6-5.6,2.6s-4.3-0.9-5.6-2.6c-1.3-1.7-2-4.2-2-7.3c0-3.2,0.6-5.6,2-7.3c1.3-1.7,3.2-2.6,5.6-2.6
						s4.3,0.9,5.6,2.6c1.3,1.7,1.9,4.2,1.9,7.3C398.3,162.6,397.6,165.1,396.3,166.8"/>
				</g>
			</g>
		</g>
		<g class="st3">
			<g>
				<polygon class="st17" points="162.2,275.1 165.2,258.3 169.8,258.3 166.9,275.1 				"/>
				<polygon class="st18" points="162.2,275.1 166,258.3 169.8,258.3 166.9,275.1 				"/>
				<path class="st17" d="M183.8,258.5c-0.9-0.4-2.4-0.7-4.3-0.7c-4.7,0-8,2.3-8,5.7c0,2.5,2.3,3.8,4.2,4.7c1.9,0.8,2.4,1.4,2.4,2.1
					c0,1.1-1.5,1.7-2.8,1.7c-1.9,0-2.9-0.3-4.5-0.9l-0.7-0.3l-0.7,3.8c1.1,0.5,3.2,0.9,5.3,0.9c4.9,0,8.2-2.3,8.2-5.9
					c0-2-1.2-3.5-4-4.7c-1.7-0.8-2.7-1.3-2.7-2.1c0-0.7,0.8-1.5,2.7-1.5c1.6,0,2.7,0.3,3.5,0.7l0.5,0.2L183.8,258.5L183.8,258.5z"/>
				<path class="st18" d="M183.8,258.5c-0.9-0.4-2.4-0.7-4.3-0.7c-4.7,0-7.2,2.3-7.2,5.7c0,2.5,1.5,3.8,3.4,4.7
					c1.9,0.8,2.4,1.4,2.4,2.1c0,1.1-1.5,1.7-2.8,1.7c-1.9,0-2.9-0.3-4.5-0.9l-0.7-0.3l-0.7,3.8c1.1,0.5,3.2,0.9,5.3,0.9
					c5,0,8.2-2.3,8.2-5.9c0-2-1.2-3.5-4-4.7c-1.7-0.8-2.7-1.3-2.7-2.1c0-0.7,0.8-1.5,2.7-1.5c1.6,0,2.7,0.3,3.5,0.7l0.5,0.2
					L183.8,258.5L183.8,258.5z"/>
				<path class="st17" d="M191.9,258.3c-1.1,0-2,0.1-2.4,1.2l-7,15.6h5l0.9-2.8h6l0.6,2.8h4.5l-3.9-16.8L191.9,258.3L191.9,258.3z
					 M189.7,269.5c0.3-0.8,1.9-5,1.9-5s0.4-1,0.7-1.7l0.3,1.6c0,0,0.9,4.2,1.1,5.1L189.7,269.5L189.7,269.5z"/>
				<path class="st18" d="M193,258.3c-1.1,0-2,0.1-2.4,1.2l-8.1,15.6h5l0.9-2.8h6l0.6,2.8h4.5l-3.9-16.8L193,258.3L193,258.3z
					 M189.7,269.5c0.4-0.9,1.9-5,1.9-5s0.4-1,0.7-1.7l0.3,1.6c0,0,0.9,4.2,1.1,5.1L189.7,269.5L189.7,269.5z"/>
				<path class="st17" d="M153.6,270.1l-0.5-2.4c-0.8-2.8-3.5-5.9-6.5-7.4l4.2,14.9h5l7.6-16.8h-5L153.6,270.1z"/>
				<path class="st18" d="M153.6,270.1l-0.5-2.4c-0.8-2.8-3.5-5.9-6.5-7.4l4.2,14.9h5l7.6-16.8h-4.1L153.6,270.1z"/>
				<path class="st19" d="M140.6,258.3l0.8,0.2c6,1.4,10.1,5,11.7,9.2l-1.7-7.9c-0.3-1.1-1.1-1.4-2.1-1.4L140.6,258.3L140.6,258.3z"
					/>
				<path class="st20" d="M140.6,258.3L140.6,258.3c6,1.4,10.9,5,12.5,9.2l-1.6-6.6c-0.3-1.1-1.2-1.8-2.2-1.8L140.6,258.3z"/>
				<path class="st21" d="M140.6,258.3L140.6,258.3c6,1.4,10.9,5,12.5,9.2l-1.1-3.6c-0.3-1.1-0.7-2.2-2-2.7L140.6,258.3z"/>
				<g>
					<path class="st22" d="M158.2,269.5l-3.2-3.2l-1.5,3.5l-0.4-2.3c-0.8-2.8-3.5-5.9-6.5-7.4l4.2,14.9h5L158.2,269.5z"/>
					<polygon class="st22" points="166.9,275.1 162.9,271 162.2,275.1 					"/>
					<path class="st22" d="M177.7,269.3L177.7,269.3c0.4,0.4,0.6,0.7,0.5,1c0,1.1-1.5,1.7-2.8,1.7c-1.9,0-2.9-0.3-4.5-0.9l-0.7-0.3
						l-0.7,3.8c1.1,0.5,3.2,0.9,5.3,0.9c3,0,5.4-0.8,6.8-2.3L177.7,269.3z"/>
					<path class="st22" d="M183.1,275.1h4.4l0.9-2.8h6l0.6,2.8h4.5l-1.6-6.8l-5.6-5.4l0.3,1.5c0,0,0.9,4.2,1.1,5.1h-3.9
						c0.4-0.9,1.9-5,1.9-5s0.4-1,0.7-1.7"/>
				</g>
			</g>
			<g>
				<path class="st23" d="M261.4,266.7c0,6.6-5.3,12-12,12c-6.6,0-12-5.4-12-12l0,0c0-6.6,5.3-12,11.9-12
					C256,254.7,261.4,260.1,261.4,266.7L261.4,266.7z"/>
				<path class="st20" d="M249.4,254.7c6.6,0,12,5.4,12,12l0,0c0,6.6-5.3,12-12,12c-6.6,0-12-5.4-12-12"/>
				<path class="st24" d="M249.4,254.7c6.6,0,12,5.4,12,12l0,0c0,6.6-5.3,12-12,12"/>
				<path class="st25" d="M233.3,254.7c-6.5,0.1-11.8,5.4-11.8,12c0,6.6,5.3,12,12,12c3.1,0,5.9-1.2,8-3.1l0,0l0,0
					c0.4-0.4,0.8-0.8,1.2-1.3h-2.5c-0.3-0.4-0.6-0.8-0.9-1.2h4.2c0.3-0.4,0.5-0.8,0.7-1.3h-5.6c-0.2-0.4-0.4-0.8-0.5-1.3h6.6
					c0.4-1.2,0.6-2.5,0.6-3.8c0-0.9-0.1-1.7-0.3-2.5h-7.3c0.1-0.4,0.2-0.8,0.3-1.3h6.6c-0.1-0.4-0.3-0.9-0.5-1.3h-5.6
					c0.2-0.4,0.4-0.8,0.7-1.3h4.2c-0.3-0.4-0.6-0.9-0.9-1.3h-2.3c0.4-0.4,0.8-0.8,1.2-1.2c-2.1-2-4.9-3.1-8-3.1
					C233.4,254.7,233.4,254.7,233.3,254.7z"/>
				<path class="st26" d="M221.5,266.7c0,6.6,5.3,12,12,12c3.1,0,5.9-1.2,8-3.1l0,0l0,0c0.4-0.4,0.8-0.8,1.2-1.3h-2.5
					c-0.3-0.4-0.6-0.8-0.9-1.2h4.2c0.3-0.4,0.5-0.8,0.7-1.3h-5.6c-0.2-0.4-0.4-0.8-0.5-1.3h6.6c0.4-1.2,0.6-2.5,0.6-3.8
					c0-0.9-0.1-1.7-0.3-2.5h-7.3c0.1-0.4,0.2-0.8,0.3-1.3h6.6c-0.1-0.4-0.3-0.9-0.5-1.3h-5.6c0.2-0.4,0.4-0.8,0.7-1.3h4.2
					c-0.3-0.4-0.6-0.9-0.9-1.3h-2.3c0.4-0.4,0.8-0.8,1.2-1.2c-2.1-2-4.9-3.1-8-3.1h-0.1"/>
				<path class="st27" d="M233.4,278.6c3.1,0,5.9-1.2,8-3.1l0,0l0,0c0.4-0.4,0.8-0.8,1.2-1.3h-2.5c-0.3-0.4-0.6-0.8-0.9-1.2h4.2
					c0.3-0.4,0.5-0.8,0.7-1.3h-5.6c-0.2-0.4-0.4-0.8-0.5-1.3h6.6c0.4-1.2,0.6-2.5,0.6-3.8c0-0.9-0.1-1.7-0.3-2.5h-7.3
					c0.1-0.4,0.2-0.8,0.3-1.3h6.6c-0.1-0.4-0.3-0.9-0.5-1.3h-5.6c0.2-0.4,0.4-0.8,0.7-1.3h4.2c-0.3-0.4-0.6-0.9-0.9-1.3h-2.3
					c0.4-0.4,0.8-0.8,1.2-1.2c-2.1-2-4.9-3.1-8-3.1h-0.1"/>
				<g>
					<path class="st16" d="M237.7,269.7l0.2-1.1c-0.1,0-0.2,0.1-0.3,0.1c-0.4,0-0.5-0.3-0.4-0.4l0.4-2.2h0.7l0.2-1.2h-0.6l0.1-0.8
						h-1.3c0,0-0.8,4.2-0.8,4.7c0,0.8,0.4,1.1,1,1.1C237.2,269.9,237.6,269.8,237.7,269.7z"/>
					<path class="st16" d="M238.1,267.7c0,1.8,1.2,2.2,2.2,2.2c0.9,0,1.3-0.2,1.3-0.2l0.3-1.2c0,0-0.7,0.3-1.3,0.3
						c-1.4,0-1.1-1-1.1-1h2.6c0,0,0.2-0.8,0.2-1.1c0-0.8-0.4-1.8-1.8-1.8C239.1,264.7,238.1,266.1,238.1,267.7z M240.3,265.8
						c0.7,0,0.6,0.8,0.6,0.9h-1.4C239.5,266.7,239.6,265.8,240.3,265.8z"/>
					<path class="st16" d="M248.4,269.7l0.3-1.4c0,0-0.6,0.3-1.1,0.3c-0.9,0-1.3-0.7-1.3-1.5c0-1.5,0.8-2.3,1.6-2.3
						c0.6,0,1.1,0.4,1.1,0.4l0.2-1.3c0,0-0.8-0.3-1.5-0.3c-1.5,0-2.9,1.3-2.9,3.7c0,1.6,0.8,2.7,2.3,2.7
						C247.7,269.9,248.4,269.7,248.4,269.7z"/>
					<path class="st16" d="M230.7,264.7c-0.9,0-1.5,0.3-1.5,0.3L229,266c0,0,0.6-0.3,1.4-0.3c0.4,0,0.8,0.1,0.8,0.4
						c0,0.3-0.1,0.3-0.1,0.3s-0.4,0-0.6,0c-1.1,0-2.3,0.4-2.3,1.9c0,1.1,0.8,1.4,1.2,1.4c0.9,0,1.3-0.6,1.3-0.6l-0.1,0.5h1.1
						l0.5-3.5C232.4,264.8,231.2,264.7,230.7,264.7z M231,267.6c0,0.2-0.1,1.2-0.9,1.2c-0.4,0-0.5-0.3-0.5-0.5
						c0-0.3,0.2-0.8,1.1-0.8C230.9,267.6,231,267.6,231,267.6z"/>
					<path class="st16" d="M233.6,269.8c0.3,0,1.9,0.1,1.9-1.6c0-1.6-1.5-1.3-1.5-1.9c0-0.3,0.3-0.4,0.7-0.4c0.2,0,0.9,0.1,0.9,0.1
						l0.2-1.1c0,0-0.4-0.1-1.2-0.1c-0.9,0-1.9,0.4-1.9,1.6c0,1.5,1.6,1.3,1.6,1.9c0,0.4-0.4,0.4-0.8,0.4c-0.6,0-1.1-0.2-1.1-0.2
						l-0.2,1.1C232.2,269.7,232.6,269.8,233.6,269.8z"/>
					<path class="st16" d="M258.9,263.7l-0.3,1.7c0,0-0.5-0.6-1.2-0.6c-1.1,0-2.2,1.4-2.2,3c0,1,0.5,2.1,1.6,2.1
						c0.8,0,1.2-0.5,1.2-0.5l-0.1,0.4h1.3l1-6.1L258.9,263.7z M258.3,267c0,0.7-0.3,1.6-1,1.6c-0.4,0-0.7-0.4-0.7-1
						c0-1,0.4-1.6,1-1.6C258.1,266,258.3,266.3,258.3,267z"/>
					<path class="st16" d="M223.8,269.8l0.8-4.6l0.1,4.6h0.9l1.6-4.6l-0.7,4.6h1.3l1-6.1h-2.1l-1.3,3.7l-0.1-3.7h-1.8l-1,6.1H223.8z
						"/>
					<path class="st16" d="M243.4,269.8c0.4-2.1,0.4-3.8,1.3-3.5c0.1-0.8,0.3-1.1,0.4-1.5c0,0-0.1,0-0.3,0c-0.6,0-1,0.8-1,0.8
						l0.1-0.7h-1.2l-0.8,4.9L243.4,269.8L243.4,269.8L243.4,269.8z"/>
					<path class="st16" d="M251.3,264.7c-0.9,0-1.5,0.3-1.5,0.3l-0.2,1.1c0,0,0.6-0.3,1.4-0.3c0.4,0,0.8,0.1,0.8,0.4
						c0,0.3-0.1,0.3-0.1,0.3s-0.4,0-0.6,0c-1.1,0-2.3,0.4-2.3,1.9c0,1.1,0.8,1.4,1.2,1.4c0.9,0,1.3-0.6,1.3-0.6l-0.1,0.5h1.1
						l0.5-3.5C253.1,264.8,251.7,264.7,251.3,264.7z M251.6,267.6c0,0.2-0.1,1.2-0.9,1.2c-0.4,0-0.5-0.3-0.5-0.5
						c0-0.3,0.2-0.8,1.1-0.8C251.5,267.6,251.5,267.6,251.6,267.6z"/>
					<path class="st16" d="M254.1,269.8c0.4-2.1,0.4-3.8,1.3-3.5c0.1-0.8,0.3-1.1,0.4-1.5c0,0-0.1,0-0.3,0c-0.6,0-1,0.8-1,0.8
						l0.1-0.7h-1.2l-0.8,4.9L254.1,269.8L254.1,269.8L254.1,269.8z"/>
				</g>
				<g>
					<path class="st28" d="M235.7,268.8c0,0.8,0.4,1.1,1,1.1c0.4,0,0.8-0.1,0.9-0.2l0.2-1.1c-0.1,0-0.2,0.1-0.3,0.1
						c-0.4,0-0.5-0.3-0.4-0.4l0.4-2.2h0.7l0.2-1.2h-0.6l0.1-0.8"/>
					<path class="st28" d="M238.8,267.7c0,1.8,0.6,2.2,1.6,2.2c0.9,0,1.3-0.2,1.3-0.2l0.3-1.2c0,0-0.7,0.3-1.3,0.3
						c-1.4,0-1.1-1-1.1-1h2.6c0,0,0.2-0.8,0.2-1.1c0-0.8-0.4-1.8-1.8-1.8C239.1,264.7,238.8,266.1,238.8,267.7z M240.3,265.8
						c0.7,0,0.8,0.8,0.8,0.9h-1.6C239.5,266.7,239.6,265.8,240.3,265.8z"/>
					<path class="st28" d="M248.4,269.7l0.3-1.4c0,0-0.6,0.3-1.1,0.3c-0.9,0-1.3-0.7-1.3-1.5c0-1.5,0.8-2.3,1.6-2.3
						c0.6,0,1.1,0.4,1.1,0.4l0.2-1.3c0,0-0.8-0.3-1.5-0.3c-1.5,0-2.3,1.3-2.3,3.7c0,1.6,0.1,2.7,1.6,2.7
						C247.7,269.9,248.4,269.7,248.4,269.7z"/>
					<path class="st28" d="M229,266.1c0,0,0.6-0.3,1.4-0.3c0.4,0,0.8,0.1,0.8,0.4c0,0.3-0.1,0.3-0.1,0.3s-0.4,0-0.6,0
						c-1.1,0-2.3,0.4-2.3,1.9c0,1.1,0.8,1.4,1.2,1.4c0.9,0,1.3-0.6,1.3-0.6l-0.1,0.5h1.1l0.5-3.5c0-1.5-1.3-1.5-1.8-1.5
						 M231.6,267.6c0,0.2-0.8,1.2-1.5,1.2c-0.4,0-0.5-0.3-0.5-0.5c0-0.3,0.2-0.8,1.1-0.8C230.9,267.6,231.6,267.6,231.6,267.6z"/>
					<path class="st28" d="M232.2,269.7c0,0,0.4,0.1,1.5,0.1c0.3,0,1.9,0.1,1.9-1.6c0-1.6-1.5-1.3-1.5-1.9c0-0.3,0.3-0.4,0.7-0.4
						c0.2,0,0.9,0.1,0.9,0.1l0.2-1.1c0,0-0.4-0.1-1.2-0.1c-0.9,0-1.3,0.4-1.3,1.6c0,1.5,0.9,1.3,0.9,1.9c0,0.4-0.4,0.4-0.8,0.4"/>
					<path class="st28" d="M258.6,265.4c0,0-0.5-0.6-1.2-0.6c-1.1,0-1.5,1.4-1.5,3c0,1-0.1,2.1,0.9,2.1c0.8,0,1.2-0.5,1.2-0.5
						l-0.1,0.4h1.3l1-6.1 M258.6,267c0,0.7-0.6,1.6-1.3,1.6c-0.4,0-0.7-0.4-0.7-1c0-1,0.4-1.6,1-1.6
						C258.1,266,258.6,266.3,258.6,267z"/>
					<path class="st28" d="M223.8,269.8l0.8-4.6l0.1,4.6h0.9l1.6-4.6l-0.7,4.6h1.3l1-6.1h-1.6l-1.8,3.7l-0.1-3.7h-0.7l-2.2,6.1
						H223.8z"/>
					<path class="st28" d="M242.1,269.8h1.3c0.4-2.1,0.4-3.8,1.3-3.5c0.1-0.8,0.3-1.1,0.4-1.5c0,0-0.1,0-0.3,0c-0.6,0-1,0.8-1,0.8
						l0.1-0.7"/>
					<path class="st28" d="M249.6,266.1c0,0,0.6-0.3,1.4-0.3c0.4,0,0.8,0.1,0.8,0.4c0,0.3-0.1,0.3-0.1,0.3s-0.4,0-0.6,0
						c-1.1,0-2.3,0.4-2.3,1.9c0,1.1,0.8,1.4,1.2,1.4c0.9,0,1.3-0.6,1.3-0.6l-0.1,0.5h1.1l0.5-3.5c0-1.5-1.3-1.5-1.8-1.5
						 M252.2,267.6c0,0.2-0.8,1.2-1.5,1.2c-0.4,0-0.5-0.3-0.5-0.5c0-0.3,0.2-0.8,1.1-0.8C251.5,267.6,252.2,267.6,252.2,267.6z"/>
					<path class="st28" d="M252.7,269.8h1.3c0.4-2.1,0.4-3.8,1.3-3.5c0.1-0.8,0.3-1.1,0.4-1.5c0,0-0.1,0-0.3,0c-0.6,0-1,0.8-1,0.8
						l0.1-0.7"/>
				</g>
			</g>
			<g>
				<g>
					<g>
						<g>
							<g>
								<g>
									<rect x="279.2" y="254.8" class="st29" width="22.9" height="23.8"/>
									<path class="st16" d="M293.5,276.2v0.9H288v-0.9h-4.2c-0.4,0-0.7-0.4-0.7-0.9l-1.7-17.6c0-0.5,0.4-0.9,0.9-0.9h16.8
										c0.5,0,0.9,0.4,0.9,0.9l-1.7,17.6c0,0.5-0.3,0.9-0.7,0.9L293.5,276.2z"/>
									<path class="st30" d="M284.5,259.3h11.3c-1.1,0.4-4.5,2.7-5.3,4.2h-5.9L284.5,259.3z"/>
									<path class="st31" d="M293.4,271.4c-0.2,1.5-0.2,3.4-0.2,5.4h-4.9c0-2,0.1-3.8,0.2-5.4H293.4z"/>
									<polygon class="st29" points="284.1,267.9 285.9,267.9 285.9,268.6 285.1,268.6 285.1,269.2 285.9,269.2 285.9,269.8 
										285.1,269.8 285.1,270.4 285.9,270.4 285.9,271.1 284.1,271.1 									"/>
									<polygon class="st29" points="288.2,267.9 290,267.9 290,268.6 289.2,268.6 289.2,269.2 290,269.2 290,269.8 289.2,269.8 
										289.2,270.4 290,270.4 290,271.1 288.2,271.1 									"/>
									<polygon class="st29" points="292.8,267.9 294.6,267.9 294.6,268.6 293.8,268.6 293.8,269.2 294.6,269.2 294.6,269.8 
										293.8,269.8 293.8,270.4 294.6,270.4 294.6,271.1 292.8,271.1 									"/>
									<polygon class="st29" points="287.2,270.4 288,270.4 288,271.1 286.2,271.1 286.2,267.9 287.2,267.9 									"/>
									<polygon class="st29" points="290.2,267.9 290.7,271.1 292,271.1 292.6,267.9 291.9,267.9 291.5,270.1 291.1,267.9 
																			"/>
									<rect x="295" y="267.9" class="st29" width="1" height="3.2"/>
									<path class="st29" d="M296,268.9c0.1-0.3,0.5-0.3,0.5-0.1v2.3h1v-2.7c0-0.6-0.8-0.8-1.5-0.3"/>
									<path class="st31" d="M293.9,267.5c0.1-1.2,1.8-3.2,3.4-3.7v-4.7c-4.4,2-7.3,5-7.9,8.4L293.9,267.5z"/>
									<path class="st29" d="M295.2,272.8c-0.1,0.1-0.3,0.2-0.5,0.2s-0.3-0.1-0.5-0.2c-0.1-0.1-0.2-0.3-0.2-0.5
										c0-0.2,0.1-0.3,0.2-0.5c0.1-0.1,0.3-0.2,0.4-0.2c0.2,0,0.3,0.1,0.5,0.2s0.2,0.3,0.2,0.5
										C295.3,272.5,295.3,272.7,295.2,272.8 M294.3,271.9c-0.1,0.1-0.2,0.2-0.2,0.4c0,0.2,0.1,0.3,0.2,0.4
										c0.1,0.1,0.2,0.2,0.4,0.2c0.2,0,0.3-0.1,0.4-0.2c0.1-0.1,0.2-0.2,0.2-0.4c0-0.2-0.1-0.3-0.2-0.4c-0.1-0.1-0.2-0.2-0.4-0.2
										C294.6,271.8,294.4,271.8,294.3,271.9 M294.7,272c0.1,0,0.2,0,0.2,0c0.1,0,0.1,0.1,0.1,0.2c0,0.1,0,0.1-0.1,0.1
										c0,0-0.1,0-0.1,0c0.1,0,0.1,0,0.1,0.1c0,0,0,0.1,0,0.1v0.1c0,0,0,0,0,0.1c0,0,0,0,0,0l0,0h-0.1c0,0,0,0,0,0c0,0,0,0,0,0
										l0,0v-0.1c0-0.1,0-0.1-0.1-0.2c0,0-0.1,0-0.1,0h-0.1v0.3h-0.1V272L294.7,272L294.7,272z M294.8,272.1c0,0-0.1,0-0.2,0h-0.1
										v0.3h0.1c0.1,0,0.1,0,0.1,0c0,0,0.1-0.1,0.1-0.1C294.9,272.1,294.9,272.1,294.8,272.1"/>
								</g>
							</g>
						</g>
					</g>
				</g>
			</g>
			<g>
				<path class="st32" d="M327,257.1c0-0.8,0.7-1.5,1.5-1.5h45c0.8,0,1.5,0.7,1.5,1.5v19.1c0,0.8-0.7,1.5-1.5,1.5h-45
					c-0.8,0-1.5-0.7-1.5-1.5V257.1L327,257.1z"/>
				<polygon class="st16" points="327,257.8 375,257.8 375,275.6 327,275.6 				"/>
				<path class="st33" d="M367.7,262.4c-2.2,0-4,1.8-4,4c0,2.2,1.8,4,4,4c2.2,0,4-1.8,4-4C371.7,264.2,369.9,262.4,367.7,262.4
					L367.7,262.4z"/>
				<path class="st33" d="M334.8,262.4c-2.2,0-4,1.8-4,4c0,2.2,1.8,4,4,4c2.2,0,4-1.8,4-4C338.8,264.2,337,262.4,334.8,262.4
					L334.8,262.4z"/>
				<path class="st33" d="M367.4,258.9c-3.7-0.1-5.4,2.3-7.9,5.2l-2.4,2.8l3.8,4.5c0.9,1.4-0.8,2.8-1.9,1.5l-3.5-4.1l-3.4,3.9
					c-1.1,1.3-2.8-0.1-1.9-1.5l3.7-4.3l-2.4-2.9l1.6-1.9l2.5,2.9l2.1-2.5c1-1.2,2.1-2.8,3.5-3.6H327v15.6h8c3.7,0,5.4-2.2,7.8-5.2
					l2.3-2.8l-3.9-4.4c-0.9-1.4,0.8-2.8,1.8-1.5l3.6,4.1l3.3-4c1-1.3,2.8,0.1,1.9,1.5l-3.6,4.4l2.5,2.8l-1.6,1.8l-2.5-2.8l-2.1,2.5
					c-1,1.2-2,2.8-3.4,3.6H375v-15.6L367.4,258.9L367.4,258.9z M341.1,266.4c0,3.5-2.8,6.3-6.3,6.3c-3.5,0-6.3-2.8-6.3-6.3
					c0-3.5,2.8-6.3,6.3-6.3C338.3,260.1,341.1,262.9,341.1,266.4L341.1,266.4z M367.7,272.7c-3.5,0-6.3-2.8-6.3-6.3
					c0-3.5,2.8-6.3,6.3-6.3s6.3,2.8,6.3,6.3C374,269.9,371.2,272.7,367.7,272.7L367.7,272.7z"/>
			</g>
		</g>
	</g>
	<g>
		<path class="st34" d="M42.7,2h426.7C492.8,2,512,21.9,512,46.1V99c0,24.3-19.2,44.1-42.7,44.1H42.7C19.2,143.1,0,123.3,0,99V46.1
			C0,21.9,19.2,2,42.7,2z"/>
		<path class="st35" d="M131.1,78l257.2-50.8c8.6-1.8,17.7,2.1,20.1,8.6l42.7,117.4c2.5,6.4-2.9,13.1-11.5,15l-334.9,66.4
			c-8.6,1.8-17.7-2.1-20.1-8.6l-31.2-86.2L131.1,78z"/>
		<path class="st36" d="M409.3,151.4l-55.5,11c-4.5,0.9-9-0.9-9.9-4.3c-1.2-3.4,1.2-6.7,5.8-7.3l47.7-9.5l-25.5-70.9l-47.7,9.5
			c-4.5,0.9-9-0.9-9.9-4.3c-1.2-3.4,1.2-6.7,5.8-7.3l55.5-11c4.5-0.9,9,0.9,9.9,4.3l29.6,82.6C416.3,147.5,413.8,150.8,409.3,151.4z
			 M179.2,197.6l-55.5,11c-4.5,0.9-9-0.9-9.9-4.3l-29.6-82.6c-1.2-3.4,1.2-6.7,5.8-7.3l55.5-11c4.5-0.9,9,0.9,9.9,4.3
			c1.2,3.4-1.2,6.7-5.8,7.3l-47.7,9.5l25.5,70.9l47.7-9.5c4.5-0.9,9,0.9,9.9,4.3C186.2,193.3,183.7,196.7,179.2,197.6z"/>
		<path class="st37" d="M6.2,122.7C79.3,91.5,276.6,5.6,276.6,5.6c7.8-3.4,18.1-1.5,22.6,4.3l82.2,105.2c4.5,5.8,1.6,13.1-6.2,16.5
			L74.4,260c-7.8,3.4-18.1,1.5-22.6-4.3c0,0-23-34.9-46-64.2C5.8,122.7,6.2,145.3,6.2,122.7z"/>
		<path class="st38" d="M336.6,109.8l-57.5-74c-2.5-3.1-7.4-4-11.1-2.1l-49.7,21.4c-4.1,1.8-5.3,5.5-2.9,8.3c2.5,3.1,7.4,4,11.1,2.1
			l42.7-18.3l49.3,63.6l-42.7,18.3c-4.1,1.8-5.3,5.5-2.9,8.3c2.5,3.1,7.4,4,11.1,2.1l49.7-21.4C337.4,116.5,339,112.9,336.6,109.8z
			 M118.8,196.3L76,214.7l-49.3-63.6l42.7-18.3c4.1-1.8,5.3-5.5,2.9-8.3c-2.5-3.1-7.4-4-11.1-2.1l-49.7,21.4
			c-4.1,1.8-5.3,5.5-2.9,8.3l57.5,74c2.5,3.1,7.4,4,11.1,2.1l49.7-21.4c4.1-1.8,5.3-5.5,2.9-8.3
			C127.8,195.7,122.9,194.5,118.8,196.3z M139.7,88.4c-31.6,13.5-42.3,43.4-24.2,67c18.5,23.5,58.4,31.5,90,18s42.3-43.4,24.2-67
			C211.2,83.2,171.4,74.9,139.7,88.4z M339.4,111.7l-57.5-74c-5.4-4.9-10.3-5.9-14-4l-49.7,21.4c-4.1,1.8-5.3,5.5-2.9,8.3
			c2.5,3.1,7.4,4,11.1,2.1l42.7-18.3l49.3,63.6l-42.7,18.3c-4.1,1.8-5.3,5.5-2.9,8.3c2.5,3.1,7.4,4,11.1,2.1l49.7-21.4
			C337.4,116.5,339,112.9,339.4,111.7z M118.8,196.3L76,214.7l-49.3-63.6l42.7-18.3c4.1-1.8,5.3-5.5,2.9-8.3
			c-2.5-3.1-7.4-4-11.1-2.1l-49.7,21.4c-4.1,1.8-5.3,5.5-2.9,8.3l57.5,74c2.5,3.1,7.4,4,11.1,2.1l49.7-21.4c4.1-1.8,5.3-5.5,2.9-8.3
			C127.8,195.7,122.9,194.5,118.8,196.3z M139.7,88.4c-31.6,13.5-42.3,43.4-24.2,67c18.5,23.5,58.4,31.5,90,18s42.3-43.4,24.2-67
			C211.2,83.2,171.4,74.9,139.7,88.4z"/>
		<path class="st39" d="M468.5,351.1H41.1C18.5,351.1,0,337.3,0,320.5V100.3h468.5c22.6,0,41.1,13.8,41.1,30.6v189.6
			C509.6,337.3,491.1,351.1,468.5,351.1z M32.9,100.3H0V75.9C0,89.3,14.8,100.3,32.9,100.3z"/>
		<path class="st34" d="M509.6,274.6h-65.7c-31.6,0-57.5-19.3-57.5-42.8s25.9-42.8,57.5-42.8h65.7c9,0,16.4,5.5,16.4,12.2v61.2
			C526,269.1,518.6,274.6,509.6,274.6z"/>
		<path class="st40" d="M443.8,207.4c18.1,0,32.9,11,32.9,24.5c0,13.5-14.8,24.5-32.9,24.5c-18.1,0-32.9-11-32.9-24.5
			C410.9,218.4,425.7,207.4,443.8,207.4z"/>
		<path class="st41" d="M452,250.2c-18.1,0-32.9-11-32.9-24.5c0-5.2,2.1-10.1,5.8-14.1c-8.6,4.3-14,11.6-14,20.2
			c0,13.5,14.8,24.5,32.9,24.5c11.1,0,21-4.3,27.1-10.4C465.6,248.6,459,250.2,452,250.2z"/>
		<path class="st42" d="M468.5,338.9H41.1C18.5,338.9,0,325.1,0,308.3v12.2c0,16.8,18.5,30.6,41.1,30.6h427.4
			c22.6,0,41.1-13.8,41.1-30.6v-12.2C509.6,325.1,491.1,338.9,468.5,338.9z"/>
		<path class="st43" d="M468.5,100.3H32.9C14.8,100.3,0,89.3,0,75.9v12.2c0,13.5,14.8,24.5,32.9,24.5h435.6
			c22.6,0,41.1,13.8,41.1,30.6v-12.2C509.6,114.1,491.1,100.3,468.5,100.3z"/>
		<g class="st3">
		</g>
		<g class="st3">
		</g>
		<g class="st3">
		</g>
		<g class="st3">
		</g>
		<g class="st3">
		</g>
		<g class="st3">
		</g>
		<g class="st3">
		</g>
		<g class="st3">
		</g>
		<g class="st3">
		</g>
		<g class="st3">
		</g>
		<g class="st3">
		</g>
		<g class="st3">
		</g>
		<g class="st3">
		</g>
		<g class="st3">
		</g>
		<g class="st3">
		</g>
	</g>
	<g class="st3">
		<path class="st44" d="M32.1-22.7h416.7c22.9,0,41.7,20.1,41.7,44.6v53.5c0,24.5-18.7,44.6-41.7,44.6H32.1
			C9.2,120.1-9.6,100-9.6,75.5V21.9C-9.6-2.6,9.2-22.7,32.1-22.7z"/>
		<path class="st45" d="M149.2,54.2L406.4,2.9C415,1,424.1,5,426.5,11.5l42.7,118.8c2.5,6.5-2.9,13.3-11.5,15.2l-334.9,67.1
			c-8.6,1.9-17.7-2.2-20.1-8.7l-31.2-87.2L149.2,54.2z"/>
		<path class="st46" d="M396.9,126.6l-55.5,11.1c-4.5,0.9-9-0.9-9.9-4.3c-1.2-3.4,1.2-6.8,5.8-7.4l47.7-9.6l-25.5-71.8l-47.7,9.6
			c-4.5,0.9-9-0.9-9.9-4.3c-1.2-3.4,1.2-6.8,5.8-7.4l55.5-11.1c4.5-0.9,9,0.9,9.9,4.3l29.6,83.5C403.8,122.6,401.4,126,396.9,126.6z
			 M166.7,173.3l-55.5,11.1c-4.5,0.9-9-0.9-9.9-4.3L71.8,96.6c-1.2-3.4,1.2-6.8,5.8-7.4L133,78c4.5-0.9,9,0.9,9.9,4.3
			c1.2,3.4-1.2,6.8-5.8,7.4l-47.7,9.6l25.5,71.8l47.7-9.6c4.5-0.9,9,0.9,9.9,4.3C173.7,169,171.2,172.4,166.7,173.3z"/>
		<path class="st47" d="M-9.2,97.5C64,66,261.2-20.9,261.2-20.9c7.8-3.4,18.1-1.5,22.6,4.3L366,89.8c4.5,5.9,1.6,13.3-6.2,16.7
			L59.1,236.4c-7.8,3.4-18.1,1.5-22.6-4.3c0,0-23-35.3-46-65C-9.6,97.5-9.2,120.4-9.2,97.5z"/>
		<path class="st48" d="M327,86.4l-57.5-74.9c-2.5-3.1-7.4-4-11.1-2.2L208.6,31c-4.1,1.9-5.3,5.6-2.9,8.4c2.5,3.1,7.4,4,11.1,2.2
			L259.6,23l49.3,64.3l-42.7,18.6c-4.1,1.9-5.3,5.6-2.9,8.4c2.5,3.1,7.4,4,11.1,2.2l49.7-21.7C327.8,93.2,329.5,89.5,327,86.4z
			 M109.2,173.9l-42.7,18.6l-49.3-64.3l42.7-18.6c4.1-1.9,5.3-5.6,2.9-8.4c-2.5-3.1-7.4-4-11.1-2.2L1.9,120.7
			c-4.1,1.9-5.3,5.6-2.9,8.4l57.5,74.9c2.5,3.1,7.4,4,11.1,2.2l49.7-21.7c4.1-1.9,5.3-5.6,2.9-8.4
			C118.2,173.3,113.3,172.1,109.2,173.9z M130.2,64.7c-31.6,13.6-42.3,43.9-24.2,67.7c18.5,23.8,58.4,31.9,90,18.3
			s42.3-43.9,24.2-67.7C201.7,59.5,161.8,51.1,130.2,64.7z M327,86.4l-57.5-74.9c-2.5-3.1-7.4-4-11.1-2.2L208.6,31
			c-4.1,1.9-5.3,5.6-2.9,8.4c2.5,3.1,7.4,4,11.1,2.2L259.6,23l49.3,64.3l-42.7,18.6c-4.1,1.9-5.3,5.6-2.9,8.4
			c2.5,3.1,7.4,4,11.1,2.2l49.7-21.7C327.8,93.2,329.5,89.5,327,86.4z M109.2,173.9l-42.7,18.6l-49.3-64.3l42.7-18.6
			c4.1-1.9,5.3-5.6,2.9-8.4c-2.5-3.1-7.4-4-11.1-2.2L1.9,120.7c-4.1,1.9-5.3,5.6-2.9,8.4l57.5,74.9c2.5,3.1,7.4,4,11.1,2.2
			l49.7-21.7c4.1-1.9,5.3-5.6,2.9-8.4C118.2,173.3,113.3,172.1,109.2,173.9z M130.2,64.7c-31.6,13.6-42.3,43.9-24.2,67.7
			c18.5,23.8,58.4,31.9,90,18.3s42.3-43.9,24.2-67.7C201.7,59.5,161.8,51.1,130.2,64.7z"/>
		<path class="st49" d="M458.9,330.4H31.5c-22.6,0-41.1-14.4-41.1-31.9V68.9h468.5c22.6,0,41.1,14.4,41.1,31.9v197.8
			C500,316.1,481.5,330.4,458.9,330.4z M23.3,68.9H-9.6V43.3C-9.6,57.4,5.2,68.9,23.3,68.9z"/>
		<path class="st44" d="M485.5,253.1h-58c-27.9,0-50.8-19.5-50.8-43.3s22.8-43.3,50.8-43.3h58c8,0,14.5,5.6,14.5,12.4v61.9
			C500,247.5,493.5,253.1,485.5,253.1z"/>
		<path class="st50" d="M434.2,185.1c18.1,0,32.9,11.1,32.9,24.7c0,13.6-14.8,24.7-32.9,24.7c-18.1,0-32.9-11.1-32.9-24.7
			C401.4,196.2,416.2,185.1,434.2,185.1z"/>
		<path class="st51" d="M442.5,228.4c-18.1,0-32.9-11.1-32.9-24.7c0-5.3,2.1-10.2,5.8-14.2c-8.6,4.3-14,11.8-14,20.4
			c0,13.6,14.8,24.7,32.9,24.7c11.1,0,21-4.3,27.1-10.5C456,226.8,449.5,228.4,442.5,228.4z"/>
		<path class="st52" d="M458.9,318.1H31.5c-22.6,0-41.1-13.9-41.1-30.9v12.4c0,17,18.5,30.9,41.1,30.9h427.4
			c22.6,0,41.1-13.9,41.1-30.9v-12.4C500,304.1,481.5,318.1,458.9,318.1z"/>
		<path class="st53" d="M458.9,76.8H23.3C5.2,76.8-9.6,65.6-9.6,52v12.4c0,13.6,14.8,24.7,32.9,24.7h435.6
			c22.6,0,41.1,13.9,41.1,30.9v-12.4C500,90.7,481.5,76.8,458.9,76.8z"/>
		<g>
		</g>
		<g>
		</g>
		<g>
		</g>
		<g>
		</g>
		<g>
		</g>
		<g>
		</g>
		<g>
		</g>
		<g>
		</g>
		<g>
		</g>
		<g>
		</g>
		<g>
		</g>
		<g>
		</g>
		<g>
		</g>
		<g>
		</g>
		<g>
		</g>
	</g>
</g>
<g id="Capa_2">
	<g>
		<path class="st44" d="M39.8,0h397.7c21.9,0,39.8,15.9,39.8,35.3v42.4c0,19.4-17.9,35.3-39.8,35.3H39.8C17.9,113,0,97.1,0,77.7
			V35.3C0,15.9,17.9,0,39.8,0z"/>
		<g>
			<path class="st54" d="M426.2,274.3l-359.5-0.4c-22.7,0-41.1-18.5-41.1-41.2l0.2-183.9c0-22.7,18.5-41.1,41.2-41.1l359.5,0.4
				c22.7,0,41.1,18.5,41.1,41.2l-0.2,183.9C467.4,255.9,448.9,274.3,426.2,274.3z"/>
			<path class="st55" d="M301.9,8l-235-0.2c-22.7,0-41.2,18.4-41.2,41.1l-0.2,183.9c0,22.7,18.4,41.2,41.1,41.2l151,0.2
				C168.2,147.1,234,55.5,301.9,8z"/>
			<path class="st16" d="M270.7,207.5c-36.7,13.3-77.3-5.6-90.7-42.4c-13.3-36.7,5.6-77.3,42.4-90.7c36.7-13.3,77.3,5.6,90.7,42.4
				C326.4,153.6,307.4,194.2,270.7,207.5z"/>
			<path class="st56" d="M238.3,70.8c-35.2,4.1-62.5,33.9-62.5,70.2c0,21.5,9.6,40.8,24.7,53.8C198.9,145.9,214.7,104.4,238.3,70.8z
				"/>
			<path class="st55" d="M426.4,8.1l-37.5,0c0,43.4,35.1,78.7,78.6,78.7l0-37.5C467.6,26.6,449.2,8.1,426.4,8.1z"/>
			<path class="st55" d="M426.2,274.3l-37.5,0c0-43.4,35.3-78.6,78.7-78.6l0,37.5C467.4,255.9,448.9,274.3,426.2,274.3z"/>
			<path class="st54" d="M66.9,7.7l37.5,0c0,43.4-35.3,78.6-78.7,78.6l0-37.5C25.7,26.1,44.2,7.7,66.9,7.7z"/>
			<path class="st54" d="M66.7,273.9l37.5,0c0-43.4-35.1-78.7-78.6-78.7l0,37.5C25.5,255.5,43.9,273.9,66.7,273.9z"/>
			<path class="st57" d="M349.7,145c-0.4-1.2-0.7-2.5-0.7-3.8c0-6.2,5-11.2,11.2-11.2l36,0c6.2,0,11.2,5,11.2,11.2
				c0,6.2-5,11.2-11.2,11.2l-36,0C355.4,152.3,351.3,149.2,349.7,145z"/>
			<path class="st57" d="M86.4,144.7c-0.4-1.2-0.7-2.5-0.7-3.8c0-6.2,5-11.2,11.2-11.2l36,0c6.2,0,11.2,5,11.2,11.2
				c0,6.2-5,11.2-11.2,11.2l-36,0C92,152,87.9,149,86.4,144.7z"/>
		</g>
		<path class="st49" d="M453.3,353.1H39.8C17.9,353.1,0,337.2,0,317.8V63.6h453.3c21.9,0,39.8,15.9,39.8,35.3v218.9
			C493.1,337.2,475.2,353.1,453.3,353.1z M31.8,63.6H0V35.3C0,50.8,14.3,63.6,31.8,63.6z"/>
		<path class="st44" d="M493.1,264.8h-63.6c-30.6,0-55.7-22.2-55.7-49.4s25.1-49.4,55.7-49.4h63.6c8.7,0,15.9,6.4,15.9,14.1v70.6
			C509,258.5,501.8,264.8,493.1,264.8z"/>
		<path class="st50" d="M429.5,187.1c17.5,0,31.8,12.7,31.8,28.2s-14.3,28.2-31.8,28.2c-17.5,0-31.8-12.7-31.8-28.2
			S412,187.1,429.5,187.1z"/>
		<path class="st51" d="M437.4,236.6c-17.5,0-31.8-12.7-31.8-28.2c0-6,2-11.7,5.6-16.2c-8.4,4.9-13.5,13.4-13.5,23.3
			c0,15.5,14.3,28.2,31.8,28.2c10.7,0,20.3-4.9,26.2-12C450.5,234.8,444.2,236.6,437.4,236.6z"/>
		<path class="st52" d="M453.3,339H39.8C17.9,339,0,323.1,0,303.7v14.1c0,19.4,17.9,35.3,39.8,35.3h413.6
			c21.9,0,39.8-15.9,39.8-35.3v-14.1C493.1,323.1,475.2,339,453.3,339z"/>
		<path class="st53" d="M453.3,63.6H31.8C14.3,63.6,0,50.8,0,35.3v14.1C0,65,14.3,77.7,31.8,77.7h421.5c21.9,0,39.8,15.9,39.8,35.3
			V98.9C493.1,79.4,475.2,63.6,453.3,63.6z"/>
		<g>
		</g>
		<g>
		</g>
		<g>
		</g>
		<g>
		</g>
		<g>
		</g>
		<g>
		</g>
		<g>
		</g>
		<g>
		</g>
		<g>
		</g>
		<g>
		</g>
		<g>
		</g>
		<g>
		</g>
		<g>
		</g>
		<g>
		</g>
		<g>
		</g>
	</g>
</g>
</svg>
