<?xml version="1.0" encoding="iso-8859-1"?>
<!-- Generator: Adobe Illustrator 19.0.0, SVG Export Plug-In . SVG Version: 6.00 Build 0)  -->
<svg version="1.1" xmlns="http://www.w3.org/2000/svg" xmlns:xlink="http://www.w3.org/1999/xlink" x="0px" y="0px"
	 viewBox="-49 220.451 512 353.098" style="enable-background:new -49 220.451 512 353.098;" xml:space="preserve">
<g id="Capa_1">
	<path style="fill:#E7E8E3;" d="M463,543.282c0,16.716-13.55,30.267-30.265,30.267h-451.47C-35.45,573.549-49,559.996-49,543.282
		V250.717c0-16.716,13.55-30.266,30.265-30.266h451.469c16.716,0,30.265,13.551,30.265,30.266L463,543.282L463,543.282z"/>
	<path style="opacity:0.15;fill:#202121;enable-background:new    ;" d="M-27.483,543.282V250.717
		c0-16.716,13.552-30.266,30.267-30.266h-21.52C-35.45,220.451-49,234.003-49,250.717v292.565c0,16.716,13.55,30.267,30.265,30.267
		h21.52C-13.93,573.549-27.483,559.996-27.483,543.282z"/>
	<g>
		<rect x="-4.111" y="280.356" style="fill:#D92B2B;" width="88.3" height="17.682"/>
		<rect x="-4.111" y="344.006" style="fill:#D92B2B;" width="88.3" height="17.681"/>
		<rect x="-4.111" y="312.176" style="fill:#D92B2B;" width="88.3" height="17.682"/>
	</g>
	<g>
		<g>
			<path style="fill:#66CDE7;" d="M16.82,432.294H7.006v-44.287h-10.14v-8.655h30.093v8.655H16.82V432.294z"/>
			<path style="fill:#66CDE7;" d="M42.458,411.689v20.604h-9.85v-52.942H45.5c5.456,0,9.481,1.292,12.077,3.875
				c2.595,2.583,3.893,6.53,3.893,11.841c0,6.687-2.258,11.359-6.772,14.014l10.176,23.212H54.336l-8.365-20.604H42.458z
				 M42.458,403.216h2.535c2.317,0,3.983-0.658,4.997-1.974s1.521-3.277,1.521-5.884c0-2.703-0.538-4.629-1.611-5.775
				c-1.075-1.146-2.734-1.721-4.979-1.721h-2.462V403.216z"/>
			<path style="fill:#66CDE7;" d="M94.749,432.294l-3.042-13.362H77.91l-3.042,13.362h-9.85l13.109-53.159h13.362l13.145,53.159
				H94.749z M89.86,410.204l-2.825-12.311c-0.169-0.748-0.549-2.626-1.141-5.631c-0.592-3.006-0.948-5.016-1.068-6.029
				c-0.314,2.076-0.712,4.363-1.195,6.861c-0.483,2.499-1.738,8.202-3.766,17.11H89.86z"/>
			<path style="fill:#66CDE7;" d="M146.387,432.294h-12.022l-16.368-38.348h-0.471c0.603,2.921,0.905,6.059,0.905,9.415v28.934
				h-9.125v-52.942H121.4l16.223,37.95h0.398c-0.459-2.534-0.688-5.552-0.688-9.053v-28.897h9.053V432.294z"/>
			<path style="fill:#66CDE7;" d="M165.507,432.294h-9.777v-52.942h23.719v8.51h-13.942v14.702h13v8.51h-13V432.294z"/>
			<path style="fill:#66CDE7;" d="M209.939,432.294h-23.864v-52.942h23.864v8.51h-14.014v12.602h13v8.546h-13v14.666h14.014V432.294
				z"/>
			<path style="fill:#66CDE7;" d="M227.502,411.689v20.604h-9.851v-52.942h12.892c5.456,0,9.481,1.292,12.077,3.875
				c2.595,2.583,3.893,6.53,3.893,11.841c0,6.687-2.257,11.359-6.771,14.014l10.176,23.212h-10.538l-8.365-20.604H227.502z
				 M227.502,403.216h2.534c2.318,0,3.983-0.658,4.998-1.974c1.014-1.315,1.521-3.277,1.521-5.884c0-2.703-0.537-4.629-1.611-5.775
				s-2.734-1.721-4.979-1.721h-2.462V403.216z"/>
			<path style="fill:#66CDE7;" d="M278.598,432.294h-23.864v-52.942h23.864v8.51h-14.014v12.602h13v8.546h-13v14.666h14.014V432.294
				z"/>
			<path style="fill:#66CDE7;" d="M323.393,432.294H311.37l-16.368-38.348h-0.471c0.604,2.921,0.905,6.059,0.905,9.415v28.934
				h-9.126v-52.942h12.096l16.223,37.95h0.398c-0.459-2.534-0.688-5.552-0.688-9.053v-28.897h9.054V432.294z"/>
			<path style="fill:#66CDE7;" d="M350.298,387.21c-2.824,0-5.052,1.653-6.682,4.961c-1.629,3.308-2.444,7.906-2.444,13.796
				c0,12.264,3.199,18.396,9.597,18.396c2.8,0,5.733-0.893,8.8-2.68v8.764c-2.584,1.714-5.891,2.571-9.923,2.571
				c-5.963,0-10.544-2.372-13.742-7.116c-3.199-4.744-4.798-11.412-4.798-20.007c0-8.594,1.647-15.293,4.942-20.097
				c3.296-4.804,7.877-7.207,13.743-7.207c1.931,0,3.784,0.267,5.559,0.797c1.774,0.531,3.676,1.461,5.703,2.788l-3.259,8.003
				c-1.087-0.748-2.245-1.43-3.477-2.046C353.086,387.518,351.746,387.21,350.298,387.21z"/>
			<path style="fill:#66CDE7;" d="M368.838,432.294v-52.942h9.271v52.942H368.838z"/>
			<path style="fill:#66CDE7;" d="M414.357,432.294l-3.042-13.362h-13.797l-3.042,13.362h-9.85l13.108-53.159h13.362l13.146,53.159
				H414.357z M409.469,410.204l-2.825-12.311c-0.169-0.748-0.549-2.626-1.141-5.631c-0.592-3.006-0.947-5.016-1.068-6.029
				c-0.313,2.076-0.712,4.363-1.194,6.861c-0.483,2.499-1.738,8.202-3.767,17.11H409.469z"/>
		</g>
	</g>
	<g>
		<g>
			<path style="fill:#006E90;" d="M-4.667,446.079h19.825c8.079,0,13.961,1.568,17.646,4.704c3.685,3.135,5.528,8.123,5.528,14.962
				c0,4.499-0.975,8.264-2.923,11.294c-1.949,3.029-4.606,4.863-7.972,5.5v0.532c4.393,1.098,7.565,3.154,9.514,6.165
				c1.948,3.012,2.923,7.015,2.923,12.011c0,7.052-1.887,12.57-5.661,16.556c-3.773,3.986-8.938,5.98-15.493,5.98H-4.667V446.079z
				 M8.939,477.331h6.644c3.047,0,5.19-0.815,6.431-2.445c1.24-1.629,1.861-4.057,1.861-7.281c0-3.224-0.709-5.536-2.126-6.936
				c-1.418-1.399-3.65-2.1-6.697-2.1H8.939V477.331z M8.939,489.395v21.739h7.282c3.011,0,5.253-0.921,6.723-2.764
				c1.47-1.842,2.206-4.695,2.206-8.557c0-6.945-3.047-10.418-9.142-10.418H8.939z"/>
			<path style="fill:#006E90;" d="M87.282,523.783l-4.465-19.612h-20.25l-4.464,19.612H43.646l19.24-78.024h19.612l19.293,78.024
				H87.282z M80.107,491.362l-4.146-18.071c-0.249-1.097-0.807-3.853-1.674-8.264c-0.869-4.411-1.391-7.362-1.568-8.85
				c-0.461,3.048-1.045,6.405-1.754,10.072c-0.709,3.667-2.551,12.039-5.528,25.113H80.107z"/>
			<path style="fill:#006E90;" d="M163.074,523.783h-17.646l-24.024-56.286h-0.691c0.886,4.288,1.329,8.895,1.329,13.819v42.467
				h-13.394v-77.705h17.752l23.811,55.701h0.585c-0.674-3.721-1.01-8.149-1.01-13.288v-42.413h13.287V523.783z"/>
			<path style="fill:#006E90;" d="M202.564,457.612c-4.146,0-7.414,2.427-9.806,7.281c-2.392,4.855-3.588,11.605-3.588,20.25
				c0,18,4.695,27,14.085,27c4.11,0,8.415-1.311,12.916-3.934v12.863c-3.793,2.516-8.646,3.774-14.563,3.774
				c-8.752,0-15.476-3.482-20.171-10.444c-4.696-6.963-7.042-16.75-7.042-29.365s2.418-22.447,7.255-29.499
				c4.837-7.051,11.56-10.576,20.17-10.576c2.834,0,5.554,0.39,8.158,1.169c2.604,0.78,5.395,2.144,8.371,4.093l-4.783,11.746
				c-1.594-1.098-3.296-2.1-5.103-3.003C206.657,458.064,204.69,457.612,202.564,457.612z"/>
			<path style="fill:#006E90;" d="M263.952,523.783l-4.465-19.612h-20.25l-4.465,19.612h-14.456l19.24-78.024h19.613l19.292,78.024
				H263.952z M256.776,491.362l-4.145-18.071c-0.248-1.097-0.806-3.853-1.675-8.264c-0.868-4.411-1.391-7.362-1.568-8.85
				c-0.461,3.048-1.045,6.405-1.753,10.072c-0.71,3.667-2.552,12.039-5.528,25.113H256.776z"/>
			<path style="fill:#006E90;" d="M299.775,493.541v30.242h-14.456v-77.705h18.921c8.007,0,13.916,1.896,17.726,5.687
				c3.808,3.792,5.714,9.586,5.714,17.38c0,9.815-3.314,16.671-9.939,20.569l14.935,34.069h-15.467l-12.277-30.242H299.775z
				 M299.775,481.104h3.721c3.401,0,5.846-0.965,7.334-2.897c1.488-1.93,2.233-4.809,2.233-8.637c0-3.968-0.789-6.794-2.365-8.478
				c-1.578-1.682-4.013-2.525-7.308-2.525h-3.615V481.104z"/>
			<path style="fill:#006E90;" d="M342.348,523.783v-77.705h13.607v77.705H342.348z"/>
			<path style="fill:#006E90;" d="M409.158,523.783l-4.465-19.612h-20.251l-4.465,19.612h-14.456l19.24-78.024h19.613l19.292,78.024
				H409.158z M401.982,491.362l-4.145-18.071c-0.248-1.097-0.806-3.853-1.675-8.264c-0.868-4.411-1.391-7.362-1.568-8.85
				c-0.461,3.048-1.045,6.405-1.753,10.072c-0.71,3.667-2.552,12.039-5.528,25.113H401.982z"/>
		</g>
	</g>
</g>
<g id="Layer_2" style="display:none;">
	<g style="display:inline;">
		<path style="fill:#6BBEA1;" d="M431.973,571.535H-17.929c-15.507,0-28.071-11.978-28.071-26.75V249.204
			c0-14.772,12.563-26.739,28.071-26.739h449.902c15.464,0,28.027,11.967,28.027,26.739v295.581
			C460,559.558,447.437,571.535,431.973,571.535"/>
		<rect x="-2.378" y="463.465" style="fill:#498679;" width="78.51" height="49.875"/>
		<rect x="111.02" y="463.465" style="fill:#498679;" width="78.553" height="49.875"/>
		<rect x="224.471" y="463.465" style="fill:#498679;" width="78.51" height="49.875"/>
		<rect x="337.868" y="463.465" style="fill:#498679;" width="78.51" height="49.875"/>
		<path style="fill:#F0C41B;" d="M126.276,372.037H8.572c-6.053,0-10.949-4.664-10.949-10.42v-78.848
			c0-5.765,4.897-10.43,10.949-10.43h117.705c6.053,0,10.95,4.664,10.95,10.43v78.848
			C137.226,367.372,132.329,372.037,126.276,372.037"/>
		<path style="fill:#F3D55C;" d="M126.276,380.358H8.572c-10.862,0-19.684-8.394-19.684-18.741v-78.848
			c0-10.347,8.822-18.751,19.684-18.751h117.705c10.818,0,19.685,8.404,19.685,18.751v78.848
			C145.961,371.964,137.095,380.358,126.276,380.358 M8.572,280.66c-1.232,0-2.214,0.925-2.214,2.109v78.848
			c0,1.174,0.981,2.15,2.214,2.15h117.705c1.232,0,2.214-0.976,2.214-2.15v-78.848c0-1.184-0.981-2.109-2.214-2.109H8.572z
			 M8.572,280.66"/>
		<path style="fill:#F0C41B;" d="M137.226,282.769c0-5.765-4.897-10.43-10.95-10.43H60.93c-6.053,0-10.95,4.664-10.95,10.43v78.848
			c0,5.755,4.897,10.42,10.95,10.42h12.988c6.053,0,10.95-4.664,10.95-10.42v-45.615c0-5.765,4.897-10.43,10.949-10.43h30.459
			c6.053,0,10.95-4.664,10.95-10.43V282.769z M137.226,282.769"/>
		<path style="fill:#F3D55C;" d="M73.918,380.358H60.93c-10.862,0-19.685-8.394-19.685-18.741v-78.848
			c0-10.347,8.823-18.751,19.685-18.751h65.346c10.818,0,19.685,8.404,19.685,18.751v12.373c0,10.347-8.867,18.751-19.685,18.751
			H95.817c-1.232,0-2.214,0.935-2.214,2.109v45.615C93.603,371.964,84.781,380.358,73.918,380.358 M60.93,280.66
			c-1.243,0-2.214,0.925-2.214,2.109v78.848c0,1.174,0.97,2.15,2.214,2.15h12.988c1.232,0,2.214-0.976,2.214-2.15v-45.615
			c0-10.347,8.823-18.751,19.685-18.751h30.459c1.232,0,2.214-0.935,2.214-2.109v-12.373c0-1.184-0.981-2.109-2.214-2.109H60.93z
			 M60.93,280.66"/>
		<path style="fill:#F3D55C;" d="M137.226,347.125H84.868c-4.809,0-8.736-3.73-8.736-8.321c0-4.581,3.926-8.321,8.736-8.321h52.358
			c4.809,0,8.735,3.74,8.735,8.321C145.961,343.396,142.035,347.125,137.226,347.125"/>
		<path style="fill:#F3D55C;" d="M49.98,313.893H-2.378c-4.809,0-8.735-3.74-8.735-8.321c0-4.581,3.926-8.321,8.735-8.321H49.98
			c4.809,0,8.736,3.74,8.736,8.321C58.716,310.153,54.79,313.893,49.98,313.893"/>
		<path style="fill:#F3D55C;" d="M49.98,347.125H-2.378c-4.809,0-8.735-3.73-8.735-8.321c0-4.581,3.926-8.321,8.735-8.321H49.98
			c4.809,0,8.736,3.74,8.736,8.321C58.716,343.396,54.79,347.125,49.98,347.125"/>
		<path style="fill:#498679;" d="M302.981,264.018h-78.51c-4.82,0-8.735,3.73-8.735,8.321c0,4.581,3.915,8.321,8.735,8.321h78.51
			c4.809,0,8.735-3.74,8.735-8.321C311.716,267.748,307.79,264.018,302.981,264.018"/>
		<path style="fill:#498679;" d="M425.113,272.339c0-4.592-3.872-8.321-8.736-8.321h-78.51c-4.81,0-8.735,3.73-8.735,8.321
			c0,4.581,3.926,8.321,8.735,8.321h78.51C421.241,280.66,425.113,276.921,425.113,272.339"/>
		<path style="fill:#498679;" d="M233.206,305.572h-8.735c-4.82,0-8.735,3.73-8.735,8.321c0,4.581,3.915,8.321,8.735,8.321h8.735
			c4.809,0,8.681-3.74,8.681-8.321C241.887,309.301,238.015,305.572,233.206,305.572"/>
		<path style="fill:#498679;" d="M285.51,305.572h-17.416c-4.82,0-8.736,3.73-8.736,8.321c0,4.581,3.915,8.321,8.736,8.321h17.416
			c4.864,0,8.736-3.74,8.736-8.321C294.245,309.301,290.373,305.572,285.51,305.572"/>
		<path style="fill:#498679;" d="M329.132,305.572h-8.681c-4.864,0-8.736,3.73-8.736,8.321c0,4.581,3.872,8.321,8.736,8.321h8.681
			c4.864,0,8.735-3.74,8.735-8.321C337.868,309.301,333.996,305.572,329.132,305.572"/>
		<path style="fill:#498679;" d="M381.49,305.572h-17.416c-4.864,0-8.735,3.73-8.735,8.321c0,4.581,3.871,8.321,8.735,8.321h17.416
			c4.82,0,8.735-3.74,8.735-8.321C390.226,309.301,386.31,305.572,381.49,305.572"/>
		<path style="fill:#498679;" d="M410.205,307.961c-1.571,1.59-2.508,3.781-2.508,5.932c0,2.15,0.938,4.301,2.508,5.88
			c1.657,1.506,3.838,2.441,6.172,2.441c2.301,0,4.559-0.935,6.227-2.441c1.57-1.579,2.508-3.73,2.508-5.88
			c0-2.15-0.938-4.342-2.508-5.932C419.278,304.928,413.444,304.928,410.205,307.961"/>
	</g>
</g>
<g id="Layer_3" style="display:none;">
	<g style="display:inline;">
		<rect x="-44" y="546.144" style="fill:#607B53;" width="197.232" height="21.847"/>
		<rect x="260.768" y="546.144" style="fill:#607B53;" width="197.232" height="21.847"/>
		<rect x="-44" y="524.334" style="fill:#546949;" width="197.232" height="21.811"/>
		<rect x="260.768" y="524.334" style="fill:#546949;" width="197.232" height="21.811"/>
		<rect x="-44" y="502.478" style="fill:#607B53;" width="197.232" height="21.847"/>
		<rect x="260.768" y="502.478" style="fill:#607B53;" width="197.232" height="21.847"/>
		<rect x="-44" y="480.667" style="fill:#546949;" width="197.232" height="21.811"/>
		<rect x="260.768" y="480.667" style="fill:#546949;" width="197.232" height="21.811"/>
		<rect x="-44" y="458.857" style="fill:#607B53;" width="197.232" height="21.811"/>
		<rect x="260.768" y="458.857" style="fill:#607B53;" width="197.232" height="21.811"/>
		<rect x="153.232" y="226" style="fill:#D1D4D2;" width="107.547" height="232.857"/>
		<rect x="153.232" y="458.857" style="fill:#A5A5A4;" width="107.547" height="109.143"/>
		<rect x="-44" y="226" style="fill:#6E8C61;" width="502" height="232.857"/>
		<path style="fill:#E9E8D3;" d="M112.405,422.476c-26.613-16.772-44.339-46.295-44.339-80.047s17.727-63.312,44.339-80.047H38.788
			c0.109,1.21,0.182,2.419,0.182,3.62c0,22.138-17.945,40.047-40.046,40.047c-1.2,0-2.41-0.073-3.62-0.182v73.117
			c1.21-0.1,2.42-0.173,3.62-0.173c22.101,0,40.046,17.909,40.046,40.001c0,1.246-0.073,2.456-0.182,3.666H112.405z
			 M112.405,422.476"/>
		<path style="fill:#E9E8D3;" d="M-1.077,284.192c-10.014,0-18.19-8.132-18.19-18.191c0-10.014,8.177-18.191,18.19-18.191
			c10.06,0,18.191,8.177,18.191,18.191C17.114,276.06,8.983,284.192-1.077,284.192"/>
		<path style="fill:#E9E8D3;" d="M-1.077,437.001c-10.014,0-18.19-8.131-18.19-18.191c0-10.014,8.177-18.19,18.19-18.19
			c10.06,0,18.191,8.177,18.191,18.19C17.114,428.87,8.983,437.001-1.077,437.001"/>
		<path style="fill:#E9E8D3;" d="M375.212,422.476c-0.109-1.21-0.182-2.419-0.182-3.666c0-22.092,17.945-40.001,40.046-40.001
			c1.2,0,2.41,0.073,3.62,0.173v-73.117c-1.21,0.109-2.42,0.182-3.62,0.182c-22.101,0-40.046-17.909-40.046-40.047
			c0-1.2,0.073-2.41,0.182-3.62h-73.617c26.613,16.735,44.339,46.295,44.339,80.047s-17.727,63.276-44.339,80.047H375.212z
			 M301.595,422.476"/>
		<path style="fill:#E9E8D3;" d="M415.077,284.192c10.014,0,18.19-8.132,18.19-18.191c0-10.014-8.177-18.191-18.19-18.191
			c-10.06,0-18.191,8.177-18.191,18.191C396.886,276.06,405.017,284.192,415.077,284.192"/>
		<path style="fill:#E9E8D3;" d="M415.077,437.001c10.014,0,18.19-8.131,18.19-18.191c0-10.014-8.177-18.19-18.19-18.19
			c-10.06,0-18.191,8.177-18.191,18.19C396.886,428.87,405.017,437.001,415.077,437.001"/>
		<rect x="-44" y="546.144" style="fill:#607B53;" width="197.232" height="21.847"/>
		<rect x="260.768" y="546.144" style="fill:#607B53;" width="197.232" height="21.847"/>
		<rect x="-44" y="524.334" style="fill:#546949;" width="197.232" height="21.811"/>
		<rect x="260.768" y="524.334" style="fill:#546949;" width="197.232" height="21.811"/>
		<rect x="-44" y="502.478" style="fill:#607B53;" width="197.232" height="21.847"/>
		<rect x="260.768" y="502.478" style="fill:#607B53;" width="197.232" height="21.847"/>
		<rect x="-44" y="480.667" style="fill:#546949;" width="197.232" height="21.811"/>
		<rect x="260.768" y="480.667" style="fill:#546949;" width="197.232" height="21.811"/>
		<rect x="-44" y="458.857" style="fill:#607B53;" width="197.232" height="21.811"/>
		<rect x="260.768" y="458.857" style="fill:#607B53;" width="197.232" height="21.811"/>
		<rect x="153.232" y="226" style="fill:#D1D4D2;" width="107.547" height="232.857"/>
		<rect x="153.232" y="458.857" style="fill:#A5A5A4;" width="107.547" height="109.143"/>
	</g>
</g>
<g id="Layer_4" style="display:none;">
	<path style="display:inline;fill:#EAEAEA;" d="M463,543.282c0,16.716-13.55,30.267-30.265,30.267h-451.47
		C-35.45,573.549-49,559.996-49,543.282V250.717c0-16.716,13.55-30.266,30.265-30.266h451.469c16.716,0,30.265,13.551,30.265,30.266
		L463,543.282L463,543.282z"/>
	<path style="display:inline;opacity:0.15;fill:#202121;enable-background:new    ;" d="M-27.483,543.282V250.717
		c0-16.716,13.552-30.266,30.267-30.266h-21.52C-35.45,220.451-49,234.003-49,250.717v292.565c0,16.716,13.55,30.267,30.265,30.267
		h21.52C-13.93,573.549-27.483,559.996-27.483,543.282z"/>
	<g style="display:inline;">
		<g>
			<path style="fill:#060E9F;" d="M152.877,352.604c0-26.688-33.159-48.443-74.064-48.443c-40.903,0-74.061,21.755-74.061,48.443
				c0,0.689-0.008,2.594-0.008,2.836c0,28.312,28.982,51.243,74.06,51.243c45.357,0,74.073-22.924,74.073-51.237
				C152.877,354.456,152.877,353.887,152.877,352.604z"/>
			<ellipse style="fill:#00ADEE;" cx="78.828" cy="352.58" rx="71.213" ry="45.557"/>
			<g>
				<path style="fill:#FFFFFF;" d="M55.182,338.207c-0.038,0.072-0.748,0.806-0.288,1.397c1.124,1.436,4.595,2.259,8.105,1.472
					c2.09-0.47,4.769-2.601,7.364-4.659c2.812-2.235,5.602-4.472,8.407-5.362c2.969-0.945,4.872-0.54,6.13-0.159
					c1.379,0.411,3.001,1.319,5.588,3.26c4.873,3.663,24.466,20.766,27.852,23.722c2.727-1.232,14.844-6.448,31.311-10.077
					c-1.431-8.779-6.77-16.81-14.869-23.387c-11.287,4.741-25.082,7.214-38.571,0.626c-0.069-0.028-7.37-3.483-14.57-3.313
					c-10.703,0.248-15.339,4.88-20.246,9.784L55.182,338.207z"/>
				<path style="fill:#FFFFFF;" d="M117.544,359.738c-0.229-0.204-23.038-20.162-28.206-24.047c-2.99-2.242-4.653-2.814-6.399-3.037
					c-0.91-0.118-2.165,0.051-3.043,0.292c-2.404,0.654-5.546,2.756-8.338,4.968c-2.889,2.302-5.614,4.469-8.141,5.035
					c-3.23,0.724-7.174-0.13-8.973-1.347c-0.729-0.49-1.242-1.057-1.489-1.633c-0.665-1.541,0.562-2.774,0.763-2.98l6.294-6.808
					c0.731-0.73,1.469-1.461,2.222-2.181c-2.031,0.265-3.908,0.784-5.736,1.292c-2.281,0.642-4.474,1.251-6.693,1.25
					c-0.926,0-5.89-0.814-6.832-1.07c-5.696-1.559-10.695-3.077-18.163-6.563c-8.948,6.661-14.932,14.99-16.66,24.164
					c1.286,0.34,3.357,0.957,4.227,1.149c20.25,4.502,26.557,9.141,27.701,10.109c1.239-1.378,3.025-2.25,5.02-2.25
					c2.241,0.003,4.259,1.128,5.487,2.868c1.16-0.916,2.759-1.698,4.826-1.697c0.939,0,1.913,0.174,2.897,0.508
					c2.285,0.784,3.463,2.305,4.075,3.681c0.767-0.346,1.709-0.601,2.818-0.598c1.09,0,2.225,0.249,3.368,0.743
					c3.733,1.603,4.315,5.269,3.976,8.034c0.266-0.031,0.533-0.044,0.805-0.044c4.426,0.003,8.027,3.601,8.025,8.03
					c0,1.37-0.35,2.659-0.96,3.791c1.204,0.677,4.275,2.209,6.97,1.867c2.154-0.271,2.971-1.008,3.264-1.421
					c0.2-0.286,0.413-0.618,0.216-0.857l-5.714-6.347c0,0-0.941-0.89-0.63-1.233c0.323-0.352,0.903,0.153,1.315,0.497
					c2.908,2.429,6.459,6.093,6.459,6.093c0.059,0.04,0.295,0.504,1.608,0.74c1.13,0.202,3.13,0.084,4.516-1.053
					c0.35-0.288,0.699-0.646,0.991-1.016c-0.023,0.018-0.042,0.043-0.064,0.051c1.461-1.869-0.161-3.761-0.161-3.761l-6.67-7.49
					c0,0-0.954-0.881-0.63-1.237c0.291-0.307,0.904,0.157,1.322,0.504c2.112,1.766,5.096,4.761,7.956,7.562
					c0.558,0.408,3.073,1.964,6.4-0.223c2.019-1.324,2.426-2.952,2.368-4.18c-0.141-1.625-1.409-2.783-1.409-2.783l-9.113-9.161
					c0,0-0.962-0.822-0.622-1.238c0.278-0.35,0.903,0.154,1.313,0.497c2.904,2.429,10.761,9.633,10.761,9.633
					c0.111,0.079,2.827,2.012,6.182-0.124c1.199-0.767,1.966-1.923,2.032-3.265C119.189,361.122,117.544,359.738,117.544,359.738z"
					/>
				<path style="fill:#FFFFFF;" d="M73.349,371.352c-1.413-0.017-2.958,0.822-3.16,0.7c-0.111-0.074,0.087-0.642,0.219-0.969
					c0.135-0.325,1.996-5.923-2.539-7.868c-3.471-1.492-5.592,0.186-6.321,0.944c-0.192,0.198-0.277,0.182-0.299-0.071
					c-0.07-1.008-0.521-3.735-3.516-4.649c-4.281-1.311-7.034,1.678-7.732,2.756c-0.313-2.44-2.376-4.334-4.902-4.336
					c-2.745-0.003-4.972,2.221-4.975,4.966c-0.001,2.744,2.225,4.97,4.969,4.97c1.335,0.003,2.544-0.53,3.436-1.387
					c0.028,0.026,0.04,0.073,0.025,0.168c-0.208,1.228-0.594,5.695,4.083,7.513c1.875,0.728,3.471,0.186,4.793-0.741
					c0.394-0.278,0.458-0.16,0.402,0.209c-0.169,1.148,0.045,3.608,3.492,5.006c2.624,1.066,4.176-0.025,5.193-0.965
					c0.443-0.404,0.564-0.339,0.587,0.285c0.125,3.324,2.886,5.963,6.239,5.966c3.455,0.003,6.255-2.79,6.256-6.243
					C79.6,374.152,76.803,371.389,73.349,371.352z"/>
			</g>
			<path style="fill:#060E9F;" d="M118.426,357.349c-7.026-6.132-23.264-20.249-27.662-23.549c-2.512-1.89-4.226-2.888-5.731-3.336
				c-0.675-0.204-1.611-0.437-2.815-0.438c-1.118,0-2.319,0.202-3.574,0.601c-2.842,0.899-5.673,3.15-8.413,5.326l-0.141,0.112
				c-2.552,2.028-5.188,4.126-7.183,4.572c-0.871,0.196-1.767,0.297-2.66,0.297c-2.235-0.003-4.243-0.648-4.995-1.608
				c-0.124-0.158-0.045-0.416,0.246-0.786l0.039-0.049l6.181-6.661c4.841-4.841,9.414-9.412,19.939-9.653
				c0.173-0.005,0.351-0.008,0.525-0.008c6.552,0.004,13.101,2.937,13.836,3.277c6.143,2.997,12.483,4.519,18.858,4.524
				c6.643,0.002,13.497-1.642,20.703-4.961c-0.804-0.677-1.642-1.336-2.504-1.982c-6.331,2.744-12.362,4.131-18.182,4.129
				c-5.943-0.005-11.882-1.433-17.647-4.246c-0.304-0.145-7.536-3.555-15.061-3.558c-0.197,0-0.397,0.003-0.594,0.006
				c-8.841,0.207-13.821,3.347-17.17,6.097c-3.257,0.079-6.067,0.865-8.568,1.563c-2.231,0.62-4.157,1.158-6.037,1.157
				c-0.774,0-2.167-0.071-2.292-0.075c-2.161-0.066-13.048-2.736-21.708-6.015c-0.885,0.626-1.735,1.272-2.563,1.931
				c9.047,3.709,20.057,6.579,23.532,6.803c0.967,0.064,1.997,0.173,3.028,0.175c2.298,0,4.593-0.645,6.813-1.266
				c1.311-0.369,2.758-0.769,4.28-1.061c-0.406,0.399-0.812,0.803-1.218,1.211l-6.281,6.793c-0.494,0.499-1.567,1.831-0.86,3.471
				c0.281,0.662,0.852,1.294,1.652,1.833c1.496,1.007,4.176,1.689,6.665,1.691c0.943,0.001,1.837-0.094,2.659-0.278
				c2.632-0.591,5.393-2.79,8.319-5.116c2.331-1.852,5.642-4.203,8.177-4.894c0.709-0.193,1.579-0.313,2.278-0.313
				c0.209,0.002,0.406,0.008,0.59,0.034c1.676,0.213,3.295,0.783,6.186,2.953c5.154,3.872,27.966,23.828,28.189,24.025
				c0.016,0.012,1.47,1.267,1.369,3.353c-0.054,1.163-0.7,2.196-1.822,2.912c-0.973,0.618-1.979,0.932-2.994,0.932
				c-1.524-0.003-2.575-0.717-2.642-0.766c-0.084-0.069-7.9-7.235-10.774-9.642c-0.458-0.379-0.903-0.721-1.354-0.721
				c-0.241-0.002-0.453,0.101-0.597,0.281c-0.453,0.557,0.054,1.329,0.651,1.838l9.129,9.176c0.012,0.009,1.138,1.065,1.261,2.473
				c0.072,1.521-0.655,2.793-2.167,3.784c-1.077,0.71-2.168,1.07-3.236,1.07c-1.401,0-2.386-0.639-2.604-0.79l-1.31-1.291
				c-2.393-2.355-4.865-4.79-6.673-6.299c-0.441-0.367-0.913-0.705-1.361-0.705c-0.222,0-0.422,0.082-0.575,0.244
				c-0.206,0.229-0.35,0.642,0.164,1.325c0.213,0.281,0.462,0.514,0.462,0.514l6.662,7.483c0.055,0.067,1.373,1.633,0.15,3.192
				l-0.235,0.299c-0.199,0.22-0.415,0.422-0.619,0.597c-1.137,0.933-2.655,1.033-3.256,1.033c-0.321,0-0.631-0.028-0.9-0.077
				c-0.657-0.118-1.099-0.301-1.313-0.553l-0.08-0.084c-0.365-0.376-3.723-3.804-6.502-6.123c-0.366-0.307-0.822-0.694-1.295-0.694
				c-0.233,0-0.441,0.092-0.601,0.269c-0.55,0.602,0.275,1.502,0.625,1.833l5.683,6.266c-0.006,0.055-0.078,0.184-0.216,0.382
				c-0.203,0.281-0.893,0.971-2.954,1.23c-0.247,0.033-0.502,0.046-0.754,0.046c-2.125,0-4.393-1.032-5.561-1.651
				c0.531-1.123,0.808-2.36,0.808-3.601c0.002-4.677-3.796-8.481-8.472-8.484c-0.1,0-0.206,0.003-0.306,0.006
				c0.153-2.135-0.149-6.179-4.299-7.958c-1.194-0.517-2.386-0.78-3.544-0.78c-0.906,0-1.778,0.155-2.597,0.47
				c-0.86-1.671-2.287-2.888-4.15-3.523c-1.028-0.356-2.053-0.537-3.042-0.537c-1.727,0-3.318,0.508-4.737,1.518
				c-1.36-1.691-3.413-2.692-5.576-2.692c-1.892,0-3.712,0.758-5.062,2.093c-1.768-1.35-8.784-5.808-27.562-10.071
				c-0.91-0.205-2.997-0.804-4.275-1.178c-0.212,1.017-0.374,2.044-0.48,3.081c0,0,3.463,0.829,4.145,0.983
				c19.183,4.26,25.521,8.691,26.592,9.528c-0.363,0.871-0.551,1.812-0.553,2.759c-0.002,3.962,3.221,7.19,7.187,7.193
				c0.444,0,0.885-0.039,1.318-0.119c0.597,2.916,2.506,5.127,5.422,6.262c0.852,0.327,1.715,0.496,2.561,0.496
				c0.548,0.001,1.098-0.068,1.637-0.205c0.538,1.368,1.75,3.074,4.459,4.174c0.95,0.382,1.9,0.582,2.824,0.582
				c0.754,0,1.492-0.132,2.195-0.391c1.298,3.162,4.389,5.258,7.833,5.258c2.283,0.003,4.475-0.927,6.073-2.573
				c1.369,0.761,4.257,2.137,7.176,2.141c0.378,0,0.733-0.027,1.087-0.069c2.899-0.367,4.248-1.5,4.868-2.382
				c0.111-0.153,0.213-0.317,0.298-0.487c0.685,0.197,1.437,0.357,2.298,0.36c1.584,0,3.103-0.54,4.639-1.659
				c1.509-1.088,2.581-2.65,2.735-3.979c0.003-0.018,0.006-0.038,0.008-0.057c0.508,0.105,1.03,0.159,1.551,0.159
				c1.63,0,3.233-0.508,4.765-1.512c2.955-1.938,3.468-4.468,3.42-6.124c0.517,0.108,1.045,0.164,1.57,0.164
				c1.531,0,3.032-0.461,4.465-1.373c1.832-1.17,2.934-2.963,3.101-5.049c0.115-1.418-0.237-2.849-0.985-4.078
				c4.951-2.133,16.266-6.261,29.591-9.264c-0.08-1.034-0.229-2.054-0.414-3.07C133.47,350.802,121.439,356.008,118.426,357.349z
				 M73.349,383.406c-3.131-0.003-5.676-2.436-5.791-5.537c-0.008-0.266-0.035-0.972-0.634-0.972c-0.246,0-0.459,0.148-0.705,0.37
				c-0.688,0.638-1.565,1.287-2.845,1.287c-0.58,0-1.211-0.135-1.875-0.407c-3.306-1.339-3.352-3.61-3.217-4.523
				c0.036-0.244,0.049-0.497-0.119-0.694l-0.203-0.182h-0.206c-0.168,0-0.341,0.069-0.575,0.233
				c-0.957,0.672-1.873,0.998-2.806,0.998c-0.514,0-1.04-0.103-1.567-0.306c-4.353-1.694-4.009-5.802-3.797-7.039
				c0.031-0.25-0.03-0.445-0.19-0.574l-0.307-0.253l-0.288,0.275c-0.849,0.818-1.958,1.266-3.125,1.266
				c-2.493-0.003-4.522-2.029-4.52-4.522c0.002-2.494,2.033-4.519,4.526-4.516c2.253,0,4.171,1.694,4.458,3.945l0.155,1.214
				l0.667-1.027c0.075-0.12,1.901-2.882,5.26-2.879c0.639,0,1.298,0.103,1.962,0.308c2.678,0.817,3.131,3.245,3.201,4.255
				c0.048,0.59,0.467,0.618,0.549,0.618c0.231,0,0.401-0.147,0.522-0.273c0.505-0.527,1.606-1.405,3.328-1.405
				c0.788,0.003,1.626,0.19,2.492,0.562c4.254,1.826,2.325,7.232,2.302,7.288c-0.366,0.896-0.38,1.292-0.036,1.52l0.168,0.08h0.124
				c0.192,0,0.43-0.083,0.824-0.217c0.579-0.2,1.453-0.501,2.27-0.499h0.002c3.203,0.034,5.808,2.641,5.807,5.808
				C79.155,380.806,76.549,383.406,73.349,383.406z"/>
		</g>
		<g>
			<path style="fill:#060E9F;" d="M405.245,321.738c-2.673-3.35-6.731-5.024-12.177-5.024c-5.44,0-9.499,1.673-12.171,5.024
				c-2.676,3.348-4.014,7.305-4.014,11.871c0,4.647,1.338,8.619,4.014,11.925c2.671,3.295,6.731,4.948,12.171,4.948
				c5.446,0,9.504-1.654,12.177-4.948c2.676-3.306,4.01-7.278,4.01-11.925C409.256,329.043,407.921,325.086,405.245,321.738z
				 M398.622,340.953c-1.298,1.722-3.153,2.583-5.579,2.583c-2.42,0-4.285-0.861-5.593-2.583c-1.309-1.72-1.96-4.17-1.96-7.343
				c0-3.17,0.651-5.613,1.96-7.325c1.308-1.712,3.173-2.568,5.593-2.568c2.427,0,4.281,0.856,5.579,2.568
				c1.295,1.712,1.946,4.155,1.946,7.325C400.568,336.783,399.917,339.232,398.622,340.953z"/>
			<path style="fill:#060E9F;" d="M336.924,318.937c-2.71-1.374-5.814-2.068-9.305-2.068c-5.367,0-9.155,1.401-11.36,4.196
				c-1.387,1.791-2.165,4.073-2.346,6.852h8.02c0.197-1.226,0.591-2.197,1.183-2.915c0.827-0.971,2.233-1.457,4.221-1.457
				c1.776,0,3.119,0.244,4.039,0.745c0.913,0.494,1.373,1.394,1.373,2.693c0,1.071-0.595,1.855-1.792,2.363
				c-0.667,0.292-1.772,0.534-3.323,0.728l-2.842,0.35c-3.229,0.406-5.681,1.09-7.34,2.043c-3.037,1.749-4.553,4.574-4.553,8.481
				c0,3.009,0.939,5.339,2.83,6.981c1.881,1.642,4.278,2.331,7.17,2.465c18.135,0.81,17.929-9.557,18.096-11.712v-11.932
				C340.992,322.925,339.635,320.318,336.924,318.937z M332.713,337.042c-0.055,2.779-0.852,4.693-2.381,5.742
				c-1.53,1.05-3.201,1.576-5.013,1.576c-1.148,0-2.119-0.319-2.92-0.949c-0.798-0.631-1.195-1.658-1.195-3.077
				c0-1.592,0.651-2.766,1.959-3.526c0.778-0.445,2.047-0.828,3.821-1.133l1.894-0.351c0.942-0.179,1.684-0.37,2.225-0.575
				c0.548-0.199,1.077-0.463,1.609-0.797V337.042z"/>
			<path style="fill:#060E9F;" d="M295.575,323.976c2.073,0,3.595,0.64,4.579,1.919c0.674,0.947,1.096,2.015,1.26,3.199h8.945
				c-0.491-4.513-2.07-7.663-4.736-9.448c-2.675-1.777-6.1-2.673-10.289-2.673c-4.927,0-8.797,1.514-11.591,4.534
				c-2.802,3.025-4.203,7.252-4.203,12.685c0,4.812,1.267,8.733,3.802,11.756c2.535,3.021,6.49,4.533,11.863,4.533
				c5.38,0,9.442-1.812,12.178-5.436c1.717-2.245,2.679-4.629,2.881-7.15h-8.915c-0.181,1.666-0.701,3.025-1.565,4.071
				c-0.86,1.042-2.309,1.568-4.359,1.568c-2.887,0-4.852-1.316-5.897-3.955c-0.571-1.408-0.861-3.272-0.861-5.591
				c0-2.433,0.29-4.383,0.861-5.858C290.613,325.364,292.631,323.976,295.575,323.976z"/>
			<path style="fill:#060E9F;" d="M277.142,316.973c-18.374,0-17.288,16.269-17.288,16.269v16.526h8.338v-15.501
				c0-2.539,0.322-4.42,0.956-5.643c1.145-2.167,3.379-3.255,6.714-3.255c0.251,0,0.581,0.014,0.989,0.032
				c0.405,0.02,0.867,0.056,1.397,0.118v-8.484c-0.37-0.025-0.611-0.035-0.714-0.046
				C277.429,316.981,277.297,316.973,277.142,316.973z"/>
			<path style="fill:#060E9F;" d="M246.513,341.134c-0.35,0.499-0.726,0.927-1.142,1.261c-1.177,0.97-2.777,1.265-4.661,1.265
				c-1.783,0-3.176-0.27-4.439-1.066c-2.081-1.279-3.251-3.443-3.376-6.619h23.071c0.032-2.734-0.056-4.828-0.277-6.286
				c-0.383-2.481-1.226-4.668-2.521-6.55c-1.439-2.134-3.27-3.696-5.475-4.688c-2.208-0.985-4.689-1.48-7.444-1.48
				c-4.646,0-8.418,1.464-11.328,4.389c-2.908,2.932-4.369,7.135-4.369,12.622c0,5.858,1.613,10.085,4.838,12.682
				c3.221,2.598,6.944,3.899,11.157,3.899c5.105,0,9.079-1.54,11.915-4.622c1.531-1.621,2.489-3.226,2.893-4.807H246.513z
				 M235.304,325.608c1.174-1.204,2.821-1.809,4.945-1.809c1.956,0,3.591,0.567,4.915,1.708c1.316,1.137,2.054,2.808,2.203,5.002
				h-14.267C233.397,328.447,234.136,326.816,235.304,325.608z"/>
			<g>
				<path style="fill:#060E9F;" d="M221.205,349.765h-7.616v-19.179c0-1.753-0.578-5.92-5.602-5.92c-3.35,0-5.773,2.416-5.773,5.92
					v19.179h-7.624v-19.179c0-1.753-0.52-5.92-5.541-5.92c-3.408,0-5.776,2.416-5.776,5.92v19.179h-7.621v-18.996
					c0-7.919,5.252-13.906,13.397-13.906c4.043,0,7.331,1.697,9.47,4.417c2.25-2.72,5.597-4.417,9.468-4.417
					c8.315,0,13.219,5.745,13.219,13.906V349.765z"/>
			</g>
			<path style="fill:#060E9F;" d="M374.404,306.958c0,0-8.399-0.897-8.399,5.85l-0.006,8.932c-0.929-1.492-2.139-2.66-3.631-3.5
				c-1.488-0.842-3.192-1.266-5.116-1.266c-4.166,0-7.485,1.551-9.977,4.65c-2.492,3.102-3.732,7.571-3.732,12.974
				c0,4.689,1.263,8.533,3.792,11.527c2.528,2.989,7.485,4.302,11.887,4.302c15.354,0,15.177-13.167,15.177-13.167L374.404,306.958z
				 M364.403,341.021c-1.217,1.745-3.006,2.616-5.345,2.616c-2.348,0-4.095-0.879-5.245-2.631c-1.151-1.756-1.727-4.31-1.727-7.234
				c0-2.713,0.563-4.985,1.697-6.815c1.13-1.829,2.906-2.748,5.329-2.748c1.59,0,2.983,0.504,4.188,1.511
				c1.956,1.667,2.934,4.657,2.934,8.529C366.235,337.02,365.623,339.277,364.403,341.021z"/>
		</g>
		<g>
			<g>
				<path style="fill:#00ADEE;" d="M236.538,402.689c0,1.128-0.41,2.097-1.232,2.902c-0.814,0.807-1.795,1.211-2.94,1.211h-4.165
					v-28.975c0-5.635,1.899-9.164,5.024-11.549c2.066-1.576,5.144-3.081,10.909-3.081c3.893,0,8.453,1.511,10.915,4.514
					c2.763,3.377,3.916,7.139,3.916,12.054c0,5.084-1.225,9.185-3.675,12.337c-2.451,3.067-5.599,4.595-9.441,4.595
					c-2.042,0-3.838-0.364-5.39-1.085c-1.641-0.809-2.941-2.057-3.922-3.752V402.689z M250.512,380.127
					c0-3.145-0.612-5.561-1.842-7.257c-1.224-1.687-2.981-2.541-5.27-2.541c-2.204,0-3.921,0.854-5.152,2.541
					c-1.14,1.534-1.709,3.959-1.709,7.257c0,3.074,0.61,5.362,1.838,6.895c1.222,1.696,2.982,2.541,5.27,2.541
					c2.121,0,3.799-0.845,5.023-2.541C249.9,385.329,250.512,383.038,250.512,380.127"/>
				<path style="fill:#00ADEE;" d="M314.215,394.025v-2.047c-1.443,2.26-3.394,3.66-5.84,4.229c-2.451,0.56-4.877,0.359-7.28-0.61
					c-2.411-0.963-4.48-2.757-6.207-5.372c-1.722-2.627-2.584-6.07-2.584-10.341c0-4.989,1.144-9.042,3.428-12.142
					c2.289-3.1,5.964-4.515,11.019-4.653c4.981-0.131,7.878,0.996,10.714,3.143c3.101,2.354,4.935,5.965,4.935,11.6v17.047
					c0.012,5.424-3.77,15.477-15.649,14.624c-7.36-0.533-11.445-3.553-13.724-10.394h8.788c0.642,1.124,1.623,1.991,2.954,2.59
					c1.317,0.613,2.65,0.769,3.965,0.487c1.323-0.281,2.529-1.07,3.62-2.354C313.43,398.542,314.051,396.606,314.215,394.025
					 M300.488,380.131c0,5.558,1.608,8.638,4.818,9.247c3.206,0.594,5.576-0.15,7.102-2.241c0.723-0.88,1.242-2.276,1.564-4.165
					c0.319-1.892,0.344-3.767,0.061-5.618c-0.276-1.858-0.943-3.509-1.988-4.96c-1.04-1.447-2.567-2.176-4.574-2.176
					c-2.73,0-4.571,1.012-5.536,3.017C300.966,375.255,300.488,377.55,300.488,380.131"/>
				<path style="fill:#00ADEE;" d="M285.172,365.388c-2.713-1.371-5.816-2.066-9.304-2.066c-5.371,0-9.155,1.4-11.362,4.195
					c-1.384,1.789-2.166,4.072-2.345,6.853h8.024c0.196-1.227,0.588-2.199,1.18-2.915c0.827-0.971,2.234-1.458,4.219-1.458
					c1.781,0,3.122,0.245,4.037,0.744c0.913,0.496,1.374,1.394,1.374,2.697c0,1.069-0.596,1.856-1.792,2.362
					c-0.665,0.291-1.77,0.533-3.322,0.728l-2.842,0.347c-3.228,0.409-5.682,1.093-7.338,2.044c-3.04,1.748-4.555,4.574-4.555,8.479
					c0,3.01,0.939,5.34,2.83,6.981c1.881,1.641,4.277,2.333,7.169,2.466c18.129,0.811,17.926-9.558,18.092-11.712V373.2
					C289.237,369.373,287.883,366.771,285.172,365.388 M280.958,383.492c-0.052,2.782-0.85,4.692-2.378,5.743
					c-1.527,1.048-3.199,1.573-5.012,1.573c-1.148,0-2.119-0.318-2.917-0.947c-0.801-0.63-1.201-1.659-1.201-3.078
					c0-1.59,0.655-2.766,1.963-3.526c0.779-0.445,2.046-0.827,3.82-1.13l1.893-0.352c0.946-0.179,1.688-0.368,2.222-0.574
					c0.551-0.199,1.08-0.464,1.61-0.798V383.492z"/>
				<path style="fill:#00ADEE;" d="M353.941,368.016c-2.677-3.353-6.736-5.024-12.182-5.024c-5.435,0-9.495,1.671-12.169,5.024
					c-2.676,3.347-4.012,7.302-4.012,11.871c0,4.646,1.337,8.616,4.012,11.922c2.674,3.292,6.734,4.946,12.169,4.946
					c5.446,0,9.505-1.654,12.182-4.946c2.671-3.306,4.004-7.276,4.004-11.922C357.945,375.318,356.613,371.363,353.941,368.016
					 M347.313,387.225c-1.295,1.723-3.153,2.584-5.575,2.584c-2.422,0-4.29-0.861-5.593-2.584c-1.313-1.718-1.962-4.167-1.962-7.338
					c0-3.171,0.649-5.614,1.962-7.324c1.303-1.715,3.171-2.567,5.593-2.567c2.422,0,4.28,0.852,5.575,2.567
					c1.299,1.71,1.946,4.153,1.946,7.324C349.26,383.059,348.613,385.507,347.313,387.225"/>
			</g>
		</g>
	</g>
	<g style="display:inline;">
		<g>
			<polygon style="fill:#3C58BF;" points="113.172,495.574 116.161,478.761 120.831,478.761 117.935,495.574 			"/>
			<polygon style="fill:#293688;" points="113.172,495.574 117.001,478.761 120.831,478.761 117.935,495.574 			"/>
			<path style="fill:#3C58BF;" d="M134.841,478.948c-0.934-0.374-2.428-0.747-4.297-0.747c-4.67,0-8.033,2.335-8.033,5.698
				c0,2.522,2.335,3.83,4.203,4.67c1.868,0.841,2.428,1.401,2.428,2.148c0,1.121-1.494,1.681-2.802,1.681
				c-1.868,0-2.896-0.28-4.483-0.934l-0.654-0.28l-0.654,3.83c1.121,0.467,3.176,0.934,5.324,0.934c4.95,0,8.219-2.335,8.219-5.884
				c0-1.961-1.214-3.456-4.016-4.67c-1.681-0.841-2.709-1.308-2.709-2.148c0-0.747,0.841-1.494,2.709-1.494
				c1.588,0,2.709,0.28,3.549,0.654l0.467,0.187L134.841,478.948L134.841,478.948z"/>
			<path style="fill:#293688;" d="M134.841,478.948c-0.934-0.374-2.428-0.747-4.297-0.747c-4.67,0-7.192,2.335-7.192,5.698
				c0,2.522,1.494,3.83,3.363,4.67c1.868,0.841,2.428,1.401,2.428,2.148c0,1.121-1.494,1.681-2.802,1.681
				c-1.868,0-2.896-0.28-4.483-0.934l-0.654-0.28l-0.654,3.83c1.121,0.467,3.176,0.934,5.324,0.934c4.95,0,8.219-2.335,8.219-5.884
				c0-1.961-1.214-3.456-4.016-4.67c-1.681-0.841-2.709-1.308-2.709-2.148c0-0.747,0.841-1.494,2.709-1.494
				c1.588,0,2.709,0.28,3.549,0.654l0.467,0.187L134.841,478.948L134.841,478.948z"/>
			<path style="fill:#3C58BF;" d="M142.874,478.761c-1.121,0-1.961,0.093-2.428,1.214l-7.005,15.598h5.044l0.934-2.802h5.978
				l0.56,2.802h4.483l-3.923-16.813H142.874z M140.726,489.97c0.28-0.841,1.868-4.95,1.868-4.95s0.374-1.027,0.654-1.681l0.28,1.588
				c0,0,0.934,4.203,1.121,5.137h-3.923V489.97z"/>
			<path style="fill:#293688;" d="M143.995,478.761c-1.121,0-1.961,0.093-2.428,1.214l-8.126,15.598h5.044l0.934-2.802h5.978
				l0.56,2.802h4.483l-3.923-16.813H143.995z M140.726,489.97c0.374-0.934,1.868-4.95,1.868-4.95s0.374-1.027,0.654-1.681
				l0.28,1.588c0,0,0.934,4.203,1.121,5.137h-3.923V489.97z"/>
			<path style="fill:#3C58BF;" d="M104.579,490.53l-0.467-2.428c-0.841-2.802-3.549-5.884-6.538-7.379l4.203,14.945h5.044
				l7.566-16.813h-5.044L104.579,490.53z"/>
			<path style="fill:#293688;" d="M104.579,490.53l-0.467-2.428c-0.841-2.802-3.549-5.884-6.538-7.379l4.203,14.945h5.044
				l7.566-16.813h-4.11L104.579,490.53z"/>
			<path style="fill:#FFBC00;" d="M91.596,478.761l0.841,0.187c5.978,1.401,10.088,4.95,11.675,9.154l-1.681-7.939
				c-0.28-1.121-1.121-1.401-2.148-1.401H91.596z"/>
			<path style="fill:#F7981D;" d="M91.596,478.761L91.596,478.761c5.978,1.401,10.928,5.044,12.516,9.247l-1.588-6.632
				c-0.28-1.121-1.214-1.775-2.242-1.775L91.596,478.761z"/>
			<path style="fill:#ED7C00;" d="M91.596,478.761L91.596,478.761c5.978,1.401,10.928,5.044,12.516,9.247l-1.121-3.643
				c-0.28-1.121-0.654-2.242-1.961-2.709L91.596,478.761z"/>
			<g>
				<path style="fill:#051244;" d="M109.249,489.97l-3.176-3.176l-1.494,3.549l-0.374-2.335c-0.841-2.802-3.549-5.884-6.538-7.379
					l4.203,14.945h5.044L109.249,489.97z"/>
				<polygon style="fill:#051244;" points="117.935,495.574 113.919,491.464 113.172,495.574 				"/>
				<path style="fill:#051244;" d="M128.677,489.783L128.677,489.783c0.374,0.374,0.56,0.654,0.467,1.027
					c0,1.121-1.494,1.681-2.802,1.681c-1.868,0-2.896-0.28-4.483-0.934l-0.654-0.28l-0.654,3.83
					c1.121,0.467,3.176,0.934,5.324,0.934c2.989,0,5.417-0.841,6.818-2.335L128.677,489.783z"/>
				<path style="fill:#051244;" d="M134.094,495.574h4.39l0.934-2.802h5.978l0.56,2.802h4.483l-1.588-6.818l-5.604-5.417l0.28,1.494
					c0,0,0.934,4.203,1.121,5.137h-3.923c0.374-0.934,1.868-4.95,1.868-4.95s0.374-1.027,0.654-1.681"/>
			</g>
		</g>
		<g>
			<path style="fill:#FFB600;" d="M212.354,487.121c0,6.584-5.318,11.965-11.965,11.965c-6.584,0-11.965-5.381-11.965-11.965l0,0
				c0-6.584,5.318-11.964,11.901-11.964C207.037,475.156,212.354,480.537,212.354,487.121L212.354,487.121z"/>
			<path style="fill:#F7981D;" d="M200.39,475.156c6.584,0,11.965,5.381,11.965,11.964l0,0c0,6.584-5.318,11.965-11.965,11.965
				c-6.584,0-11.965-5.381-11.965-11.965"/>
			<path style="fill:#FF8500;" d="M200.39,475.156c6.584,0,11.965,5.381,11.965,11.964l0,0c0,6.584-5.318,11.965-11.965,11.965"/>
			<path style="fill:#FF5050;" d="M184.31,475.156c-6.52,0.063-11.838,5.381-11.838,11.964c0,6.584,5.318,11.965,11.965,11.965
				c3.102,0,5.887-1.203,8.04-3.102l0,0l0,0c0.443-0.38,0.823-0.823,1.203-1.266h-2.469c-0.317-0.38-0.633-0.823-0.886-1.203h4.241
				c0.253-0.38,0.506-0.823,0.696-1.266h-5.634c-0.19-0.38-0.38-0.823-0.506-1.266h6.584c0.38-1.203,0.633-2.469,0.633-3.798
				c0-0.886-0.127-1.709-0.253-2.532h-7.343c0.063-0.443,0.19-0.823,0.317-1.266h6.584c-0.127-0.443-0.317-0.886-0.506-1.266h-5.571
				c0.19-0.443,0.443-0.823,0.696-1.266h4.241c-0.253-0.443-0.57-0.886-0.95-1.266h-2.342c0.38-0.443,0.76-0.823,1.203-1.203
				c-2.089-1.962-4.938-3.102-8.04-3.102C184.374,475.156,184.374,475.156,184.31,475.156z"/>
			<path style="fill:#E52836;" d="M172.472,487.121c0,6.584,5.318,11.965,11.965,11.965c3.102,0,5.887-1.203,8.04-3.102l0,0l0,0
				c0.443-0.38,0.823-0.823,1.203-1.266h-2.469c-0.317-0.38-0.633-0.823-0.886-1.203h4.241c0.253-0.38,0.506-0.823,0.696-1.266
				h-5.634c-0.19-0.38-0.38-0.823-0.506-1.266h6.584c0.38-1.203,0.633-2.469,0.633-3.798c0-0.886-0.127-1.709-0.253-2.532h-7.343
				c0.063-0.443,0.19-0.823,0.317-1.266h6.584c-0.127-0.443-0.317-0.886-0.506-1.266h-5.571c0.19-0.443,0.443-0.823,0.696-1.266
				h4.241c-0.253-0.443-0.57-0.886-0.95-1.266h-2.342c0.38-0.443,0.76-0.823,1.203-1.203c-2.089-1.962-4.938-3.102-8.04-3.102
				h-0.063"/>
			<path style="fill:#CB2026;" d="M184.437,499.085c3.102,0,5.887-1.203,8.04-3.102l0,0l0,0c0.443-0.38,0.823-0.823,1.203-1.266
				h-2.469c-0.317-0.38-0.633-0.823-0.886-1.203h4.241c0.253-0.38,0.506-0.823,0.696-1.266h-5.634
				c-0.19-0.38-0.38-0.823-0.506-1.266h6.584c0.38-1.203,0.633-2.469,0.633-3.798c0-0.886-0.127-1.709-0.253-2.532h-7.343
				c0.063-0.443,0.19-0.823,0.317-1.266h6.584c-0.127-0.443-0.317-0.886-0.506-1.266h-5.571c0.19-0.443,0.443-0.823,0.696-1.266
				h4.241c-0.253-0.443-0.57-0.886-0.95-1.266h-2.342c0.38-0.443,0.76-0.823,1.203-1.203c-2.089-1.962-4.938-3.102-8.04-3.102
				h-0.063"/>
			<g>
				<path style="fill:#FFFFFF;" d="M188.678,490.159l0.19-1.076c-0.063,0-0.19,0.063-0.317,0.063c-0.443,0-0.506-0.253-0.443-0.38
					l0.38-2.216h0.696l0.19-1.203h-0.633l0.127-0.76h-1.266c0,0-0.76,4.178-0.76,4.685c0,0.76,0.443,1.076,1.013,1.076
					C188.235,490.349,188.552,490.223,188.678,490.159z"/>
				<path style="fill:#FFFFFF;" d="M189.121,488.134c0,1.773,1.203,2.216,2.216,2.216c0.95,0,1.329-0.19,1.329-0.19l0.253-1.203
					c0,0-0.696,0.316-1.329,0.316c-1.393,0-1.139-1.013-1.139-1.013h2.595c0,0,0.19-0.823,0.19-1.139
					c0-0.823-0.443-1.836-1.836-1.836C190.071,485.158,189.121,486.551,189.121,488.134z M191.337,486.298
					c0.696,0,0.57,0.823,0.57,0.886h-1.393C190.514,487.121,190.641,486.298,191.337,486.298z"/>
				<path style="fill:#FFFFFF;" d="M199.377,490.159l0.253-1.393c0,0-0.633,0.316-1.076,0.316c-0.886,0-1.266-0.696-1.266-1.456
					c0-1.519,0.76-2.342,1.646-2.342c0.633,0,1.139,0.38,1.139,0.38l0.19-1.329c0,0-0.76-0.317-1.456-0.317
					c-1.456,0-2.912,1.266-2.912,3.672c0,1.583,0.76,2.659,2.279,2.659C198.68,490.349,199.377,490.159,199.377,490.159z"/>
				<path style="fill:#FFFFFF;" d="M181.715,485.158c-0.886,0-1.519,0.253-1.519,0.253l-0.19,1.076c0,0,0.57-0.253,1.393-0.253
					c0.443,0,0.823,0.063,0.823,0.443c0,0.253-0.063,0.317-0.063,0.317s-0.38,0-0.57,0c-1.076,0-2.279,0.443-2.279,1.899
					c0,1.139,0.76,1.393,1.203,1.393c0.886,0,1.266-0.57,1.329-0.57l-0.063,0.506h1.139l0.506-3.482
					C183.424,485.222,182.158,485.158,181.715,485.158z M181.968,488.007c0,0.19-0.127,1.203-0.886,1.203
					c-0.38,0-0.506-0.317-0.506-0.506c0-0.316,0.19-0.76,1.139-0.76C181.905,488.007,181.968,488.007,181.968,488.007z"/>
				<path style="fill:#FFFFFF;" d="M184.627,490.286c0.317,0,1.899,0.063,1.899-1.646c0-1.583-1.519-1.266-1.519-1.899
					c0-0.316,0.253-0.443,0.696-0.443c0.19,0,0.886,0.063,0.886,0.063l0.19-1.139c0,0-0.443-0.127-1.203-0.127
					c-0.95,0-1.899,0.38-1.899,1.646c0,1.456,1.583,1.329,1.583,1.899c0,0.38-0.443,0.443-0.76,0.443c-0.57,0-1.139-0.19-1.139-0.19
					l-0.19,1.139C183.234,490.159,183.551,490.286,184.627,490.286z"/>
				<path style="fill:#FFFFFF;" d="M209.885,484.145l-0.253,1.709c0,0-0.506-0.633-1.203-0.633c-1.139,0-2.152,1.393-2.152,3.039
					c0,1.013,0.506,2.089,1.583,2.089c0.76,0,1.203-0.506,1.203-0.506l-0.063,0.443h1.266l0.95-6.077L209.885,484.145z
					 M209.315,487.501c0,0.696-0.317,1.583-1.013,1.583c-0.443,0-0.696-0.38-0.696-1.013c0-1.013,0.443-1.646,1.013-1.646
					C209.062,486.424,209.315,486.741,209.315,487.501z"/>
				<path style="fill:#FFFFFF;" d="M174.815,490.223l0.76-4.558l0.127,4.558h0.886l1.646-4.558l-0.696,4.558h1.329l1.013-6.077
					h-2.089l-1.266,3.735l-0.063-3.735h-1.836l-1.013,6.077H174.815z"/>
				<path style="fill:#FFFFFF;" d="M194.439,490.223c0.38-2.089,0.443-3.798,1.329-3.482c0.127-0.823,0.317-1.139,0.443-1.456
					c0,0-0.063,0-0.253,0c-0.57,0-1.013,0.76-1.013,0.76l0.127-0.696h-1.203l-0.823,4.938h1.393V490.223z"/>
				<path style="fill:#FFFFFF;" d="M202.289,485.158c-0.886,0-1.519,0.253-1.519,0.253l-0.19,1.076c0,0,0.57-0.253,1.393-0.253
					c0.443,0,0.823,0.063,0.823,0.443c0,0.253-0.063,0.317-0.063,0.317s-0.38,0-0.57,0c-1.076,0-2.279,0.443-2.279,1.899
					c0,1.139,0.76,1.393,1.203,1.393c0.886,0,1.266-0.57,1.329-0.57l-0.063,0.506h1.139l0.506-3.482
					C204.061,485.222,202.732,485.158,202.289,485.158z M202.605,488.007c0,0.19-0.127,1.203-0.886,1.203
					c-0.38,0-0.506-0.317-0.506-0.506c0-0.316,0.19-0.76,1.139-0.76C202.542,488.007,202.542,488.007,202.605,488.007z"/>
				<path style="fill:#FFFFFF;" d="M205.074,490.223c0.38-2.089,0.443-3.798,1.329-3.482c0.127-0.823,0.317-1.139,0.443-1.456
					c0,0-0.063,0-0.253,0c-0.57,0-1.013,0.76-1.013,0.76l0.127-0.696h-1.203l-0.823,4.938h1.393V490.223z"/>
			</g>
			<g>
				<path style="fill:#DCE5E5;" d="M186.716,489.273c0,0.76,0.443,1.076,1.013,1.076c0.443,0,0.823-0.127,0.95-0.19l0.19-1.076
					c-0.063,0-0.19,0.063-0.317,0.063c-0.443,0-0.506-0.253-0.443-0.38l0.38-2.216h0.696l0.19-1.203h-0.633l0.127-0.76"/>
				<path style="fill:#DCE5E5;" d="M189.754,488.134c0,1.773,0.57,2.216,1.583,2.216c0.95,0,1.329-0.19,1.329-0.19l0.253-1.203
					c0,0-0.696,0.316-1.329,0.316c-1.393,0-1.139-1.013-1.139-1.013h2.595c0,0,0.19-0.823,0.19-1.139
					c0-0.823-0.443-1.836-1.836-1.836C190.071,485.158,189.754,486.551,189.754,488.134z M191.337,486.298
					c0.696,0,0.823,0.823,0.823,0.886h-1.646C190.514,487.121,190.641,486.298,191.337,486.298z"/>
				<path style="fill:#DCE5E5;" d="M199.377,490.159l0.253-1.393c0,0-0.633,0.316-1.076,0.316c-0.886,0-1.266-0.696-1.266-1.456
					c0-1.519,0.76-2.342,1.646-2.342c0.633,0,1.139,0.38,1.139,0.38l0.19-1.329c0,0-0.76-0.317-1.456-0.317
					c-1.456,0-2.279,1.266-2.279,3.672c0,1.583,0.127,2.659,1.646,2.659C198.68,490.349,199.377,490.159,199.377,490.159z"/>
				<path style="fill:#DCE5E5;" d="M180.006,486.551c0,0,0.57-0.253,1.393-0.253c0.443,0,0.823,0.063,0.823,0.443
					c0,0.253-0.063,0.317-0.063,0.317s-0.38,0-0.57,0c-1.076,0-2.279,0.443-2.279,1.899c0,1.139,0.76,1.393,1.203,1.393
					c0.886,0,1.266-0.57,1.329-0.57l-0.063,0.506h1.139l0.506-3.482c0-1.456-1.266-1.519-1.773-1.519 M182.601,488.007
					c0,0.19-0.76,1.203-1.519,1.203c-0.38,0-0.506-0.317-0.506-0.506c0-0.316,0.19-0.76,1.139-0.76
					C181.905,488.007,182.601,488.007,182.601,488.007z"/>
				<path style="fill:#DCE5E5;" d="M183.234,490.159c0,0,0.38,0.127,1.456,0.127c0.317,0,1.899,0.063,1.899-1.646
					c0-1.583-1.519-1.266-1.519-1.899c0-0.316,0.253-0.443,0.696-0.443c0.19,0,0.886,0.063,0.886,0.063l0.19-1.139
					c0,0-0.443-0.127-1.203-0.127c-0.95,0-1.266,0.38-1.266,1.646c0,1.456,0.95,1.329,0.95,1.899c0,0.38-0.443,0.443-0.76,0.443"/>
				<path style="fill:#DCE5E5;" d="M209.632,485.855c0,0-0.506-0.633-1.203-0.633c-1.139,0-1.519,1.393-1.519,3.039
					c0,1.013-0.127,2.089,0.95,2.089c0.76,0,1.203-0.506,1.203-0.506l-0.063,0.443h1.266l0.95-6.077 M209.569,487.501
					c0,0.696-0.57,1.583-1.266,1.583c-0.443,0-0.696-0.38-0.696-1.013c0-1.013,0.443-1.646,1.013-1.646
					C209.062,486.424,209.569,486.741,209.569,487.501z"/>
				<path style="fill:#DCE5E5;" d="M174.815,490.223l0.76-4.558l0.127,4.558h0.886l1.646-4.558l-0.696,4.558h1.329l1.013-6.077
					h-1.583l-1.773,3.735l-0.063-3.735h-0.696l-2.152,6.077H174.815z"/>
				<path style="fill:#DCE5E5;" d="M193.11,490.223h1.329c0.38-2.089,0.443-3.798,1.329-3.482c0.127-0.823,0.317-1.139,0.443-1.456
					c0,0-0.063,0-0.253,0c-0.57,0-1.013,0.76-1.013,0.76l0.127-0.696"/>
				<path style="fill:#DCE5E5;" d="M200.579,486.551c0,0,0.57-0.253,1.393-0.253c0.443,0,0.823,0.063,0.823,0.443
					c0,0.253-0.063,0.317-0.063,0.317s-0.38,0-0.57,0c-1.076,0-2.279,0.443-2.279,1.899c0,1.139,0.76,1.393,1.203,1.393
					c0.886,0,1.266-0.57,1.329-0.57l-0.063,0.506h1.139l0.506-3.482c0-1.456-1.266-1.519-1.773-1.519 M203.175,488.007
					c0,0.19-0.76,1.203-1.519,1.203c-0.38,0-0.506-0.317-0.506-0.506c0-0.316,0.19-0.76,1.139-0.76
					C202.542,488.007,203.175,488.007,203.175,488.007z"/>
				<path style="fill:#DCE5E5;" d="M203.745,490.223h1.329c0.38-2.089,0.443-3.798,1.329-3.482c0.127-0.823,0.317-1.139,0.443-1.456
					c0,0-0.063,0-0.253,0c-0.57,0-1.013,0.76-1.013,0.76l0.127-0.696"/>
			</g>
		</g>
		<g>
			<g>
				<g>
					<g>
						<g>
							<g>
								<rect x="230.224" y="475.232" style="fill:#006546;" width="22.91" height="23.778"/>
								<path style="fill:#FFFFFF;" d="M244.527,496.669v0.892h-5.495v-0.893h-4.159c-0.407,0-0.737-0.425-0.737-0.948
									l-1.739-17.597c0-0.524,0.405-0.948,0.905-0.948h16.802c0.5,0,0.906,0.425,0.906,0.948l-1.72,17.597
									c0,0.523-0.33,0.948-0.737,0.948L244.527,496.669z"/>
								<path style="fill:#FF6600;" d="M235.455,479.751h11.251c-1.108,0.415-4.48,2.698-5.322,4.233h-5.916L235.455,479.751z"/>
								<path style="fill:#FE000C;" d="M244.421,491.88c-0.16,1.533-0.166,3.4-0.166,5.359h-4.877c0-1.96,0.08-3.827,0.24-5.359
									H244.421z"/>
								<polygon style="fill:#006546;" points="235.096,488.365 236.878,488.365 236.878,489.071 236.098,489.071 236.098,489.665 
									236.878,489.665 236.878,490.259 236.098,490.259 236.098,490.853 236.878,490.853 236.878,491.534 235.096,491.534 
																	"/>
								<polygon style="fill:#006546;" points="239.242,488.365 241.025,488.365 241.025,489.071 240.245,489.071 240.245,489.665 
									241.025,489.665 241.025,490.259 240.245,490.259 240.245,490.853 241.025,490.853 241.025,491.534 239.242,491.534 
																	"/>
								<polygon style="fill:#006546;" points="243.81,488.365 245.592,488.365 245.592,489.071 244.812,489.071 244.812,489.665 
									245.592,489.665 245.592,490.259 244.812,490.259 244.812,490.853 245.592,490.853 245.592,491.534 243.81,491.534 								
									"/>
								<polygon style="fill:#006546;" points="238.215,490.853 238.995,490.853 238.995,491.534 237.213,491.534 237.213,488.365 
									238.215,488.365 								"/>
								<polygon style="fill:#006546;" points="241.207,488.365 241.704,491.534 242.992,491.534 243.596,488.365 242.85,488.365 
									242.46,490.506 242.082,488.365 								"/>
								<rect x="246.012" y="488.365" style="fill:#006546;" width="0.965" height="3.168"/>
								<path style="fill:#006546;" d="M246.978,489.306c0.05-0.347,0.545-0.254,0.545-0.056v2.284h0.965v-2.686
									c0-0.569-0.804-0.798-1.504-0.297"/>
								<path style="fill:#FE000C;" d="M244.874,487.92c0.099-1.213,1.757-3.193,3.366-3.713v-4.678
									c-4.425,1.98-7.303,4.975-7.925,8.379L244.874,487.92z"/>
								<path style="fill:#006546;" d="M246.157,493.227c-0.125,0.125-0.276,0.188-0.453,0.188c-0.177,0-0.328-0.063-0.452-0.188
									c-0.124-0.125-0.186-0.276-0.186-0.454c0-0.175,0.063-0.326,0.188-0.451c0.124-0.124,0.274-0.186,0.45-0.186
									c0.177,0,0.328,0.062,0.453,0.186c0.125,0.124,0.188,0.275,0.188,0.451C246.345,492.951,246.282,493.102,246.157,493.227
									 M245.314,492.386c-0.107,0.107-0.16,0.237-0.16,0.389c0,0.153,0.053,0.284,0.16,0.391c0.107,0.108,0.237,0.162,0.39,0.162
									c0.153,0,0.283-0.054,0.391-0.162c0.107-0.108,0.16-0.238,0.16-0.391c0-0.152-0.053-0.281-0.16-0.389
									c-0.108-0.108-0.238-0.162-0.391-0.162C245.552,492.224,245.422,492.278,245.314,492.386 M245.692,492.421
									c0.087,0,0.152,0.009,0.192,0.025c0.073,0.03,0.109,0.09,0.109,0.178c0,0.063-0.023,0.109-0.068,0.139
									c-0.024,0.016-0.058,0.027-0.101,0.034c0.054,0.009,0.094,0.032,0.119,0.069c0.026,0.037,0.039,0.073,0.039,0.109v0.051
									c0,0.016,0,0.034,0.001,0.052c0.001,0.018,0.003,0.031,0.006,0.036l0.005,0.009h-0.116c0-0.003-0.001-0.005-0.001-0.007
									c0-0.003-0.001-0.005-0.002-0.008l-0.002-0.022v-0.056c0-0.081-0.023-0.135-0.067-0.161
									c-0.027-0.015-0.073-0.023-0.138-0.023h-0.098v0.276h-0.123v-0.702H245.692z M245.827,492.534
									c-0.032-0.017-0.082-0.026-0.151-0.026h-0.107v0.251h0.113c0.053,0,0.093-0.005,0.119-0.015
									c0.049-0.019,0.073-0.055,0.073-0.109C245.874,492.585,245.859,492.551,245.827,492.534"/>
							</g>
						</g>
					</g>
				</g>
			</g>
		</g>
		<g>
			<path style="fill-rule:evenodd;clip-rule:evenodd;fill:#EEA42D;" d="M278.002,477.551c0-0.822,0.673-1.495,1.495-1.495h45.024
				c0.822,0,1.495,0.673,1.495,1.495v19.139c0,0.822-0.673,1.495-1.495,1.495h-45.024c-0.822,0-1.495-0.673-1.495-1.495V477.551
				L278.002,477.551z"/>
			<polygon style="fill-rule:evenodd;clip-rule:evenodd;fill:#FFFFFF;" points="278.002,478.229 326.016,478.229 326.016,496.013 
				278.002,496.013 278.002,478.229 			"/>
			<path style="fill-rule:evenodd;clip-rule:evenodd;fill:#EC1C24;" d="M318.693,482.847c-2.197,0-3.988,1.791-3.988,3.988
				c0,2.196,1.791,3.987,3.988,3.987c2.196,0,3.987-1.791,3.987-3.987C322.68,484.638,320.889,482.847,318.693,482.847
				L318.693,482.847z"/>
			<path style="fill-rule:evenodd;clip-rule:evenodd;fill:#EC1C24;" d="M285.826,482.847c-2.197,0-3.988,1.791-3.988,3.988
				c0,2.196,1.791,3.987,3.988,3.987c2.196,0,3.987-1.791,3.987-3.987C289.813,484.638,288.022,482.847,285.826,482.847
				L285.826,482.847z"/>
			<path style="fill-rule:evenodd;clip-rule:evenodd;fill:#EC1C24;" d="M318.38,479.338c-3.691-0.085-5.427,2.282-7.945,5.202
				l-2.376,2.753l3.762,4.504c0.896,1.384-0.814,2.757-1.876,1.491l-3.478-4.149l-3.39,3.929c-1.079,1.251-2.771-0.147-1.855-1.518
				l3.68-4.279l-2.411-2.876l1.551-1.921l2.452,2.945l2.113-2.458c1.037-1.205,2.095-2.803,3.465-3.624h-34.07v15.566h7.966
				c3.692,0,5.368-2.207,7.818-5.184l2.312-2.808l-3.866-4.416c-0.927-1.363,0.751-2.775,1.842-1.534l3.573,4.068l3.299-4.007
				c1.05-1.276,2.773,0.083,1.889,1.475l-3.58,4.363l2.477,2.82l-1.56,1.848l-2.465-2.78l-2.056,2.506
				c-1.009,1.229-2.031,2.797-3.382,3.649h33.749v-15.566H318.38L318.38,479.338z M292.126,486.835c0,3.47-2.829,6.3-6.299,6.3
				c-3.471,0-6.3-2.83-6.3-6.3c0-3.471,2.829-6.3,6.3-6.3C289.296,480.535,292.126,483.365,292.126,486.835L292.126,486.835z
				 M318.693,493.135c-3.47,0-6.3-2.83-6.3-6.3c0-3.471,2.83-6.3,6.3-6.3c3.47,0,6.3,2.829,6.3,6.3
				C324.992,490.305,322.163,493.135,318.693,493.135L318.693,493.135z"/>
		</g>
	</g>
</g>
</svg>
